<?xml version="1.0" encoding="UTF-8"?>
<svg id="_レイヤー_1" data-name="レイヤー_1" xmlns="http://www.w3.org/2000/svg" viewBox="0 0 250 250">
  <defs>
    <style>
      .cls-1 {
        fill-rule: evenodd;
      }

      .cls-1, .cls-2 {
        fill: none;
        stroke: #273a6d;
        stroke-linecap: round;
        stroke-linejoin: round;
        stroke-width: 16px;
      }

      .cls-3 {
        fill: #273a6d;
      }
    </style>
  </defs>
  <path class="cls-3" d="M201.4,216.98H48.6c-7.5,0-13.57-6.08-13.57-13.57V50.6c0-7.5,6.08-13.57,13.57-13.57h78.4c4.42,0,8,3.58,8,8h0c0,4.42-3.58,8-8,8H55.13c-2.27,0-4.11,1.84-4.11,4.11v139.74c0,2.27,1.84,4.11,4.11,4.11h139.74c2.27,0,4.11-1.84,4.11-4.11v-71.87c0-4.42,3.58-8,8-8h0c4.42,0,8,3.58,8,8v78.4c0,7.5-6.08,13.57-13.57,13.57Z"/>
  <g>
    <line class="cls-2" x1="133.36" y1="118.64" x2="213.49" y2="38.51"/>
    <polyline class="cls-1" points="215.02 81.28 215.34 36.66 170.72 36.98"/>
  </g>
</svg>