<?xml version="1.0" encoding="UTF-8"?><svg id="_レイヤー_2" xmlns="http://www.w3.org/2000/svg" viewBox="0 0 337.15 95.9"><defs><style>.cls-1{fill:#fff;}</style></defs><g id="_編集モード"><g><g><path class="cls-1" d="m72.33,33.98s-3.85,11.48-7.62,14.74c-5.84,5.06-13.15,6.63-21.12,10.9-6.62,3.54-26.2,11.91-39.35,32.1,0,0,6.73-20.67,21.5-31.87,14.77-11.2,24.57-14.62,31.17-17.85,6.62-3.23,15.43-8.03,15.43-8.03Z"/><path class="cls-1" d="m89.73,0s-4.95,13.84-8.23,18.51-5.73,7.49-10.56,9.68c-4.83,2.18-28.35,11.53-43.57,23.2C12.15,63.06,3.54,80.57.02,93.44c0,0-.92-18.71,9.91-36.96,11.55-19.46,27.28-28.43,41.77-36.87,14.62-8.52,30.25-13.87,38.04-19.62Z"/><path class="cls-1" d="m42.08,66.93c9.1-2.47,16.63-2.13,16.73,6.31v-.02c-.44,5.17-1.28,9.45-4.67,12.44-9.27,8.17-27.61-5.62-36.39-23.51-8.78-17.89-6.72-36.37,4.61-41.27,5.58-2.42,11.43-2.57,18.08.86l2.47-1.25c-7.6-5.63-18.39-8.67-26.78-4.85C1.54,22.28-1.78,45.25,8.71,66.94c10.49,21.7,31.97,33.78,46.55,27.14,11.32-5.15,16.76-19.39,14.01-40.41,0,0-15.73,4.83-27.19,13.26Z"/></g><g><polygon class="cls-1" points="99.32 38.36 99.32 44.11 99.32 54.66 99.32 60.42 99.32 76.72 105.08 76.72 105.08 60.42 122.34 60.42 122.34 54.66 105.08 54.66 105.08 44.11 125.22 44.11 125.22 38.36 105.08 38.36 99.32 38.36"/><polygon class="cls-1" points="306.46 47.95 300.71 47.95 300.71 52.74 294 52.74 294 58.5 300.71 58.5 300.71 76.72 306.46 76.72 306.46 58.5 313.18 58.5 313.18 52.74 306.46 52.74 306.46 47.95"/><path class="cls-1" d="m209.61,62.33v14.38h5.75v-14.38h0c0-4.77,3.86-8.63,8.63-8.63v-5.75c-7.94,0-14.38,6.44-14.38,14.38Z"/><path class="cls-1" d="m337.15,63.29c0-5.83-4.72-10.55-10.55-10.55-1.73,0-3.36.42-4.79,1.15v-15.54h-5.75v38.36h5.75v-13.43c0-2.65,2.15-4.79,4.79-4.79s4.79,2.15,4.79,4.79v13.43h5.75v-13.43h0Z"/><path class="cls-1" d="m205.77,54.66h-18.22v5.75h13.12c-1.32,6.03-6.69,10.55-13.12,10.55-7.41,0-13.43-6.01-13.43-13.43s6.01-13.43,13.43-13.43c3.48,0,6.65,1.33,9.04,3.5l4.07-4.07c-3.43-3.21-8.04-5.18-13.11-5.18-10.59,0-19.18,8.59-19.18,19.18s8.59,19.18,19.18,19.18,19.18-8.59,19.18-19.18c0-.98-.08-1.94-.22-2.88h-.74Z"/><path class="cls-1" d="m238.38,47.95c-7.94,0-14.38,6.44-14.38,14.38s6.44,14.38,14.38,14.38,14.38-6.44,14.38-14.38-6.44-14.38-14.38-14.38Zm0,23.14c-4.83,0-8.75-3.92-8.75-8.75s3.92-8.75,8.75-8.75,8.75,3.92,8.75,8.75-3.92,8.75-8.75,8.75Z"/><polygon class="cls-1" points="280.06 68.17 275.37 54.53 269.41 54.53 264.72 68.17 257.76 47.95 251.8 47.95 261.71 76.72 267.73 76.72 272.39 63.18 277.05 76.72 283.07 76.72 292.98 47.95 287.02 47.95 280.06 68.17"/><path class="cls-1" d="m151.11,71.09c-2.43,0-4.63-.99-6.21-2.59l14.9-7.27h0s5.23-2.55,5.23-2.55c-1.62-6.17-7.23-10.73-13.92-10.73-7.94,0-14.38,6.44-14.38,14.38s6.44,14.38,14.38,14.38c7.29,0,13.32-5.43,14.26-12.47h-5.72c-.87,3.91-4.37,6.84-8.54,6.84Zm-8.75-8.75c0-4.83,3.92-8.75,8.75-8.75,2.43,0,4.63.99,6.21,2.59l-14.9,7.27c-.05-.36-.07-.73-.07-1.1Z"/><rect class="cls-1" x="128.09" y="38.36" width="5.88" height="38.36"/></g></g></g></svg>