<svg xmlns="http://www.w3.org/2000/svg" xmlns:xlink="http://www.w3.org/1999/xlink" width="1201" height="821" viewBox="0 0 1201 821"><defs><filter id="a" x="29" y="326" width="1126" height="177" filterUnits="userSpaceOnUse"><feOffset dy="4" input="SourceAlpha"/><feGaussianBlur stdDeviation="10" result="b"/><feFlood flood-opacity="0.302"/><feComposite operator="in" in2="b"/><feComposite in="SourceGraphic"/></filter></defs><g transform="translate(-2878 -19210)"><rect width="170" height="8" rx="4" transform="translate(3735 19843)" fill="#cd403c"/><text transform="translate(3820 19829)" fill="#fff" font-size="56" font-family="Montserrat-Medium, Montserrat" font-weight="500" letter-spacing="0.056em"><tspan x="-85.316" y="0">Value</tspan></text><rect width="188" height="8" rx="4" transform="translate(3014 19843)" fill="#cd403c"/><text transform="translate(3108 19829)" fill="#fff" font-size="56" font-family="Montserrat-Medium, Montserrat" font-weight="500" letter-spacing="0.056em"><tspan x="-93.884" y="0">Vision</tspan></text><g transform="matrix(1, 0, 0, 1, 2878, 19210)" filter="url(#a)"><text transform="translate(592 445)" fill="#fff" font-size="96" font-family="Montserrat-Light, Montserrat" font-weight="300" opacity="0.6"><tspan x="-532.272" y="0">Building the Evolution</tspan></text></g><text transform="translate(3470 19358)" fill="#fff" font-size="28" font-family="NotoSansJP-Regular, Noto Sans JP" letter-spacing="0.028em"><tspan x="-85.96" y="0">信頼性の高い</tspan><tspan x="-186.424" y="50">サービス・ソリューションを</tspan><tspan x="-57.176" y="100">創造する</tspan></text><text transform="translate(3108 19923)" fill="#fff" font-size="28" font-family="NotoSansJP-Regular, Noto Sans JP" letter-spacing="0.028em"><tspan x="-229.88" y="0">「今はない何かを創りたい」という</tspan><tspan x="-229.32" y="50">お客様、パートナー、そして社員の</tspan><tspan x="-215.348" y="100">想いに応えられる会社でありたい</tspan></text><text transform="translate(3820 19923)" fill="#fff" font-size="28" font-family="NotoSansJP-Regular, Noto Sans JP" letter-spacing="0.028em"><tspan x="-258.664" y="0">競争力のあるサービスを提供しながら、</tspan><tspan x="-257.964" y="50">スピード感をもって安定的かつ革新的な</tspan><tspan x="-229.32" y="100">システム開発にチャレンジし続ける</tspan></text><rect width="234" height="8" rx="4" transform="translate(3353 19278)" fill="#cd403c"/><text transform="translate(3470 19264)" fill="#fff" font-size="56" font-family="Montserrat-Medium, Montserrat" font-weight="500" letter-spacing="0.056em"><tspan x="-116.676" y="0">Mission</tspan></text><g transform="translate(3291 19490)" fill="none"><path d="M179,0,358,332H0Z" stroke="none"/><path d="M 179 2.107177734375 L 1.675262451171875 331 L 356.3247375488281 331 L 179 2.107177734375 M 179 0 L 358 332 L 0 332 L 179 0 Z" stroke="none" fill="#cd403c"/></g></g></svg>