<svg xmlns="http://www.w3.org/2000/svg" xmlns:xlink="http://www.w3.org/1999/xlink" width="374" height="529" viewBox="0 0 374 529"><defs><filter id="a" x="63" y="133" width="248" height="229" filterUnits="userSpaceOnUse"><feOffset dy="4" input="SourceAlpha"/><feGaussianBlur stdDeviation="10" result="b"/><feFlood flood-opacity="0.302"/><feComposite operator="in" in2="b"/><feComposite in="SourceGraphic"/></filter></defs><g transform="translate(-2996 -20370.988)"><g transform="translate(3093 20490.988)" fill="none"><path d="M90.5,0,181,240H0Z" stroke="none"/><path d="M 90.5 2.834228515625 L 1.445816040039062 239 L 179.5541839599609 239 L 90.5 2.834228515625 M 90.5 0 L 181 240 L 0 240 L 90.5 0 Z" stroke="none" fill="#cd403c"/></g><rect width="70" height="4" rx="2" transform="translate(3239 20767.988)" fill="#cd403c"/><text transform="translate(3274 20761.988)" fill="#fff" font-size="24" font-family="Montserrat-Medium, Montserrat" font-weight="500" letter-spacing="0.024em"><tspan x="-35.028" y="0">Value</tspan></text><rect width="76" height="4" rx="2" transform="translate(3057 20767.988)" fill="#cd403c"/><text transform="translate(3095 20761.988)" fill="#fff" font-size="24" font-family="Montserrat-Medium, Montserrat" font-weight="500" letter-spacing="0.024em"><tspan x="-38.316" y="0">Vision</tspan></text><g transform="matrix(1, 0, 0, 1, 2996, 20370.99)" filter="url(#a)"><text transform="translate(187 198)" fill="#fff" font-size="40" font-family="Montserrat-Light, Montserrat" font-weight="300" opacity="0.6"><tspan x="-84.7" y="0">Building</tspan><tspan x="-33.38" y="60">the</tspan><tspan x="-93.42" y="120">Evolution</tspan></text></g><text transform="translate(3183 20443.988)" fill="#fff" font-size="14" font-family="NotoSansJP-Regular, Noto Sans JP" letter-spacing="0.014em"><tspan x="-42.49" y="0">信頼性の高い</tspan><tspan x="-92.036" y="21">サービス・ソリューションを</tspan><tspan x="-28.294" y="42">創造する</tspan></text><text transform="translate(3090 20811.988)" fill="#fff" font-size="14" font-family="NotoSansJP-Regular, Noto Sans JP" letter-spacing="0.014em"><tspan x="-92.176" y="0">「今はない何かを創りたい」</tspan><tspan x="-93.772" y="21">という お客様、パートナー、</tspan><tspan x="-63.574" y="42">そして社員の想いに</tspan><tspan x="-35.392" y="63">応えられる</tspan><tspan x="-49.518" y="84">会社でありたい</tspan></text><text transform="translate(3292 20811.988)" fill="#fff" font-size="14" font-family="NotoSansJP-Regular, Noto Sans JP" letter-spacing="0.014em"><tspan x="-77.98" y="0">競争力のあるサービスを</tspan><tspan x="-77.98" y="21">提供しながら、スピード</tspan><tspan x="-70.532" y="42">感をもって安定的かつ</tspan><tspan x="-77.77" y="63">革新的なシステム開発に</tspan><tspan x="-63.714" y="84">チャレンジし続ける</tspan></text><rect width="96" height="4" rx="2" transform="translate(3135 20399.988)" fill="#cd403c"/><text transform="translate(3183 20393.988)" fill="#fff" font-size="24" font-family="Montserrat-Medium, Montserrat" font-weight="500" letter-spacing="0.024em"><tspan x="-47.7" y="0">Mission</tspan></text></g></svg>