<svg xmlns="http://www.w3.org/2000/svg" width="1000" height="240" viewBox="0 0 1000 240">
<defs>
<!--
使用方法：以下のpath id=line1~5のd属性のvalue(M-XX.XXXから始まる)を、
<path>のd=属性に入れる。animateのValueの最初と最後はこれと同じvalueを入れる事。
line1.svg: line1 > line2 > line3 > line4 > line5
line2.svg: line2 > line5 > line4 > line3 > line1
line3.svg: line3 > line1 > line5 > line2 > line4
line4.svg: line4 > line3 > line1 > line5 > line2
line5.svg: line5 > line4 > line2 > line1 > line3
#CD403C : red   , #153364 : blue 100, 40%
-->
<path id="line1" d="M-53.1,2918.691s168.2-34.125,230.531-58.507,146.269-90.215,234.008-121.912,200.286-33.122,307.583-9.143,227.878,140.2,227.878,140.2"/>
<path id="line2" d="M-53.1,2918.691s147.76-80.441,210.094-104.823,186.122,22.553,273.861-9.143,188.024-127.6,295.321-103.623S946.9,2869.327,946.9,2869.327"/>
<path id="line3" d="M-53.1,2918.691s131.41-104.328,193.744-128.709,190.209,15.442,277.949-16.255,188.024-46.329,295.321-22.35S946.9,2869.327,946.9,2869.327"/>
<path id="line4" d="M-53.1,2918.691s152.869-38.5,215.2-62.88,140.138-106.467,227.877-138.164,222.768-32.106,330.064-8.127S946.9,2869.327,946.9,2869.327"/>
<path id="line5" d="M-53.1,2918.691s131.41-70.359,193.744-94.741,165.684-20.115,253.424-51.811,209.484-32.106,316.78-8.127S946.9,2869.327,946.9,2869.327"/>
</defs>
<path
d="M-53.1,2918.691s168.2-34.125,230.531-58.507,146.269-90.215,234.008-121.912,200.286-33.122,307.583-9.143,227.878,140.2,227.878,140.2"
transform="translate(53 -2688)"
fill="none"
stroke="#ccc"
stroke-opacity="1"
stroke-width="1">
<animate 
attributeName="d" 
dur="20s" 
repeatCount="indefinite"
values="
M-53.1,2918.691s168.2-34.125,230.531-58.507,146.269-90.215,234.008-121.912,200.286-33.122,307.583-9.143,227.878,140.2,227.878,140.2;
M-53.1,2918.691s147.76-80.441,210.094-104.823,186.122,22.553,273.861-9.143,188.024-127.6,295.321-103.623S946.9,2869.327,946.9,2869.327;
M-53.1,2918.691s131.41-104.328,193.744-128.709,190.209,15.442,277.949-16.255,188.024-46.329,295.321-22.35S946.9,2869.327,946.9,2869.327;
M-53.1,2918.691s152.869-38.5,215.2-62.88,140.138-106.467,227.877-138.164,222.768-32.106,330.064-8.127S946.9,2869.327,946.9,2869.327;
M-53.1,2918.691s131.41-70.359,193.744-94.741,165.684-20.115,253.424-51.811,209.484-32.106,316.78-8.127S946.9,2869.327,946.9,2869.327;
M-53.1,2918.691s168.2-34.125,230.531-58.507,146.269-90.215,234.008-121.912,200.286-33.122,307.583-9.143,227.878,140.2,227.878,140.2"
/>
</path>
</svg>