<svg xmlns="http://www.w3.org/2000/svg" width="32" height="32" viewBox="0 0 32 32"><g transform="translate(0)"><circle cx="16" cy="16" r="16" transform="translate(0)" fill="#ebf3ff"/><path d="M4.8,7.1A2.8,2.8,0,1,0,2,4.3,2.8,2.8,0,0,0,4.8,7.1Zm1.92.8H6.513a3.866,3.866,0,0,1-3.425,0H2.88A2.881,2.881,0,0,0,0,10.78v.72a1.2,1.2,0,0,0,1.2,1.2H8.4a1.2,1.2,0,0,0,1.2-1.2v-.72A2.881,2.881,0,0,0,6.72,7.9ZM12,7.1A2.4,2.4,0,1,0,9.6,4.7,2.4,2.4,0,0,0,12,7.1Zm1.2.8h-.1a3.153,3.153,0,0,1-2.21,0h-.1a2.777,2.777,0,0,0-1.392.385A3.659,3.659,0,0,1,10.4,10.78v.96c0,.055-.012.108-.015.16H14.8A1.2,1.2,0,0,0,16,10.7a2.8,2.8,0,0,0-2.8-2.8Z" transform="translate(8.236 8.5)" fill="#153364"/></g></svg>