<svg xmlns="http://www.w3.org/2000/svg" width="32" height="32" viewBox="0 0 32 32"><circle cx="16" cy="16" r="16" fill="#ebf3ff"/><path d="M15.062,1.5c-1.522.086-4.548.4-6.416,1.544a.427.427,0,0,0-.2.366V13.519a.44.44,0,0,0,.647.375,16.942,16.942,0,0,1,6.075-1.3A.866.866,0,0,0,16,11.739V2.354a.871.871,0,0,0-.938-.853ZM7.354,3.046C5.486,1.9,2.461,1.588.938,1.5A.871.871,0,0,0,0,2.354v9.385a.866.866,0,0,0,.834.852,16.94,16.94,0,0,1,6.077,1.3.438.438,0,0,0,.645-.374V3.406A.418.418,0,0,0,7.354,3.046Z" transform="translate(8.236 8.5)" fill="#153364"/></svg>