<svg xmlns="http://www.w3.org/2000/svg" width="32" height="32" viewBox="0 0 32 32"><circle cx="16" cy="16" r="16" fill="#ebf3ff"/><g transform="translate(8 10)"><path d="M17.911,6.722,16.828,7.8a3.814,3.814,0,0,1,0,5.4l1.083,1.083a5.347,5.347,0,0,0,0-7.561Z" transform="translate(-6.5 -5.056)" fill="#153364"/><path d="M20.072,4.641,19.008,5.7a6.79,6.79,0,0,1,0,9.591l1.064,1.064a8.284,8.284,0,0,0,0-11.719Z" transform="translate(-6.5 -3.788)" fill="#153364"/><path d="M10.5,7.468V3.75h-1l-3,2.857h-4l-1,.571v4l1,.571L5,16.321H6.5L5.563,11.75H6.5l3,2.286h1V10.318a1.319,1.319,0,0,0,1-1.425A1.319,1.319,0,0,0,10.5,7.468Z" transform="translate(-1.5 -3.75)" fill="#153364"/></g></svg>