<svg xmlns="http://www.w3.org/2000/svg" width="32" height="32" viewBox="0 0 32 32"><g transform="translate(0)"><circle cx="16" cy="16" r="16" transform="translate(0)" fill="#ebf3ff"/><path d="M6,5A2.5,2.5,0,1,0,3.5,2.5,2.5,2.5,0,0,0,6,5ZM4.332,12.775l.8-1-1.922-1.6L1.776,11.969A1.252,1.252,0,0,0,1.751,13.5l1.5,2a1.25,1.25,0,0,0,2-1.5Zm4.459-2.6-1.922,1.6.8,1L6.751,14a1.25,1.25,0,0,0,2,1.5l1.5-2a1.252,1.252,0,0,0-.025-1.531L8.791,10.175Zm2.981-5.644a1.252,1.252,0,0,0-1.741-.306l-1.269.891a4.834,4.834,0,0,1-5.525,0L1.969,4.228A1.249,1.249,0,1,0,.532,6.272L1.8,7.162a7.415,7.415,0,0,0,1.7.872V9h5V8.037a7.415,7.415,0,0,0,1.7-.872l1.269-.891A1.252,1.252,0,0,0,11.772,4.531Z" transform="translate(10.234 8)" fill="#153364"/></g></svg>