<svg xmlns="http://www.w3.org/2000/svg" width="32" height="32" viewBox="0 0 32 32"><g transform="translate(0)"><circle cx="16" cy="16" r="16" transform="translate(0)" fill="#ebf3ff"/><path d="M2.992,10.566a7.844,7.844,0,0,1,1.08-4.021,7.993,7.993,0,0,1,2.92-2.92,7.985,7.985,0,0,1,7.112-.44,8.072,8.072,0,0,1,2.551,1.705A7.833,7.833,0,0,1,18.36,7.447,7.945,7.945,0,0,1,14.1,17.92a7.974,7.974,0,0,1-6.224,0,7.873,7.873,0,0,1-4.263-4.249A7.7,7.7,0,0,1,2.992,10.566Zm1.762,0a6.038,6.038,0,0,0,1.84,4.391A6,6,0,0,0,11,16.8a6.04,6.04,0,0,0,3.119-.838A6.3,6.3,0,0,0,16.4,13.685a6.189,6.189,0,0,0,0-6.245,6.268,6.268,0,0,0-2.281-2.281,6.221,6.221,0,0,0-6.238,0A6.4,6.4,0,0,0,5.592,7.44,6.016,6.016,0,0,0,4.754,10.566ZM7.539,9.1a.55.55,0,0,1,.05-.448.588.588,0,0,1,.362-.284.563.563,0,0,1,.455.05l1.975,1.115v-3.7a.59.59,0,1,1,1.179,0v4.739a.588.588,0,0,1-.988.433L7.816,9.465A.646.646,0,0,1,7.539,9.1Z" transform="translate(5.244 5.448)" fill="#153364"/></g></svg>