<svg xmlns="http://www.w3.org/2000/svg" width="32" height="32" viewBox="0 0 32 32"><circle cx="16" cy="16" r="16" fill="#ebf3ff"/><circle cx="16" cy="16" r="16" fill="#ebf3ff"/><path d="M11.556,5.944c0-2.456-2.586-4.444-5.778-4.444S0,3.489,0,5.944A3.768,3.768,0,0,0,1.056,8.5a6.252,6.252,0,0,1-.994,1.514.221.221,0,0,0-.042.242.218.218,0,0,0,.2.133,4.891,4.891,0,0,0,2.464-.694,7.068,7.068,0,0,0,3.092.694C8.969,10.389,11.556,8.4,11.556,5.944Zm3.389,6.111A3.763,3.763,0,0,0,16,9.5c0-1.858-1.486-3.45-3.592-4.114a4.128,4.128,0,0,1,.036.558c0,2.942-2.992,5.333-6.667,5.333a8.328,8.328,0,0,1-.881-.053,6,6,0,0,0,5.325,2.719,7.029,7.029,0,0,0,3.092-.694,4.891,4.891,0,0,0,2.464.694.219.219,0,0,0,.2-.133.223.223,0,0,0-.042-.242A6.186,6.186,0,0,1,14.944,12.056Z" transform="translate(8.236 8.5)" fill="#153364"/></svg>