<svg xmlns="http://www.w3.org/2000/svg" width="32" height="32" viewBox="0 0 32 32"><circle cx="16" cy="16" r="16" fill="#ebf3ff"/><path d="M10.005,8.118,8.452,11.224a.5.5,0,0,1-.9-.019L5.771,7.258,4.834,9.5H1.893l5.7,5.828a.557.557,0,0,0,.8,0L14.105,9.5H10.7Zm4.8-5.309-.075-.078a4.094,4.094,0,0,0-5.856,0L8,3.624l-.872-.891a4.088,4.088,0,0,0-5.856,0L1.2,2.809A4.291,4.291,0,0,0,.968,8.5h3.2L5.29,5.805a.5.5,0,0,1,.919-.012l1.819,4.04L9.559,6.774a.5.5,0,0,1,.894,0L11.315,8.5H15.03a4.291,4.291,0,0,0-.228-5.69Z" transform="translate(8 7.502)" fill="#153364"/></svg>