<svg xmlns="http://www.w3.org/2000/svg" xmlns:xlink="http://www.w3.org/1999/xlink" width="1120" height="248" viewBox="0 0 1120 248"><defs><clipPath id="a"><rect width="35.637" height="80" fill="#fff"/></clipPath><linearGradient id="b" x1="0.176" x2="1" y2="1" gradientUnits="objectBoundingBox"><stop offset="0" stop-color="#153364"/><stop offset="1" stop-color="#cd403c"/></linearGradient><clipPath id="c"><rect width="128" height="64" fill="#fff"/></clipPath><clipPath id="d"><rect width="56" height="64" fill="#fff"/></clipPath></defs><g transform="translate(-236 -5758.695)"><rect width="1120" height="248" rx="16" transform="translate(236 5758.695)" fill="#fff"/><g transform="translate(810 5782.695)"><rect width="200" height="200" rx="100" transform="translate(281)" fill="#cd403c"/><text transform="translate(381 93)" fill="#fff" font-size="32" font-family="NotoSansJP-Bold, Noto Sans JP" font-weight="700" letter-spacing="0.096em"><tspan x="-33.536" y="0">内定</tspan></text><g transform="translate(413 109)"><g clip-path="url(#a)"><path d="M35.273,30.713,31.393,19.09a2.529,2.529,0,0,0-4.873,1.357l1.855,8.018s-11.479-1.8-13.682-2.384a7.092,7.092,0,0,1-5.181-4.156L7.09,14.364,7.242,2.737A2.529,2.529,0,0,0,2.2,2.322L.583,15.1a3.665,3.665,0,0,0,.1,1.317l3,11.721a17.477,17.477,0,0,1,.44,4.551C4.014,33.561.04,68.576.04,68.576a4.039,4.039,0,0,0,.048,1.405A3.84,3.84,0,0,0,2.08,72.713l14.647,6.924a3.14,3.14,0,1,0,2.932-5.554l-2.718-1.589-3.838.3c-.061,0-.122,0-.182,0a4.943,4.943,0,0,1-5.054-4.951c-.019-.528,0-.734-.034-1.719l.549-10.539L9.7,54.413,9.048,66.36a12.83,12.83,0,0,0,.068,1.3,4.031,4.031,0,0,0,4.181,3.9l16.726-1.33a3.3,3.3,0,0,0-.226-6.591l-11.33-.115.941-8.023c.131-1.088,2.233-19.884,2.257-20.078s.089-.437.36-.412c0,0,10.255.42,10.406.42a3.1,3.1,0,0,0,3.187-2.706,5.2,5.2,0,0,0-.344-2.011h0" transform="translate(0 0)" fill="#fff"/><path d="M28.037,22.7a6.5,6.5,0,1,1-6.5-6.5,6.5,6.5,0,0,1,6.5,6.5" transform="translate(-5.003 -5.391)" fill="#fff"/></g></g></g><g transform="translate(395 20)"><path d="M13.5,9l9,9-9,9Z" transform="translate(633.5 5840.695)" fill="#153364"/><path d="M13.5,9l9,9-9,9Z" transform="translate(600.5 5840.695)" fill="#153364"/><path d="M13.5,9l9,9-9,9Z" transform="translate(567.5 5840.695)" fill="#153364"/></g><g transform="translate(335 5802.695)"><rect width="320" height="160" rx="40" transform="translate(281)" fill="url(#b)"/><text transform="translate(441 63)" fill="#fff" font-size="20" font-family="NotoSansJP-Bold, Noto Sans JP" font-weight="700" letter-spacing="0.06em"><tspan x="-57.65" y="0">面接 1〜3回</tspan></text><g transform="translate(377 97)"><g clip-path="url(#c)"><path d="M133.189,29.238a2.834,2.834,0,0,0-2.984-2.673l-11.872,1.156a2.307,2.307,0,0,0-2.186,2.424,2.241,2.241,0,0,0,2.433,2.069h11.928a2.833,2.833,0,0,0,2.681-2.976" transform="translate(-24.152 -5.58)" fill="#fff"/><path d="M134.121,79.178a1.208,1.208,0,1,1-1.208-1.2,1.206,1.206,0,0,1,1.208,1.2" transform="translate(-27.388 -16.382)" fill="#fff"/><path d="M151.841,79.178a1.208,1.208,0,1,1-1.208-1.2,1.206,1.206,0,0,1,1.208,1.2" transform="translate(-31.073 -16.382)" fill="#fff"/><path d="M142.947,79.178a1.208,1.208,0,1,1-1.208-1.2,1.206,1.206,0,0,1,1.208,1.2" transform="translate(-29.224 -16.382)" fill="#fff"/><path d="M153.417,34.355a1.814,1.814,0,0,0-2.2,1.3l-3.849,15.082a6.2,6.2,0,0,1-1.448,2.743,4.343,4.343,0,0,1-3.25,1.321H130.6a1.806,1.806,0,1,0,0,3.612h7.273v7.013h-3.819a2.554,2.554,0,0,0-2.554,2.547v.4h1.61v-.4a.944.944,0,0,1,.944-.942h4.524V68.3h1.341v-1.26h4.592a.944.944,0,0,1,.943.942v.4h1.61v-.4a2.554,2.554,0,0,0-2.554-2.547h-3.819V58.418h1.975a8.043,8.043,0,0,0,5.913-2.483,9.851,9.851,0,0,0,2.293-4.287l3.851-15.1a1.805,1.805,0,0,0-1.308-2.2" transform="translate(-26.782 -7.206)" fill="#fff"/><rect width="37.035" height="4.516" transform="translate(59.348 27.553)" fill="#fff"/><path d="M116.189,62.444l1.864-17.9c.546-2.9,2.158-3.36,3.823-3.72l8.572-.884c.177.282,0-17.18,0-17.18a5.326,5.326,0,0,1,5.433-5.218,5.613,5.613,0,0,1,5.565,5.417V42.112c0,3.935-1.321,6.686-6.655,6.686H124.547l-3.068,14.849a2.713,2.713,0,0,1-5.29-1.2" transform="translate(-24.147 -3.686)" fill="#fff"/><path d="M132.529,7.784A5.939,5.939,0,1,0,136.305.3a5.944,5.944,0,0,0-3.777,7.484" transform="translate(-27.497 0)" fill="#fff"/><path d="M26.852,79.178a1.207,1.207,0,1,0,1.207-1.2,1.205,1.205,0,0,0-1.207,1.2" transform="translate(-5.584 -16.382)" fill="#fff"/><path d="M9.131,79.178a1.207,1.207,0,1,0,1.208-1.2,1.206,1.206,0,0,0-1.208,1.2" transform="translate(-1.899 -16.382)" fill="#fff"/><path d="M18.025,79.178a1.208,1.208,0,1,0,1.207-1.2,1.206,1.206,0,0,0-1.207,1.2" transform="translate(-3.748 -16.382)" fill="#fff"/><path d="M1.365,34.355a1.813,1.813,0,0,1,2.2,1.3L7.416,50.742a6.207,6.207,0,0,0,1.447,2.743,4.35,4.35,0,0,0,3.251,1.321H24.18a1.806,1.806,0,1,1,0,3.612H16.906v7.013h3.82a2.554,2.554,0,0,1,2.555,2.547v.4H21.67v-.4a.945.945,0,0,0-.945-.942H16.2V68.3H14.86v-1.26h-4.59a.945.945,0,0,0-.945.942v.4H7.715v-.4a2.554,2.554,0,0,1,2.555-2.547h3.818V58.418H12.114A8.04,8.04,0,0,1,6.2,55.935a9.834,9.834,0,0,1-2.293-4.287L.056,36.551a1.806,1.806,0,0,1,1.308-2.2" transform="translate(0 -7.206)" fill="#fff"/><path d="M38.769,62.436,36.9,44.541c-.481-2.565-1.795-3.22-3.243-3.585a2.267,2.267,0,0,0-.246-.854L28.434,29.289,24.7,21.18c-3.907-6.435-11.185-3.491-11.185,1.776V42.1c0,3.935,1.32,6.686,6.654,6.686H30.411L33.48,63.639a2.712,2.712,0,0,0,5.289-1.2M24.435,33.7l3.787,6.615-3.711-.382c-.074.115-.086-2.784-.076-6.234" transform="translate(-2.81 -3.678)" fill="#fff"/><path d="M25.958,7.784A5.939,5.939,0,1,1,22.18.3a5.944,5.944,0,0,1,3.778,7.484" transform="translate(-2.989 0)" fill="#fff"/><path d="M0,0,1.207,0l.025,18.686-1.207,0Z" transform="matrix(0.792, -0.61, 0.61, 0.792, 81.999, 12.24)" fill="#fff"/></g></g></g><g transform="translate(-80 24)"><path d="M13.5,9l9,9-9,9Z" transform="translate(633.5 5840.695)" fill="#153364"/><path d="M13.5,9l9,9-9,9Z" transform="translate(600.5 5840.695)" fill="#153364"/><path d="M13.5,9l9,9-9,9Z" transform="translate(567.5 5840.695)" fill="#153364"/></g><g transform="translate(0 5802.695)"><g transform="translate(301)" fill="#153364" stroke="#13418b" stroke-width="1"><rect width="160" height="160" rx="4" stroke="none"/><rect x="0.5" y="0.5" width="159" height="159" rx="3.5" fill="none"/></g><text transform="translate(381 63)" fill="#fff" font-size="20" font-family="NotoSansJP-Bold, Noto Sans JP" font-weight="700" letter-spacing="0.06em"><tspan x="-41.8" y="0">書類選考</tspan></text><g transform="translate(353 97)"><g clip-path="url(#d)"><path d="M30.278,4.95A4.911,4.911,0,1,0,35.189,0a4.931,4.931,0,0,0-4.911,4.95" transform="translate(-15.013)" fill="#fff"/><path d="M40.221,31.916l-9.1-.431-5.372-5.331a10.762,10.762,0,0,0-7.9-2.965c-3.487,0-7.4,1.188-10.6,7.76l-7,13.518a1.936,1.936,0,0,0,.742,2.62,1.9,1.9,0,0,0,2.6-.748l7.311-9.413L5.456,72.492a2.492,2.492,0,1,0,4.919.8l5.186-21.557,4.907,6.67,1.37,13.987a2.491,2.491,0,1,0,4.972-.326s.061-13.332.059-13.336a8.634,8.634,0,0,0-.664-3.71l-3.9-8.441,1.886-13.944,4.58,2.985a3.256,3.256,0,0,0,1.584.554l9.853-.408a1.926,1.926,0,0,0,.011-3.853" transform="translate(0 -11.404)" fill="#fff"/><path d="M93.012,30.74H78.187a1.18,1.18,0,0,0-1.174,1.183v9.714a1.18,1.18,0,0,0,1.174,1.183H93.012a1.179,1.179,0,0,0,1.174-1.183V31.923a1.179,1.179,0,0,0-1.174-1.183m-.072,1.122L85.6,36.755l-7.341-4.894Zm.072,9.838H78.187a.063.063,0,0,1-.062-.063V32.816L85.6,37.8l7.475-4.984v8.821a.064.064,0,0,1-.062.063" transform="translate(-38.186 -15.118)" fill="#fff"/></g></g></g></g></svg>