<svg xmlns="http://www.w3.org/2000/svg" xmlns:xlink="http://www.w3.org/1999/xlink" width="80.929" height="83.128" viewBox="0 0 80.929 83.128"><defs><clipPath id="a"><rect width="80.929" height="83.128" fill="#cd403c"/></clipPath></defs><g clip-path="url(#a)"><path d="M74.651,121.1a1.33,1.33,0,1,1-1.33-1.33,1.331,1.331,0,0,1,1.33,1.33" transform="translate(-23.623 -39.301)" fill="#cd403c"/><path d="M97.663,121.1a1.33,1.33,0,1,1-1.33-1.33,1.33,1.33,0,0,1,1.33,1.33" transform="translate(-31.174 -39.301)" fill="#cd403c"/><path d="M86.113,121.1a1.33,1.33,0,1,1-1.33-1.33,1.33,1.33,0,0,1,1.33,1.33" transform="translate(-27.384 -39.301)" fill="#cd403c"/><path d="M95.333,63.115a2,2,0,0,0-2.426,1.442L88.667,81.215a6.848,6.848,0,0,1-1.595,3.029A4.779,4.779,0,0,1,83.491,85.7H70.2a2,2,0,1,0,0,3.991h8.011v7.747H74.005a2.816,2.816,0,0,0-2.814,2.813v.446h1.774v-.446a1.041,1.041,0,0,1,1.04-1.04h4.983V100.6h1.477V99.212h5.057a1.041,1.041,0,0,1,1.04,1.04v.446h1.774v-.446a2.816,2.816,0,0,0-2.814-2.813H81.317V89.692h2.174a8.844,8.844,0,0,0,6.514-2.741,10.873,10.873,0,0,0,2.527-4.735L96.775,65.54a2,2,0,0,0-1.442-2.425" transform="translate(-22.381 -20.691)" fill="#cd403c"/><path d="M38.091,70.642H.27v35.473H25.1V75.076h12.99Z" transform="translate(-0.088 -23.181)" fill="#cd403c"/><path d="M65.063,50.2l-7.317,6.023L46.517,57a2.547,2.547,0,0,0,.514,5.067H57.378a16.809,16.809,0,0,0,3.251-.295L64.4,60.586l2,9.978-8.33,1.2c-1.834.4-4.917,1.307-5.2,4.106L50.81,94.744a2.988,2.988,0,0,0,5.827,1.329l3.38-16.4h13.7a4.666,4.666,0,0,0,4.543-5.034L74.227,52.16c-1.182-5.1-6.171-4.619-9.164-1.958" transform="translate(-14.513 -15.831)" fill="#cd403c"/><path d="M62.505,35.314A6.544,6.544,0,1,0,67.9,27.8a6.544,6.544,0,0,0-5.4,7.517" transform="translate(-20.482 -9.093)" fill="#cd403c"/><path d="M1.256,53.259c-.265,0-.265-.53.067-.53h9.111c.314,0,.581.73.542,1.449.039.718-.228,1.447-.542,1.447H1.323c-.333,0-.333-.529-.067-.529Z" transform="translate(-0.349 -17.303)" fill="#cd403c"/><path d="M3.235,48.144c-.265,0-.265-.53.067-.53h9.111c.315,0,.582.73.542,1.449.04.718-.227,1.449-.542,1.449H3.3c-.332,0-.332-.53-.067-.53Z" transform="translate(-0.999 -15.624)" fill="#cd403c"/><rect width="16.518" height="3.449" transform="translate(0 42.967)" fill="#cd403c"/><rect width="16.629" height="3.218" transform="translate(1.33 39.042)" fill="#cd403c"/><path d="M44.935,51.7,41.526,62.36l-1.4,1.766-.113-2.249,3.41-10.662Z" transform="translate(-13.131 -16.806)" fill="#cd403c"/><path d="M104.685,15.955a7.978,7.978,0,1,1,7.978-7.978,7.987,7.987,0,0,1-7.978,7.978m0-14.181a6.2,6.2,0,1,0,6.2,6.2,6.21,6.21,0,0,0-6.2-6.2" transform="translate(-31.734 0)" fill="#cd403c"/><path d="M103.874,10.76a.811.811,0,0,1,0-1.622h2.333V6.066a.811.811,0,1,1,1.621,0V9.949a.811.811,0,0,1-.81.811Z" transform="translate(-33.819 -1.724)" fill="#cd403c"/></g></svg>