<svg xmlns="http://www.w3.org/2000/svg" xmlns:xlink="http://www.w3.org/1999/xlink" width="169.872" height="142.181" viewBox="0 0 169.872 142.181"><defs><clipPath id="a"><rect width="169.872" height="142.181" fill="#cd403c"/></clipPath></defs><g clip-path="url(#a)"><path d="M168.285,119.072l-10.566-8.3a4.151,4.151,0,0,0-2.567-.888H59.005L7.4,45.009a4.153,4.153,0,0,0-6.5,5.17l52.7,66.253v16.1a3.4,3.4,0,0,0,6.8,0V118.185h81.832V132.53a3.4,3.4,0,0,0,6.794,0V118.185h4.693l9.435,7.416a4.153,4.153,0,1,0,5.132-6.53" transform="translate(0 6.254)" fill="#cd403c"/><path d="M28.348,26.4A11.192,11.192,0,1,1,17.157,37.594,11.194,11.194,0,0,1,28.348,26.4" transform="translate(2.47 3.801)" fill="#cd403c"/><path d="M73.9,29,60.41,44.883,36,52.308c-7.173,1.886-11.7,11.7-6.04,19.253L52.263,99.6c5.054,7.22,11.67,7.462,15.907,7.462h68.3a6.307,6.307,0,0,0,5.57-5.365,6.4,6.4,0,0,0-5.363-7.28L71.861,86.66,53.74,62.5S65.2,55.982,65.571,55.728c2.64-1.533,3.4-2.414,5.66-5.685L81.3,33.52A4.335,4.335,0,1,0,73.9,29" transform="translate(3.945 3.876)" fill="#cd403c"/><path d="M83.927,11.145,81.375,39.007H72.319L69.766,11.145H68.1L70.8,40.667H82.891L85.6,11.145Z" transform="translate(9.803 1.605)" fill="#cd403c"/><rect width="15.1" height="1.51" transform="translate(79.099 16.399)" fill="#cd403c"/><path d="M72.661,16.852l-.967-9.661L60.48,1.339,61.179,0,73.116,6.229,74.164,16.7Z" transform="translate(8.707 0)" fill="#cd403c"/><path d="M78.252,16.545A6.452,6.452,0,0,1,89,9.4l-.817.542A5.472,5.472,0,0,0,79.069,16Z" transform="translate(11.11 0.939)" fill="#cd403c"/><path d="M79.638,15.214a4.492,4.492,0,0,1,7.484-4.972Z" transform="translate(11.357 1.186)" fill="#cd403c"/></g></svg>