<svg xmlns="http://www.w3.org/2000/svg" xmlns:xlink="http://www.w3.org/1999/xlink" width="70.187" height="95.256" viewBox="0 0 70.187 95.256"><defs><clipPath id="a"><rect width="70.187" height="95.256" fill="#cd403c"/></clipPath></defs><g clip-path="url(#a)"><path d="M74.825,38.54A4.325,4.325,0,1,0,70.5,34.216a4.325,4.325,0,0,0,4.326,4.324" transform="translate(-33.291 -14.114)" fill="#cd403c"/><path d="M70.187,151.748l-12.018-21.2-11.536,0L51,140.581H48.2L39.1,119.631H16.555L0,151.748Z" transform="translate(0 -56.491)" fill="#cd403c"/><path d="M38.311,45.19V82.145a.989.989,0,1,0,1.978,0V43.893Z" transform="translate(-18.091 -20.727)" fill="#cd403c"/><path d="M37.038,22.774c-.674.442-1.225.144-1.225-.661V1.307a1.279,1.279,0,0,1,1.456-1.3L65.127,3.227c.8.093.9.53.23.972Z" transform="translate(-16.911 0)" fill="#cd403c"/><rect width="1.954" height="0.977" transform="translate(40.557 25.979)" fill="#cd403c"/><path d="M77.821,55.56l.977-1.253V51.884H76.843v2.423Z" transform="translate(-36.287 -24.5)" fill="#cd403c"/><path d="M66.174,66.855a1.684,1.684,0,0,0,2.309-.578l3.948-6.811a2.065,2.065,0,0,0-.1-2.281L67.5,51.779a8.864,8.864,0,0,0-4.485-2.747l-4.54,5.826-4.928-6.322H37.562a1.683,1.683,0,0,0,0,3.366l13.67,2.021c.586.073.659,0,.879.733.108,1.437.872,12.593.872,12.593l-8.5-.064c-2.491.146-3.81,1.611-2.706,4.029.1.226,7.264,11.625,7.264,11.625a2.194,2.194,0,0,0,3.933-1.949l-3.216-7.55,8.119.43L66.5,92.7a2.194,2.194,0,1,0,4.321-.767l-5.709-20.97-.068-14.328,3.013,2.256L65.6,64.546a1.683,1.683,0,0,0,.578,2.309m-7.7-5.684a.55.55,0,1,1,.549-.55.55.55,0,0,1-.549.55m0-2.968a.549.549,0,1,1,.549-.549.55.55,0,0,1-.549.549" transform="translate(-16.943 -22.919)" fill="#cd403c"/></g></svg>