<svg xmlns="http://www.w3.org/2000/svg" xmlns:xlink="http://www.w3.org/1999/xlink" width="334" height="104" viewBox="0 0 334 104"><defs><clipPath id="a"><rect width="15.859" height="35.6" fill="#fff"/></clipPath><linearGradient id="b" x1="0.176" x2="1" y2="1" gradientUnits="objectBoundingBox"><stop offset="0" stop-color="#153364"/><stop offset="1" stop-color="#cd403c"/></linearGradient><clipPath id="c"><rect width="65" height="32" transform="translate(-0.654)" fill="#fff"/></clipPath><clipPath id="d"><rect width="28" height="32" transform="translate(0 -0.394)" fill="#fff"/></clipPath></defs><g transform="translate(-343 -5825.701)"><rect width="334" height="104" rx="12" transform="translate(343 5825.702)" fill="#fff"/><g transform="translate(300.49 5834.192)"><rect width="88" height="88" rx="44" transform="translate(280.51 -0.49)" fill="#cd403c"/><text transform="translate(324.51 34.51)" fill="#fff" font-size="16" font-family="NotoSansJP-Bold, Noto Sans JP" font-weight="700" letter-spacing="0.048em"><tspan x="-16.384" y="0">内定</tspan></text><g transform="translate(334.014 44.523)"><g clip-path="url(#a)"><path d="M15.7,13.667,13.97,8.5a1.126,1.126,0,0,0-2.169.6l.825,3.568s-5.108-.8-6.088-1.061a3.156,3.156,0,0,1-2.306-1.85L3.155,6.392l.068-5.174A1.126,1.126,0,0,0,.979,1.033L.259,6.719A1.631,1.631,0,0,0,.3,7.3L1.639,12.52a7.777,7.777,0,0,1,.2,2.025C1.786,14.935.018,30.516.018,30.516a1.8,1.8,0,0,0,.021.625,1.709,1.709,0,0,0,.886,1.216l6.518,3.081a1.4,1.4,0,1,0,1.3-2.471l-1.21-.707-1.708.134H5.75a2.2,2.2,0,0,1-2.249-2.2c-.008-.235,0-.327-.015-.765l.244-4.69.588-.523L4.026,29.53a5.709,5.709,0,0,0,.03.577,1.794,1.794,0,0,0,1.86,1.737l7.443-.592a1.467,1.467,0,0,0-.1-2.933l-5.042-.051.419-3.57c.058-.484.994-8.848,1-8.935s.04-.194.16-.184c0,0,4.564.187,4.631.187a1.381,1.381,0,0,0,1.418-1.2,2.314,2.314,0,0,0-.153-.895h0" transform="translate(0 0)" fill="#fff"/><path d="M20.822,19.1A2.892,2.892,0,1,1,17.93,16.2,2.892,2.892,0,0,1,20.822,19.1" transform="translate(-10.572 -11.392)" fill="#fff"/></g></g></g><path d="M13.5,9l6,6-6,6Z" transform="translate(553.5 5862.702)" fill="#153364"/><g transform="translate(164 5841.695)"><rect width="114" height="72" rx="24" transform="translate(281 0.007)" fill="url(#b)"/><text transform="translate(340 28.007)" fill="#fff" font-size="14" font-family="NotoSansJP-Bold, Noto Sans JP" font-weight="700" letter-spacing="0.042em"><tspan x="-39.599" y="0">面接 1〜3回</tspan></text><g transform="translate(306.654 40.007)"><g clip-path="url(#c)"><path d="M124.613,27.891a1.408,1.408,0,0,0-1.483-1.328l-5.9.575a1.146,1.146,0,0,0-1.086,1.2,1.114,1.114,0,0,0,1.209,1.028h5.927a1.408,1.408,0,0,0,1.332-1.479" transform="translate(-70.732 -15.944)" fill="#fff"/><path d="M132.905,78.572a.6.6,0,1,1-.6-.6.6.6,0,0,1,.6.6" transform="translate(-80.169 -47.177)" fill="#fff"/><path d="M150.625,78.572a.6.6,0,1,1-.6-.6.6.6,0,0,1,.6.6" transform="translate(-90.915 -47.177)" fill="#fff"/><path d="M141.732,78.572a.6.6,0,1,1-.6-.6.6.6,0,0,1,.6.6" transform="translate(-85.522 -47.177)" fill="#fff"/><path d="M141.028,34.327a.9.9,0,0,0-1.094.648l-1.913,7.494a3.081,3.081,0,0,1-.719,1.363,2.158,2.158,0,0,1-1.615.656h-6a.9.9,0,1,0,0,1.795h3.614v3.485h-1.9a1.269,1.269,0,0,0-1.269,1.266v.2h.8v-.2a.469.469,0,0,1,.469-.468h2.248v.626h.666v-.626H136.6a.469.469,0,0,1,.469.468v.2h.8v-.2a1.269,1.269,0,0,0-1.269-1.266h-1.9V46.284h.981a4,4,0,0,0,2.938-1.234,4.895,4.895,0,0,0,1.139-2.13l1.914-7.5a.9.9,0,0,0-.65-1.091" transform="translate(-78.402 -20.645)" fill="#fff"/><rect width="18.402" height="2.244" transform="translate(29.191 13.882)" fill="#fff"/><path d="M116.154,39.855l.926-8.892a2.027,2.027,0,0,1,1.9-1.849l4.259-.439c.088.14,0-8.536,0-8.536a2.646,2.646,0,0,1,2.7-2.593,2.789,2.789,0,0,1,2.765,2.692v9.514c0,1.955-.656,3.322-3.307,3.322h-5.09l-1.524,7.379a1.348,1.348,0,0,1-2.629-.6" transform="translate(-70.718 -10.468)" fill="#fff"/><path d="M132.377,3.868A2.951,2.951,0,1,0,134.254.149a2.953,2.953,0,0,0-1.877,3.719" transform="translate(-80.486 0.191)" fill="#fff"/><path d="M26.852,78.572a.6.6,0,1,0,.6-.6.6.6,0,0,0-.6.6" transform="translate(-16.582 -47.177)" fill="#fff"/><path d="M9.131,78.572a.6.6,0,1,0,.6-.6.6.6,0,0,0-.6.6" transform="translate(-5.836 -47.177)" fill="#fff"/><path d="M18.025,78.572a.6.6,0,1,0,.6-.6.6.6,0,0,0-.6.6" transform="translate(-11.229 -47.177)" fill="#fff"/><path d="M.678,34.327a.9.9,0,0,1,1.094.648L3.685,42.47A3.084,3.084,0,0,0,4.4,43.833a2.162,2.162,0,0,0,1.616.656h6a.9.9,0,1,1,0,1.795H8.4v3.485h1.9a1.269,1.269,0,0,1,1.27,1.266v.2h-.8v-.2a.469.469,0,0,0-.47-.468H8.051v.626H7.384v-.626H5.1a.469.469,0,0,0-.47.468v.2h-.8v-.2A1.269,1.269,0,0,1,5.1,49.768H7V46.284H6.02A4,4,0,0,1,3.081,45.05a4.887,4.887,0,0,1-1.139-2.13l-1.914-7.5a.9.9,0,0,1,.65-1.091" transform="translate(-0.298 -20.645)" fill="#fff"/><path d="M26.063,39.832l-.926-8.892a1.937,1.937,0,0,0-1.611-1.782,1.127,1.127,0,0,0-.122-.424l-2.475-5.372-1.856-4.029c-1.941-3.2-5.558-1.735-5.558.882v9.514c0,1.955.656,3.322,3.306,3.322h5.09l1.525,7.379a1.348,1.348,0,0,0,2.628-.6M18.94,25.555l1.882,3.287-1.844-.19c-.037.057-.043-1.384-.038-3.1" transform="translate(-8.493 -10.445)" fill="#fff"/><path d="M20.13,3.868A2.951,2.951,0,1,1,18.253.149,2.953,2.953,0,0,1,20.13,3.868" transform="translate(-9.016 0.191)" fill="#fff"/><path d="M0,0H.6L.612,9.286h-.6Z" transform="matrix(0.792, -0.61, 0.61, 0.792, 40.446, 6.273)" fill="#fff"/></g></g></g><path d="M13.5,9l6,6-6,6Z" transform="translate(417.5 5862.702)" fill="#153364"/><g transform="translate(50 5841.695)"><g transform="translate(301 0.007)" fill="#153364" stroke="#13418b" stroke-width="1"><rect width="72" height="72" rx="4" stroke="none"/><rect x="0.5" y="0.5" width="71" height="71" rx="3.5" fill="none"/></g><text transform="translate(337 28.007)" fill="#fff" font-size="14" font-family="NotoSansJP-Bold, Noto Sans JP" font-weight="700" letter-spacing="0.042em"><tspan x="-28.882" y="0">書類選考</tspan></text><g transform="translate(323.331 40.474)"><g transform="translate(-0.331 -0.072)" clip-path="url(#d)"><path d="M30.278,2.42A2.4,2.4,0,1,0,32.679,0a2.411,2.411,0,0,0-2.4,2.42" transform="translate(-22.453 0.561)" fill="#fff"/><path d="M19.668,27.456l-4.451-.211L12.59,24.638a5.263,5.263,0,0,0-3.862-1.45c-1.705,0-3.618.581-5.184,3.794L.118,33.593a.946.946,0,0,0,.363,1.281.93.93,0,0,0,1.271-.366l3.575-4.6L2.668,47.3a1.219,1.219,0,1,0,2.405.392L7.609,37.148l2.4,3.262.67,6.839a1.218,1.218,0,1,0,2.431-.159s.03-6.519.029-6.521a4.222,4.222,0,0,0-.325-1.814l-1.905-4.128.922-6.818,2.24,1.459a1.592,1.592,0,0,0,.774.271l4.818-.2a.942.942,0,0,0,.005-1.884" transform="translate(0.361 -16.865)" fill="#fff"/><path d="M84.836,30.74H77.587a.577.577,0,0,0-.574.579v4.75a.577.577,0,0,0,.574.578h7.249a.577.577,0,0,0,.574-.578v-4.75a.577.577,0,0,0-.574-.579m-.035.548-3.59,2.393-3.589-2.393Zm.035,4.811H77.587a.031.031,0,0,1-.03-.031V31.755l3.655,2.437,3.655-2.437v4.313a.031.031,0,0,1-.03.031" transform="translate(-57.666 -22.54)" fill="#fff"/></g></g></g></g></svg>