<?xml version="1.0" encoding="UTF-8"?><svg id="_レイヤー_2" xmlns="http://www.w3.org/2000/svg" width="80.07mm" height="72.6mm" viewBox="0 0 226.96 205.79"><defs><style>.cls-1{fill:#fff;}.cls-2{fill:#133260;}.cls-3{fill:#f4e4e3;}.cls-4{fill:#2889be;}.cls-5{fill:#c2403b;}</style></defs><g id="_レイヤー_1-2"><path class="cls-3" d="M129.2,107.71L112.22,11.43c5.53-.98,11.36-1.49,16.98-1.49v97.77Z"/><path class="cls-5" d="M129.2,107.71l-38.2,89.99c-49.7-21.1-72.89-78.49-51.79-128.19,13.5-31.81,38.99-52.08,73.02-58.08l16.98,96.28Z"/><path class="cls-2" d="M129.2,107.71l70.33-67.91c37.51,38.84,36.43,100.73-2.41,138.24-28.9,27.91-69.14,35.36-106.11,19.67l38.2-89.99Z"/><path class="cls-4" d="M129.2,107.71V9.94c27.65,0,51.12,9.97,70.33,29.85l-70.33,67.91Z"/><path class="cls-1" d="M141.37,46.84c2.9-2.84,4.66-4.66,4.66-6.24,0-1.1-.59-1.84-1.77-1.84-.82,0-1.5.52-2.05,1.16l-.92-.91c.89-.96,1.81-1.56,3.17-1.56,1.91,0,3.14,1.22,3.14,3.06s-1.68,3.72-3.85,5.99c.52-.06,1.19-.1,1.7-.1h2.65v1.39h-6.72v-.95Z"/><path class="cls-1" d="M149.48,42.68c0-3.41,1.3-5.22,3.37-5.22s3.37,1.83,3.37,5.22-1.29,5.29-3.37,5.29-3.37-1.88-3.37-5.29ZM154.66,42.68c0-2.92-.75-3.93-1.81-3.93s-1.81,1.02-1.81,3.93.75,4.01,1.81,4.01,1.81-1.09,1.81-4.01Z"/><path class="cls-1" d="M160.5,41.15c-.23.55-.52,1.09-.84,1.61v5.67h-.8v-4.53c-.32.41-.65.77-.99,1.09-.07-.19-.31-.6-.44-.77.92-.78,1.81-2.02,2.34-3.3l.73.24ZM162.71,44.02c.27,2.03.76,3.4,1.55,3.49.21,0,.33-.45.41-1.38.15.16.49.36.64.42-.19,1.5-.57,1.91-1.01,1.88-1.38-.12-2.03-1.76-2.35-4.3l-1.82.23-.12-.73,1.86-.23c-.07-.75-.12-1.57-.15-2.44h.78c.02.83.07,1.62.13,2.33l2.43-.31.1.72-2.45.32ZM164.41,42.69c-.24-.38-.78-.95-1.24-1.37l.57-.36c.47.39,1.02.95,1.28,1.33l-.61.41Z"/><path class="cls-1" d="M135.6,62.08h2.23v-6.83h-1.83v-1.01c.96-.17,1.64-.42,2.22-.78h1.21v8.62h2v1.32h-5.83v-1.32Z"/><path class="cls-1" d="M142.93,62.47c2.85-2.79,4.57-4.57,4.57-6.12,0-1.08-.58-1.8-1.74-1.8-.81,0-1.47.51-2.01,1.14l-.9-.89c.87-.94,1.78-1.53,3.11-1.53,1.87,0,3.08,1.19,3.08,3s-1.65,3.65-3.78,5.87c.51-.06,1.17-.1,1.67-.1h2.6v1.36h-6.59v-.93Z"/><path class="cls-1" d="M151.23,62.47c0-.67.47-1.14,1.07-1.14s1.07.47,1.07,1.14-.47,1.11-1.07,1.11-1.07-.46-1.07-1.11Z"/><path class="cls-1" d="M155,60.86c0-1.26.89-2.11,1.83-2.61v-.06c-.76-.54-1.37-1.28-1.37-2.32,0-1.58,1.25-2.61,2.92-2.61,1.78,0,2.89,1.1,2.89,2.67,0,1.03-.72,1.87-1.35,2.33v.07c.9.53,1.72,1.24,1.72,2.57,0,1.51-1.33,2.68-3.3,2.68s-3.33-1.14-3.33-2.72ZM160.13,60.86c0-1.18-1.12-1.58-2.51-2.15-.69.49-1.19,1.17-1.19,2,0,1.01.85,1.72,1.94,1.72s1.76-.61,1.76-1.57ZM159.92,56.03c0-.92-.57-1.61-1.57-1.61-.83,0-1.46.56-1.46,1.46,0,1.07.97,1.54,2.11,1.99.6-.56.92-1.17.92-1.83Z"/><path class="cls-1" d="M162.62,58.39c0-1.43.67-2.24,1.66-2.24s1.67.81,1.67,2.24-.68,2.26-1.67,2.26-1.66-.83-1.66-2.26ZM165.15,58.39c0-1.1-.36-1.59-.86-1.59s-.85.48-.85,1.59.36,1.61.85,1.61.86-.51.86-1.61ZM168.41,56.15h.71l-3.9,7.38h-.71l3.9-7.38ZM167.67,61.27c0-1.43.68-2.24,1.67-2.24s1.66.81,1.66,2.24-.68,2.25-1.66,2.25-1.67-.82-1.67-2.25ZM170.2,61.27c0-1.1-.36-1.59-.85-1.59s-.85.48-.85,1.59.35,1.61.85,1.61.85-.51.85-1.61Z"/><path class="cls-2" d="M0,9.75l.83-1.13c.63.63,1.44,1.19,2.6,1.19,1.25,0,2.21-.85,2.21-2.22s-.85-2.18-2.12-2.18c-.71,0-1.13.21-1.78.64l-.85-.54L1.22.21h5.64v1.47H2.74l-.26,2.86c.48-.24.92-.38,1.53-.38,1.86,0,3.39,1.04,3.39,3.37s-1.8,3.7-3.75,3.7c-1.75,0-2.86-.71-3.64-1.48Z"/><path class="cls-2" d="M8.92,5.58c0-3.64,1.39-5.58,3.6-5.58s3.6,1.95,3.6,5.58-1.38,5.65-3.6,5.65-3.6-2.01-3.6-5.65ZM14.45,5.58c0-3.11-.8-4.2-1.93-4.2s-1.93,1.09-1.93,4.2.8,4.28,1.93,4.28,1.93-1.16,1.93-4.28Z"/><path class="cls-2" d="M20.68,3.94c-.25.58-.56,1.17-.89,1.72v6.06h-.85v-4.84c-.34.43-.69.82-1.06,1.16-.08-.2-.33-.64-.47-.82.98-.83,1.93-2.16,2.5-3.52l.78.26ZM23.04,7.01c.28,2.17.81,3.63,1.66,3.73.22,0,.35-.48.43-1.48.16.17.52.39.68.45-.2,1.6-.61,2.04-1.08,2.01-1.48-.12-2.17-1.88-2.51-4.6l-1.94.25-.12-.78,1.98-.25c-.07-.81-.12-1.67-.16-2.6h.83c.03.89.07,1.73.14,2.49l2.59-.33.11.77-2.62.34ZM24.85,5.59c-.26-.41-.83-1.02-1.33-1.46l.61-.39c.5.42,1.09,1.01,1.37,1.42l-.66.43Z"/><path class="cls-2" d="M30.18,9.23c-1.2.55-2.51,1.11-3.49,1.52l-.3-.86c.34-.12.75-.28,1.2-.46l-.17-5.32.86-.04.15,5.01c.51-.21,1.04-.43,1.55-.66l.19.8ZM33.96,11.72c-.38-.59-1.12-1.47-1.83-2.24-.66.98-1.59,1.73-2.88,2.28-.12-.18-.45-.56-.66-.73,2.94-1.09,3.86-3.22,4.22-6.95l.9.09c-.2,1.86-.53,3.35-1.12,4.53.75.78,1.64,1.73,2.06,2.36l-.69.66ZM30.61,7.21c-.23-.6-.8-1.52-1.35-2.17l.75-.36c.58.64,1.13,1.5,1.39,2.11l-.8.43Z"/><path class="cls-2" d="M43.32,10.48v.83h-7.93v-.83h3.23V3.73h.89v2.63h3.2v.82h-3.2v3.29h3.81Z"/><path class="cls-2" d="M47.76,10.53c3.04-2.98,4.88-4.88,4.88-6.54,0-1.16-.62-1.93-1.85-1.93-.86,0-1.57.55-2.15,1.22l-.96-.95c.93-1.01,1.9-1.63,3.32-1.63,2,0,3.29,1.27,3.29,3.2s-1.76,3.9-4.03,6.27c.55-.06,1.24-.1,1.78-.1h2.77v1.45h-7.04v-.99Z"/><path class="cls-2" d="M56.62,10.53c0-.71.5-1.22,1.14-1.22s1.14.5,1.14,1.22-.5,1.19-1.14,1.19-1.14-.49-1.14-1.19Z"/><path class="cls-2" d="M60.74,6.58c0-4.18,1.96-5.87,4.12-5.87,1.22,0,2.1.52,2.73,1.17l-.93,1.04c-.4-.47-1.07-.8-1.72-.8-1.38,0-2.53,1.04-2.61,4.15.64-.79,1.59-1.27,2.37-1.27,1.82,0,3.07,1.08,3.07,3.28s-1.48,3.45-3.26,3.45c-2.07,0-3.76-1.65-3.76-5.14ZM62.37,7.52c.18,1.97.96,2.89,2.12,2.89.95,0,1.7-.8,1.7-2.15s-.65-2.03-1.81-2.03c-.61,0-1.36.34-2.02,1.29Z"/><path class="cls-2" d="M68.79,6.18c0-1.53.71-2.4,1.78-2.4s1.79.87,1.79,2.4-.72,2.42-1.79,2.42-1.78-.89-1.78-2.42ZM71.49,6.18c0-1.18-.38-1.69-.92-1.69s-.91.52-.91,1.69.38,1.71.91,1.71.92-.55.92-1.71ZM74.97,3.78h.75l-4.16,7.88h-.75l4.16-7.88ZM74.19,9.25c0-1.53.72-2.4,1.79-2.4s1.78.87,1.78,2.4-.72,2.41-1.78,2.41-1.79-.88-1.79-2.41ZM76.88,9.25c0-1.18-.38-1.69-.91-1.69s-.91.52-.91,1.69.37,1.71.91,1.71.91-.55.91-1.71Z"/><path class="cls-1" d="M151.87,133.07l1.24-1.64c.95.98,2.18,1.8,3.86,1.8,1.84,0,3.11-1,3.11-2.6,0-1.75-1.15-2.89-4.84-2.89v-1.89c3.22,0,4.29-1.18,4.29-2.71,0-1.42-.95-2.29-2.51-2.29-1.27,0-2.33.62-3.26,1.55l-1.33-1.6c1.29-1.18,2.8-2,4.69-2,2.93,0,5,1.51,5,4.13,0,1.84-1.09,3.06-2.82,3.71v.11c1.89.47,3.38,1.84,3.38,4,0,2.87-2.47,4.55-5.46,4.55-2.58,0-4.24-1.02-5.33-2.24Z"/><path class="cls-1" d="M164.95,127.01c0-5.35,2.04-8.2,5.29-8.2s5.29,2.86,5.29,8.2-2.02,8.31-5.29,8.31-5.29-2.95-5.29-8.31ZM173.07,127.01c0-4.58-1.18-6.17-2.84-6.17s-2.84,1.6-2.84,6.17,1.18,6.29,2.84,6.29,2.84-1.71,2.84-6.29Z"/><path class="cls-1" d="M182.24,124.6c-.36.86-.82,1.72-1.31,2.52v8.9h-1.25v-7.12c-.49.64-1.02,1.21-1.56,1.71-.12-.3-.48-.94-.69-1.21,1.44-1.22,2.84-3.18,3.67-5.18l1.15.38ZM185.7,129.1c.42,3.19,1.2,5.34,2.43,5.48.33.01.52-.7.64-2.17.23.25.77.57,1,.66-.3,2.36-.9,2.99-1.59,2.95-2.17-.18-3.19-2.76-3.68-6.75l-2.85.36-.18-1.15,2.92-.36c-.1-1.18-.18-2.46-.23-3.83h1.22c.04,1.3.1,2.54.21,3.66l3.81-.48.16,1.13-3.85.49ZM188.37,127.02c-.38-.6-1.22-1.5-1.95-2.15l.9-.57c.74.61,1.6,1.48,2.02,2.08l-.96.64Z"/><path class="cls-1" d="M148.67,156.05h-6.95v-1.68l6.38-9.78h2.92v9.52h2.03v1.94h-2.03v4.14h-2.35v-4.14ZM148.67,154.11v-3.94c0-.87.07-2.27.11-3.14h-.09c-.39.78-.83,1.52-1.29,2.33l-3.16,4.75h4.42Z"/><path class="cls-1" d="M154.31,158.27l1.22-1.61c.94.96,2.13,1.76,3.79,1.76,1.81,0,3.05-.98,3.05-2.55,0-1.72-1.13-2.83-4.75-2.83v-1.85c3.16,0,4.2-1.15,4.2-2.66,0-1.39-.94-2.24-2.46-2.24-1.24,0-2.29.61-3.2,1.52l-1.31-1.57c1.26-1.15,2.74-1.96,4.6-1.96,2.88,0,4.9,1.48,4.9,4.05,0,1.81-1.07,3.01-2.77,3.64v.11c1.85.46,3.31,1.81,3.31,3.92,0,2.81-2.42,4.46-5.36,4.46-2.53,0-4.16-1-5.23-2.2Z"/><path class="cls-1" d="M167.69,158.73c0-1.05.74-1.79,1.68-1.79s1.68.74,1.68,1.79-.74,1.74-1.68,1.74-1.68-.72-1.68-1.74Z"/><path class="cls-1" d="M173.74,152.91c0-6.14,2.88-8.63,6.06-8.63,1.79,0,3.09.76,4.01,1.72l-1.37,1.52c-.59-.7-1.57-1.18-2.53-1.18-2.03,0-3.72,1.52-3.83,6.1.94-1.15,2.33-1.87,3.49-1.87,2.68,0,4.51,1.59,4.51,4.81s-2.18,5.07-4.79,5.07c-3.05,0-5.53-2.42-5.53-7.56ZM176.14,154.3c.26,2.9,1.42,4.25,3.11,4.25,1.39,0,2.5-1.18,2.5-3.16s-.96-2.98-2.66-2.98c-.89,0-2,.5-2.96,1.89Z"/><path class="cls-1" d="M185.57,152.32c0-2.25,1.05-3.52,2.61-3.52s2.63,1.28,2.63,3.52-1.06,3.55-2.63,3.55-2.61-1.31-2.61-3.55ZM189.53,152.32c0-1.73-.56-2.49-1.35-2.49s-1.34.76-1.34,2.49.56,2.52,1.34,2.52,1.35-.8,1.35-2.52ZM194.65,148.8h1.11l-6.12,11.58h-1.11l6.12-11.58ZM193.49,156.85c0-2.25,1.06-3.52,2.63-3.52s2.61,1.27,2.61,3.52-1.06,3.54-2.61,3.54-2.63-1.29-2.63-3.54ZM197.46,156.85c0-1.73-.56-2.49-1.34-2.49s-1.34.76-1.34,2.49.55,2.52,1.34,2.52,1.34-.8,1.34-2.52Z"/><path class="cls-1" d="M66.92,91.12h-6.8v-1.64l6.24-9.57h2.85v9.31h1.98v1.9h-1.98v4.05h-2.3v-4.05ZM66.92,89.23v-3.86c0-.85.06-2.22.11-3.07h-.09c-.38.77-.81,1.49-1.26,2.28l-3.09,4.64h4.32Z"/><path class="cls-1" d="M72.84,87.48c0-5.13,1.96-7.86,5.07-7.86s5.07,2.75,5.07,7.86-1.94,7.97-5.07,7.97-5.07-2.83-5.07-7.97ZM80.64,87.48c0-4.39-1.13-5.92-2.73-5.92s-2.73,1.53-2.73,5.92,1.13,6.03,2.73,6.03,2.73-1.64,2.73-6.03Z"/><path class="cls-1" d="M89.43,85.17c-.35.82-.79,1.65-1.26,2.42v8.54h-1.2v-6.83c-.47.61-.97,1.16-1.5,1.64-.11-.29-.46-.9-.66-1.16,1.39-1.17,2.72-3.05,3.52-4.97l1.1.36ZM92.75,89.49c.4,3.06,1.15,5.12,2.33,5.26.31.01.5-.67.61-2.08.22.24.74.55.96.64-.29,2.26-.86,2.87-1.52,2.83-2.08-.17-3.06-2.65-3.53-6.48l-2.73.35-.17-1.1,2.8-.35c-.1-1.14-.17-2.36-.22-3.67h1.17c.04,1.25.1,2.43.2,3.51l3.66-.46.15,1.09-3.7.47ZM95.31,87.49c-.36-.57-1.17-1.44-1.87-2.06l.86-.55c.71.59,1.54,1.42,1.93,2l-.92.61Z"/><path class="cls-1" d="M57.23,116.12h-6.67v-1.61l6.12-9.38h2.8v9.13h1.94v1.86h-1.94v3.97h-2.26v-3.97ZM57.23,114.26v-3.78c0-.84.06-2.17.1-3.01h-.08c-.38.75-.79,1.46-1.23,2.24l-3.03,4.55h4.24Z"/><path class="cls-1" d="M63.85,118.11h3.36v-10.28h-2.76v-1.53c1.44-.25,2.47-.63,3.34-1.17h1.82v12.98h3.01v1.99h-8.78v-1.99Z"/><path class="cls-1" d="M75.47,118.69c0-1,.71-1.71,1.61-1.71s1.61.71,1.61,1.71-.71,1.67-1.61,1.67-1.61-.69-1.61-1.67Z"/><path class="cls-1" d="M81.17,112.55c0-5.04,1.92-7.71,4.97-7.71s4.97,2.7,4.97,7.71-1.9,7.81-4.97,7.81-4.97-2.78-4.97-7.81ZM88.82,112.55c0-4.3-1.11-5.81-2.67-5.81s-2.67,1.5-2.67,5.81,1.11,5.91,2.67,5.91,2.67-1.61,2.67-5.91Z"/><path class="cls-1" d="M92.63,112.55c0-2.15,1-3.38,2.5-3.38s2.52,1.22,2.52,3.38-1.02,3.41-2.52,3.41-2.5-1.25-2.5-3.41ZM96.43,112.55c0-1.66-.54-2.39-1.3-2.39s-1.28.73-1.28,2.39.54,2.42,1.28,2.42,1.3-.77,1.3-2.42ZM101.33,109.18h1.06l-5.87,11.11h-1.06l5.87-11.11ZM100.22,116.89c0-2.15,1.02-3.38,2.52-3.38s2.5,1.22,2.5,3.38-1.02,3.39-2.5,3.39-2.52-1.24-2.52-3.39ZM104.02,116.89c0-1.66-.54-2.39-1.28-2.39s-1.28.73-1.28,2.39.52,2.42,1.28,2.42,1.28-.77,1.28-2.42Z"/><rect class="cls-2" x="83.28" y="5.56" width="30.24" height=".39"/><rect class="cls-2" x="117.87" y="3.99" width=".39" height="14.67" transform="translate(20.08 78.16) rotate(-39.78)"/></g></svg>