<svg xmlns="http://www.w3.org/2000/svg" xmlns:xlink="http://www.w3.org/1999/xlink" width="40.557" height="138.217" viewBox="0 0 40.557 138.217"><defs><clipPath id="a"><rect width="40.557" height="138.217" fill="#cd403c"/></clipPath></defs><g clip-path="url(#a)"><path d="M0,101.849c-.088-3.786,1.984-6.675,6.494-7.035,5.083-.407,6.714,4.009,7.384,7.395l2.526-1.718a3.107,3.107,0,1,1,3.718,4.979l-5.261,4.3,1.447,11.843,13.279,1.321c2.242.462,4.417,1.442,5.075,4.173l3.548,23.356a3.829,3.829,0,0,1-7.4,1.981l-5.371-19.092H9.812c-3.854,0-6.022-2.825-6.74-6.991C3.139,126.172,0,101.849,0,101.849" transform="translate(2.213 -17.069)" fill="#cd403c"/><path d="M45.791,79.707a7.986,7.986,0,1,1-6.222-9.426,7.986,7.986,0,0,1,6.222,9.426" transform="translate(-29.979 -12.626)" fill="#cd403c"/><rect width="20.564" height="4.082" transform="translate(7.447 117.702)" fill="#cd403c"/><path d="M24.541,118.511a1.083,1.083,0,0,0,2.165,0V1.081a1.083,1.083,0,0,0-2.165,0Z" transform="translate(-6.271)" fill="#cd403c"/></g></svg>