<svg xmlns="http://www.w3.org/2000/svg" xmlns:xlink="http://www.w3.org/1999/xlink" width="580" height="272" viewBox="0 0 580 272"><defs><clipPath id="a"><rect width="218" height="176" fill="none"/></clipPath><clipPath id="b"><rect width="32" height="74" fill="#cd403c"/></clipPath><clipPath id="l"><rect width="343" height="272" fill="none"/></clipPath><clipPath id="m"><rect width="32" height="75" fill="#153364"/></clipPath></defs><g transform="translate(0)"><g transform="translate(362 96)" clip-path="url(#a)"><g transform="translate(0 0)" clip-path="url(#b)"><path d="M22.914,12.388a6.028,6.028,0,0,0,5.846-6.195A6.027,6.027,0,0,0,22.914,0a6.027,6.027,0,0,0-5.846,6.194,6.028,6.028,0,0,0,5.846,6.195" transform="translate(-7.142 0)" fill="#cd403c"/><path d="M31.473,46.233l-4.3-16.183C25.984,25.812,23.328,23,20.34,23H11.2c-2.988,0-5.644,2.809-6.83,7.047L.07,46.233a2.569,2.569,0,0,0,1.754,3.09A2.36,2.36,0,0,0,4.717,47.5L9.009,31.365h1.266L2.809,59.426H9.847V80.241a2.8,2.8,0,0,0,2.718,2.88,2.8,2.8,0,0,0,2.719-2.88V59.426h1.5V80.241a2.723,2.723,0,1,0,5.436,0V59.426h6.514L21.268,31.365h1.266L26.826,47.5a2.361,2.361,0,0,0,2.893,1.825,2.57,2.57,0,0,0,1.754-3.09" transform="translate(0 -8.828)" fill="#cd403c"/></g><g transform="translate(44)"><g transform="translate(0 0)" clip-path="url(#b)"><path d="M22.914,12.388a6.028,6.028,0,0,0,5.846-6.195A6.027,6.027,0,0,0,22.914,0a6.027,6.027,0,0,0-5.846,6.194,6.028,6.028,0,0,0,5.846,6.195" transform="translate(-7.142 0)" fill="#cd403c"/><path d="M31.473,46.233l-4.3-16.183C25.984,25.812,23.328,23,20.34,23H11.2c-2.988,0-5.644,2.809-6.83,7.047L.07,46.233a2.569,2.569,0,0,0,1.754,3.09A2.36,2.36,0,0,0,4.717,47.5L9.009,31.365h1.266L2.809,59.426H9.847V80.241a2.8,2.8,0,0,0,2.718,2.88,2.8,2.8,0,0,0,2.719-2.88V59.426h1.5V80.241a2.723,2.723,0,1,0,5.436,0V59.426h6.514L21.268,31.365h1.266L26.826,47.5a2.361,2.361,0,0,0,2.893,1.825,2.57,2.57,0,0,0,1.754-3.09" transform="translate(0 -8.828)" fill="#cd403c"/></g></g><g transform="translate(88)"><g transform="translate(0 0)" clip-path="url(#b)"><path d="M22.914,12.388a6.028,6.028,0,0,0,5.846-6.195A6.027,6.027,0,0,0,22.914,0a6.027,6.027,0,0,0-5.846,6.194,6.028,6.028,0,0,0,5.846,6.195" transform="translate(-7.142 0)" fill="#cd403c"/><path d="M31.473,46.233l-4.3-16.183C25.984,25.812,23.328,23,20.34,23H11.2c-2.988,0-5.644,2.809-6.83,7.047L.07,46.233a2.569,2.569,0,0,0,1.754,3.09A2.36,2.36,0,0,0,4.717,47.5L9.009,31.365h1.266L2.809,59.426H9.847V80.241a2.8,2.8,0,0,0,2.718,2.88,2.8,2.8,0,0,0,2.719-2.88V59.426h1.5V80.241a2.723,2.723,0,1,0,5.436,0V59.426h6.514L21.268,31.365h1.266L26.826,47.5a2.361,2.361,0,0,0,2.893,1.825,2.57,2.57,0,0,0,1.754-3.09" transform="translate(0 -8.828)" fill="#cd403c"/></g></g><g transform="translate(132)"><g transform="translate(0 0)" clip-path="url(#b)"><path d="M22.914,12.388a6.028,6.028,0,0,0,5.846-6.195A6.027,6.027,0,0,0,22.914,0a6.027,6.027,0,0,0-5.846,6.194,6.028,6.028,0,0,0,5.846,6.195" transform="translate(-7.142 0)" fill="#cd403c"/><path d="M31.473,46.233l-4.3-16.183C25.984,25.812,23.328,23,20.34,23H11.2c-2.988,0-5.644,2.809-6.83,7.047L.07,46.233a2.569,2.569,0,0,0,1.754,3.09A2.36,2.36,0,0,0,4.717,47.5L9.009,31.365h1.266L2.809,59.426H9.847V80.241a2.8,2.8,0,0,0,2.718,2.88,2.8,2.8,0,0,0,2.719-2.88V59.426h1.5V80.241a2.723,2.723,0,1,0,5.436,0V59.426h6.514L21.268,31.365h1.266L26.826,47.5a2.361,2.361,0,0,0,2.893,1.825,2.57,2.57,0,0,0,1.754-3.09" transform="translate(0 -8.828)" fill="#cd403c"/></g></g><g transform="translate(176)"><g transform="translate(0 0)" clip-path="url(#b)"><path d="M22.914,12.388a6.028,6.028,0,0,0,5.846-6.195A6.027,6.027,0,0,0,22.914,0a6.027,6.027,0,0,0-5.846,6.194,6.028,6.028,0,0,0,5.846,6.195" transform="translate(-7.142 0)" fill="#cd403c"/><path d="M31.473,46.233l-4.3-16.183C25.984,25.812,23.328,23,20.34,23H11.2c-2.988,0-5.644,2.809-6.83,7.047L.07,46.233a2.569,2.569,0,0,0,1.754,3.09A2.36,2.36,0,0,0,4.717,47.5L9.009,31.365h1.266L2.809,59.426H9.847V80.241a2.8,2.8,0,0,0,2.718,2.88,2.8,2.8,0,0,0,2.719-2.88V59.426h1.5V80.241a2.723,2.723,0,1,0,5.436,0V59.426h6.514L21.268,31.365h1.266L26.826,47.5a2.361,2.361,0,0,0,2.893,1.825,2.57,2.57,0,0,0,1.754-3.09" transform="translate(0 -8.828)" fill="#cd403c"/></g></g><g transform="translate(0 96)"><g transform="translate(0 0)" clip-path="url(#b)"><path d="M22.914,12.388a6.028,6.028,0,0,0,5.846-6.195A6.027,6.027,0,0,0,22.914,0a6.027,6.027,0,0,0-5.846,6.194,6.028,6.028,0,0,0,5.846,6.195" transform="translate(-7.142 0)" fill="#cd403c"/><path d="M31.473,46.233l-4.3-16.183C25.984,25.812,23.328,23,20.34,23H11.2c-2.988,0-5.644,2.809-6.83,7.047L.07,46.233a2.569,2.569,0,0,0,1.754,3.09A2.36,2.36,0,0,0,4.717,47.5L9.009,31.365h1.266L2.809,59.426H9.847V80.241a2.8,2.8,0,0,0,2.718,2.88,2.8,2.8,0,0,0,2.719-2.88V59.426h1.5V80.241a2.723,2.723,0,1,0,5.436,0V59.426h6.514L21.268,31.365h1.266L26.826,47.5a2.361,2.361,0,0,0,2.893,1.825,2.57,2.57,0,0,0,1.754-3.09" transform="translate(0 -8.828)" fill="#cd403c"/></g></g><g transform="translate(44 96)"><g transform="translate(0 0)" clip-path="url(#b)"><path d="M22.914,12.388a6.028,6.028,0,0,0,5.846-6.195A6.027,6.027,0,0,0,22.914,0a6.027,6.027,0,0,0-5.846,6.194,6.028,6.028,0,0,0,5.846,6.195" transform="translate(-7.142 0)" fill="#cd403c"/><path d="M31.473,46.233l-4.3-16.183C25.984,25.812,23.328,23,20.34,23H11.2c-2.988,0-5.644,2.809-6.83,7.047L.07,46.233a2.569,2.569,0,0,0,1.754,3.09A2.36,2.36,0,0,0,4.717,47.5L9.009,31.365h1.266L2.809,59.426H9.847V80.241a2.8,2.8,0,0,0,2.718,2.88,2.8,2.8,0,0,0,2.719-2.88V59.426h1.5V80.241a2.723,2.723,0,1,0,5.436,0V59.426h6.514L21.268,31.365h1.266L26.826,47.5a2.361,2.361,0,0,0,2.893,1.825,2.57,2.57,0,0,0,1.754-3.09" transform="translate(0 -8.828)" fill="#cd403c"/></g></g><g transform="translate(88 96)"><g transform="translate(0 0)" clip-path="url(#b)"><path d="M22.914,12.388a6.028,6.028,0,0,0,5.846-6.195A6.027,6.027,0,0,0,22.914,0a6.027,6.027,0,0,0-5.846,6.194,6.028,6.028,0,0,0,5.846,6.195" transform="translate(-7.142 0)" fill="#cd403c"/><path d="M31.473,46.233l-4.3-16.183C25.984,25.812,23.328,23,20.34,23H11.2c-2.988,0-5.644,2.809-6.83,7.047L.07,46.233a2.569,2.569,0,0,0,1.754,3.09A2.36,2.36,0,0,0,4.717,47.5L9.009,31.365h1.266L2.809,59.426H9.847V80.241a2.8,2.8,0,0,0,2.718,2.88,2.8,2.8,0,0,0,2.719-2.88V59.426h1.5V80.241a2.723,2.723,0,1,0,5.436,0V59.426h6.514L21.268,31.365h1.266L26.826,47.5a2.361,2.361,0,0,0,2.893,1.825,2.57,2.57,0,0,0,1.754-3.09" transform="translate(0 -8.828)" fill="#cd403c"/></g></g><g transform="translate(132 96)"><g transform="translate(0 0)" clip-path="url(#b)"><path d="M22.914,12.388a6.028,6.028,0,0,0,5.846-6.195A6.027,6.027,0,0,0,22.914,0a6.027,6.027,0,0,0-5.846,6.194,6.028,6.028,0,0,0,5.846,6.195" transform="translate(-7.142 0)" fill="#cd403c"/><path d="M31.473,46.233l-4.3-16.183C25.984,25.812,23.328,23,20.34,23H11.2c-2.988,0-5.644,2.809-6.83,7.047L.07,46.233a2.569,2.569,0,0,0,1.754,3.09A2.36,2.36,0,0,0,4.717,47.5L9.009,31.365h1.266L2.809,59.426H9.847V80.241a2.8,2.8,0,0,0,2.718,2.88,2.8,2.8,0,0,0,2.719-2.88V59.426h1.5V80.241a2.723,2.723,0,1,0,5.436,0V59.426h6.514L21.268,31.365h1.266L26.826,47.5a2.361,2.361,0,0,0,2.893,1.825,2.57,2.57,0,0,0,1.754-3.09" transform="translate(0 -8.828)" fill="#cd403c"/></g></g><g transform="translate(176 96)"><g transform="translate(0 0)" clip-path="url(#b)"><path d="M22.914,12.388a6.028,6.028,0,0,0,5.846-6.195A6.027,6.027,0,0,0,22.914,0a6.027,6.027,0,0,0-5.846,6.194,6.028,6.028,0,0,0,5.846,6.195" transform="translate(-7.142 0)" fill="#cd403c"/><path d="M31.473,46.233l-4.3-16.183C25.984,25.812,23.328,23,20.34,23H11.2c-2.988,0-5.644,2.809-6.83,7.047L.07,46.233a2.569,2.569,0,0,0,1.754,3.09A2.36,2.36,0,0,0,4.717,47.5L9.009,31.365h1.266L2.809,59.426H9.847V80.241a2.8,2.8,0,0,0,2.718,2.88,2.8,2.8,0,0,0,2.719-2.88V59.426h1.5V80.241a2.723,2.723,0,1,0,5.436,0V59.426h6.514L21.268,31.365h1.266L26.826,47.5a2.361,2.361,0,0,0,2.893,1.825,2.57,2.57,0,0,0,1.754-3.09" transform="translate(0 -8.828)" fill="#cd403c"/></g></g></g><g transform="translate(0)" clip-path="url(#l)"><g clip-path="url(#m)"><path d="M22.235,14.3a7.019,7.019,0,0,0,6.879-7.151A7.018,7.018,0,0,0,22.235,0a7.019,7.019,0,0,0-6.88,7.149,7.019,7.019,0,0,0,6.88,7.151" transform="translate(-5.665)" fill="#153364"/><path d="M23.7,24.882H6.59c-3.156,0-6.59,3.128-6.59,6V50.818a2.738,2.738,0,0,0,2.857,2.6,2.739,2.739,0,0,0,2.858-2.6V34.428H7.032V78.92a3.6,3.6,0,0,0,3.754,3.419,3.6,3.6,0,0,0,3.754-3.419V53.1h1.212V78.92a3.6,3.6,0,0,0,3.754,3.419,3.6,3.6,0,0,0,3.753-3.419V34.428h1.318v16.39a2.869,2.869,0,0,0,5.713,0V30.884c0-2.874-3.435-6-6.59-6" transform="translate(0.855 -8.022)" fill="#153364"/></g><g transform="translate(44)"><g clip-path="url(#m)"><path d="M22.235,14.3a7.019,7.019,0,0,0,6.879-7.151A7.018,7.018,0,0,0,22.235,0a7.019,7.019,0,0,0-6.88,7.149,7.019,7.019,0,0,0,6.88,7.151" transform="translate(-5.665)" fill="#153364"/><path d="M23.7,24.882H6.59c-3.156,0-6.59,3.128-6.59,6V50.818a2.738,2.738,0,0,0,2.857,2.6,2.739,2.739,0,0,0,2.858-2.6V34.428H7.032V78.92a3.6,3.6,0,0,0,3.754,3.419,3.6,3.6,0,0,0,3.754-3.419V53.1h1.212V78.92a3.6,3.6,0,0,0,3.754,3.419,3.6,3.6,0,0,0,3.753-3.419V34.428h1.318v16.39a2.869,2.869,0,0,0,5.713,0V30.884c0-2.874-3.435-6-6.59-6" transform="translate(0.855 -8.022)" fill="#153364"/></g></g><g transform="translate(88)"><g clip-path="url(#m)"><path d="M22.235,14.3a7.019,7.019,0,0,0,6.879-7.151A7.018,7.018,0,0,0,22.235,0a7.019,7.019,0,0,0-6.88,7.149,7.019,7.019,0,0,0,6.88,7.151" transform="translate(-5.665)" fill="#153364"/><path d="M23.7,24.882H6.59c-3.156,0-6.59,3.128-6.59,6V50.818a2.738,2.738,0,0,0,2.857,2.6,2.739,2.739,0,0,0,2.858-2.6V34.428H7.032V78.92a3.6,3.6,0,0,0,3.754,3.419,3.6,3.6,0,0,0,3.754-3.419V53.1h1.212V78.92a3.6,3.6,0,0,0,3.754,3.419,3.6,3.6,0,0,0,3.753-3.419V34.428h1.318v16.39a2.869,2.869,0,0,0,5.713,0V30.884c0-2.874-3.435-6-6.59-6" transform="translate(0.855 -8.022)" fill="#153364"/></g></g><g transform="translate(132)"><g clip-path="url(#m)"><path d="M22.235,14.3a7.019,7.019,0,0,0,6.879-7.151A7.018,7.018,0,0,0,22.235,0a7.019,7.019,0,0,0-6.88,7.149,7.019,7.019,0,0,0,6.88,7.151" transform="translate(-5.665)" fill="#153364"/><path d="M23.7,24.882H6.59c-3.156,0-6.59,3.128-6.59,6V50.818a2.738,2.738,0,0,0,2.857,2.6,2.739,2.739,0,0,0,2.858-2.6V34.428H7.032V78.92a3.6,3.6,0,0,0,3.754,3.419,3.6,3.6,0,0,0,3.754-3.419V53.1h1.212V78.92a3.6,3.6,0,0,0,3.754,3.419,3.6,3.6,0,0,0,3.753-3.419V34.428h1.318v16.39a2.869,2.869,0,0,0,5.713,0V30.884c0-2.874-3.435-6-6.59-6" transform="translate(0.855 -8.022)" fill="#153364"/></g></g><g transform="translate(176)"><g clip-path="url(#m)"><path d="M22.235,14.3a7.019,7.019,0,0,0,6.879-7.151A7.018,7.018,0,0,0,22.235,0a7.019,7.019,0,0,0-6.88,7.149,7.019,7.019,0,0,0,6.88,7.151" transform="translate(-5.665)" fill="#153364"/><path d="M23.7,24.882H6.59c-3.156,0-6.59,3.128-6.59,6V50.818a2.738,2.738,0,0,0,2.857,2.6,2.739,2.739,0,0,0,2.858-2.6V34.428H7.032V78.92a3.6,3.6,0,0,0,3.754,3.419,3.6,3.6,0,0,0,3.754-3.419V53.1h1.212V78.92a3.6,3.6,0,0,0,3.754,3.419,3.6,3.6,0,0,0,3.753-3.419V34.428h1.318v16.39a2.869,2.869,0,0,0,5.713,0V30.884c0-2.874-3.435-6-6.59-6" transform="translate(0.855 -8.022)" fill="#153364"/></g></g><g transform="translate(220)"><g clip-path="url(#m)"><path d="M22.235,14.3a7.019,7.019,0,0,0,6.879-7.151A7.018,7.018,0,0,0,22.235,0a7.019,7.019,0,0,0-6.88,7.149,7.019,7.019,0,0,0,6.88,7.151" transform="translate(-5.665)" fill="#153364"/><path d="M23.7,24.882H6.59c-3.156,0-6.59,3.128-6.59,6V50.818a2.738,2.738,0,0,0,2.857,2.6,2.739,2.739,0,0,0,2.858-2.6V34.428H7.032V78.92a3.6,3.6,0,0,0,3.754,3.419,3.6,3.6,0,0,0,3.754-3.419V53.1h1.212V78.92a3.6,3.6,0,0,0,3.754,3.419,3.6,3.6,0,0,0,3.753-3.419V34.428h1.318v16.39a2.869,2.869,0,0,0,5.713,0V30.884c0-2.874-3.435-6-6.59-6" transform="translate(0.855 -8.022)" fill="#153364"/></g></g><g transform="translate(264)"><g clip-path="url(#m)"><path d="M22.235,14.3a7.019,7.019,0,0,0,6.879-7.151A7.018,7.018,0,0,0,22.235,0a7.019,7.019,0,0,0-6.88,7.149,7.019,7.019,0,0,0,6.88,7.151" transform="translate(-5.665)" fill="#153364"/><path d="M23.7,24.882H6.59c-3.156,0-6.59,3.128-6.59,6V50.818a2.738,2.738,0,0,0,2.857,2.6,2.739,2.739,0,0,0,2.858-2.6V34.428H7.032V78.92a3.6,3.6,0,0,0,3.754,3.419,3.6,3.6,0,0,0,3.754-3.419V53.1h1.212V78.92a3.6,3.6,0,0,0,3.754,3.419,3.6,3.6,0,0,0,3.753-3.419V34.428h1.318v16.39a2.869,2.869,0,0,0,5.713,0V30.884c0-2.874-3.435-6-6.59-6" transform="translate(0.855 -8.022)" fill="#153364"/></g></g><g transform="translate(308)"><g clip-path="url(#m)"><path d="M22.235,14.3a7.019,7.019,0,0,0,6.879-7.151A7.018,7.018,0,0,0,22.235,0a7.019,7.019,0,0,0-6.88,7.149,7.019,7.019,0,0,0,6.88,7.151" transform="translate(-5.665)" fill="#153364"/><path d="M23.7,24.882H6.59c-3.156,0-6.59,3.128-6.59,6V50.818a2.738,2.738,0,0,0,2.857,2.6,2.739,2.739,0,0,0,2.858-2.6V34.428H7.032V78.92a3.6,3.6,0,0,0,3.754,3.419,3.6,3.6,0,0,0,3.754-3.419V53.1h1.212V78.92a3.6,3.6,0,0,0,3.754,3.419,3.6,3.6,0,0,0,3.753-3.419V34.428h1.318v16.39a2.869,2.869,0,0,0,5.713,0V30.884c0-2.874-3.435-6-6.59-6" transform="translate(0.855 -8.022)" fill="#153364"/></g></g><g transform="translate(0 96)"><g clip-path="url(#m)"><path d="M22.235,14.3a7.019,7.019,0,0,0,6.879-7.151A7.018,7.018,0,0,0,22.235,0a7.019,7.019,0,0,0-6.88,7.149,7.019,7.019,0,0,0,6.88,7.151" transform="translate(-5.665)" fill="#153364"/><path d="M23.7,24.882H6.59c-3.156,0-6.59,3.128-6.59,6V50.818a2.738,2.738,0,0,0,2.857,2.6,2.739,2.739,0,0,0,2.858-2.6V34.428H7.032V78.92a3.6,3.6,0,0,0,3.754,3.419,3.6,3.6,0,0,0,3.754-3.419V53.1h1.212V78.92a3.6,3.6,0,0,0,3.754,3.419,3.6,3.6,0,0,0,3.753-3.419V34.428h1.318v16.39a2.869,2.869,0,0,0,5.713,0V30.884c0-2.874-3.435-6-6.59-6" transform="translate(0.855 -8.022)" fill="#153364"/></g></g><g transform="translate(44 96)"><g clip-path="url(#m)"><path d="M22.235,14.3a7.019,7.019,0,0,0,6.879-7.151A7.018,7.018,0,0,0,22.235,0a7.019,7.019,0,0,0-6.88,7.149,7.019,7.019,0,0,0,6.88,7.151" transform="translate(-5.665)" fill="#153364"/><path d="M23.7,24.882H6.59c-3.156,0-6.59,3.128-6.59,6V50.818a2.738,2.738,0,0,0,2.857,2.6,2.739,2.739,0,0,0,2.858-2.6V34.428H7.032V78.92a3.6,3.6,0,0,0,3.754,3.419,3.6,3.6,0,0,0,3.754-3.419V53.1h1.212V78.92a3.6,3.6,0,0,0,3.754,3.419,3.6,3.6,0,0,0,3.753-3.419V34.428h1.318v16.39a2.869,2.869,0,0,0,5.713,0V30.884c0-2.874-3.435-6-6.59-6" transform="translate(0.855 -8.022)" fill="#153364"/></g></g><g transform="translate(88 96)"><g clip-path="url(#m)"><path d="M22.235,14.3a7.019,7.019,0,0,0,6.879-7.151A7.018,7.018,0,0,0,22.235,0a7.019,7.019,0,0,0-6.88,7.149,7.019,7.019,0,0,0,6.88,7.151" transform="translate(-5.665)" fill="#153364"/><path d="M23.7,24.882H6.59c-3.156,0-6.59,3.128-6.59,6V50.818a2.738,2.738,0,0,0,2.857,2.6,2.739,2.739,0,0,0,2.858-2.6V34.428H7.032V78.92a3.6,3.6,0,0,0,3.754,3.419,3.6,3.6,0,0,0,3.754-3.419V53.1h1.212V78.92a3.6,3.6,0,0,0,3.754,3.419,3.6,3.6,0,0,0,3.753-3.419V34.428h1.318v16.39a2.869,2.869,0,0,0,5.713,0V30.884c0-2.874-3.435-6-6.59-6" transform="translate(0.855 -8.022)" fill="#153364"/></g></g><g transform="translate(132 96)"><g clip-path="url(#m)"><path d="M22.235,14.3a7.019,7.019,0,0,0,6.879-7.151A7.018,7.018,0,0,0,22.235,0a7.019,7.019,0,0,0-6.88,7.149,7.019,7.019,0,0,0,6.88,7.151" transform="translate(-5.665)" fill="#153364"/><path d="M23.7,24.882H6.59c-3.156,0-6.59,3.128-6.59,6V50.818a2.738,2.738,0,0,0,2.857,2.6,2.739,2.739,0,0,0,2.858-2.6V34.428H7.032V78.92a3.6,3.6,0,0,0,3.754,3.419,3.6,3.6,0,0,0,3.754-3.419V53.1h1.212V78.92a3.6,3.6,0,0,0,3.754,3.419,3.6,3.6,0,0,0,3.753-3.419V34.428h1.318v16.39a2.869,2.869,0,0,0,5.713,0V30.884c0-2.874-3.435-6-6.59-6" transform="translate(0.855 -8.022)" fill="#153364"/></g></g><g transform="translate(176 96)"><g clip-path="url(#m)"><path d="M22.235,14.3a7.019,7.019,0,0,0,6.879-7.151A7.018,7.018,0,0,0,22.235,0a7.019,7.019,0,0,0-6.88,7.149,7.019,7.019,0,0,0,6.88,7.151" transform="translate(-5.665)" fill="#153364"/><path d="M23.7,24.882H6.59c-3.156,0-6.59,3.128-6.59,6V50.818a2.738,2.738,0,0,0,2.857,2.6,2.739,2.739,0,0,0,2.858-2.6V34.428H7.032V78.92a3.6,3.6,0,0,0,3.754,3.419,3.6,3.6,0,0,0,3.754-3.419V53.1h1.212V78.92a3.6,3.6,0,0,0,3.754,3.419,3.6,3.6,0,0,0,3.753-3.419V34.428h1.318v16.39a2.869,2.869,0,0,0,5.713,0V30.884c0-2.874-3.435-6-6.59-6" transform="translate(0.855 -8.022)" fill="#153364"/></g></g><g transform="translate(220 96)"><g clip-path="url(#m)"><path d="M22.235,14.3a7.019,7.019,0,0,0,6.879-7.151A7.018,7.018,0,0,0,22.235,0a7.019,7.019,0,0,0-6.88,7.149,7.019,7.019,0,0,0,6.88,7.151" transform="translate(-5.665)" fill="#153364"/><path d="M23.7,24.882H6.59c-3.156,0-6.59,3.128-6.59,6V50.818a2.738,2.738,0,0,0,2.857,2.6,2.739,2.739,0,0,0,2.858-2.6V34.428H7.032V78.92a3.6,3.6,0,0,0,3.754,3.419,3.6,3.6,0,0,0,3.754-3.419V53.1h1.212V78.92a3.6,3.6,0,0,0,3.754,3.419,3.6,3.6,0,0,0,3.753-3.419V34.428h1.318v16.39a2.869,2.869,0,0,0,5.713,0V30.884c0-2.874-3.435-6-6.59-6" transform="translate(0.855 -8.022)" fill="#153364"/></g></g><g transform="translate(264 96)"><g clip-path="url(#m)"><path d="M22.235,14.3a7.019,7.019,0,0,0,6.879-7.151A7.018,7.018,0,0,0,22.235,0a7.019,7.019,0,0,0-6.88,7.149,7.019,7.019,0,0,0,6.88,7.151" transform="translate(-5.665)" fill="#153364"/><path d="M23.7,24.882H6.59c-3.156,0-6.59,3.128-6.59,6V50.818a2.738,2.738,0,0,0,2.857,2.6,2.739,2.739,0,0,0,2.858-2.6V34.428H7.032V78.92a3.6,3.6,0,0,0,3.754,3.419,3.6,3.6,0,0,0,3.754-3.419V53.1h1.212V78.92a3.6,3.6,0,0,0,3.754,3.419,3.6,3.6,0,0,0,3.753-3.419V34.428h1.318v16.39a2.869,2.869,0,0,0,5.713,0V30.884c0-2.874-3.435-6-6.59-6" transform="translate(0.855 -8.022)" fill="#153364"/></g></g><g transform="translate(308 96)"><g clip-path="url(#m)"><path d="M22.235,14.3a7.019,7.019,0,0,0,6.879-7.151A7.018,7.018,0,0,0,22.235,0a7.019,7.019,0,0,0-6.88,7.149,7.019,7.019,0,0,0,6.88,7.151" transform="translate(-5.665)" fill="#153364"/><path d="M23.7,24.882H6.59c-3.156,0-6.59,3.128-6.59,6V50.818a2.738,2.738,0,0,0,2.857,2.6,2.739,2.739,0,0,0,2.858-2.6V34.428H7.032V78.92a3.6,3.6,0,0,0,3.754,3.419,3.6,3.6,0,0,0,3.754-3.419V53.1h1.212V78.92a3.6,3.6,0,0,0,3.754,3.419,3.6,3.6,0,0,0,3.753-3.419V34.428h1.318v16.39a2.869,2.869,0,0,0,5.713,0V30.884c0-2.874-3.435-6-6.59-6" transform="translate(0.855 -8.022)" fill="#153364"/></g></g><g transform="translate(0 192)"><g clip-path="url(#m)"><path d="M22.235,14.3a7.019,7.019,0,0,0,6.879-7.151A7.018,7.018,0,0,0,22.235,0a7.019,7.019,0,0,0-6.88,7.149,7.019,7.019,0,0,0,6.88,7.151" transform="translate(-5.665)" fill="#153364"/><path d="M23.7,24.882H6.59c-3.156,0-6.59,3.128-6.59,6V50.818a2.738,2.738,0,0,0,2.857,2.6,2.739,2.739,0,0,0,2.858-2.6V34.428H7.032V78.92a3.6,3.6,0,0,0,3.754,3.419,3.6,3.6,0,0,0,3.754-3.419V53.1h1.212V78.92a3.6,3.6,0,0,0,3.754,3.419,3.6,3.6,0,0,0,3.753-3.419V34.428h1.318v16.39a2.869,2.869,0,0,0,5.713,0V30.884c0-2.874-3.435-6-6.59-6" transform="translate(0.855 -8.022)" fill="#153364"/></g></g><g transform="translate(44 192)"><g clip-path="url(#m)"><path d="M22.235,14.3a7.019,7.019,0,0,0,6.879-7.151A7.018,7.018,0,0,0,22.235,0a7.019,7.019,0,0,0-6.88,7.149,7.019,7.019,0,0,0,6.88,7.151" transform="translate(-5.665)" fill="#153364"/><path d="M23.7,24.882H6.59c-3.156,0-6.59,3.128-6.59,6V50.818a2.738,2.738,0,0,0,2.857,2.6,2.739,2.739,0,0,0,2.858-2.6V34.428H7.032V78.92a3.6,3.6,0,0,0,3.754,3.419,3.6,3.6,0,0,0,3.754-3.419V53.1h1.212V78.92a3.6,3.6,0,0,0,3.754,3.419,3.6,3.6,0,0,0,3.753-3.419V34.428h1.318v16.39a2.869,2.869,0,0,0,5.713,0V30.884c0-2.874-3.435-6-6.59-6" transform="translate(0.855 -8.022)" fill="#153364"/></g></g><g transform="translate(88 192)"><g clip-path="url(#m)"><path d="M22.235,14.3a7.019,7.019,0,0,0,6.879-7.151A7.018,7.018,0,0,0,22.235,0a7.019,7.019,0,0,0-6.88,7.149,7.019,7.019,0,0,0,6.88,7.151" transform="translate(-5.665)" fill="#153364"/><path d="M23.7,24.882H6.59c-3.156,0-6.59,3.128-6.59,6V50.818a2.738,2.738,0,0,0,2.857,2.6,2.739,2.739,0,0,0,2.858-2.6V34.428H7.032V78.92a3.6,3.6,0,0,0,3.754,3.419,3.6,3.6,0,0,0,3.754-3.419V53.1h1.212V78.92a3.6,3.6,0,0,0,3.754,3.419,3.6,3.6,0,0,0,3.753-3.419V34.428h1.318v16.39a2.869,2.869,0,0,0,5.713,0V30.884c0-2.874-3.435-6-6.59-6" transform="translate(0.855 -8.022)" fill="#153364"/></g></g><g transform="translate(132 192)"><g clip-path="url(#m)"><path d="M22.235,14.3a7.019,7.019,0,0,0,6.879-7.151A7.018,7.018,0,0,0,22.235,0a7.019,7.019,0,0,0-6.88,7.149,7.019,7.019,0,0,0,6.88,7.151" transform="translate(-5.665)" fill="#153364"/><path d="M23.7,24.882H6.59c-3.156,0-6.59,3.128-6.59,6V50.818a2.738,2.738,0,0,0,2.857,2.6,2.739,2.739,0,0,0,2.858-2.6V34.428H7.032V78.92a3.6,3.6,0,0,0,3.754,3.419,3.6,3.6,0,0,0,3.754-3.419V53.1h1.212V78.92a3.6,3.6,0,0,0,3.754,3.419,3.6,3.6,0,0,0,3.753-3.419V34.428h1.318v16.39a2.869,2.869,0,0,0,5.713,0V30.884c0-2.874-3.435-6-6.59-6" transform="translate(0.855 -8.022)" fill="#153364"/></g></g><g transform="translate(176 192)"><g clip-path="url(#m)"><path d="M22.235,14.3a7.019,7.019,0,0,0,6.879-7.151A7.018,7.018,0,0,0,22.235,0a7.019,7.019,0,0,0-6.88,7.149,7.019,7.019,0,0,0,6.88,7.151" transform="translate(-5.665)" fill="#153364"/><path d="M23.7,24.882H6.59c-3.156,0-6.59,3.128-6.59,6V50.818a2.738,2.738,0,0,0,2.857,2.6,2.739,2.739,0,0,0,2.858-2.6V34.428H7.032V78.92a3.6,3.6,0,0,0,3.754,3.419,3.6,3.6,0,0,0,3.754-3.419V53.1h1.212V78.92a3.6,3.6,0,0,0,3.754,3.419,3.6,3.6,0,0,0,3.753-3.419V34.428h1.318v16.39a2.869,2.869,0,0,0,5.713,0V30.884c0-2.874-3.435-6-6.59-6" transform="translate(0.855 -8.022)" fill="#153364"/></g></g><g transform="translate(220 192)"><g clip-path="url(#m)"><path d="M22.235,14.3a7.019,7.019,0,0,0,6.879-7.151A7.018,7.018,0,0,0,22.235,0a7.019,7.019,0,0,0-6.88,7.149,7.019,7.019,0,0,0,6.88,7.151" transform="translate(-5.665)" fill="#153364"/><path d="M23.7,24.882H6.59c-3.156,0-6.59,3.128-6.59,6V50.818a2.738,2.738,0,0,0,2.857,2.6,2.739,2.739,0,0,0,2.858-2.6V34.428H7.032V78.92a3.6,3.6,0,0,0,3.754,3.419,3.6,3.6,0,0,0,3.754-3.419V53.1h1.212V78.92a3.6,3.6,0,0,0,3.754,3.419,3.6,3.6,0,0,0,3.753-3.419V34.428h1.318v16.39a2.869,2.869,0,0,0,5.713,0V30.884c0-2.874-3.435-6-6.59-6" transform="translate(0.855 -8.022)" fill="#153364"/></g></g><g transform="translate(264 192)"><g clip-path="url(#m)"><path d="M22.235,14.3a7.019,7.019,0,0,0,6.879-7.151A7.018,7.018,0,0,0,22.235,0a7.019,7.019,0,0,0-6.88,7.149,7.019,7.019,0,0,0,6.88,7.151" transform="translate(-5.665)" fill="#153364"/><path d="M23.7,24.882H6.59c-3.156,0-6.59,3.128-6.59,6V50.818a2.738,2.738,0,0,0,2.857,2.6,2.739,2.739,0,0,0,2.858-2.6V34.428H7.032V78.92a3.6,3.6,0,0,0,3.754,3.419,3.6,3.6,0,0,0,3.754-3.419V53.1h1.212V78.92a3.6,3.6,0,0,0,3.754,3.419,3.6,3.6,0,0,0,3.753-3.419V34.428h1.318v16.39a2.869,2.869,0,0,0,5.713,0V30.884c0-2.874-3.435-6-6.59-6" transform="translate(0.855 -8.022)" fill="#153364"/></g></g><g transform="translate(308 192)"><g clip-path="url(#m)"><path d="M22.235,14.3a7.019,7.019,0,0,0,6.879-7.151A7.018,7.018,0,0,0,22.235,0a7.019,7.019,0,0,0-6.88,7.149,7.019,7.019,0,0,0,6.88,7.151" transform="translate(-5.665)" fill="#153364"/><path d="M23.7,24.882H6.59c-3.156,0-6.59,3.128-6.59,6V50.818a2.738,2.738,0,0,0,2.857,2.6,2.739,2.739,0,0,0,2.858-2.6V34.428H7.032V78.92a3.6,3.6,0,0,0,3.754,3.419,3.6,3.6,0,0,0,3.754-3.419V53.1h1.212V78.92a3.6,3.6,0,0,0,3.754,3.419,3.6,3.6,0,0,0,3.753-3.419V34.428h1.318v16.39a2.869,2.869,0,0,0,5.713,0V30.884c0-2.874-3.435-6-6.59-6" transform="translate(0.855 -8.022)" fill="#153364"/></g></g></g></g></svg>