<?xml version="1.0" encoding="UTF-8"?>
<svg id="_レイヤー_2" data-name="レイヤー 2" xmlns="http://www.w3.org/2000/svg" viewBox="0 0 91 91">
  <defs>
    <style>
      .cls-1 {
        fill: #ecf3fe;
      }

      .cls-1, .cls-2 {
        stroke-width: 0px;
      }

      .cls-2 {
        fill: #1f3367;
      }
    </style>
  </defs>
  <g id="_レイヤー_2-2" data-name="レイヤー 2">
    <g>
      <circle id="_楕円形_27" data-name="楕円形 27" class="cls-1" cx="45.5" cy="45.5" r="45.5"/>
      <g>
        <path class="cls-2" d="m49.27,59.79c-.08-.18-.26-.3-.46-.3h-4.5l-5.27-13.87c-.08-.2-.27-.35-.49-.32l-19.92.99c-.16,0-.31.09-.4.23-.09.14-.1.31-.04.46l6.82,16.81c.08.19.26.31.46.31h24.87c.17,0,.32-.08.42-.22.09-.14.11-.32.04-.47l-1.54-3.6Z"/>
        <circle class="cls-2" cx="52.47" cy="34.58" r="10.67"/>
        <path class="cls-2" d="m70.5,63.44c-.16-.49-3.86-12.11-4.8-14.29-1.01-2.33-6.31-4.01-6.91-4.2-.17-.05-.35-.01-.48.1l-7.74,6.82c.05-1.14.06-2.15,0-2.82.72-.2,1.32-.83,1.45-1.47.15-.74-.58-1.35-1.59-1.56-1.02-.21-1.93.06-2.08.8-.13.64.17,1.46.75,1.92-.3.55-.66,1.41-1.03,2.39l-.35-4.5c-.02-.2-.15-.37-.34-.44-.19-.07-.4,0-.53.15-.04.05-1.02,1.18-1.72,2.09-.71.92-1.51,2.9-1.56,2.99-.08.13-.1.29-.04.44l2.27,5.58c.07.2.26.32.47.32l4.5.04c.17,0,.32.11.38.27l2.12,5.71c.08.19.26.31.46.31h16.3c.16,0,.31-.08.4-.21.09-.13.12-.29.07-.45Z"/>
      </g>
    </g>
  </g>
</svg>