<?xml version="1.0" encoding="UTF-8"?>
<svg id="_レイヤー_2" data-name="レイヤー 2" xmlns="http://www.w3.org/2000/svg" viewBox="0 0 91 91">
  <defs>
    <style>
      .cls-1 {
        fill: #ecf3fe;
      }

      .cls-1, .cls-2 {
        stroke-width: 0px;
      }

      .cls-2 {
        fill: #1f3367;
      }
    </style>
  </defs>
  <g id="_レイヤー_2-2" data-name="レイヤー 2">
    <g>
      <circle id="_楕円形_27" data-name="楕円形 27" class="cls-1" cx="45.5" cy="45.5" r="45.5"/>
      <g>
        <path class="cls-2" d="m64.74,24.11h-6.76v-1.58c0-.83-.67-1.5-1.5-1.5h-21.96c-.83,0-1.5.67-1.5,1.5v1.58h-6.76c-.83,0-1.5.67-1.5,1.5v42.87c0,.83.67,1.5,1.5,1.5h38.49c.83,0,1.5-.67,1.5-1.5V25.61c0-.83-.67-1.5-1.5-1.5Zm-28.72-.08h18.96v3.87h-18.96v-3.87Zm27.22,42.96H27.76V27.11h5.26v2.29c0,.83.67,1.5,1.5,1.5h21.96c.83,0,1.5-.67,1.5-1.5v-2.29h5.26v39.87Z"/>
        <path class="cls-2" d="m34.24,36.08h11.12c.55,0,1-.45,1-1s-.45-1-1-1h-11.12c-.55,0-1,.45-1,1s.45,1,1,1Z"/>
        <path class="cls-2" d="m56.87,60.57h-22.63c-.55,0-1,.45-1,1s.45,1,1,1h22.63c.55,0,1-.45,1-1s-.45-1-1-1Z"/>
        <path class="cls-2" d="m56.87,53.95h-22.63c-.55,0-1,.45-1,1s.45,1,1,1h22.63c.55,0,1-.45,1-1s-.45-1-1-1Z"/>
        <path class="cls-2" d="m34.24,42.7h11.12c.55,0,1-.45,1-1s-.45-1-1-1h-11.12c-.55,0-1,.45-1,1s.45,1,1,1Z"/>
        <path class="cls-2" d="m56.87,47.32h-22.63c-.55,0-1,.45-1,1s.45,1,1,1h22.63c.55,0,1-.45,1-1s-.45-1-1-1Z"/>
        <circle class="cls-2" cx="54.18" cy="37.93" r="4.73"/>
      </g>
    </g>
  </g>
</svg>