<?xml version="1.0" encoding="UTF-8"?>
<svg id="_レイヤー_2" data-name="レイヤー 2" xmlns="http://www.w3.org/2000/svg" viewBox="0 0 91 91">
  <defs>
    <style>
      .cls-1 {
        fill: #ecf3fe;
      }

      .cls-1, .cls-2 {
        stroke-width: 0px;
      }

      .cls-2 {
        fill: #1f3367;
      }
    </style>
  </defs>
  <g id="_レイヤー_2-2" data-name="レイヤー 2">
    <g>
      <circle id="_楕円形_27" data-name="楕円形 27" class="cls-1" cx="45.5" cy="45.5" r="45.5"/>
      <g>
        <path class="cls-2" d="m56.38,31.26h-22.63c-.55,0-1,.45-1,1s.45,1,1,1h22.63c.55,0,1-.45,1-1s-.45-1-1-1Z"/>
        <path class="cls-2" d="m56.38,57.74h-22.63c-.55,0-1,.45-1,1s.45,1,1,1h22.63c.55,0,1-.45,1-1s-.45-1-1-1Z"/>
        <path class="cls-2" d="m56.38,51.12h-22.63c-.55,0-1,.45-1,1s.45,1,1,1h22.63c.55,0,1-.45,1-1s-.45-1-1-1Z"/>
        <path class="cls-2" d="m56.38,37.88h-22.63c-.55,0-1,.45-1,1s.45,1,1,1h22.63c.55,0,1-.45,1-1s-.45-1-1-1Z"/>
        <path class="cls-2" d="m56.38,44.5h-22.63c-.55,0-1,.45-1,1s.45,1,1,1h22.63c.55,0,1-.45,1-1s-.45-1-1-1Z"/>
        <path class="cls-2" d="m64.3,60.95c-.83,0-1.5.67-1.5,1.5v2.99H27.32V25.56h35.49v18.34c0,.83.67,1.5,1.5,1.5s1.5-.67,1.5-1.5v-19.84c0-.83-.67-1.5-1.5-1.5H25.82c-.83,0-1.5.67-1.5,1.5v42.87c0,.83.67,1.5,1.5,1.5h38.49c.83,0,1.5-.67,1.5-1.5v-4.49c0-.83-.67-1.5-1.5-1.5Z"/>
        <path class="cls-2" d="m76.99,45.24l-1.22-2.09c.82-1.09.54-2.7-.62-3.6-1.18-.91-2.82-.76-3.67.33l-4.95,6.41,4.27,3.3,3.97-5.13.64,1.11-3.87,5.01c-.26.33-.2.81.14,1.07.33.26.81.2,1.07-.14l4.18-5.41c.19-.25.21-.58.06-.85Z"/>
        <polygon class="cls-2" points="59.95 54.8 58.66 60.88 64.22 58.1 59.95 54.8"/>
        <rect class="cls-2" x="61.27" y="49.5" width="8.21" height="5.4" transform="translate(-15.9 72.03) rotate(-52.32)"/>
      </g>
    </g>
  </g>
</svg>