<?xml version="1.0" encoding="UTF-8"?>
<svg id="_レイヤー_2" data-name="レイヤー 2" xmlns="http://www.w3.org/2000/svg" viewBox="0 0 91 91">
  <defs>
    <style>
      .cls-1 {
        fill: #ecf3fe;
      }

      .cls-1, .cls-2 {
        stroke-width: 0px;
      }

      .cls-2 {
        fill: #1f3367;
      }
    </style>
  </defs>
  <g id="_レイヤー_2-2" data-name="レイヤー 2">
    <g>
      <circle id="_楕円形_27" data-name="楕円形 27" class="cls-1" cx="45.5" cy="45.5" r="45.5"/>
      <g>
        <path class="cls-2" d="m66.58,43.84l-11.06,5.61-3.75-3.46c-.57-.52-1.44-.53-2.02-.02l-3.5,3.13c-.32.28-.5.69-.5,1.11s.17.83.49,1.12l7.42,6.78c.29.26.65.39,1.01.39s.74-.14,1.03-.41l12.58-11.82c.54-.51.63-1.34.2-1.95-.43-.61-1.24-.81-1.91-.48Z"/>
        <path class="cls-2" d="m76.01,66.04l-3.62-6.55c1.92-3.06,2.93-6.58,2.93-10.22,0-10.63-8.65-19.27-19.27-19.27-1.83,0-3.59.27-5.26.75-3.61-5.22-9.44-8.3-15.84-8.3-10.63,0-19.27,8.65-19.27,19.27,0,3.64,1.01,7.15,2.93,10.22l-3.62,6.55c-.3.55-.23,1.23.18,1.7.41.47,1.07.65,1.66.43l7.56-2.79c3.15,2.07,6.78,3.16,10.57,3.16,1.8,0,3.57-.26,5.28-.75,3.48,5.01,9.27,8.3,15.82,8.3,3.79,0,7.42-1.09,10.57-3.16l7.56,2.79c.58.21,1.25.04,1.66-.43.41-.48.48-1.15.18-1.7Zm-41.07-8.04c-3.43,0-6.71-1.06-9.48-3.05-.4-.29-.93-.36-1.4-.19l-4.51,1.66,2.11-3.82c.28-.5.24-1.11-.08-1.58-1.91-2.74-2.92-5.95-2.92-9.29,0-8.97,7.3-16.27,16.27-16.27,5.15,0,9.86,2.36,12.93,6.39-6.55,3.08-11.1,9.73-11.1,17.43,0,2.97.7,5.78,1.9,8.3-1.22.29-2.47.43-3.73.43Zm34.38,2.15l2.11,3.82-4.51-1.66c-.47-.17-.99-.1-1.39.19-2.78,2-6.06,3.05-9.49,3.05-8.97,0-16.27-7.3-16.27-16.27s7.3-16.27,16.27-16.27,16.27,7.3,16.27,16.27c0,3.34-1.01,6.55-2.92,9.29-.33.47-.36,1.08-.08,1.58Z"/>
      </g>
    </g>
  </g>
</svg>