<?xml version="1.0" encoding="UTF-8"?>
<svg id="_レイヤー_2" data-name="レイヤー 2" xmlns="http://www.w3.org/2000/svg" viewBox="0 0 91 91">
  <defs>
    <style>
      .cls-1 {
        fill: #ecf3fe;
      }

      .cls-1, .cls-2 {
        stroke-width: 0px;
      }

      .cls-2 {
        fill: #1f3367;
      }
    </style>
  </defs>
  <g id="_レイヤー_2-2" data-name="レイヤー 2">
    <g>
      <circle id="_楕円形_27" data-name="楕円形 27" class="cls-1" cx="45.5" cy="45.5" r="45.5"/>
      <g>
        <circle class="cls-2" cx="56.92" cy="43.93" r="6.76" transform="translate(-14.39 53.12) rotate(-45)"/>
        <path class="cls-2" d="m46.19,54.9c.19.29.51.45.83.45.19,0,.38-.05.55-.17.46-.31.58-.93.28-1.39l-9.02-13.53c-.31-.46-.93-.58-1.39-.28-.46.31-.58.93-.28,1.39l9.02,13.53Z"/>
        <path class="cls-2" d="m69.18,23.59H21.82c-.83,0-1.5.67-1.5,1.5v33.78c0,.83.67,1.5,1.5,1.5h24.67c-.81,2.11-1.27,4.51-1.27,7.05h22.4c0-2.55-.46-4.94-1.27-7.05h2.84c.83,0,1.5-.67,1.5-1.5V25.09c0-.83-.67-1.5-1.5-1.5Zm-1.5,33.78h-2.85c-2.05-3.19-5.06-5.22-8.42-5.22s-6.36,2.03-8.42,5.22h-24.68v-30.78h44.37v30.78Z"/>
      </g>
    </g>
  </g>
</svg>