<?xml version="1.0" encoding="UTF-8"?>
<svg id="_レイヤー_2" data-name="レイヤー_2" xmlns="http://www.w3.org/2000/svg" viewBox="0 0 383.6 55.34">
  <defs>
    <style>
      .cls-1 {
        fill: #006eb6;
      }

      .cls-2 {
        fill: #20aee5;
      }

      .cls-3 {
        fill: #231815;
      }
    </style>
  </defs>
  <g id="Layer_1">
    <g>
      <g>
        <path class="cls-3" d="M94.13,3.64c.8,0,1.17-.31,1.17-1.17,0-.37-.19-1.42-.19-1.67,0-.68.43-.8,1.05-.8,1.05,0,3.52.25,4.69.37.37,0,.93.18.93.68,0,.37-.37.56-.86.86-.25.18-.37.31-.49.62-.06.12-.12.25-.12.37,0,.55.62.74,1.05.74h7.71c1.3,0,2.65-.06,3.95-.06,1.73,0,2.84.49,2.84,2.41,0,.8-.06,1.6-.06,2.41.06,1.17.37,1.67,1.6,1.67,1.85.06,3.76-.12,5.61-.12,1.17,0,1.23.68,1.23,1.91s-.06,1.91-1.23,1.91c-1.85,0-3.76-.19-5.61-.12-1.23.06-1.54.49-1.6,1.67,0,.8.06,1.6.06,2.41,0,2.04-1.17,2.41-3.02,2.41-1.23,0-2.53-.06-3.76-.06h-7.65c-.86,0-1.23.37-1.23,1.3v.19c0,.86.37,1.29,1.23,1.29h10.92c1.97,0,3.95-.12,5.92-.12,1.17,0,1.17.68,1.17,1.85s0,1.85-1.17,1.85c-1.97,0-3.95-.06-5.92-.06h-10.92c-.86,0-1.23.37-1.23,1.23v.43c0,.86.37,1.29,1.23,1.29h14.68c2.34,0,4.69-.12,7.09-.12,1.17,0,1.17.68,1.17,1.91,0,1.3,0,1.97-1.17,1.97-2.41,0-4.75-.12-7.09-.12h-36.64c-2.34,0-4.69.12-7.09.12-1.17,0-1.17-.68-1.17-1.97s0-1.91,1.17-1.91c2.41,0,4.75.12,7.09.12h14.74c.86,0,1.23-.43,1.23-1.29v-.43c0-.86-.37-1.23-1.23-1.23h-10.61c-1.97,0-3.95.06-5.92.06-1.11,0-1.17-.62-1.17-1.85s.06-1.85,1.17-1.85c1.97,0,3.95.12,5.92.12h10.61c.86,0,1.23-.43,1.23-1.29v-.19c0-.93-.37-1.3-1.23-1.3h-9.81c-1.6,0-3.21.12-4.87.12-1.23,0-1.36-.31-1.36-1.91s.12-1.91,1.36-1.91c1.67,0,3.27.06,4.87.06h9.81c.86,0,1.23-.37,1.23-1.23v-.31c0-.86-.37-1.23-1.23-1.23h-14.68c-2.28,0-4.57.12-6.91.12-1.17,0-1.17-.74-1.17-1.91,0-1.23.06-1.91,1.17-1.91,2.34,0,4.63.12,6.91.12h14.68c.86,0,1.23-.37,1.23-1.23v-.31c0-.86-.37-1.23-1.23-1.23h-9.81c-1.6,0-3.21.12-4.87.12-1.23,0-1.36-.37-1.36-1.91,0-1.67.19-1.91,1.36-1.91,1.67,0,3.27.06,4.87.06h9.75ZM109.92,53.3h-23.81c-.62,0-.92.31-.99.93-.19,1.05-.56,1.11-2.65,1.11-1.85,0-2.53-.06-2.53-1.42,0-.62.12-2.71.12-3.58v-8.58c0-1.05-.12-2.16-.12-3.27,0-2.28,1.54-2.65,3.46-2.65,1.54,0,3.15.06,4.69.06h19.74c1.6,0,3.15-.06,4.69-.06,1.85,0,3.45.31,3.45,2.59,0,1.11-.06,2.22-.06,3.33v8.51c0,.74.12,3.02.12,3.52,0,1.36-.62,1.42-2.59,1.42s-2.41-.06-2.59-.99c-.12-.62-.31-.93-.92-.93ZM109.67,42.94c.74,0,1.3-.49,1.3-1.23v-.86c0-.74-.56-1.23-1.3-1.23h-23.38c-.74,0-1.23.49-1.23,1.23v.86c0,.74.49,1.23,1.23,1.23h23.38ZM85.06,48.43c0,.74.49,1.3,1.23,1.3h23.38c.74,0,1.3-.56,1.3-1.3v-.92c0-.74-.56-1.23-1.3-1.23h-23.38c-.74,0-1.23.49-1.23,1.23v.92ZM100.17,8.82c0,.74.49,1.23,1.23,1.23h8.39c.74,0,1.23-.49,1.23-1.23v-.31c0-.74-.49-1.23-1.23-1.23h-8.39c-.74,0-1.23.49-1.23,1.23v.31ZM109.8,16.41c.74,0,1.23-.49,1.23-1.23v-.31c0-.74-.49-1.23-1.23-1.23h-8.39c-.74,0-1.23.49-1.23,1.23v.31c0,.74.49,1.23,1.23,1.23h8.39Z"/>
        <path class="cls-3" d="M150.6,5.3c.68,1.97,1.05,3.15,2.22,3.15.99,0,4.2-1.73,5.18-2.28.37-.19,1.05-.62,1.48-.62.92,0,2.16,3.08,2.16,3.89,0,.68-.74.99-1.54,1.42-1.48.74-3.21,1.54-4.75,2.1-.49.18-1.11.43-1.11,1.23,0,.31.56,1.54.99,2.47.19.37.31.68.37.86.31.62.68,1.23,1.48,1.23,1.3,0,6.54-3.02,7.83-3.89.31-.19.86-.56,1.23-.56.86,0,2.59,2.96,2.59,3.83s-1.23,1.42-3.58,2.53c-1.6.8-3.21,1.54-4.81,2.16-.62.25-1.23.62-1.23,1.36,0,.49.68,1.79,1.17,2.65.56,1.67,4.2,7.34,5.37,8.82.43.55,1.42,1.67,1.42,2.41,0,1.23-3.02,3.33-4.2,3.33-.43,0-.68-.19-.92-.49-2.9-2.84-7.77-4.38-11.78-4.38-3.02,0-6.72,1.36-6.72,4.94,0,4.87,6.54,6.11,10.3,6.11,1.54,0,3.02-.25,4.57-.37.25,0,.49-.06.74-.06,1.17,0,1.36.99,1.36,2.47,0,2.96-.55,3.02-3.82,3.02-3.08,0-6.17-.12-9.13-.92-4.87-1.36-8.88-4.57-8.88-9.99,0-6.54,5.37-9.69,11.29-9.69,2.71,0,4.87.49,7.4,1.48.25.06.49.18.74.18.18,0,.49-.12.49-.43s-2.65-4.87-3.21-5.92c-.49-.99-.86-1.91-1.97-1.91-.37,0-.62.12-.93.19-3.02.99-13.7,3.33-16.59,3.33-.93,0-1.11-.37-1.36-1.05-.25-.74-.62-2.34-.62-3.15,0-1.11.93-.99,2.47-1.11,4.2-.25,9.69-1.11,13.76-2.34.62-.19,1.48-.43,1.48-1.3,0-.43-.62-1.48-.8-1.91-.99-2.28-1.36-2.84-2.16-2.84-.31,0-.62.06-.86.12-1.85.49-6.6,1.42-8.39,1.42-.74,0-1.05-.43-1.23-1.05-.25-.68-.74-2.28-.74-2.96,0-1.05,1.3-.99,2.22-1.05,2.1-.06,3.46-.31,5.43-.74.74-.12,1.67-.43,1.67-1.36,0-.68-1.54-3.64-1.91-4.32-.25-.43-.74-1.17-.74-1.6,0-1.05,3.33-1.73,4.19-1.73,1.42,0,1.54.99,2.41,3.33Z"/>
        <path class="cls-3" d="M203.18,3.76c1.3.37,2.04.49,2.04,1.11,0,.37-.31.62-.62.8-.74.56-.86.86-1.11,1.85-.12.31-.62,2.65-.62,2.9,0,.55.37.99.99.99.18,0,.68-.12.92-.12,2.16-.43,5.68-1.36,7.71-2.1.37-.12.8-.31,1.17-.31,1.23,0,1.67,3.58,1.67,3.89,0,.93-.93,1.17-1.97,1.42-2.9.68-6.85,1.48-9.81,1.97-.74.12-1.3.37-1.48,1.11-.12.43-.37,1.73-.37,2.16,0,.55.55.86.99.86.12,0,.37-.06.49-.06,1.48-.19,3.21-.37,4.75-.37,9.25,0,17.64,4.69,17.64,14.87,0,13.76-17.09,18.82-18.94,18.82-1.17,0-2.41-2.84-2.41-3.83,0-.62.68-.68,1.42-.86,2.16-.56,4.44-1.48,6.42-2.47,4.69-2.41,8.27-5.74,8.27-11.35,0-7.77-6.54-9.81-7.59-9.81-1.11,0-1.48,1.05-1.91,1.91-1.91,4.01-5.06,8.7-8.14,11.91-.37.37-.68.74-.68,1.3,0,.37.37,2.34.43,2.71.06.19.06.31.06.43,0,1.05-2.65,2.41-3.58,2.41-.68,0-.92-.49-1.11-1.05-.06-.37-.19-.8-.68-.8-.31,0-.43.12-.68.25-2.71,1.91-6.35,4.01-9.75,4.01-4.01,0-6.35-2.9-6.35-6.79,0-8.27,8.02-15.73,15.05-19,1.48-.68,1.36-1.05,1.67-3.89,0-.12.06-.25.06-.37,0-.62-.49-.99-1.05-.99-.8,0-5.24.74-8.7.74-2.22,0-2.84.06-2.84-2.71,0-2.28.43-2.41,1.48-2.41.93,0,1.85.06,2.78.06,2.16,0,4.38-.12,6.48-.31.99-.12,2.1-.06,2.47-1.36.12-.19,1.05-6.91,1.11-7.65.06-.49.25-.99.86-.99.37,0,2.84.92,3.46,1.11ZM185.23,41.15c0,1.3.55,2.22,2.04,2.22,2.59,0,6.66-2.59,8.64-4.26.68-.55.8-1.23.8-2.04,0-.19-.19-3.76-.19-6.48v-1.79c0-.49-.12-.93-.74-.93-1.23,0-10.55,6.85-10.55,13.26ZM201.77,25.23c-.49.43-.56,1.36-.56,2.59v2.22c0,1.17.06,3.02.62,3.02,1.05,0,5.06-7.34,5.06-8.27,0-.43-.43-.49-.74-.49-.99,0-3.7.37-4.38.93Z"/>
        <path class="cls-3" d="M244.8,7.59c.8.25,1.85.43,1.85,1.11,0,.43-.31.55-.62.74-.92.43-1.23.74-1.79,2.16-1.97,5-3.21,12.34-3.21,17.71,0,2.65.43,7.22,1.36,9.62.12.25.31.62.62.62.49,0,1.42-2.9,1.6-3.39.74-2.04,1.17-3.39,1.85-3.39.49,0,1.91.74,1.91,1.36,0,.86-2.28,6.48-2.28,11.41v1.73c0,1.17-.55,1.67-1.54,2.16-.68.31-1.6.68-2.34.68-.86,0-1.23-.49-1.85-1.6-3.15-5.61-4.26-12.77-4.26-19.12,0-6.72,1.67-13.7,3.21-20.23.19-.68.37-1.23.37-1.6,0-.49.19-1.23.86-1.23.37,0,3.52,1.11,4.26,1.3ZM265.71,5.06c.74,0,1.48.06,2.22.12,1.97.12,3.76.25,3.76.99,0,.68-.68.99-.68,2.59,0,1.36.25,4.81.31,6.29.06.37-.06,2.16,1.54,2.16.37,0,4.38-.86,5.12-.99.25-.06.49-.12.74-.12,1.17,0,1.23,2.96,1.23,3.76,0,1.6-.99,1.48-5.92,2.1-.99.12-2.28.31-2.28,1.91,0,1.91.12,3.76.12,5.61,0,8.33-2.41,15.61-8.27,21.71-.55.62-1.6,1.79-2.47,1.79-.92,0-3.58-2.28-3.58-3.27,0-.37.25-.56.49-.8,2.84-2.41,5.24-5.43,6.79-8.88,1.73-3.95,1.97-7.53,1.97-11.78v-1.54c0-2.28-.12-3.46-1.6-3.46-.62,0-8.39,1.23-9.62,1.42-.62.12-1.36.25-1.97.25-1.42,0-1.48-2.22-1.48-3.33,0-1.79.43-1.73,2.28-1.85,3.08-.19,6.85-.68,9.99-1.11,1.05-.12,1.79-.55,1.79-1.73,0-1.48-.99-8.95-1.36-10.49-.06-.18-.12-.49-.12-.68,0-.56.56-.68.99-.68ZM277.74,4.38c.37.49,1.85,2.59,2.16,3.15.37.56,1.85,2.71,1.85,3.21,0,.86-2.22,2.04-2.96,2.04-.43,0-.62-.31-1.11-1.23-.12-.25-.25-.49-.43-.8-.62-1.11-1.91-3.21-2.65-4.26-.19-.19-.43-.56-.43-.8,0-.74,2.22-1.79,2.84-1.79.37,0,.56.25.74.49ZM284.28,1.29c.55.74,3.7,5.37,3.7,5.98,0,.92-2.28,1.97-2.9,1.97-.49,0-.62-.37-.86-.8-.99-1.67-2.28-3.89-3.39-5.43-.12-.19-.37-.56-.37-.8,0-.8,2.16-1.79,2.84-1.79.43,0,.68.49.99.86Z"/>
        <path class="cls-3" d="M321.01,12.09c1.36,0,2.65-.06,4.01-.31.19-.06.43-.06.62-.06,1.11,0,3.52,2.84,3.52,3.58,0,.25-.25.62-.68,1.3-.43.74-1.11,1.79-1.91,3.39-5.92,11.66-12.03,20.79-23.26,28.01-1.3.8-7.09,4.38-8.33,4.38s-4.38-2.22-4.38-3.21c0-.62.8-.92,1.23-1.11,2.96-1.23,7.03-3.52,9.69-5.37,5.86-4.01,10.67-9.13,14.56-15.11,1.05-1.54,5-8.14,5-9.69,0-.74-.99-.8-1.91-.8h-13.26c-1.54,0-1.85.37-2.71,1.6-1.23,1.67-8.27,10.24-9.93,10.24-.68,0-4.2-1.73-4.2-2.9,0-.37.31-.56.56-.8,6.17-4.81,13.63-14.31,16.29-21.72.19-.49.37-1.36.93-1.36.31,0,1.73.62,2.9,1.17.62.25,1.11.49,1.36.55.43.19,1.48.56,1.48,1.11,0,.31-.37.56-.62.68-1.05.56-1.11.68-1.73,1.91-.31.55-.68,1.29-1.29,2.34-.19.31-.56.74-.56,1.17,0,.62.43.93,1.05.99h11.6Z"/>
        <path class="cls-3" d="M383.6,20.73c0,.68-2.47,3.33-3.21,4.07-9.5,9.81-20.97,17.58-33.38,23.2-1.67.74-1.79.86-2.34,1.97-.12.25-.43.43-.68.43-.62,0-1.11-.99-1.97-2.53-.31-.56-1.54-2.65-1.54-3.15,0-.62.99-.8,1.73-.99,13.33-3.95,29.12-15.92,37.75-26.71.25-.31.62-.68.99-.68,1.11,0,2.65,3.58,2.65,4.38ZM351.58,11.04c.74.56,3.52,2.65,3.52,3.27,0,1.17-2.16,3.7-3.27,3.7-.49,0-1.85-1.11-2.59-1.67-2.47-1.97-4.81-3.76-7.46-5.37-.43-.25-.93-.55-.93-1.11,0-.68,1.85-3.7,3.08-3.7.92,0,6.54,4.07,7.65,4.87Z"/>
      </g>
      <g>
        <path class="cls-1" d="M54.28,20.21c-.22.56-.53,1.12-.95,1.65h0c-1.41,1.77-3.5,2.54-4.99,1.94-.11-.05-.27.02-.37.15-.1.13-.13.29-.06.39.92,1.31.65,3.53-.76,5.3h0c-1.41,1.77-3.5,2.54-4.99,1.94-.11-.05-.27.02-.37.15-.1.13-.13.29-.06.39.92,1.31.65,3.53-.76,5.3h0c-1.41,1.77-3.5,2.54-4.99,1.94-.11-.05-.27.02-.37.15-.1.13-.13.29-.06.39.92,1.31.65,3.53-.76,5.3h0c-1.41,1.77-3.5,2.54-4.99,1.94-.11-.05-.27.02-.37.15-.1.13-.13.29-.06.39.92,1.31.65,3.53-.76,5.3h0c-.41.52-.89.96-1.39,1.29-.27.19-.28.58,0,.58l15.79-.09,8.38-.05c.29,0,.6-.27.69-.59.51-1.89,1.47-3.81,2.86-5.56,1.4-1.76,3.06-3.13,4.8-4.05.3-.16.49-.52.43-.8l-1.85-8.19-3.48-15.41c-.06-.27-.44-.18-.56.13Z"/>
        <path class="cls-1" d="M56.86,50.05c-1.2,1.51-2.02,3.16-2.45,4.79-.07.27.07.49.31.48l5.09-.03c1.64,0,3.21-1.98,2.85-3.58l-1.12-4.95c-.05-.24-.3-.32-.54-.19-1.5.79-2.93,1.97-4.14,3.48Z"/>
      </g>
      <g>
        <path class="cls-2" d="M38.16,31.3l-13.67-10.84c-1.24-.99-3.05-.78-4.03.46-.99,1.24-.78,3.05.46,4.03l13.67,10.84c.53.42,1.16.62,1.78.62.85,0,1.68-.37,2.25-1.09.99-1.24.78-3.05-.46-4.03Z"/>
        <path class="cls-2" d="M50.48,15.77l-13.67-10.84C32.06,1.16,26.13-.54,20.1.16c-6.02.69-11.42,3.69-15.18,8.44C1.15,13.35-.54,19.28.15,25.31c.69,6.02,3.69,11.42,8.44,15.18l13.67,10.84c.53.42,1.16.62,1.78.62.85,0,1.68-.37,2.25-1.09.99-1.24.78-3.05-.46-4.03l-13.67-10.84c-3.55-2.81-5.79-6.84-6.31-11.34-.52-4.5.75-8.93,3.56-12.48,2.82-3.55,6.84-5.79,11.34-6.31,4.49-.52,8.93.75,12.48,3.56l13.67,10.84c.53.42,1.16.62,1.78.62.85,0,1.68-.37,2.25-1.09.99-1.24.78-3.05-.46-4.03Z"/>
        <path class="cls-2" d="M44.32,23.54l-13.67-10.84c-5.52-4.38-13.58-3.45-17.96,2.07-2.12,2.67-3.08,6.02-2.69,9.41.39,3.39,2.08,6.43,4.76,8.55l13.67,10.84c.53.42,1.16.62,1.78.62.85,0,1.68-.37,2.25-1.09.99-1.24.78-3.05-.46-4.03l-13.67-10.84c-1.47-1.17-2.41-2.84-2.62-4.71-.22-1.87.31-3.71,1.48-5.18,2.41-3.04,6.85-3.55,9.9-1.14l13.67,10.84c1.24.99,3.05.78,4.03-.46.99-1.24.78-3.05-.46-4.03Z"/>
      </g>
    </g>
  </g>
</svg>