<?xml version="1.0" encoding="UTF-8"?>
<svg id="_レイヤー_1" data-name="レイヤー_1" xmlns="http://www.w3.org/2000/svg" viewBox="0 0 250 250">
  <defs>
    <style>
      .cls-1 {
        fill: #ecf3ff;
      }

      .cls-2 {
        fill: #1f3367;
      }
    </style>
  </defs>
  <circle class="cls-1" cx="125" cy="125" r="125"/>
  <g>
    <path class="cls-2" d="M123.84,163.92h2.32c17.17,0,31.14-13.97,31.14-31.14v-5.79h-18.51c-2.14,0-3.88-1.74-3.88-3.88s1.74-3.88,3.88-3.88h18.51v-12.37h-18.51c-2.14,0-3.88-1.74-3.88-3.88s1.74-3.88,3.88-3.88h18.51v-12.38h-18.51c-2.14,0-3.88-1.73-3.88-3.88s1.74-3.88,3.88-3.88h18.51v-5.79c0-17.17-13.97-31.14-31.14-31.14h-2.32c-17.17,0-31.14,13.97-31.14,31.14v5.79h18.51c2.14,0,3.88,1.74,3.88,3.88s-1.74,3.88-3.88,3.88h-18.51v12.38h18.51c2.14,0,3.88,1.73,3.88,3.88s-1.74,3.88-3.88,3.88h-18.51v12.37h18.51c2.14,0,3.88,1.74,3.88,3.88s-1.74,3.88-3.88,3.88h-18.51v5.79c0,17.17,13.97,31.14,31.14,31.14Z"/>
    <path class="cls-2" d="M173.31,118.57c-2.14,0-3.88,1.74-3.88,3.88v6.32c0,26.65-19.93,48.32-44.43,48.32s-44.43-21.68-44.43-48.32v-6.32c0-2.14-1.74-3.88-3.88-3.88s-3.88,1.74-3.88,3.88v6.32c0,29.52,21.34,53.78,48.31,55.92v14.95c0,.2.02.39.05.58h-24.6c-2.14,0-3.88,1.74-3.88,3.88s1.74,3.88,3.88,3.88h56.85c2.14,0,3.88-1.74,3.88-3.88s-1.74-3.88-3.88-3.88h-24.6c.03-.19.05-.38.05-.58v-14.95c26.97-2.14,48.31-26.4,48.31-55.92v-6.32c0-2.14-1.74-3.88-3.88-3.88Z"/>
  </g>
</svg>