<?xml version="1.0" encoding="UTF-8"?>
<svg id="_レイヤー_2" data-name="レイヤー_2" xmlns="http://www.w3.org/2000/svg" viewBox="0 0 658.99 761.83">
  <defs>
    <style>
      .cls-1 {
        fill: #3199f0;
      }

      .cls-2 {
        fill: #fff;
      }

      .cls-3 {
        fill: #0d1828;
      }

      .cls-4 {
        fill: #6d84a5;
      }
    </style>
  </defs>
  <g id="_レイヤー_1-2" data-name="レイヤー_1">
    <g id="man">
      <path class="cls-3" d="M654.49,681.14H4.5c-2.49,0-4.5-2.01-4.5-4.5s2.01-4.5,4.5-4.5h649.99c2.49,0,4.5,2.01,4.5,4.5s-2.01,4.5-4.5,4.5Z"/>
      <g>
        <g>
          <path class="cls-2" d="M385.41,268.74v-31.16l-55.91,30-55.91-30v31.16c0,23.37-2.33,33.82-8.45,39.82-6.12,6.01-55.98,37.52-55.98,37.52l78.9,72.33h82.87l78.91-72.33s-49.86-31.51-55.98-37.52c-6.12-6.01-8.45-16.45-8.45-39.82Z"/>
          <path class="cls-3" d="M370.93,422.91c-1.22,0-2.43-.49-3.32-1.46-1.68-1.83-1.56-4.68.28-6.36l74.58-68.36c-13.24-8.43-46.45-29.74-51.76-34.96-7.23-7.1-9.79-18.36-9.79-43.04v-23.64l-49.28,26.45c-1.33.71-2.93.71-4.26,0l-49.28-26.45v23.64c0,24.68-2.56,35.94-9.79,43.04-5.31,5.21-38.52,26.53-51.76,34.96l74.58,68.36c1.83,1.68,1.96,4.53.28,6.36-1.68,1.83-4.53,1.95-6.36.28l-78.91-72.33c-1.03-.95-1.57-2.32-1.44-3.72s.89-2.65,2.08-3.4c19.88-12.56,50.99-32.76,55.23-36.92,5.11-5.02,7.1-15.28,7.1-36.61v-31.16c0-1.58.83-3.05,2.19-3.86,1.36-.81,3.04-.85,4.44-.1l53.78,28.86,53.78-28.86c1.4-.75,3.08-.71,4.44.1,1.36.81,2.19,2.28,2.19,3.86v31.16c0,21.33,1.99,31.6,7.1,36.61,4.24,4.16,35.35,24.36,55.23,36.92,1.18.75,1.95,2.01,2.08,3.4s-.41,2.77-1.44,3.72l-78.91,72.33c-.86.79-1.95,1.18-3.04,1.18Z"/>
        </g>
        <g>
          <g>
            <path class="cls-2" d="M411.51,316.82l-6.88-4.57-14.7-24.1s-4.8,3.6-30.02,21.39c-13.98,9.86-30.42,18.72-30.42,18.72h0s0,0,0,0h0s-16.44-8.86-30.42-18.73c-25.22-17.79-30.02-21.39-30.02-21.39l-14.7,24.1-6.88,4.57-11.39,11.22,18.26,103.22,41.61,188.11h67.05l41.61-188.11,18.26-103.22-11.39-11.22Z"/>
            <path class="cls-3" d="M363.02,623.86h-67.05c-2.11,0-3.94-1.47-4.39-3.53l-41.61-188.11c-.01-.06-.03-.12-.04-.19l-18.26-103.22c-.26-1.46.22-2.95,1.27-3.99l11.39-11.22c.2-.2.43-.38.67-.54l6.04-4.01,14.18-23.25c.66-1.08,1.75-1.84,2.99-2.07,1.25-.24,2.53.06,3.55.82.05.04,5.15,3.84,29.91,21.31,10.67,7.53,22.96,14.55,27.82,17.26,4.86-2.71,17.15-9.74,27.82-17.26,24.77-17.47,29.87-21.27,29.92-21.31,1.02-.76,2.3-1.06,3.55-.82,1.25.24,2.33.99,2.99,2.07l14.18,23.25,6.04,4.01c.24.16.46.34.67.54l11.39,11.22c1.05,1.04,1.53,2.53,1.27,3.99l-18.26,103.22c-.01.06-.02.13-.04.19l-41.61,188.11c-.46,2.06-2.28,3.53-4.39,3.53ZM299.58,614.86h59.83l40.81-184.49,17.83-100.79-9.39-9.25-6.52-4.33c-.55-.36-1.01-.84-1.35-1.4l-12.16-19.93c-4.02,2.9-11.76,8.42-26.13,18.55-14.04,9.9-30.19,18.64-30.88,19.01-1.33.72-2.94.72-4.27,0-.68-.37-16.84-9.11-30.88-19.01-14.36-10.13-22.1-15.66-26.13-18.55l-12.16,19.93c-.34.56-.8,1.04-1.35,1.4l-6.52,4.33-9.39,9.25,17.84,100.79,40.81,184.49Z"/>
          </g>
          <path class="cls-3" d="M366.55,377.42h-.04c-1.32-.01-2.57-.61-3.42-1.63l-33.59-40.48-33.59,40.48c-.85,1.02-2.1,1.62-3.43,1.63-1.33,0-2.59-.57-3.45-1.57l-40.3-47.09c-1.62-1.89-1.4-4.73.49-6.34,1.89-1.62,4.73-1.39,6.34.49l36.83,43.03,33.65-40.55c.85-1.03,2.12-1.63,3.46-1.63s2.61.6,3.46,1.63l33.66,40.57,15.83-18.31c1.62-1.88,4.47-2.09,6.35-.46,1.88,1.62,2.09,4.47.46,6.35l-19.3,22.33c-.86.99-2.1,1.56-3.4,1.56Z"/>
          <g>
            <g>
              <path class="cls-1" d="M310.38,424.05c2.18-18.51,8.45-49.85,8.45-49.85,0,0-4.12-13.24-6.43-25.33l16.9-20.39.2-.21.2.21,16.9,20.39c-2.32,12.09-6.43,25.33-6.43,25.33,0,0,6.28,31.34,8.45,49.85,2.18,18.51,17.52,232.62,17.52,232.62h-73.27s15.35-214.1,17.52-232.62Z"/>
              <path class="cls-3" d="M366.13,661.16h-73.27c-1.25,0-2.44-.52-3.29-1.43-.85-.91-1.28-2.14-1.19-3.39.63-8.75,15.38-214.42,17.54-232.82.91-7.77,2.62-18.59,5.08-32.15,1.75-9.63,2.62-14.43,3.2-16.97-1.05-3.49-4.24-14.4-6.21-24.7-.25-1.32.1-2.68.95-3.72l16.9-20.39c.06-.07.12-.13.17-.2l.2-.21c.85-.91,2.04-1.43,3.29-1.43s2.44.52,3.29,1.43l.2.21c.06.06.12.13.17.2l16.9,20.39c.86,1.03,1.21,2.4.96,3.72-1.98,10.31-5.17,21.25-6.22,24.72,1.15,5.85,6.34,32.54,8.29,49.1,2.16,18.4,16.91,224.07,17.54,232.82.09,1.25-.34,2.47-1.19,3.39-.85.91-2.04,1.43-3.29,1.43ZM297.7,652.16h63.6c-2.29-31.88-15.2-210.93-17.15-227.59-2.11-17.92-8.14-48.21-8.39-49.49-.06-.29-.09-.6-.09-.89,0-.45.07-.9.2-1.34.04-.12,3.61-11.67,5.9-22.77l-12.27-14.8-12.27,14.8c2.29,11.11,5.86,22.65,5.9,22.77.23.74.26,1.5.11,2.23h0c-.06.31-6.26,31.36-8.39,49.48-1.96,16.66-14.86,195.71-17.15,227.59Z"/>
            </g>
            <path class="cls-3" d="M331.29,401.1c-1.93,0-3.63-1.4-3.94-3.36l-3.08-19.08c-.35-2.18,1.13-4.23,3.31-4.59,2.18-.35,4.23,1.13,4.59,3.31l3.08,19.08c.35,2.18-1.13,4.23-3.31,4.59-.22.04-.43.05-.64.05Z"/>
            <path class="cls-3" d="M329.5,382.53c-7.71,0-13.03-4.43-13.62-4.94-1.88-1.63-2.07-4.47-.44-6.35,1.62-1.87,4.45-2.07,6.32-.47.11.09,3.39,2.75,7.74,2.75s7.71-2.73,7.74-2.75c1.89-1.59,4.73-1.37,6.33.51,1.6,1.88,1.41,4.68-.45,6.3-.58.5-5.9,4.94-13.62,4.94Z"/>
          </g>
        </g>
        <g>
          <path class="cls-4" d="M598.13,594.37c-5.47-15.93-30.22-106.07-30.22-106.07,0,0-.22-13.7-1.7-19.63-1.48-5.93-10.15-7.63-10.15-7.63,0,0-10.07-70.81-17.96-88.59-7.89-17.78-25.3-16.3-25.3-16.3l-4.79,3.31c.06-2.14.08-3.31.08-3.31,0,0-16.59-4.46-35.99-12.34-22.27-9.04-35.85-16.07-35.85-16.07l-9.54-14.54-21-12.42s-20.5,124-27.14,151.74c-6.64,27.74-49.08,140.14-49.09,140.14,0,0-42.45-112.4-49.08-140.14-6.64-27.74-27.14-151.74-27.14-151.74l-21,12.42-9.54,14.54s-18.8,15.41-38.07,29.78c-21,15.66-49.19,36.74-49.19,36.74h0c-7.18,5.19-15.42,12.65-19.41,21.63-7.89,17.78,7.44,93.45,7.44,93.45,0,0-19.26,70.94-19.26,126.64,0,39.05,46.56,40.68,46.56,40.68h348.35l39.2,15.4s11.77-1.7,29.93-5.19c19.1-3.66,38.85-6.58,43.49-23.01,7.03-24.86-8.19-53.56-13.66-69.49Z"/>
          <path class="cls-3" d="M538.37,696.57c-.56,0-1.12-.1-1.65-.31l-38.41-15.09H150.82c-.05,0-.1,0-.16,0-.51-.02-12.67-.5-24.99-6.1-16.96-7.7-25.92-21.22-25.92-39.08,0-51.99,16.78-117.76,19.15-126.78-2.32-11.61-14.89-77.22-6.94-95.14,3.62-8.17,10.65-16.06,20.88-23.45,0,0,28.15-21.06,49.13-36.7,17.18-12.81,34.19-26.62,37.38-29.22l9.16-13.96c.38-.57.88-1.05,1.47-1.4l21-12.42c1.28-.76,2.85-.83,4.19-.21,1.35.63,2.29,1.88,2.54,3.34.21,1.24,20.55,124.16,27.08,151.43,5.26,22,33.83,99.24,44.71,128.38,10.87-29.09,39.4-106.2,44.71-128.38,6.52-27.27,26.87-150.19,27.08-151.43.24-1.46,1.19-2.72,2.54-3.34,1.34-.63,2.91-.55,4.19.21l21,12.42c.59.35,1.09.83,1.47,1.4l8.88,13.53c3.56,1.78,16.07,7.92,34.44,15.38,18.88,7.67,35.3,12.12,35.46,12.16.43.11.82.29,1.19.51.6-.37,1.27-.59,1.97-.65,7.14-.6,22.52,2.58,29.79,18.96,7.22,16.27,15.88,73.23,17.89,86.91,3.58,1.3,9.01,4.19,10.47,10.05,1.43,5.74,1.76,17.12,1.83,20.07,2.07,7.54,24.85,90.28,29.99,105.26h0c.97,2.83,2.32,6.22,3.74,9.8,6.81,17.15,16.14,40.63,9.99,62.38-5.17,18.28-24.95,22.03-44.09,25.66l-2.89.55c-18.05,3.46-30.01,5.2-30.13,5.22-.21.03-.43.05-.64.05ZM150.91,672.16h348.26c.56,0,1.12.11,1.65.31l38.08,14.96c3.39-.52,13.94-2.17,28.56-4.98l2.91-.55c17.2-3.26,33.45-6.34,37.1-19.26,5.32-18.82-3.36-40.66-9.7-56.61-1.46-3.68-2.85-7.16-3.89-10.2-5.45-15.89-29.29-102.66-30.31-106.34-.1-.36-.15-.74-.16-1.12-.06-3.67-.46-14.17-1.57-18.61-.58-2.31-4.82-3.93-6.67-4.31-1.86-.38-3.3-1.9-3.57-3.78-.1-.7-10.08-70.4-17.62-87.4-5.46-12.31-16.25-13.58-19.73-13.65l-3.68,2.55c-1.4.96-3.21,1.06-4.7.26-1.44-.78-2.34-2.27-2.36-3.9-5.88-1.72-18.65-5.68-33.09-11.55-22.21-9.02-35.66-15.96-36.23-16.25-.69-.36-1.27-.88-1.69-1.53l-8.97-13.66-14.44-8.54c-4.35,26.1-20.33,121.32-26.13,145.57-2.79,11.67-11.94,38.91-27.18,80.96-5.92,16.33-11.6,31.69-15.33,41.71-2.04,5.49-3.73,9.99-4.9,13.12l-1.36,3.62c-.66,1.77-1.58,4.18-4.69,4.18-1.87,0-3.55-1.16-4.21-2.91-1.74-4.6-42.63-112.98-49.25-140.68-5.8-24.25-21.78-119.46-26.13-145.57l-14.44,8.54-8.97,13.66c-.25.38-.56.72-.91,1.01-.19.15-19.1,15.64-38.23,29.91-20.99,15.65-49.18,36.74-49.18,36.74-8.86,6.4-15.06,13.25-17.99,19.85-5.36,12.08,1.69,60.88,7.74,90.73.14.69.12,1.4-.07,2.07-.19.7-19.1,71.02-19.11,125.47,0,33.8,39.59,36.07,42.15,36.18Z"/>
        </g>
        <path class="cls-3" d="M226.98,458.26c-1.58,0-3.12-.84-3.94-2.32-14.21-25.58-24.26-44.07-24.36-44.25-.86-1.58-.69-3.53.42-4.94l17.31-21.89-15.06-16.33c-1.43-1.55-1.59-3.88-.39-5.61l8.5-12.28c1.41-2.04,4.22-2.55,6.26-1.14,2.04,1.41,2.55,4.22,1.14,6.26l-6.45,9.32,15.22,16.51c1.5,1.63,1.59,4.1.22,5.84l-17.85,22.57c3.25,5.96,11.8,21.6,22.9,41.57,1.21,2.17.42,4.91-1.75,6.12-.69.38-1.44.57-2.18.57Z"/>
        <path class="cls-3" d="M352.33,595.17c-.83,0-1.67-.23-2.42-.71-2.09-1.34-2.7-4.12-1.36-6.22,33.43-52.14,92.55-160.1,102.44-178.24l-17.85-22.57c-1.37-1.74-1.28-4.21.22-5.84l15.22-16.51-6.45-9.32c-1.41-2.04-.9-4.85,1.14-6.26,2.04-1.42,4.85-.9,6.26,1.14l8.5,12.28c1.2,1.73,1.04,4.06-.39,5.61l-15.06,16.33,17.31,21.89c1.12,1.41,1.28,3.36.42,4.94-.67,1.24-67.63,124.39-104.2,181.41-.86,1.34-2.31,2.07-3.79,2.07Z"/>
        <path class="cls-3" d="M491.41,506.98c-.36,0-.73-.04-1.09-.14-2.41-.6-3.88-3.05-3.27-5.46.18-.71,17.64-71.12,17.64-116.84,0-2.49,2.01-4.5,4.5-4.5s4.5,2.01,4.5,4.5c0,46.83-17.18,116.09-17.91,119.02-.51,2.04-2.35,3.41-4.36,3.41Z"/>
        <path class="cls-3" d="M496.74,534.24c-1.1,0-2.2-.4-3.07-1.21-1.82-1.69-1.92-4.54-.22-6.36l38.04-40.8c1.7-1.82,4.54-1.92,6.36-.22,1.82,1.69,1.92,4.54.22,6.36l-38.04,40.8c-.89.95-2.09,1.43-3.29,1.43Z"/>
        <g>
          <g>
            <path class="cls-2" d="M540.52,635.18c-5.43-4.19-34.93-18.11-34.93-18.11l-26.7,4.33,15.87,7.94,49.58,43.32,9.68-3.78s-8.07-29.52-13.5-33.7Z"/>
            <path class="cls-3" d="M544.33,677.16c-1.8,0-3.5-1.09-4.19-2.87-.9-2.32.24-4.92,2.56-5.83l5.88-2.29c-3.6-12.35-8.46-25.43-10.82-27.44-3.56-2.74-21.11-11.44-32.83-17l-11.56,1.88,3.4,1.7c2.22,1.11,3.12,3.81,2.01,6.04-1.11,2.22-3.81,3.13-6.04,2.01l-15.87-7.94c-1.75-.87-2.73-2.77-2.44-4.7.29-1.93,1.8-3.45,3.73-3.76l26.7-4.33c.9-.15,1.82-.02,2.64.37,3.06,1.45,30.1,14.26,35.76,18.61,5.98,4.61,12.55,26.77,15.09,36.08.61,2.22-.56,4.54-2.71,5.38l-9.68,3.78c-.54.21-1.09.31-1.63.31Z"/>
          </g>
          <g>
            <g>
              <path class="cls-2" d="M494.75,629.34s-28.76,4.07-37.95,2.44-23.7-6.61-23.7-6.61c0,0-17.93-8.36-26.37-4.36-13.11,6.21-28.3,26.07-28.3,26.07,0,0-3.53,7.69-10.37,22.22-6.84,14.53-6.96,22.07-.15,24.15,6.81,2.07,12.74-5.19,17.78-14.22,5.04-9.04,10.22-17.93,10.22-17.93l20.65-16.86,2.9,1.45-16.59,17.62s-14.52,34.23-4.62,39.23c6.28,3.18,13.21-5.15,13.21-5.15,0,0,.44,6.37,6.07,8.44,5.63,2.07,11.56-2.96,11.56-2.96,0,0,1.42,4.38,7.41,6.37,6.51,2.17,12.53-6.51,18.96-14.37,5.86-7.16,9.62-10.67,9.62-10.67l16.4,6.11s9.5,7.58,27.87,4.76c14.03-2.15,24.3-16.92,24.3-16.92,0,0-1.67-24-6.22-29.78s-32.69-19.06-32.69-19.06Z"/>
              <path class="cls-3" d="M438.69,714.13c-1.16,0-2.36-.19-3.6-.6-3.38-1.12-5.7-2.85-7.27-4.51-3.03,1.49-7.34,2.71-11.82,1.06-2.95-1.09-5.01-2.98-6.42-5.05-3.79,2.46-8.63,3.94-13.35,1.55-9.42-4.77-5.13-21.23-3.72-26.64.74-2.82,1.58-5.57,2.4-8.05-1.61,2.82-3.46,6.08-5.28,9.34-3.04,5.46-11.12,19.95-23.02,16.34-4.27-1.3-6.25-4.02-7.16-6.07-2.31-5.21-.91-12.7,4.55-24.3,6.75-14.34,10.32-22.11,10.35-22.18.14-.3.31-.59.51-.86.65-.85,16.01-20.8,29.94-27.41,9.65-4.57,26.17,2.49,29.97,4.24,1.82.61,14.68,4.91,22.82,6.36,6.96,1.23,28.73-1.36,36.53-2.46.87-.12,1.76.01,2.55.39,4.86,2.29,29.34,14.06,34.3,20.35,5.15,6.54,6.88,28.01,7.18,32.25.07,1.02-.21,2.04-.79,2.88-.46.67-11.55,16.38-27.31,18.8-17.52,2.68-27.99-3.37-30.68-5.2l-13.13-4.89c-1.6,1.68-4.13,4.44-7.29,8.29-.66.81-1.32,1.62-1.97,2.44-5.53,6.88-11.22,13.96-18.3,13.96ZM433.36,701.43c.18.39,1.25,2.45,4.57,3.56,2.86.95,7.95-5.37,12.04-10.46.67-.83,1.34-1.67,2.02-2.5,5.98-7.31,9.88-10.96,10.04-11.11,1.25-1.16,3.04-1.52,4.64-.92l16.4,6.11c.45.17.86.4,1.23.7.3.23,8.44,6.27,24.38,3.83,9.74-1.49,17.72-10.52,20.36-13.83-.86-10.55-2.98-22.89-5.14-25.63-2.36-3-16.81-10.97-29.87-17.21-6.31.86-29.26,3.78-38.02,2.23-9.42-1.67-23.77-6.57-24.38-6.78-.15-.05-.3-.11-.44-.18-6.66-3.09-18.06-6.49-22.54-4.37-11.02,5.22-24.22,21.65-26.35,24.36-.87,1.9-4.34,9.4-10.17,21.78-5.54,11.77-4.97,15.68-4.47,16.82.11.26.33.74,1.56,1.11,4.09,1.24,9.07-5.9,12.54-12.11,5-8.97,10.21-17.91,10.27-18,.27-.47.62-.88,1.04-1.22l20.65-16.86c1.37-1.12,3.27-1.33,4.86-.54l2.9,1.45c1.27.64,2.17,1.84,2.42,3.24s-.18,2.84-1.15,3.87l-16.02,17.02c-.9,2.22-3.65,9.2-5.53,16.47-3.19,12.27-1.52,15.95-.9,16.26,2.36,1.19,6.49-2.53,7.72-4.02,1.18-1.41,3.09-1.97,4.84-1.4,1.75.56,2.98,2.14,3.11,3.97,0,.09.37,3.51,3.14,4.54,2.52.93,6.06-1.32,7.11-2.19,1.18-.98,2.77-1.43,4.23-.96,1.45.47,2.53,1.49,2.93,2.95Z"/>
            </g>
            <path class="cls-3" d="M411.47,701.91c-.56,0-1.13-.11-1.68-.33-2.3-.93-3.42-3.55-2.49-5.86l9.93-24.59c.2-.49.48-.95.84-1.34l20.15-22.22c1.67-1.84,4.52-1.98,6.36-.31,1.84,1.67,1.98,4.52.31,6.36l-19.61,21.63-9.63,23.85c-.71,1.75-2.39,2.82-4.17,2.82Z"/>
            <path class="cls-3" d="M429.1,707.39c-.68,0-1.37-.15-2.02-.48-2.22-1.12-3.11-3.82-2-6.04l11.25-22.37c.23-.45.53-.86.89-1.21l20.78-20.11c1.78-1.73,4.63-1.68,6.36.1,1.73,1.79,1.68,4.63-.1,6.36l-20.23,19.58-10.91,21.69c-.79,1.57-2.38,2.48-4.02,2.48Z"/>
            <path class="cls-3" d="M465.1,688.72c-1.3,0-2.59-.56-3.48-1.65-1.58-1.92-1.3-4.76.62-6.33l11.19-9.18c1.92-1.58,4.76-1.3,6.33.62,1.58,1.92,1.3,4.76-.62,6.33l-11.19,9.18c-.84.69-1.85,1.02-2.85,1.02Z"/>
          </g>
        </g>
        <path class="cls-3" d="M493.14,609.05c-2.06,0-3.92-1.43-4.39-3.52-.54-2.43.99-4.83,3.41-5.37l66.41-14.82c2.42-.54,4.83.99,5.37,3.41.54,2.43-.99,4.83-3.41,5.37l-66.41,14.82c-.33.07-.66.11-.98.11Z"/>
        <path class="cls-3" d="M171.63,476.43c-1.22,0-2.43-.49-3.32-1.46-.69-.76-17.15-18.91-35.54-50.91-1.24-2.15-.5-4.91,1.66-6.14,2.15-1.24,4.91-.5,6.14,1.66,17.86,31.08,34.22,49.14,34.38,49.32,1.67,1.84,1.54,4.68-.29,6.36-.86.79-1.95,1.18-3.03,1.18Z"/>
        <g>
          <g id="_新規シンボル_8" data-name="新規シンボル_8">
            <g>
              <path class="cls-2" d="M398.63,139.32l-7.57-42.94c-2.18-12.39-7.43-24.03-15.3-33.84-15.04-18.72-43.18-43.72-82.86-36.9l-.69.12c-39.62,7.16-57.51,40.28-65.24,63.01-4.05,11.91-4.99,24.65-2.81,37.03l7.57,42.94c-9.86-1.87-25.06,3.16-19.85,30.14,4.61,23.9,24.27,33.68,35.15,33.13,1.87,4.39,4,8.62,6.41,12.31,15.44,23.08,50.13,44.75,75.39,47.03,0,0,4.5.38,10.45-.67s10.05-2.94,10.05-2.94c22.95-10.79,48.14-43.01,54.76-69.98,1-4.29,1.56-9,1.81-13.76,10.41-3.21,25.54-19.11,21.7-43.15-4.33-27.14-20.34-26.66-28.96-21.54Z"/>
              <path class="cls-3" d="M328.42,295.84c-26.5-2.4-62.55-24.84-78.75-49.06-1.94-2.97-3.82-6.44-5.6-10.34-13.14-1.11-31.94-12.54-36.61-36.71-2.62-13.56-.77-23.63,5.51-29.92,3.46-3.47,8.2-5.51,13.35-5.87l-6.59-37.36c-2.32-13.14-1.29-26.72,2.98-39.26,7.25-21.32,25.81-58.24,68.7-65.99.13-.02.25-.04.37-.05.12-.03.22-.05.36-.08,42.96-7.39,73.03,20.96,87.13,38.52,8.3,10.33,13.91,22.74,16.23,35.88l6.59,37.36c4.96-1.42,10.11-1.12,14.55.95,8.05,3.77,13.23,12.59,15.41,26.24,3.88,24.3-9.88,41.47-21.84,47.01-.34,4.27-.93,8.18-1.74,11.68-6.93,28.24-33.13,61.67-57.24,72.99-.19.09-4.71,2.15-11.15,3.29-6.45,1.14-11.4.74-11.64.72ZM400.93,143.19c-1.27.75-2.83.84-4.18.22-1.34-.62-2.3-1.85-2.56-3.31l-7.57-42.94c-2.05-11.65-7.03-22.65-14.38-31.8-15.71-19.56-42.1-41.56-78.59-35.28-.11.02-.22.03-.33.04-.11.03-.22.05-.33.07-36.44,6.59-53.71,36.28-61.78,60.03-3.78,11.12-4.69,23.15-2.63,34.8l7.57,42.94c.26,1.46-.22,2.95-1.27,3.98-1.05,1.04-2.55,1.49-4,1.22-1.69-.32-7.51-1.05-11.55,3.01-3.98,3.99-5.03,11.55-3.04,21.86,4.19,21.71,21.94,29.92,30.5,29.49,1.88-.1,3.63.99,4.37,2.73,1.92,4.51,3.96,8.42,6.01,11.57,14.62,21.85,48.29,42.9,72.02,45.05.04,0,4.07.31,9.3-.62,5.23-.92,8.92-2.59,8.92-2.58,21.6-10.15,46.04-41.45,52.29-66.93.87-3.71,1.44-8.08,1.7-12.98.1-1.88,1.37-3.5,3.17-4.06,8.2-2.52,22.07-16.3,18.58-38.14-1.66-10.37-5.23-17.11-10.34-19.5-2.35-1.1-4.71-1.15-6.73-.8-2.42.43-4.35,1.44-5.15,1.92Z"/>
            </g>
          </g>
          <path class="cls-3" d="M330.5,208.23c-.95-.78-2.91.62-5.71,1.17-2.82.43-5.14-.21-5.77.84-.65,1.09,1.13,5.66,6.76,4.82,5.58-1.13,5.7-6.03,4.72-6.83Z"/>
          <path class="cls-3" d="M267.52,178.43c-1.9,0-3.59-1.36-3.93-3.3-.38-2.18,1.07-4.25,3.24-4.63.1-.02,10.32-1.85,20.26-5.54,2.07-.77,4.37.29,5.14,2.36.77,2.07-.29,4.37-2.36,5.14-10.64,3.95-21.21,5.84-21.65,5.91-.23.04-.47.06-.7.06Z"/>
          <path class="cls-3" d="M347.11,162.4c-1.2,0-2.43-.03-3.69-.1-2.21-.12-3.9-2-3.78-4.21.12-2.21,2-3.88,4.21-3.78,10.96.58,19.71-1.99,19.8-2.01,2.12-.63,4.34.57,4.98,2.69.63,2.12-.57,4.35-2.69,4.98-.37.11-8.28,2.43-18.82,2.43Z"/>
          <path class="cls-1" d="M413.13,91.43s-1.37-22.65-13.93-43.22c-8.41-13.78-18.84-26.51-35.17-34.66-25.4-12.67-35.69-.59-35.69-.59,0,0-10.6-15.11-50.05-4.86-18.22,4.74-37.35,25.41-47.67,36.98-15.88,17.79-28.83,25.25-31.68,56.89-1.15,12.78,4.69,32.24,7.72,42.71,5.04,17.45,9.17,28.62,9.17,28.62l10.63,9.11,5.26-13.66s3.38-2.52,3.61-8.88c.47-12.88-11.84-27.47,1.91-41.63,7.18-7.39,33.9-23.08,47.49-38.39,11.09-12.49,17.32-20.99,22.12-26.24,10.63-11.61,25.39-7.48,25.39-7.48l16.68.87s9.78,2.44,20.24,23.38c5.51,11.03,7.85,24.26,13.41,44.72,5.79,21.32,16.46,23.88,16.46,23.88l16.71,12.63s.74-8.84,3.03-12.33c6.05-9.2,2.87-15.33-1.07-27.81-1.44-4.56-4.56-20.04-4.56-20.04Z"/>
          <g>
            <path class="cls-3" d="M307.33,168.12c-.93,0-1.85-.43-2.44-1.23-1-1.35-.72-3.25.63-4.25.37-.28,3.83-2.73,10.3-3.88,6.58-1.16,10.77.31,11.23.48,1.57.59,2.37,2.34,1.78,3.91-.59,1.56-2.33,2.36-3.89,1.79-.12-.04-3.2-1.05-8.06-.19-5.1.9-7.71,2.75-7.74,2.77-.54.4-1.18.6-1.81.6Z"/>
            <path class="cls-3" d="M271.01,202.97c-5.49,0-10.43-.94-13.74-3.27-7.19-5.04-10.33-14.03-11.18-21.52-4.07-1.27-6.32-3.01-6.7-5.19-.2-1.16.08-2.33.81-3.3,1.8-2.4,6.26-3.22,8.76-3.49.97-.1,1.92.27,2.57.99.64.73.9,1.72.68,2.67-.29,1.27-.44,3.25-.31,5.58.02.14.03.29.03.44.41,6.18,2.66,14.6,8.8,18.9,8,5.61,33.05-.55,39.54-5.7,7.38-5.84,4.83-21.22,4.22-23.09-.35-1.08-.86-2.17-.87-2.18-.71-1.5-.06-3.29,1.44-3.99,1.5-.71,3.29-.06,3.99,1.43.03.06.67,1.43,1.14,2.87,1,3.05,4.11,21.5-6.19,29.65-5.6,4.43-20.66,9.17-32.97,9.17Z"/>
            <path class="cls-3" d="M349.49,188.89c-4.28,0-8-.43-10.49-1.26-12.47-4.15-15.86-22.54-15.96-25.75-.05-1.51.09-3.02.09-3.08.15-1.65,1.61-2.86,3.26-2.72,1.65.15,2.87,1.61,2.71,3.26,0,.01-.11,1.21-.07,2.34.06,1.96,2.93,17.28,11.86,20.25,7.86,2.61,33.51-.16,39.11-8.17,4.29-6.14,3.54-14.81,1.81-20.76-.06-.15-.1-.29-.13-.44-.68-2.23-1.49-4.04-2.2-5.12-.53-.81-.63-1.84-.28-2.74.36-.9,1.13-1.58,2.08-1.81,2.44-.6,6.91-1.36,9.43.28,1.02.66,1.69,1.66,1.89,2.82.38,2.18-1.14,4.58-4.53,7.17,1.76,7.33,1.88,16.85-3.15,24.04-5.6,8.02-22.91,11.69-35.42,11.69Z"/>
          </g>
          <path class="cls-3" d="M265.45,151.91c-5.77,0-9.88-.92-10.27-1.01-2.15-.5-3.49-2.65-3-4.8.5-2.15,2.64-3.5,4.8-3,.17.04,18.18,3.97,30.16-6.27,1.68-1.44,4.2-1.24,5.64.44,1.44,1.68,1.24,4.2-.44,5.64-8.61,7.37-19.22,8.99-26.9,8.99Z"/>
          <path class="cls-3" d="M295.3,143.78c-.28,0-.57-.03-.86-.09-2.16-.47-3.52-2.61-3.05-4.76l1.17-5.32c.47-2.16,2.61-3.52,4.76-3.05,2.16.47,3.52,2.61,3.05,4.76l-1.17,5.32c-.41,1.87-2.07,3.14-3.9,3.14Z"/>
          <path class="cls-3" d="M342.24,139.3c-5.67,0-11.7-1.32-17.58-4.95-1.88-1.16-2.46-3.63-1.3-5.51,1.16-1.88,3.63-2.46,5.51-1.3,16.43,10.16,36.07-3.91,36.27-4.06,1.78-1.3,4.28-.92,5.59.86,1.3,1.78.92,4.28-.85,5.58-.7.52-12.96,9.36-27.64,9.36Z"/>
          <path class="cls-3" d="M300.33,256.93c-.07,0-.14,0-.21,0-1.65-.11-2.9-1.53-2.79-3.18.02-.27.48-6.67,4.57-13.69.84-1.43,2.67-1.91,4.1-1.08,1.43.84,1.91,2.67,1.08,4.1-3.35,5.74-3.76,11.01-3.77,11.07-.11,1.58-1.43,2.79-2.99,2.79Z"/>
          <path class="cls-3" d="M423.28,114.1c-.41-1.26-.85-2.58-1.29-3.98-1.1-3.48-3.48-14.83-4.39-19.29-.23-3.06-2.24-24.8-14.55-44.96-7.31-11.97-18.12-26.92-37-36.34-19.79-9.87-31.8-5.94-37.38-2.5-5.97-4.63-20.65-11.29-51.5-3.27-18.11,4.71-36.18,22.96-49.9,38.34-2.7,3.03-5.32,5.76-7.86,8.39-12.54,13.06-22.45,23.37-24.94,51.09-1.18,13.09,4.24,31.81,7.48,43l.39,1.36c5.03,17.41,9.1,28.47,9.28,28.93.27.72.71,1.36,1.29,1.86l10.63,9.11c.83.71,1.87,1.08,2.93,1.08.37,0,.74-.04,1.1-.14,1.42-.36,2.57-1.38,3.1-2.75l4.9-12.73c1.54-1.65,4.04-5.23,4.26-11.26.18-4.83-1.12-9.61-2.38-14.24-2.42-8.94-4.52-16.66,3.02-24.42,2.51-2.58,8.15-6.64,14.69-11.34,10.82-7.78,24.29-17.46,32.94-27.19,6.36-7.16,11.12-13,14.94-17.7,2.88-3.53,5.15-6.32,7.14-8.49,8.56-9.35,20.38-6.32,20.86-6.19,2.39.67,4.88-.73,5.54-3.12.67-2.39-.73-4.88-3.12-5.55-.71-.2-17.56-4.71-29.92,8.78-2.16,2.37-4.51,5.24-7.48,8.89-3.77,4.63-8.46,10.39-14.69,17.4-7.98,8.99-21,18.35-31.46,25.86-3.61,2.59-6.83,4.91-9.54,6.98-3.52,1.6-22.22,10.7-26.45,24.81-.71,2.38.64,4.89,3.02,5.6.43.13.87.19,1.29.19,1.94,0,3.72-1.26,4.31-3.21.69-2.32,2.08-4.54,3.85-6.61-.71,6.28.93,12.33,2.38,17.66,1.13,4.16,2.2,8.09,2.07,11.55-.13,3.56-1.55,5.17-1.87,5.48-.77.51-1.1,1.07-1.44,1.95l-2.97,7.72-4.89-4.19c-1.14-3.19-4.63-13.2-8.68-27.22l-.39-1.37c-2.86-9.89-8.19-28.29-7.16-39.69,2.21-24.57,10.71-33.42,22.47-45.66,2.59-2.7,5.27-5.48,8.08-8.64,7.56-8.48,27.66-31,45.45-35.62,34.25-8.91,44.62,2.38,45.26,3.13.41.63.95,1.1,1.57,1.43,1.47,1.14,6.21,5.11,8.08,10.5.64,1.86,2.39,3.03,4.25,3.03.49,0,.98-.08,1.47-.25,2.35-.81,3.59-3.38,2.78-5.72-1.61-4.66-4.53-8.44-7.08-11.08,4.45-1.69,12.83-2.62,26.26,4.08,16.83,8.39,26.66,22.03,33.34,32.98,11.79,19.31,13.26,40.94,13.27,41.15.01.21.04.42.08.62.13.64,3.19,15.76,4.68,20.5.45,1.44.9,2.79,1.32,4.08,3.15,9.59,4.45,13.56.28,19.9-1.15,1.75-1.97,4.25-2.54,6.68l-10.72-8.1c-.55-.41-.94-.65-1.6-.77-.76-.28-8.57-3.53-13.23-20.69-1.49-5.5-2.78-10.57-3.91-15.05-3.12-12.3-5.58-22.02-9.81-30.5-11.07-22.16-21.97-25.44-23.18-25.74v.02c-.42-.13-.85-.21-1.3-.21-2.49,0-4.5,2.01-4.5,4.5,0,2.19,1.56,4.01,3.63,4.41h0s-.13-.02-.13-.02c.08.03,8.31,2.8,17.43,21.06,3.8,7.61,6.04,16.45,9.14,28.69,1.14,4.51,2.44,9.62,3.95,15.19,5.47,20.13,15.28,25.46,18.68,26.73l16.11,12.18c1.31.99,3.05,1.19,4.55.52,1.5-.67,2.51-2.1,2.65-3.73.31-3.71,1.28-8.68,2.31-10.23,6.55-9.97,4.12-17.38.75-27.65Z"/>
          <path class="cls-3" d="M314.82,256.03c-1.22,0-2.42-.55-3.2-1.59-1.32-1.76-.98-4.26.77-5.59.59-.45,14.68-10.91,36.46-7.89,2.19.3,3.72,2.32,3.41,4.51-.3,2.19-2.31,3.72-4.51,3.41-18.36-2.55-30.42,6.26-30.54,6.35-.72.54-1.56.79-2.39.79Z"/>
          <g>
            <path class="cls-2" d="M398.63,139.32l2.56,16.05,4.14,30.18.57,18.45c10.41-3.21,25.54-19.11,21.7-43.15-4.33-27.14-20.34-26.66-28.96-21.54Z"/>
            <path class="cls-3" d="M406.67,208.44c.18-.03.36-.08.54-.13,12.5-3.85,29.03-21.81,24.82-48.16-2.18-13.64-7.36-22.47-15.41-26.24-6.2-2.91-13.79-2.33-20.3,1.54-1.58.94-2.43,2.75-2.14,4.57l2.56,16.05c.39,2.45,2.7,4.13,5.15,3.74,2.45-.38,4.13-2.7,3.74-5.15l-2.03-12.73c2.37-.86,5.79-1.47,9.21.13,5.11,2.39,8.68,9.14,10.34,19.5,2.77,17.33-5.39,29.58-12.98,35.17l-.35-11.31c-.08-2.48-2.15-4.44-4.64-4.36-2.48.07-4.44,2.15-4.36,4.64l.57,18.45c.04,1.4.74,2.71,1.88,3.52.99.71,2.22.98,3.4.77Z"/>
          </g>
          <g>
            <path class="cls-2" d="M234.81,184.71l-3.09-15.96c-9.86-1.87-25.06,3.16-19.85,30.14,4.61,23.9,24.27,33.68,35.15,33.13l-5.78-17.53-6.43-29.78Z"/>
            <path class="cls-3" d="M247.8,236.45c-.18.03-.37.05-.55.06-13.06.66-34.74-10.57-39.8-36.77-2.62-13.56-.77-23.63,5.51-29.92,4.83-4.85,12.16-6.9,19.6-5.49,1.81.34,3.23,1.76,3.58,3.57l3.09,15.96c.47,2.44-1.12,4.8-3.56,5.27-2.43.49-4.8-1.12-5.27-3.56l-2.45-12.66c-2.52,0-5.95.6-8.61,3.27-3.98,3.99-5.03,11.55-3.04,21.86,3.33,17.23,15.19,25.95,24.22,28.61l-3.54-10.75c-.78-2.36.5-4.9,2.86-5.68,2.35-.78,4.91.5,5.68,2.86l5.78,17.53c.44,1.33.23,2.8-.56,3.95-.69,1-1.75,1.68-2.93,1.89Z"/>
          </g>
        </g>
        <g>
          <g>
            <path class="cls-2" d="M369.48,316.96c-5.22-6.55-7.62-11.36-10.5-13.02-2.96-1.7-6.74-1-6.74-1,0,0-4.77-22.23-13.94-21.05-5.24.68-11.29,3.61-17.22,6.26-7.42,3.31-12.78,5.3-15.67,7.89-3.04,2.73-3.55,7.65-6.44,14.43-2.59,6.08-5.8,12.53-6.68,16.09-1.88,7.55-1.45,65.81-5.98,80.74-4.53,14.93-25.48,48.3-25.48,48.3l40.59,46.89,29.94-67.84s8.06-6.16,11.84-14.97c5.14-11.99,3.49-28.04,3.49-28.04,0,0,3.2,3.93,8.2,1.53s4.32-7.42,7-12.87c3.06-6.22,6.8-12.67,6.8-12.67,0,0,4.9-4.23,6.5-10.37,1.6-6.13-1.17-12.57-1.17-12.57,0,0,5.73-6.93,5.73-12.8,0-2.86-5.3-8.7-10.27-14.93Z"/>
            <path class="cls-3" d="M384.25,331.89c0-3.75-2.91-7.5-8.5-14.34-.9-1.11-1.83-2.25-2.75-3.4-1.85-2.32-3.33-4.42-4.64-6.27-2.59-3.66-4.46-6.31-7.14-7.85-1.83-1.05-3.79-1.5-5.48-1.66-2.11-7.6-7.56-22.3-18.03-20.95-5.32.69-11,3.25-16.51,5.73l-1.97.89c-1.5.67-2.91,1.28-4.23,1.85-5.67,2.46-9.76,4.24-12.61,6.79-2.86,2.57-4.01,5.98-5.34,9.93-.61,1.81-1.3,3.87-2.24,6.08-.78,1.83-1.62,3.7-2.43,5.51-2.02,4.51-3.77,8.4-4.48,11.26-.8,3.22-1.15,11.95-1.7,27.1-.68,18.92-1.62,44.83-4.22,53.41-4.31,14.19-24.78,46.88-24.99,47.21-1.32,2.1-.69,4.88,1.42,6.2,2.1,1.32,4.88.69,6.2-1.42.87-1.38,21.32-34.05,25.98-49.38,2.95-9.7,3.87-35.21,4.61-55.7.4-11.2.82-22.79,1.44-25.26.52-2.09,2.27-5.98,3.96-9.75.83-1.86,1.7-3.78,2.5-5.66,1.08-2.53,1.83-4.77,2.49-6.74.96-2.86,1.72-5.12,2.82-6.1,1.76-1.58,5.48-3.19,10.18-5.24,1.35-.59,2.79-1.21,4.31-1.89l2-.9c4.9-2.21,9.97-4.49,13.96-5.01,2.1-.29,5.72,6.11,7.95,13.58l-11.15,3.54c.02-1.83-1.08-3.57-2.89-4.25-2.32-.88-4.92.29-5.8,2.61l-1.9,5-5.49,1.74-5.59,1.02c-2.44.45-4.06,2.79-3.62,5.24.4,2.17,2.29,3.69,4.42,3.69.27,0,.54-.02.81-.07l5.87-1.07c.19-.03.37-.08.55-.14l31.22-9.91c.64-.07,2.36-.13,3.47.51.96.55,2.57,2.83,4.28,5.24,1.31,1.85,2.94,4.16,4.95,6.68.94,1.18,1.89,2.35,2.82,3.48,2.38,2.91,5.93,7.27,6.46,8.86-.06,1.42-.69,3.14-1.53,4.8l-9.46-12.36c-.82-1.07-2.06-1.71-3.4-1.76l-38.1-1.44c-2.51-.11-4.57,1.84-4.67,4.33-.09,2.48,1.84,4.57,4.33,4.67l35.98,1.36,11.66,15.24c.62,1.7,1.66,5.76.77,9.19-.34,1.29-.88,2.49-1.49,3.54l-10.74-18.93c-.77-1.35-2.17-2.21-3.72-2.27l-30.71-1.3c-2.46-.1-4.58,1.82-4.69,4.31-.11,2.48,1.82,4.58,4.31,4.69l28.22,1.2,11.51,20.28c-1.38,2.46-3.65,6.59-5.66,10.68-1.07,2.17-1.66,4.18-2.18,5.96-.96,3.28-1.36,4.18-2.73,4.84-1.11.53-2.05.41-2.79-.36-.32-.43-.7-.77-1.12-1.05-.64-.68-2.08-2.67-1.6-6.2.41-3,2.61-10.01,3.42-12.46.4-1.21.27-2.53-.36-3.64-.63-1.11-1.7-1.9-2.94-2.17l-13.24-2.92c-2.27-.5-4.56.82-5.26,3.04l-4.25,13.52c-.33,1.05-.26,2.2.19,3.2.06.14,6.25,14.07,3.25,23.82-.73,2.38.6,4.89,2.98,5.62.44.14.89.2,1.33.2,1.92,0,3.7-1.24,4.3-3.18,3.33-10.8-1.15-23.96-2.96-28.54l2.52-8.02,4.42.97c-.92,3.06-1.96,6.87-2.3,9.32-.85,6.26,1.52,10.84,3.81,13.4.23,4.15.45,15.54-3.27,24.21-3.25,7.57-10.37,13.12-10.44,13.17-.6.46-1.08,1.07-1.38,1.76l-29.94,67.84c-1,2.27.03,4.93,2.3,5.93.59.26,1.21.38,1.81.38,1.73,0,3.38-1,4.12-2.68l29.5-66.86c2.43-2.05,8.86-8,12.3-16,3.32-7.74,4.06-16.82,4.11-23.01,1.63.04,3.47-.29,5.39-1.22,5.13-2.46,6.43-6.87,7.47-10.42.46-1.57.89-3.04,1.62-4.52,2.44-4.94,5.35-10.11,6.32-11.82,1.62-1.55,5.7-5.94,7.29-12.07,1.31-5.03.36-10-.49-12.92,2.02-2.91,5.2-8.32,5.2-13.59Z"/>
          </g>
          <g>
            <path class="cls-2" d="M269.7,427.68l-20.07,29.88,65.2,38.62,15.77-24.95s-16.52-7.3-32.97-18.44c-14.06-9.53-27.93-25.1-27.93-25.1Z"/>
            <path class="cls-3" d="M314.82,500.67c-.82,0-1.65-.23-2.4-.7-2.1-1.33-2.73-4.11-1.4-6.21l13.05-20.64c-6.17-3-17.52-8.87-28.96-16.63-9.93-6.74-19.61-16.2-24.83-21.61l-16.91,25.18c-1.39,2.06-4.18,2.61-6.25,1.23-2.06-1.39-2.61-4.18-1.23-6.25l20.07-29.88c.78-1.15,2.04-1.88,3.43-1.98,1.39-.09,2.74.46,3.67,1.5.14.15,13.67,15.27,27.09,24.37,15.92,10.8,32.1,17.98,32.26,18.05,1.2.53,2.11,1.55,2.49,2.81.38,1.25.2,2.61-.5,3.72l-15.77,24.95c-.86,1.35-2.32,2.1-3.81,2.1Z"/>
          </g>
          <g>
            <path class="cls-4" d="M254.65,439.59s-40.11,58.3-54.72,82.97c-2.03,3.43-12.91-.72-17.68,4.97-6.61,7.88-12.06,27.87-12.64,28.64l3.26,79.72c14.53,12.02,52.89,21.6,82.71-25.86,30.72-47.01,60.25-96.06,72.64-117.57-46.56-17.62-73.57-52.87-73.57-52.87Z"/>
            <path class="cls-3" d="M201.9,650.21c-13.66,0-25.12-5.24-31.9-10.85-1.91-1.58-2.18-4.42-.6-6.34,1.58-1.91,4.42-2.18,6.34-.6,6.33,5.24,18.85,10.54,33.29,8.22,16.01-2.57,30.79-13.98,42.74-33,28.53-43.67,56.28-89.48,69.94-112.92-34.8-14.45-57.91-37.74-66.7-47.69-9.94,14.54-39.3,57.73-51.21,77.82-2.17,3.66-6.48,3.74-10.29,3.82-3.02.06-6.45.12-7.82,1.75-4.59,5.47-8.91,18.57-10.75,24.17-.98,2.98-1.16,3.52-1.73,4.28-1.49,1.99-4.31,2.39-6.3.9-1.78-1.33-2.29-3.73-1.31-5.64.15-.4.49-1.43.79-2.35,2.17-6.6,6.7-20.34,12.41-27.14,4-4.77,10.09-4.88,14.54-4.97.99-.02,2.38-.05,3.16-.16,14.88-24.93,54.04-81.89,54.43-82.47.82-1.19,2.15-1.91,3.59-1.95,1.48-.04,2.81.62,3.69,1.76.26.34,26.85,34.47,71.59,51.4,1.23.47,2.2,1.45,2.64,2.69.44,1.24.32,2.62-.34,3.76-12.51,21.73-42.22,71.03-72.77,117.79-16.84,26.81-35.89,34.94-48.89,37.03-2.93.47-5.79.69-8.55.69ZM166.01,553.48s0,0,0,0c0,0,0,0,0,0ZM166.01,553.47s0,0,0,0c0,0,0,0,0,0Z"/>
          </g>
        </g>
      </g>
      <path class="cls-3" d="M146.37,121.17c-9.67,0-17.34-6.05-19.12-14.55-4.37.33-8.76-.52-11.71-3.05-3.33-2.85-5.2-6.95-5.43-11.83-.01-.3-.02-.61-.02-.92-3.68.48-7.14.61-9.92.44-8.41-.52-12.79-6.3-14.23-8.2-3.49-4.61-3.73-10.76-.67-17.37-7.89-1.59-14.73-5.86-18.36-11.47-2.81-4.34-3.64-9.37-2.41-14.53,3.21-13.47,19.68-17.96,30.33-16.02,6.32,1.15,14.04,4.91,16.72,12.02.97,2.58-.06,4.43-.55,5.11-1.75,2.42-4.51,2.3-6.72,2.2-3.65-.16-6.38-.04-8.24,2.98-1.42,2.31-1.41,4.58-.18,7.32.93-.57,1.89-1.06,2.87-1.47,3.95-1.66,11.23-4.72,16.14-.88.62.49,1.19,1.08,1.68,1.74.38-.35.75-.73,1.1-1.14,2.6-2.99,4.77-8.17,3.75-13.01-.83-3.95-3.71-7.1-8.55-9.36-2.25-1.05-3.22-3.73-2.17-5.98,1.05-2.25,3.73-3.22,5.98-2.17,9.39,4.39,12.55,10.94,13.54,15.66,1.78,8.42-2,16.46-5.77,20.78-1.71,1.97-3.59,3.47-5.51,4.63-.35,3.2-1.84,5.84-4.16,7.33-5.56,3.57-15.48,3.39-20.2-2.1-.34.57-.66,1.17-.96,1.79-1.24,2.54-2.32,6.08-.49,8.5,2.37,3.12,4.57,4.47,7.62,4.65,3.28.2,7.24-.1,11.1-.82,1.38-3.85,3.52-7.48,6.13-10.18.08-.08,8.23-7.91,14.27-4.68,2.12,1.13,3.49,3.09,3.84,5.51.58,4.04-1.8,8.06-3.54,9.78-3.27,3.22-8.13,5.52-13.33,7.04-.1.81-.13,1.61-.09,2.4.11,2.38.88,4.2,2.3,5.42.85.73,3.12,1.13,5.69.86.39-3.58,1.33-7.26,3.36-9.8,2.11-2.65,5.2-3.74,8.09-2.85,3.01.92,5.05,3.75,5.32,7.36.37,4.89-2.42,9.23-7.68,11.89-.07.04-.14.07-.21.11.79,5.17,5.65,7.87,10.4,7.87,2.49,0,4.5,2.01,4.5,4.5s-2.01,4.5-4.5,4.5ZM89.9,32.24c-6.74,0-15.12,3.11-16.65,9.53-.66,2.79-.27,5.26,1.22,7.56,2.3,3.56,7.34,6.54,12.83,7.59.12.02.25.05.38.07-2.09-4.69-2.77-10.1.7-15.73,2.8-4.54,6.63-6.3,10.07-6.95-1.67-.87-3.53-1.48-5.22-1.78-1.03-.19-2.15-.28-3.32-.28Z"/>
      <g>
        <g>
          <polygon class="cls-2" points="510.44 484.87 510.44 733.38 510.44 757.33 148.55 757.33 148.55 733.38 148.55 484.87 510.44 484.87"/>
          <path class="cls-3" d="M510.44,761.83H148.55c-2.49,0-4.5-2.01-4.5-4.5v-272.45c0-2.49,2.01-4.5,4.5-4.5h361.89c2.49,0,4.5,2.01,4.5,4.5v272.45c0,2.49-2.01,4.5-4.5,4.5ZM153.05,752.83h352.89v-263.45H153.05v263.45Z"/>
        </g>
        <path class="cls-3" d="M510.44,737.88H196.93c-2.49,0-4.5-2.01-4.5-4.5s2.01-4.5,4.5-4.5h313.51c2.49,0,4.5,2.01,4.5,4.5s-2.01,4.5-4.5,4.5Z"/>
      </g>
    </g>
  </g>
</svg>