<?xml version="1.0" encoding="UTF-8"?>
<svg id="_レイヤー_2" data-name="レイヤー_2" xmlns="http://www.w3.org/2000/svg" viewBox="0 0 859 683.55">
  <defs>
    <style>
      .cls-1 {
        fill: #3199f0;
      }

      .cls-2 {
        fill: #fff;
      }

      .cls-3 {
        fill: #0d1828;
      }

      .cls-4 {
        fill: #cee7fd;
      }
    </style>
  </defs>
  <g id="_レイヤー_1-2" data-name="レイヤー_1">
    <g id="woman">
      <g>
        <g>
          <path class="cls-3" d="M283.95,453.04c-32.21,2.95-82.78,7.1-112.75,7.1s-83.15-3.99-118.81-6.93c-18.53-1.53-33.96,13.99-32.34,32.51l16.91,193.31h297s-17.39-198.74-17.39-198.74c-1.45-16.56-16.07-28.78-32.62-27.26Z"/>
          <path class="cls-3" d="M333.95,683.55c-2.31,0-4.27-1.77-4.48-4.11l-17.39-198.75c-.6-6.81-3.81-12.97-9.05-17.35-5.24-4.38-11.87-6.45-18.67-5.82-35.43,3.25-83.82,7.12-113.16,7.12s-80.77-3.77-119.18-6.94c-7.49-.62-14.85,2.09-20.16,7.43-5.31,5.34-7.98,12.71-7.33,20.21l16.91,193.32c.22,2.48-1.61,4.66-4.09,4.88-2.5.22-4.66-1.62-4.88-4.09l-16.91-193.31c-.89-10.15,2.72-20.12,9.91-27.34,7.18-7.22,17.12-10.88,27.29-10.05,38.25,3.15,89.84,6.91,118.44,6.91,30.53,0,83.49-4.44,112.34-7.08,9.2-.85,18.18,1.95,25.27,7.88,7.09,5.93,11.44,14.26,12.25,23.47l17.39,198.75c.22,2.48-1.61,4.66-4.09,4.88-.13.01-.27.02-.4.02Z"/>
        </g>
        <path class="cls-3" d="M66.08,683.55c-2.31,0-4.27-1.77-4.48-4.11l-11.03-126.13c-.22-2.48,1.61-4.66,4.09-4.88,2.51-.22,4.66,1.62,4.88,4.09l11.03,126.13c.22,2.48-1.61,4.66-4.09,4.88-.13.01-.27.02-.4.02Z"/>
      </g>
      <g>
        <g>
          <path class="cls-4" d="M631.86,151.8c-7.69-13.18-31.6-20.27-52.67-24.58-24.38-4.98-43.56-13.04-43.56-13.04,0,0-23.64,8.11-34.22,35.03s-9,43.43-9,43.43l13.28,7.32-2.66,17.42-27.26,24.07s-14.22-6.97-23.11,0c-5.32,4.17-6.15,17.11-6.15,17.11,0,0-6.88-2.85-15.99,0-6.5,2.03-10.44,6.14-10.44,6.14l-52.44-20.74-13.71,61.54,34.38,11.04,5.61,10.85s44.74,57.19,54.36,117.97c5.19,32.8,28,233.69,28,233.69h9.59s1.13-262.35-2.67-289.61c-.01-.1-.03-.19-.04-.3,27.15-32.84,120.61-145.9,128.34-155.69,13.93-17.63,36.96-53.2,20.37-81.65Z"/>
          <path class="cls-3" d="M485.86,683.55h-9.59c-2.29,0-4.21-1.72-4.47-3.99-.23-2.01-22.86-201.16-27.98-233.49-9.33-58.95-53.02-115.34-53.46-115.9-.17-.22-.33-.46-.45-.71l-4.75-9.2-32.61-10.47c-2.21-.71-3.52-2.99-3.02-5.26l13.71-61.54c.29-1.29,1.12-2.38,2.29-3,1.16-.62,2.54-.69,3.76-.21l49.91,19.74c2.11-1.64,5.54-3.87,9.98-5.25,5.34-1.67,10.08-1.65,13.49-1.2.87-4.89,2.83-11.71,7.23-15.16,8.37-6.56,19.75-3.61,25.01-1.69l23.93-21.13,1.94-12.7-10.53-5.81c-1.3-.72-2.17-2.03-2.31-3.51-.07-.72-1.57-17.9,9.29-45.51,11.21-28.52,35.9-37.28,36.95-37.64,1.04-.36,2.18-.32,3.2.11.19.08,19.09,7.95,42.72,12.78,31.03,6.34,48.72,14.83,55.65,26.72,17.65,30.26-5.41,67.31-20.73,86.7-7.64,9.68-97.64,118.56-127.17,154.27,3.56,34.54,2.55,278.02,2.51,288.55-.01,2.48-2.02,4.48-4.5,4.48ZM480.29,674.55h1.09c.12-34.76.8-259.8-2.64-284.49l-.04-.27c-.18-1.26.18-2.53.99-3.51,28.15-34.04,120.58-145.87,128.28-155.61,13.9-17.6,34.98-50.94,20.01-76.59h0c-5.4-9.25-22.11-16.8-49.68-22.44-20.59-4.21-37.33-10.48-42.65-12.59-5.04,2.23-21.86,11.01-30.04,31.82-7.8,19.84-8.73,33.83-8.76,39.08l11.03,6.08c1.65.91,2.56,2.76,2.28,4.62l-2.66,17.42c-.16,1.04-.68,2-1.47,2.69l-27.26,24.07c-1.37,1.21-3.32,1.47-4.96.67-3.26-1.58-12.94-4.75-18.36-.5-2.55,2-4.16,9.45-4.44,13.86-.09,1.45-.88,2.76-2.11,3.53-1.23.77-2.76.89-4.1.34-.19-.07-5.62-2.15-12.93.14-5.22,1.63-8.53,4.95-8.56,4.98-1.27,1.29-3.2,1.71-4.88,1.05l-47.54-18.8-11.67,52.39,30.47,9.78c1.13.36,2.08,1.16,2.62,2.22l5.42,10.48c4.09,5.3,45.59,60.23,55,119.7,4.74,29.96,24.33,201.42,27.58,229.89Z"/>
        </g>
        <g>
          <path class="cls-2" d="M462.75,117.52c14.5,5.13,81.11,14.89,81.11,14.89,0,0,11.39,13.11-.52,35.7-8.59,16.3-23.25,20.3-23.25,20.3l-76.46-27.11s-31.3,6.14-42.72-15.11c-11.42-21.25-14.06-35.77-14.06-35.77l-13.44-33.9-30.95-31.21s-.07-13.21,8.21-15.46c8.27-2.25,38.24,1.83,42.21,5.78,3.97,3.95,4.07,7.6,4.07,7.6,0,0,11.72-.94,16.89,2.39,5.17,3.33,13.43,22.34,23.43,39.91s21.7,30.67,25.48,32Z"/>
          <path class="cls-3" d="M547.26,129.46c-.71-.81-1.68-1.35-2.75-1.5-.66-.1-66.16-9.72-80.21-14.66-2.34-1.15-12.87-11.99-23.13-30.01-3.24-5.69-6.24-11.44-9.15-17-7.41-14.18-11.48-21.71-15.75-24.46-4.41-2.84-11.48-3.3-15.96-3.25-.77-1.81-2.07-3.98-4.25-6.15-5.88-5.85-38.18-9.21-46.56-6.93-9.16,2.49-11.56,13.64-11.53,19.83,0,1.18.47,2.31,1.3,3.15l30.3,30.56,12.95,32.66c.57,2.76,3.8,16.86,14.43,36.63,11.6,21.57,39.86,18.6,46.28,17.61l75.35,26.72c.49.17.99.26,1.5.26.4,0,.8-.05,1.19-.16.67-.18,16.64-4.72,26.04-22.54,13.19-25.02.48-40.12-.06-40.75ZM539.36,166.01c-6.22,11.8-15.83,16.35-19.23,17.64l-66.08-23.43c2.42-2.06,4.89-4.8,6.76-8.39,1.15-2.2.3-4.92-1.91-6.07-2.2-1.15-4.92-.3-6.07,1.91-3.22,6.17-9.19,8.8-10.4,9.28-3.13.53-28.39,4.18-37.56-12.88-10.89-20.25-13.57-34.31-13.6-34.45-.05-.29-.13-.58-.24-.86l-13.44-33.9c-.22-.56-.56-1.08-.99-1.51l-29.54-29.8c.31-3.1,1.47-8.46,4.79-9.37,6.99-1.9,33.96,1.89,37.93,4.7,0,0,.02.02.03.03-.82.03-1.68.07-2.55.12-6.53.34-11.01,2.02-13.68,5.14-1.89,2.21-2.72,5.05-2.39,8.19,1.21,11.58,20.23,14.38,28.01,15.04l4.79,8.08c.84,1.42,2.34,2.2,3.87,2.2.78,0,1.57-.2,2.29-.63,2.14-1.27,2.84-4.03,1.57-6.17l-6-10.11c-.77-1.3-2.14-2.12-3.65-2.2-9.86-.5-21.59-3.73-21.95-7.16-.1-.96.16-1.26.28-1.41.7-.82,2.99-1.78,7.3-2,4.75-.24,9.23-.29,9.28-.29.05,0,.09-.01.13-.01.06,0,.12,0,.18,0,4.23-.34,11.4-.04,14.09,1.69,2.47,1.6,8.12,12.39,12.65,21.07,2.81,5.37,5.99,11.45,9.3,17.28,9.49,16.67,22,31.94,27.89,34.02,13.52,4.78,68.8,13.14,80.05,14.82,2.06,3.41,6.42,13.59-1.93,29.43Z"/>
          <path class="cls-3" d="M438.53,142.23s-.04,0-.07,0c-.7-.01-17.23-.47-25.4-19.37-5.54-12.82-4.32-24.26-4.27-24.74.28-2.47,2.52-4.24,4.98-3.96,2.47.28,4.24,2.51,3.96,4.98,0,.08-.96,9.63,3.59,20.15,5.79,13.4,16.84,13.92,17.31,13.94,2.47.08,4.43,2.14,4.37,4.61-.06,2.45-2.04,4.39-4.48,4.39Z"/>
        </g>
        <g>
          <g>
            <g>
              <path class="cls-2" d="M373.36,255.23l-60.61-22.95-45.41-26.34s-1.01,62.93-3.41,83.07c-3.61,30.25-28.94,52.74-28.94,52.74l43.5,56.3,115.32-10.67,19.46-31.71s-41.65-50.85-44.44-56c-2.8-5.15,4.54-44.44,4.54-44.44Z"/>
              <path class="cls-3" d="M278.49,402.54c-1.35,0-2.68-.6-3.56-1.75l-43.5-56.3c-1.45-1.87-1.2-4.55.57-6.12.24-.21,24.1-21.78,27.45-49.91,2.35-19.69,3.37-81.98,3.38-82.61.03-1.6.89-3.06,2.28-3.85,1.39-.79,3.09-.78,4.47.02l45.09,26.16,60.26,22.82c2.04.77,3.23,2.89,2.83,5.03-3.19,17.08-5.95,37.7-4.92,41.62,2.54,4.24,28.13,35.91,43.88,55.14,1.21,1.48,1.36,3.57.35,5.21l-19.46,31.71c-1.3,2.12-4.07,2.78-6.19,1.48-2.12-1.3-2.78-4.07-1.48-6.19l17.79-28.98c-10.06-12.3-40.25-49.36-42.89-54.23-1.19-2.19-2.21-6.26.72-26.93.93-6.56,2.01-12.93,2.68-16.77l-57.11-21.63c-.23-.09-.45-.19-.66-.32l-38.8-22.5c-.35,17.48-1.38,59.73-3.3,75.87-3.04,25.49-20.27,45.4-27.38,52.65l41.04,53.11c1.52,1.97,1.16,4.79-.81,6.31-.82.63-1.79.94-2.75.94Z"/>
            </g>
            <g>
              <path class="cls-2" d="M400.65,114.69c-6.81-19.14-13.48-56.07-61.07-74.72-22.53-8.83-61.96,7.95-81.33,20.36-50.33,32.24-42.35,75.67-29.84,103.13,8.43,18.5,16.53,35.87,16.53,35.87l12.7,27.24,47.58,27s64.61,22.36,95.94,7.36c9.68-4.64,11.8-22.71,16.56-43.8,4.32-19.12,7-41.26-2.15-60.88-9.83-21.09-11.63-32.28-14.92-41.57Z"/>
              <path class="cls-3" d="M372.68,270.6c-31.53,0-66.94-12.09-68.94-12.78-2.35-.81-3.59-3.37-2.78-5.72.81-2.35,3.38-3.59,5.72-2.78.63.22,63.24,21.58,92.52,7.56,6.11-2.92,8.82-15.79,11.95-30.69.68-3.24,1.39-6.59,2.16-10.04,3.83-16.95,7.08-38.86-1.84-57.98-7.18-15.4-10.13-25.52-12.5-33.64-.91-3.11-1.69-5.8-2.59-8.33-.78-2.19-1.55-4.59-2.37-7.14-6.29-19.55-15.8-49.1-56.1-64.9-19.72-7.73-57.06,7.02-77.26,19.96-46.44,29.75-40.95,69.43-28.17,97.47,8.32,18.27,16.43,35.66,16.52,35.84l12.7,27.24c1.05,2.25.08,4.93-2.18,5.98-2.25,1.05-4.93.08-5.98-2.18l-12.7-27.24c-.08-.17-8.21-17.61-16.55-35.91-11.67-25.61-23.1-73.81,31.51-108.78,21.12-13.53,61.28-30.22,85.4-20.76,44.27,17.35,54.98,50.63,61.38,70.52.8,2.48,1.55,4.82,2.29,6.89.98,2.77,1.84,5.71,2.74,8.82,2.28,7.83,5.12,17.58,12.01,32.36,10.07,21.59,6.6,45.42,2.46,63.77-.76,3.39-1.46,6.7-2.14,9.91-3.77,17.94-6.76,32.12-16.87,36.96-8.54,4.09-19.23,5.61-30.41,5.61Z"/>
            </g>
            <path class="cls-3" d="M320.35,121.52c-2.06,0-3.82-1.59-3.98-3.68-.18-2.2,1.46-4.13,3.67-4.31.2-.02,20.68-1.82,30.57-12.9,1.47-1.65,4-1.79,5.65-.32,1.65,1.47,1.79,4,.32,5.65-12.04,13.48-34.92,15.47-35.89,15.55-.11,0-.22.01-.32.01Z"/>
            <path class="cls-3" d="M335.19,144.83c-1.57,0-3-1.07-3.39-2.66-.46-1.88.68-3.77,2.56-4.24l19.87-4.92c1.87-.46,3.77.68,4.24,2.56.46,1.88-.68,3.77-2.56,4.24l-19.87,4.92c-.28.07-.57.1-.84.1Z"/>
            <path class="cls-3" d="M399.05,114.68c-.17,0-.33-.01-.5-.03-.43-.05-10.52-1.37-17.58-7.42-1.68-1.44-1.87-3.96-.44-5.64,1.44-1.68,3.96-1.87,5.64-.43,5.2,4.45,13.29,5.54,13.37,5.55,2.19.28,3.74,2.28,3.46,4.47-.26,2.02-1.97,3.5-3.96,3.5Z"/>
            <path class="cls-3" d="M400.92,150.19c-.47,0-.95-.08-1.42-.26-12.4-4.72-16.27-15.76-16.43-16.23-.71-2.09.41-4.36,2.5-5.07,2.09-.71,4.35.4,5.06,2.48.13.36,2.94,8.01,11.7,11.34,2.07.79,3.1,3.1,2.32,5.16-.61,1.6-2.13,2.58-3.74,2.58Z"/>
            <g>
              <path class="cls-1" d="M332.68,33.79c-29.19-7.91-55.33-3.68-84.87,10.4-23.87,11.38-45.12,33.11-55.66,65.51-12.83,39.43-4.13,67.26,5.35,89.34,17.41,44.05,68.36,59.88,68.36,59.88l.69-19.7-6.98-50.63s2.04-14.16,4.84-25.78c2.62-10.9,43.66-52.17,43.66-52.17,0,0,25.73-4.49,34.4-24.2,9.65-21.96-4.57-38.52-4.57-38.52l14.22,1.17c8.94,1.17,12.35,4.68,12.35,4.68,0,0-12.34-14.7-31.79-19.97Z"/>
              <path class="cls-3" d="M265.86,263.42c-.45,0-.9-.07-1.33-.2-2.16-.67-53.18-16.98-71.19-62.47-10.5-24.48-18.42-52.62-5.47-92.44,10.06-30.93,30.66-55.14,58-68.18,31.94-15.23,59.08-18.52,87.99-10.68,20.58,5.58,33.52,20.78,34.06,21.42,1.59,1.89,1.44,4.8-.44,6.41-1.86,1.59-4.57,1.49-6.2-.33-.38-.32-3.24-2.55-9.74-3.4-2.46-.32-4.2-2.58-3.88-5.04.12-.91.5-1.72,1.06-2.36-4.67-3.12-10.51-6.19-17.22-8-26.69-7.24-51.9-4.11-81.76,10.12-25.09,11.96-44.03,34.28-53.32,62.84-12.04,37.02-4.61,63.29,5.21,86.17.02.04.03.08.05.12,13.04,33.02,46.54,49.65,59.9,55.13l.46-13.07-6.93-50.25c-.06-.42-.06-.84,0-1.26.08-.59,2.11-14.5,4.92-26.19,2.78-11.54,37.84-47.25,44.85-54.29.66-.66,1.5-1.1,2.42-1.26.23-.04,23.49-4.37,31.05-21.58,8.42-19.15-3.74-33.63-3.86-33.78-1.62-1.89-1.4-4.73.48-6.35,1.89-1.62,4.73-1.4,6.35.48.66.76,15.95,18.98,5.28,43.26-8.38,19.06-30.33,25.19-36.28,26.52-16.62,16.8-39.95,42.54-41.53,49.09-2.39,9.94-4.25,21.92-4.67,24.75l6.89,50c.04.26.05.51.04.77l-.69,19.7c-.05,1.4-.75,2.7-1.89,3.51-.77.55-1.68.83-2.6.83Z"/>
            </g>
            <g>
              <path class="cls-2" d="M245.89,178.78c-11.12-2.03-32.06,10.96-21.14,36.55,8.55,20.05,37.77,29.26,53.73,16.11l-13.22-43.03s-8.02-7.56-19.37-9.64Z"/>
              <path class="cls-3" d="M260.18,242.08c-3.3,0-6.7-.41-10.14-1.25-13.29-3.24-24.56-12.33-29.42-23.73-7.15-16.77-1.51-27.67,2.5-32.68,5.9-7.38,15.61-11.52,23.59-10.06,12.52,2.29,21.28,10.44,21.65,10.79,1.81,1.71,1.89,4.55.19,6.36-1.7,1.81-4.54,1.89-6.35.2-.14-.13-7.33-6.7-17.1-8.49-4.08-.75-10.77,1.61-14.94,6.83-3.36,4.2-6.3,11.7-1.25,23.53,3.77,8.84,12.69,15.93,23.28,18.52,9.04,2.21,17.59.71,23.45-4.12,1.92-1.58,4.76-1.31,6.33.61,1.58,1.92,1.31,4.75-.61,6.33-5.72,4.71-13.12,7.17-21.16,7.17Z"/>
            </g>
            <path class="cls-3" d="M328.08,139.02c-1.87,0-3.42-1.48-3.5-3.36-.08-1.93,1.43-3.56,3.36-3.64l29.94-1.18c1.96-.07,3.56,1.43,3.63,3.36.08,1.93-1.43,3.56-3.36,3.64l-29.94,1.18s-.09,0-.14,0Z"/>
            <path class="cls-3" d="M389.95,137.84c-1.58,0-3.01-1.07-3.4-2.67-.46-1.88.69-3.77,2.57-4.23l14-3.41c1.88-.45,3.77.69,4.23,2.57.46,1.88-.69,3.77-2.57,4.23l-14,3.41c-.28.07-.56.1-.83.1Z"/>
            <path class="cls-3" d="M308.07,115.13c-1.2,0-2.4-.48-3.29-1.43-1.7-1.82-1.6-4.66.22-6.36.09-.09,10.78-10.41,15.98-31.33.6-2.41,3.04-3.88,5.45-3.28,2.41.6,3.88,3.04,3.28,5.45-5.88,23.69-18.05,35.26-18.57,35.74-.87.81-1.97,1.21-3.07,1.21Z"/>
            <path class="cls-3" d="M314.15,195.65c-4.5,0-7.04-4.17-7.69-7.28-.34-1.62.71-3.21,2.33-3.55,1.62-.34,3.21.7,3.55,2.33.02.09.65,2.77,2.19,2.46,1.23-.24,2.14-3.44,2.23-5.54.07-1.66,1.43-2.93,3.12-2.88,1.66.07,2.94,1.46,2.88,3.12-.04,1.01-.59,9.94-7.09,11.19-.52.1-1.03.15-1.51.15Z"/>
            <path class="cls-3" d="M375.48,224.01c-.78,0-1.57-.04-2.37-.14-9.9-1.19-16.81-10.01-15.73-20.1,1.12-10.49,10.54-19.36,20.57-19.36,5.96,0,9.79,1.93,11.98,3.59,1.63-.49,3.91-.96,6.72-.98.04,0,.09,0,.13,0,6.97,0,10.92,5.07,12.16,8.09.84,2.04-.13,4.38-2.18,5.22-2.03.84-4.35-.12-5.2-2.13-.16-.36-1.54-3.18-4.79-3.18-.02,0-.03,0-.05,0-3.63.03-5.79,1.13-5.81,1.14-1.86,1.03-4.01.61-5.14-1.18-.33-.37-2.5-2.58-7.83-2.58-5.92,0-11.93,5.82-12.62,12.21-.62,5.77,3.13,10.63,8.73,11.3,6.15.74,12.07-3.57,12.13-3.61,1.49-1.09,3.54-1.04,4.96.15.04.03,2.27,1.73,6.06,1.44,2.49-.2,3.26-2.02,3.44-2.58.58-2.13,2.76-3.35,4.89-2.78,2.13.58,3.38,2.81,2.81,4.94-.77,2.87-3.86,7.86-10.51,8.39-4.03.32-7.17-.67-9.21-1.65-2.75,1.56-7.62,3.79-13.16,3.79Z"/>
            <g>
              <path class="cls-2" d="M270.48,233.46c0,4.42,3.59,8,8.01,7.99,4.42,0,8-3.59,7.99-8.01s-3.59-8-8.01-7.99c-4.42,0-8,3.59-7.99,8.01Z"/>
              <path class="cls-3" d="M278.48,245.95c-3.33,0-6.47-1.3-8.83-3.65-2.36-2.36-3.66-5.5-3.67-8.84,0-6.89,5.6-12.5,12.49-12.51h0c3.34,0,6.47,1.3,8.83,3.65,2.36,2.36,3.67,5.5,3.67,8.84s-1.3,6.48-3.66,8.84-5.5,3.66-8.84,3.67h0ZM274.98,233.45c0,.93.37,1.81,1.03,2.47.66.66,1.54,1.02,2.47,1.02h0c.94,0,1.82-.37,2.48-1.03.66-.66,1.02-1.54,1.02-2.48,0-.93-.37-1.81-1.03-2.47-.66-.66-1.54-1.02-2.47-1.02h0c-1.93,0-3.5,1.57-3.5,3.5Z"/>
            </g>
            <path class="cls-3" d="M357.42,110.34c-.25,0-.5-.02-.76-.07-2.17-.42-3.59-2.51-3.17-4.68l1.48-7.7c.42-2.17,2.51-3.59,4.68-3.17,2.17.42,3.59,2.51,3.17,4.68l-1.48,7.7c-.37,1.91-2.04,3.25-3.92,3.25Z"/>
          </g>
          <g>
            <path class="cls-1" d="M216.95,223.15s.89,9.33-11.33,24.89c-24.69,31.43-37.6,26.66-74.05,57.62-54.7,46.47-37.68,93.16-33.48,102.94,11.87,27.67,43.42,25.62,43.42,25.62,0,0-18.09-15.57,1.64-40.64,12.85-16.33,66.17-8,94.27-63.98,22.87-45.56,7.53-85.78,7.53-85.78l-28-20.67Z"/>
            <path class="cls-3" d="M249.15,242.21c-.88-2.32-3.48-3.48-5.8-2.6-2.32.88-3.49,3.48-2.61,5.8.15.39,14.29,39.05-7.35,82.16-17.71,35.29-46.26,43.86-67.11,50.13-11.98,3.6-21.44,6.44-26.67,13.09-13.28,16.87-11.08,30.29-7.14,38.36-9.25-1.47-23.4-6.38-30.25-22.33-5.19-12.09-18.19-54.87,32.26-97.74,15.26-12.97,26.25-19.5,35.93-25.27,13.45-8,24.07-14.32,38.74-33,11.82-15.05,12.38-25.07,12.3-27.58,0-.03,0-.06,0-.09,0-.08-.02-.16-.02-.24,0-.07-.01-.14-.01-.18h0c-.22-2.28-2.12-4.07-4.46-4.07-2.49,0-4.5,2.01-4.5,4.5,0,.11.02.22.03.33h-.04c0,.08.28,8.21-10.38,21.78-13.64,17.36-23.13,23.01-36.27,30.82-9.99,5.95-21.32,12.69-37.16,26.15-55.15,46.85-40.5,94.62-34.7,108.14,11.48,26.76,39.84,28.37,46.46,28.37.86,0,1.35-.03,1.39-.03,1.81-.12,3.36-1.32,3.95-3.04.59-1.72.08-3.63-1.28-4.84-1.5-1.33-14.19-13.62,2.21-34.47,3.47-4.41,12.15-7.02,22.19-10.04,22.41-6.73,53.11-15.96,72.56-54.71,23.49-46.79,8.37-87.68,7.72-89.4Z"/>
          </g>
        </g>
        <g>
          <path class="cls-2" d="M368.75,285.94c14.51,66.17,4.79,110.43,4.79,110.43l-16.75,2.28s-88.72-107.33-100.23-95.13c-11.5,12.2-35.15,375.53-35.15,375.53h261.78s-29.19-220.42-34.37-249.08-44.41-113.17-80.07-144.02Z"/>
          <path class="cls-3" d="M483.19,683.55H221.41c-1.24,0-2.43-.52-3.28-1.42-.85-.91-1.29-2.13-1.21-3.37.06-.91,6-91.92,13.27-183.25,14.82-186.29,20.41-192.22,23.1-195.07,1.07-1.14,3.02-2.48,6.1-2.37,3.7.12,13.52.44,58.92,49.72,18.3,19.87,35.19,39.9,40.35,46.07l11.04-1.5c1.79-11,6.64-50.82-5.34-105.45-.42-1.89.43-3.84,2.09-4.83,1.67-.99,3.78-.8,5.24.46,35.71,30.88,76.05,116.15,81.56,146.62,5.14,28.44,33.21,240.29,34.4,249.29.17,1.29-.22,2.58-1.08,3.56s-2.09,1.53-3.38,1.53ZM226.22,674.55h251.84c-4.41-33.21-28.99-217.97-33.66-243.78-4.67-25.81-37.27-96.1-68.35-131.17,10.3,58.17,2.27,96.03,1.89,97.74-.41,1.84-1.92,3.24-3.79,3.49l-16.75,2.28c-1.55.21-3.08-.39-4.08-1.59-.2-.24-20.33-24.56-42.33-48.39-37.29-40.39-48.62-45.44-51.32-46.01-2.34,5.78-8.46,37.04-20.73,191.89-6.21,78.35-11.41,155.82-12.72,175.54ZM373.54,396.37h0,0Z"/>
        </g>
        <path class="cls-3" d="M380.97,437.8c-1.91,0-3.69-1.23-4.29-3.15l-6.46-20.57c-.75-2.37.57-4.9,2.95-5.64,2.37-.74,4.9.57,5.64,2.95l6.46,20.57c.75,2.37-.57,4.9-2.95,5.64-.45.14-.9.21-1.35.21Z"/>
        <path class="cls-3" d="M353.93,465.77c-.07,0-.14,0-.21,0-2.48-.11-4.4-2.22-4.29-4.7l2.86-62.62c.11-2.48,2.24-4.41,4.7-4.29,2.48.11,4.4,2.22,4.29,4.7l-2.86,62.62c-.11,2.41-2.1,4.29-4.49,4.29Z"/>
        <g>
          <path class="cls-2" d="M298.64,62.38c-6.81-4.43-22.52,9.04-22.52,9.04l-10.54,13.87,1.9-23.29s23.46-22.29,15.71-28.54c-5.4-4.36-12.7.33-12.7.33,0,0-4-.89-10.74,0s-25.26,10.3-27.93,14.52c-2.67,4.22-1.41,8.81-1.41,8.81,0,0-14,10-14,13.78s9.74,33.75,9.74,33.75l.79,31.36-51.11-4.89-4.47,54.01h69.71s27.7,1.1,37.11-16.68c8.29-15.66-.32-65.14-.32-65.14l10.23-18.95s19.74-16,10.54-21.98Z"/>
          <path class="cls-3" d="M305.57,66.14c-.16-3.08-1.75-5.76-4.48-7.53-8.95-5.82-23.62,5.72-27.9,9.39-.24.21-.46.44-.65.69l-1.22,1.6.51-6.24c5.46-5.35,17.79-18.48,17.42-27.52-.11-2.69-1.23-4.97-3.23-6.59-5.48-4.42-12.27-2.9-16.38-.85-2.03-.23-5.64-.42-10.48.22-7.26.96-27.36,10.6-31.14,16.58-2.1,3.32-2.48,6.73-2.39,9.14-13.71,10.2-13.71,14.42-13.71,15.86,0,3.84,6.02,22.99,9.76,34.52l.65,25.63-46.05-4.41c-2.48-.24-4.67,1.58-4.91,4.05-.24,2.47,1.58,4.67,4.05,4.91l49.73,4.76,11.18,9.29c.84.7,1.86,1.04,2.87,1.04,1.29,0,2.57-.55,3.46-1.62,1.59-1.91,1.33-4.75-.58-6.34l-10.67-8.87-.74-29.32c-.01-.43-.09-.86-.22-1.28-4.31-13.26-8.86-28.34-9.46-31.9.77-1.21,3.11-3.47,6.06-5.93l3.17,22.55c.32,2.25,2.24,3.87,4.45,3.87.21,0,.42-.01.63-.04,2.46-.35,4.18-2.62,3.83-5.08l-4.21-29.99c0-.06-.02-.11-.02-.17v-.07s-.02-.04-.02-.06c-.02-.15-.04-.3-.08-.44,0-.03-.67-2.86.84-5.25,1.92-2.67,15.66-10.06,22.71-12.04-8.93,8.15-13.9,13.11-14.77,14.75-.57,1.07-1.9,3.57-.92,33.83.08,2.43,2.08,4.35,4.5,4.35.05,0,.1,0,.15,0,2.48-.08,4.43-2.16,4.35-4.64-.38-11.88-.47-26,.03-29.44,2.22-2.57,12.31-11.91,21.5-20.1.96-.53,4.71-2.37,7.11-.55.52,2.99-7.1,13.5-15.89,21.86-.8.76-1.29,1.79-1.38,2.9l-1.9,23.29c-.16,1.99,1.01,3.85,2.88,4.57,1.87.72,3.98.11,5.19-1.48l10.24-13.48c6.59-5.53,14.82-9.66,16.78-8.38.39.25.39.34.4.46.15,2.86-5.84,9.81-11.31,14.26-.46.37-.84.84-1.13,1.36l-10.23,18.95c-.48.89-.65,1.91-.47,2.91,2.32,13.34,6.98,50.54.78,62.27-7.95,15.03-32.72,14.29-32.95,14.27-.06,0-.12,0-.18,0h-69.71c-2.49.01-4.5,2.03-4.5,4.51,0,2.49,2.02,4.5,4.5,4.5h69.63c.19,0,.59,0,1.14,0,5.9,0,30.51-1.11,40.02-19.08,8.18-15.46,1.99-56.83.4-66.47l9.07-16.81c4.16-3.48,14.36-12.88,13.93-21.14Z"/>
        </g>
        <path class="cls-3" d="M569.54,222.23c-.4,0-.81-.05-1.21-.17l-63.84-17.77c-2.39-.67-3.79-3.15-3.13-5.54.67-2.4,3.15-3.79,5.54-3.13l63.84,17.77c2.39.67,3.79,3.15,3.13,5.54-.55,1.99-2.36,3.29-4.33,3.29Z"/>
        <path class="cls-3" d="M547.79,258.29c-1.74,0-3.4-1.02-4.14-2.72l-14.52-33.78c-.98-2.28.07-4.93,2.36-5.91,2.28-.98,4.93.07,5.91,2.36l14.52,33.78c.98,2.28-.07,4.93-2.36,5.91-.58.25-1.18.37-1.78.37Z"/>
        <path class="cls-3" d="M493.6,270.61c-.28,0-.57-.03-.86-.08-2.44-.47-4.03-2.83-3.56-5.27l9.45-48.73c.47-2.44,2.84-4.03,5.27-3.56,2.44.47,4.03,2.83,3.56,5.27l-9.45,48.73c-.42,2.15-2.3,3.64-4.41,3.64Z"/>
        <path class="cls-3" d="M470.75,337.95c-1.92,0-3.69-1.23-4.29-3.16l-19.33-61.93c-.74-2.37.58-4.9,2.96-5.64,2.37-.74,4.9.58,5.64,2.95l19.33,61.93c.74,2.37-.58,4.9-2.96,5.64-.45.14-.9.21-1.34.21Z"/>
        <path class="cls-3" d="M419.2,306.98c-1.32,0-2.63-.58-3.52-1.69-.12-.16-13.36-16.3-35.71-21.39-2.42-.55-3.94-2.96-3.39-5.39.55-2.42,2.96-3.94,5.39-3.39,25.52,5.81,40.13,23.78,40.74,24.54,1.55,1.94,1.24,4.77-.7,6.32-.83.66-1.82.99-2.81.99Z"/>
        <path class="cls-3" d="M483.19,393.93c-2.24,0-4.17-1.67-4.46-3.94l-2.81-22.5c-.31-2.47,1.44-4.72,3.91-5.02,2.46-.3,4.72,1.44,5.02,3.91l2.81,22.5c.31,2.47-1.44,4.72-3.91,5.02-.19.02-.38.04-.56.04Z"/>
        <path class="cls-4" d="M281.75,351.45c-6.65-28.92-14.24-49.61-19.33-61.71-.86-2.96-2.64-7.96-5.87-12.65,0,0,0,0,0,0h0c-3.39-4.93-8.38-9.5-15.57-10.97-17.78-3.63-19.56,13.41-19.56,13.41,0,0-5.78-.89-16.44-10.67-10.67-9.78-26.22-7.11-26.22-7.11l-40.66-47.31.51-15.8,55.7,8.08s9.88-5.55,15.7-28.6c4.39-17.38-.54-54.36-.54-54.36,0,0-42.2.51-88.27,1.1-36.74.47-64.07-4.02-80.96,8.56-30.38,22.63-21.15,63.46-11.08,82.17,8.24,15.31,101.88,159.96,135.7,212.12.18,9.31,1.16,19.56,3.26,30.76,4.68,24.9,30.05,77.06,30.05,77.06,0,0-6.41,21.6-8,26.96-1.59,5.37,8,12.97,8,12.97l-44.15,103.59h85.32s36.75-75.08,43.27-100.56c6.52-25.48,4.93-90.77,5.33-105.78.87-32.59-.44-96.31-6.18-121.25Z"/>
        <path class="cls-3" d="M191.74,405.8c-.9,0-1.8-.27-2.59-.82-2.03-1.43-2.52-4.24-1.09-6.27.39-.56,28.92-42.33,10.85-97.34-.78-2.36.51-4.9,2.87-5.68,2.36-.77,4.9.51,5.68,2.87,19.55,59.54-10.74,103.49-12.04,105.33-.88,1.24-2.27,1.91-3.68,1.91Z"/>
        <path class="cls-3" d="M286.14,350.44c-6.65-28.92-14.24-49.76-19.47-62.21-1.06-3.57-3.01-8.76-6.41-13.69-.01-.02-.02-.03-.03-.05,0,0-.01-.02-.02-.03-4.82-6.97-10.99-11.26-18.33-12.76-6.71-1.37-12.39-.41-16.86,2.87-3.43,2.52-5.43,5.94-6.58,8.83-2.4-1.35-5.91-3.73-10.42-7.87-9.48-8.69-22-8.91-27.39-8.52l-37.98-44.19.29-9.02,50.72,7.36c.98.14,1.98-.04,2.85-.53,1.18-.67,11.74-7.19,17.86-31.42,4.55-18.01-.24-54.51-.45-56.06-.3-2.24-2.21-3.9-4.46-3.9-.02,0-.04,0-.06,0,0,0-42.2.51-88.27,1.1-8.52.11-16.41-.05-24.06-.2-25.34-.51-45.36-.91-59.54,9.65-31.26,23.28-24.51,65.33-12.35,87.91,8.15,15.14,96.68,151.97,135.19,211.36.26,9.75,1.37,19.91,3.31,30.21,4.33,23.05,25.3,67.52,29.66,76.62l-7.51,25.3c-1.77,5.96,3.24,12.03,6.89,15.5l-42.87,100.58c-.59,1.39-.45,2.98.39,4.25.83,1.26,2.24,2.02,3.75,2.02h85.32c1.72,0,3.29-.98,4.04-2.52,1.51-3.08,37.03-75.79,43.59-101.43,5.37-20.98,5.38-67.66,5.39-92.74,0-6.21,0-11.12.08-14.04.8-29.67-.23-96.03-6.3-122.38ZM283.44,472.58c-.08,3.04-.08,7.99-.09,14.27,0,24.68-.02,70.63-5.11,90.51-5.67,22.15-35.31,83.92-41.73,97.18h-75.7s41.48-97.33,41.48-97.33c.79-1.86.24-4.03-1.34-5.29-3.66-2.92-6.62-6.95-6.49-8.17l7.92-26.69c1.54-3.5,15.52-35.68,22.39-68.48.51-2.43-1.05-4.82-3.48-5.33-2.42-.51-4.82,1.05-5.33,3.48-4.73,22.57-13.16,45.38-18.08,57.68-7.39-15.96-22.01-48.93-25.37-66.8-1.93-10.27-3-20.36-3.18-30.01-.02-.84-.27-1.66-.72-2.36-29.7-45.8-127.24-196.44-135.51-211.8-7.39-13.72-20.03-54.21,9.81-76.43,9.15-6.81,22.54-8.07,39.23-8.07,4.66,0,9.59.1,14.75.2,7.71.15,15.69.31,24.35.2,37.6-.48,72.62-.91,84.22-1.05,1.1,9.85,3.48,35.6.17,48.71-4.08,16.13-10.17,22.86-12.54,24.98l-52.8-7.66-34.09-23.83c-2.04-1.42-4.84-.93-6.27,1.11-1.42,2.04-.93,4.84,1.11,6.27l32.96,23.05-.07,2.06-.16-.17c-1.66-1.85-4.5-2.01-6.35-.34-1.85,1.66-2,4.5-.34,6.35l7.24,8.07c.1.16.21.32.33.47l40.56,47.19,15.45,20.92c.88,1.19,2.24,1.83,3.62,1.83.93,0,1.87-.29,2.67-.88,2-1.48,2.42-4.29.95-6.29l-10.33-13.98c4.46.5,9.96,2.02,14.34,6.03,8.53,7.82,14.33,10.47,17.11,11.37l15.14,15.7c.88.92,2.06,1.38,3.24,1.38s2.25-.42,3.12-1.26c1.79-1.73,1.84-4.57.12-6.36l-14.34-14.87c.54-1.83,1.69-4.58,4.02-6.28,2.34-1.72,5.62-2.16,9.74-1.32,5,1.02,9.29,4.08,12.75,9.09,0,.01.01.02.02.03h0c2.95,4.28,4.56,8.95,5.25,11.35.05.17.11.33.17.49,5.1,12.1,12.54,32.5,19.1,60.98,5.43,23.6,7.01,84.93,6.07,120.12Z"/>
      </g>
      <g>
        <path class="cls-3" d="M472.52,24.18c-1.85,0-3.51-1.29-3.91-3.17-.46-2.16.92-4.29,3.08-4.75.65-.15,6.51-1.6,5.84-5.94-.12-.78-.45-1.3-1.07-1.69-1.21-.76-3.21-.84-5.2-.22-3.22,1.01-9.86,6.57-13.28,9.83-1.6,1.52-4.13,1.47-5.66-.13-1.53-1.6-1.47-4.13.13-5.65,1.7-1.63,10.5-9.84,16.42-11.69,4.28-1.34,8.59-.95,11.83,1.07,2.59,1.62,4.28,4.2,4.75,7.26,1.46,9.49-7.26,13.95-12.08,14.98-.28.06-.56.09-.84.09Z"/>
        <path class="cls-3" d="M521.07,23.88c-1.76,0-3.39-.24-4.65-.57-2.14-.56-3.42-2.75-2.86-4.88.56-2.14,2.75-3.41,4.88-2.86.64.16,6.53,1.5,7.89-2.68.24-.75.18-1.36-.2-1.99-.74-1.22-2.49-2.19-4.55-2.53-2.62-.44-10.29,2.29-15.91,5.06-1.98.98-4.38.16-5.36-1.82-.98-1.98-.16-4.38,1.82-5.36,2.33-1.15,14.3-6.84,20.75-5.77,4.43.73,8.1,3.02,10.08,6.27,1.59,2.61,1.93,5.67.97,8.62-2.18,6.7-8.03,8.52-12.87,8.52Z"/>
        <path class="cls-3" d="M499.74,57.77c-1.03,0-1.97-.11-2.71-.27-2.16-.48-3.52-2.61-3.05-4.77.47-2.16,2.61-3.52,4.77-3.05.31.06,3.44.6,4.51-1.71.42-.9.4-1.8-.04-2.68-.61-1.22-1.93-2.15-3.54-2.5-4.94-1.05-11.78,2.74-13.79,4.15-1.81,1.27-4.3.83-5.57-.97-1.27-1.81-.83-4.3.97-5.57,1.08-.76,10.86-7.38,20.05-5.43,4.03.86,7.32,3.32,9.03,6.75,1.52,3.04,1.57,6.54.14,9.62-2.36,5.09-7.18,6.43-10.78,6.43Z"/>
      </g>
      <g>
        <path class="cls-3" d="M854.5,683.55H4.5c-2.49,0-4.5-2.01-4.5-4.5s2.01-4.5,4.5-4.5h850c2.49,0,4.5,2.01,4.5,4.5s-2.01,4.5-4.5,4.5Z"/>
        <g>
          <g>
            <path class="cls-2" d="M818.61,407.09h-341.4c-4.69,0-8.75,3.26-9.76,7.84l-53.27,240.81h-90.01c-5.52,0-10,4.48-10,10v13.3h461.89v-23.3l52.31-236.49c1.38-6.24-3.37-12.16-9.76-12.16Z"/>
            <path class="cls-3" d="M776.06,683.55h-461.89c-2.49,0-4.5-2.01-4.5-4.5v-13.3c0-8,6.5-14.5,14.5-14.5h86.39l52.49-237.28c1.48-6.69,7.3-11.37,14.16-11.37h341.4c4.42,0,8.54,1.98,11.31,5.42,2.77,3.45,3.81,7.9,2.85,12.21l-52.21,236.01v22.81c0,2.49-2.01,4.5-4.5,4.5ZM318.67,674.55h452.89v-18.8c0-.33.04-.65.11-.97l52.31-236.49c.36-1.64-.03-3.32-1.08-4.63s-2.61-2.06-4.29-2.06h-341.4c-2.6,0-4.81,1.77-5.37,4.31l-53.27,240.81c-.46,2.06-2.28,3.53-4.39,3.53h-90.01c-3.03,0-5.5,2.47-5.5,5.5v8.8Z"/>
          </g>
          <path class="cls-3" d="M776.06,660.24h-331.77c-2.49,0-4.5-2.01-4.5-4.5s2.01-4.5,4.5-4.5h331.77c2.49,0,4.5,2.01,4.5,4.5s-2.01,4.5-4.5,4.5Z"/>
        </g>
      </g>
    </g>
  </g>
</svg>