<?xml version="1.0" encoding="UTF-8"?>
<svg xmlns="http://www.w3.org/2000/svg" viewBox="0 0 833.84 706.27">
  <defs>
    <style>
      .cls-1 {
        fill: #3199f0;
      }

      .cls-2 {
        fill: #fff;
      }

      .cls-3 {
        isolation: isolate;
      }

      .cls-4 {
        fill: #cee7fd;
      }

      .cls-5 {
        opacity: .7;
      }

      .cls-5, .cls-6 {
        mix-blend-mode: overlay;
      }

      .cls-7 {
        fill: #005bea;
      }

      .cls-8 {
        fill: #ededef;
      }

      .cls-6 {
        opacity: .3;
      }

      .cls-9 {
        opacity: .5;
      }
    </style>
  </defs>
  <g class="cls-3">
    <g id="_レイヤー_2" data-name="レイヤー_2">
      <g id="_xFF91_饑1">
        <g>
          <g>
            <path class="cls-2" d="M550.74,194.06c5.69-5.69,14.92-5.69,20.61,0,5.69,5.69,5.69,14.91,0,20.6-5.69,5.69-14.91,5.69-20.61,0-5.69-5.69-5.69-14.91,0-20.6Z"/>
            <path class="cls-4" d="M566.56,209.87c4.86-4.86,5.53-12.28,2.08-17.9.96.59,1.88,1.25,2.71,2.08,5.69,5.69,5.69,14.91,0,20.6-5.69,5.69-14.91,5.69-20.61,0-.82-.82-1.5-1.74-2.09-2.7,5.62,3.45,13.05,2.78,17.91-2.08Z"/>
            <path class="cls-7" d="M561.04,220.57c-4.33,0-8.41-1.69-11.47-4.75-6.32-6.32-6.32-16.6,0-22.93h0c6.32-6.32,16.61-6.32,22.94,0,3.06,3.06,4.75,7.14,4.75,11.47s-1.69,8.4-4.75,11.46c-3.06,3.06-7.13,4.75-11.46,4.75ZM551.9,195.22c-5.03,5.04-5.03,13.24,0,18.27,2.44,2.44,5.69,3.79,9.14,3.79s6.7-1.34,9.14-3.79c2.44-2.44,3.79-5.68,3.79-9.13s-1.34-6.7-3.79-9.14c-2.44-2.44-5.68-3.78-9.14-3.79h0c-3.45,0-6.7,1.34-9.14,3.79h0Z"/>
          </g>
          <g>
            <path class="cls-2" d="M5.9,334.42c5.69-5.7,14.92-5.69,20.61,0,5.69,5.69,5.69,14.91,0,20.6-5.69,5.69-14.92,5.69-20.61,0-5.69-5.69-5.69-14.91,0-20.6Z"/>
            <path class="cls-4" d="M21.72,350.23c4.87-4.86,5.54-12.28,2.08-17.9.96.58,1.88,1.25,2.71,2.09,5.69,5.69,5.69,14.91,0,20.6-5.69,5.69-14.92,5.69-20.61,0-.82-.82-1.5-1.74-2.09-2.7,5.62,3.45,13.05,2.78,17.91-2.08Z"/>
            <path class="cls-7" d="M16.21,360.94c-4.33,0-8.41-1.69-11.47-4.75-6.32-6.32-6.32-16.6,0-22.92h0c3.06-3.06,7.13-4.75,11.47-4.75h0c4.33,0,8.4,1.69,11.47,4.75,3.06,3.06,4.75,7.13,4.75,11.46s-1.69,8.4-4.75,11.46c-3.06,3.06-7.13,4.75-11.47,4.75ZM16.2,331.8c-3.45,0-6.7,1.34-9.14,3.79h0c-5.04,5.04-5.04,13.23,0,18.27,2.44,2.44,5.69,3.79,9.14,3.79s6.7-1.35,9.14-3.79c2.44-2.44,3.79-5.68,3.79-9.13s-1.34-6.69-3.79-9.14c-2.44-2.44-5.69-3.79-9.14-3.79h0ZM5.9,334.42h0,0Z"/>
          </g>
          <g>
            <path class="cls-2" d="M357.38,662.63c5.69-5.7,14.92-5.69,20.61,0,5.7,5.69,5.7,14.91,0,20.6-5.69,5.69-14.91,5.69-20.61,0-5.69-5.69-5.69-14.91,0-20.6Z"/>
            <path class="cls-4" d="M373.2,678.44c4.86-4.86,5.53-12.28,2.08-17.9.96.59,1.88,1.25,2.71,2.09,5.7,5.69,5.7,14.91,0,20.6-5.69,5.69-14.91,5.69-20.61,0-.82-.82-1.5-1.74-2.09-2.7,5.62,3.45,13.05,2.78,17.91-2.08Z"/>
            <path class="cls-7" d="M367.68,689.14c-4.33,0-8.41-1.69-11.47-4.75-6.32-6.32-6.32-16.6,0-22.92h0c3.06-3.07,7.14-4.75,11.47-4.75h0c4.33,0,8.4,1.69,11.46,4.75,3.07,3.06,4.75,7.13,4.75,11.46,0,4.33-1.69,8.4-4.75,11.46-3.06,3.06-7.13,4.75-11.46,4.75ZM367.68,660c-3.45,0-6.7,1.35-9.14,3.79h0c-5.04,5.04-5.04,13.23,0,18.27,2.44,2.44,5.69,3.79,9.14,3.79s6.7-1.34,9.13-3.79c2.44-2.44,3.79-5.68,3.79-9.13,0-3.45-1.35-6.69-3.79-9.13-2.44-2.44-5.69-3.79-9.14-3.79h0ZM357.38,662.63h0,0Z"/>
          </g>
          <g>
            <path class="cls-4" d="M827.92,573.06l-305.22-176.21c-7.87-4.54-7.88-11.91,0-16.46l5.07-2.94c7.87-4.54,7.87-11.9,0-16.46l-134.08-77.4c-7.87-4.54-20.64-4.55-28.51-.01l-5.08,2.95c-7.87,4.54-20.63,4.53-28.51-.02h0c-7.88-4.55-20.64-4.54-28.5,0l-19.34,11.16-163.93,94.29c-7.87,4.54-7.85,11.91.02,16.46l496.33,286.55c7.9,4.54,20.64,4.55,28.53,0l163.92-94.29,19.34-11.15c7.86-4.54,7.85-11.91-.04-16.46Z"/>
            <path class="cls-2" d="M109.14,84.01v307.42c0,9.09,6.38,20.14,14.26,24.68l496.33,286.56c3.94,2.27,7.51,2.48,10.09,1l22.77-13.14h0c2.61-1.49,4.23-4.68,4.23-9.26v-307.41s-22.81,13.17-22.81,13.17L109.14,84.01Z"/>
            <path class="cls-4" d="M613.5,541.61c0,5.45-3.83,7.66-8.56,4.93l-97.94-56.55c-4.71-2.71-8.55-9.35-8.55-14.8v-137.39c0-5.45,3.84-7.66,8.56-4.93l97.95,56.54c4.72,2.73,8.55,9.37,8.55,14.82v137.38Z"/>
            <path class="cls-4" d="M395.94,463.75l-150.82-87.08c-4.72-2.73-8.56-.53-8.56,4.94v99.84s167.94,96.96,167.94,96.96l-.02-99.85c.01-5.45-3.82-12.09-8.54-14.81Z"/>
            <path class="cls-4" d="M207.64,320.97c4.72,2.73,8.56.53,8.55-4.92v-65.22c0-5.45-3.83-12.08-8.56-14.81l-4.26-2.46v-24.48c0-5.45-3.83-12.08-8.56-14.81l-72.3-41.75c-4.73-2.73-8.55-.53-8.56,4.94v8.02l-4.25-2.46c-.19-.11-.38-.17-.57-.26v101.27c.19.13.38.28.57.4l97.93,56.54Z"/>
            <path class="cls-4" d="M398.95,279.79c-3.62-2.08-7.07-3.29-10.27-3.77-6.6-16.08-18.35-31.09-31.8-38.86-18.46-10.65-33.75-4.07-36.83,14.42-3.09-3.54-6.56-6.56-10.24-8.69-12.8-7.39-23.17-1.41-23.17,13.34s10.37,32.71,23.16,40.09l8.8,5.08-.83.48c-.81.47-1.06,1.74-.62,3.23.44,1.49,1.49,2.88,2.63,3.54l7.08,4.09v29.68c0,1.82,1.27,4.02,2.85,4.93l21.4,12.35c1.58.91,2.85.18,2.85-1.64v-29.68l7.08,4.09c1.14.66,2.19.46,2.63-.51.44-.97.2-2.53-.62-3.94l-.83-1.45,36.72,21.2c16.28,9.41,29.48,1.8,29.48-16.98s-13.2-41.62-29.48-51.02Z"/>
            <path class="cls-4" d="M484.73,548.97v45.91c0,4.52,3.18,10.01,7.11,12.27l7.2,4.16c12.22,7.06,14.99,11.16,20.36,20.45l5.76,9.97c1.13,1.94,2.59,3.45,4.07,4.3,1.47.85,2.95,1.05,4.07.41l5.76-3.31c5.37-3.1,8.13-4,20.36,3.06l7.21,4.16c1.96,1.13,3.73,1.24,5.01.5,1.29-.74,2.08-2.32,2.08-4.59v-45.92c0-4.51-3.17-10.01-7.1-12.28l-74.81-43.18c-3.92-2.27-7.1-.43-7.1,4.08Z"/>
            <path class="cls-4" d="M634,387.03v307.42c0,4.54-1.6,7.74-4.17,9.23h0l22.77-13.14h0c2.61-1.49,4.23-4.68,4.23-9.26v-307.41s-22.81,13.17-22.81,13.17Z"/>
            <path class="cls-7" d="M626.11,706.27c-2.24,0-4.69-.73-7.2-2.17L122.57,417.54c-8.46-4.87-15.08-16.34-15.09-26.1V84.01c0-.59.32-1.13.83-1.43.51-.29,1.14-.29,1.65,0l524.04,302.54,22-12.7c.51-.29,1.14-.29,1.65,0,.51.29.82.84.82,1.43v307.41c-.01,4.96-1.75,8.71-4.91,10.59-.05.03-.09.06-.14.09l-22.77,13.14c-1.36.79-2.9,1.18-4.54,1.18ZM110.78,86.87v304.57c0,8.55,6.03,18.98,13.44,23.25l496.33,286.56c3.28,1.89,6.28,2.24,8.45,1l22.62-13.06s.1-.07.15-.1c2.19-1.24,3.39-4.02,3.39-7.82v-304.56s-20.34,11.75-20.34,11.75c-.51.29-1.14.29-1.65,0L110.78,86.87Z"/>
            <path class="cls-1" d="M113.46,52.41c-.09.05-.18.1-.27.15l-.25.15.03.04c-2.36,1.57-3.83,4.61-3.83,8.93v22.34l524.86,303.02,22.83-13.17v-22.33c-.01-9.08-6.39-20.13-14.27-24.67L146.22,40.29c-4.01-2.31-7.62-2.47-10.21-.9l-22.55,13.02Z"/>
            <path class="cls-6" d="M656.83,373.86v-22.33c-.01-9.08-6.39-20.13-14.27-24.67L146.22,40.29c-4.01-2.31-7.62-2.47-10.21-.9l-22.4,12.94c2.55-1.31,6-1.05,9.79,1.14l496.33,286.57c7.89,4.54,14.26,15.59,14.27,24.67v22.32l22.83-13.17Z"/>
            <path class="cls-7" d="M634,388.68c-.28,0-.57-.07-.82-.22L108.31,85.44c-.51-.29-.82-.84-.82-1.43v-22.34c0-4.51,1.5-8.07,4.24-10.07.11-.12.23-.23.37-.31l.25-.15c.06-.04.16-.09.26-.15l.83,1.38h0s-.81-1.4-.81-1.4l22.55-13.02c3.22-1.95,7.45-1.64,11.86.9l496.34,286.57c8.45,4.87,15.08,16.33,15.09,26.1v22.33c0,.59-.31,1.13-.82,1.43l-22.83,13.17c-.25.15-.54.22-.82.22ZM110.78,83.06l523.22,302.07,21.18-12.22v-21.38c-.01-8.55-6.04-18.98-13.44-23.25L145.39,41.71c-3.32-1.91-6.35-2.24-8.53-.92l-22.58,13.04s0,0-.01,0c0,0-.04.02-.04.02l-.13.07c-.07.07-.14.13-.22.18-1.99,1.33-3.09,4.01-3.09,7.56v21.39Z"/>
            <path class="cls-2" d="M397.45,231.09c0,5.33-3.74,7.48-8.38,4.82L139.11,91.59c-4.62-2.68-8.37-9.16-8.37-14.48h0c0-5.35,3.75-7.5,8.37-4.83l249.96,144.32c4.62,2.67,8.38,9.15,8.38,14.49h0ZM578.78,332.57c-1.52-.88-2.77-.16-2.77,1.6,0,1.76,1.24,3.92,2.77,4.8,1.52.89,2.77.17,2.77-1.6,0-1.75-1.25-3.91-2.78-4.79ZM596.98,346.27c0,1.76-1.25,2.48-2.77,1.6-1.54-.88-2.78-3.03-2.78-4.8,0-1.77,1.24-2.48,2.78-1.59,1.52.89,2.77,3.02,2.77,4.79ZM612.38,355.17c0,1.76-1.24,2.48-2.77,1.59-1.54-.88-2.77-3.02-2.78-4.8,0-1.76,1.25-2.48,2.78-1.6,1.52.89,2.77,3.04,2.77,4.81Z"/>
          </g>
          <g>
            <g>
              <path class="cls-2" d="M363,483.51c4.73,2.72,8.56,9.35,8.54,14.81l.02,112.96c-.01,5.45-3.83,7.65-8.57,4.93l-150.81-87.08c-4.73-2.73-8.56-9.37-8.56-14.82v-112.94c0-5.46,3.84-7.66,8.56-4.93l150.82,87.08Z"/>
              <path class="cls-7" d="M366.83,619.03c-1.46,0-3.04-.47-4.66-1.4l-150.82-87.08c-5.26-3.04-9.39-10.17-9.39-16.25v-112.94c0-3.25,1.18-5.72,3.32-6.96,2.15-1.24,4.89-1.03,7.71.6l150.82,87.08c5.27,3.03,9.38,10.17,9.37,16.24l.02,112.95c0,3.25-1.19,5.72-3.33,6.96-.92.53-1.95.79-3.05.79ZM208.35,396.92c-.53,0-1.01.11-1.41.35-1.07.62-1.68,2.11-1.68,4.11v112.94c0,4.84,3.54,10.98,7.74,13.4l150.82,87.08c1.73,1,3.34,1.22,4.41.6,1.07-.62,1.68-2.11,1.69-4.11l-.02-112.95c.01-4.84-3.52-10.97-7.72-13.38,0,0,0,0,0,0l-150.82-87.08c-1.08-.63-2.12-.95-3-.95Z"/>
            </g>
            <path class="cls-4" d="M333.08,574.59l-84.31-48.69c.32.9.53,1.82.53,2.67,0,.87-.2,1.55-.53,2.07l84.31,48.68c1.14.65,2.06.12,2.06-1.2s-.92-2.89-2.06-3.54Z"/>
            <path class="cls-1" d="M304.73,509.93c0,1.07-.49,1.76-1.29,1.83l-26.15,2.33c-.41.03-.86-.1-1.3-.35-.45-.27-.89-.66-1.3-1.15-.81-1-1.3-2.27-1.29-3.34v-34.81c0-1.08.49-1.78,1.29-1.85.8-.07,1.79.5,2.6,1.5l26.14,32.51c.81.98,1.3,2.26,1.3,3.33ZM354.88,589.54c0,1.31-.92,1.84-2.05,1.18l-7.08-4.09c-1.13-.65-2.05-2.24-2.05-3.55h0c0-1.31.92-1.83,2.05-1.17l7.08,4.07c1.13.66,2.05,2.25,2.05,3.56h0ZM352.03,568.95c0,1.3-.92,1.84-2.05,1.18l-1.37-.8c-1.14-.65-2.06-2.25-2.07-3.56h0c0-1.31.93-1.83,2.06-1.18l1.38.8c1.13.65,2.05,2.25,2.05,3.55h0ZM352.03,578.41c0,1.31-.91,1.85-2.05,1.19l-1.37-.79c-1.14-.66-2.06-2.25-2.06-3.56h0c0-1.31.93-1.83,2.06-1.18l1.37.8c1.13.66,2.06,2.25,2.05,3.54h0ZM249.3,528.58c0,2.81-1.96,3.94-4.39,2.54-1.69-.97-3.13-2.9-3.87-4.93l-18.7-10.8c-1.14-.65-2.05-2.25-2.06-3.56,0-1.31.92-1.84,2.06-1.18l18.7,10.79c.73-1.16,2.18-1.44,3.87-.46,2.43,1.39,4.4,4.8,4.39,7.6Z"/>
          </g>
          <g>
            <path class="cls-2" d="M366.01,299.55c-3.62-2.08-7.07-3.29-10.28-3.77-6.6-16.08-18.35-31.09-31.8-38.86-18.46-10.65-33.75-4.07-36.83,14.42-3.09-3.54-6.55-6.56-10.24-8.69-12.8-7.39-23.17-1.41-23.17,13.34s10.37,32.71,23.16,40.09l89.14,51.47c16.28,9.41,29.48,1.8,29.48-16.98s-13.2-41.62-29.48-51.02Z"/>
            <path class="cls-4" d="M345.23,342.36c1.15.66,2.19.46,2.63-.52.44-.97.2-2.53-.62-3.94l-20.63-35.7c-1.11-1.92-2.93-2.96-4.03-2.33l-20.63,11.88c-.82.47-1.06,1.74-.62,3.22.44,1.49,1.49,2.89,2.64,3.55l7.08,4.09v13.2s27.1,15.64,27.1,15.64v-13.2s7.08,4.09,7.08,4.09Z"/>
            <path class="cls-7" d="M379.19,373.24c-4.33,0-9.1-1.43-14.01-4.27l-89.14-51.47c-13.22-7.63-23.98-26.25-23.98-41.51,0-7.74,2.7-13.56,7.6-16.39,4.91-2.83,11.32-2.26,18.04,1.62,2.92,1.69,5.76,3.93,8.46,6.67,1.95-7.48,6.12-13.01,11.94-15.76,7.39-3.49,16.86-2.3,26.66,3.36,13.09,7.56,25.06,22.03,32.15,38.81,3.26.61,6.59,1.9,9.92,3.81,0,0,0,0,0,0,16.71,9.65,30.3,33.18,30.3,52.45,0,9.69-3.35,16.96-9.45,20.48-2.54,1.47-5.41,2.2-8.5,2.2ZM266.53,261.13c-1.92,0-3.68.44-5.22,1.33-3.84,2.22-5.95,7.02-5.95,13.54,0,14.21,10.02,31.55,22.34,38.66l89.14,51.47c7.35,4.25,14.17,4.98,19.21,2.07,5.03-2.9,7.8-9.16,7.8-17.62,0-18.22-12.85-40.47-28.65-49.6-3.29-1.89-6.56-3.09-9.7-3.57-.57-.09-1.06-.47-1.28-1-6.77-16.49-18.39-30.72-31.1-38.06-8.84-5.1-17.23-6.25-23.61-3.23-5.62,2.65-9.44,8.51-10.77,16.5-.11.63-.56,1.14-1.18,1.31-.61.17-1.27-.02-1.69-.5-3.11-3.57-6.41-6.38-9.82-8.35-3.4-1.96-6.64-2.95-9.52-2.95Z"/>
            <g>
              <path class="cls-1" d="M330.12,347.79l-20.62-35.71c-1.11-1.92-2.92-2.97-4.03-2.32l-20.63,11.88c-.81.47-1.06,1.74-.62,3.23.44,1.49,1.49,2.88,2.63,3.54l7.08,4.09v29.68c0,1.82,1.27,4.02,2.85,4.93l21.4,12.35c1.58.91,2.85.18,2.85-1.64v-29.68l7.08,4.09c1.15.66,2.19.46,2.63-.51.44-.97.2-2.53-.62-3.94Z"/>
              <path class="cls-7" d="M319.47,381.51c-.68,0-1.41-.21-2.11-.61l-21.4-12.35c-2.09-1.21-3.67-3.95-3.67-6.36v-28.73l-6.26-3.62c-1.52-.88-2.82-2.61-3.39-4.5-.67-2.25-.13-4.26,1.37-5.12l20.63-11.88c.74-.43,1.61-.52,2.53-.28,1.41.38,2.82,1.58,3.76,3.21l20.62,35.7c1.1,1.89,1.37,3.98.7,5.45-.37.83-1.04,1.44-1.87,1.71-.95.3-2.04.14-3.08-.45l-4.61-2.66v26.82c0,1.47-.6,2.67-1.66,3.27-.47.27-1,.41-1.55.41ZM306.22,311.22s0,0-.01,0l-20.54,11.85s-.12.47.14,1.33c.32,1.07,1.09,2.13,1.88,2.59l7.08,4.09c.51.29.82.84.82,1.43v29.68c0,1.22.97,2.89,2.03,3.51l21.4,12.35c.15.09.26.13.34.15.02-.08.04-.2.04-.37v-29.68c0-.59.31-1.13.82-1.43.51-.29,1.14-.29,1.65,0l7.08,4.09c.14.08.25.12.33.15.12-.43.01-1.34-.57-2.34,0,0,0,0,0,0l-20.62-35.71c-.7-1.22-1.58-1.69-1.86-1.69Z"/>
            </g>
          </g>
          <g>
            <path class="cls-1" d="M174.7,255.78l-44.28-25.55-4.7-9.3c-3.63-6.78-7.31-14.09-14.67-18.34l-34.29-19.8c-4.72-2.72-8.56-.51-8.56,4.94v81.67c0,5.45,3.83,12.08,8.56,14.8l97.93,56.54c4.72,2.73,8.56.53,8.55-4.92v-65.22c0-5.45-3.83-12.08-8.56-14.81Z"/>
            <path class="cls-6" d="M76.77,284.19l97.93,56.54c4.72,2.73,8.56.53,8.55-4.92v-62.51l-115.05-66.43v62.52c0,5.45,3.83,12.08,8.56,14.8Z"/>
            <path class="cls-7" d="M178.53,343.56c-1.46,0-3.05-.47-4.66-1.4l-97.93-56.54c-5.26-3.03-9.39-10.16-9.39-16.23v-81.67c0-3.24,1.18-5.71,3.33-6.95,2.15-1.24,4.89-1.03,7.71.59l34.29,19.8c7.46,4.31,11.39,11.66,14.85,18.15l.45.84,4.49,8.9,43.85,25.31s0,0,0,0c5.27,3.05,9.38,10.18,9.38,16.24v65.22c0,3.24-1.17,5.71-3.32,6.95-.92.53-1.95.8-3.05.8ZM72.94,183.27c-.53,0-1.01.12-1.41.35-1.07.62-1.68,2.11-1.68,4.1v81.67c0,4.83,3.55,10.96,7.74,13.38l97.93,56.54c1.73,1,3.34,1.22,4.41.61,1.07-.62,1.68-2.11,1.67-4.1v-65.22c0-4.83-3.54-10.95-7.73-13.38l-44.27-25.55c-.28-.16-.5-.4-.65-.68l-5.13-10.11c-3.41-6.4-6.95-13.01-13.59-16.84l-34.29-19.8c-1.08-.62-2.11-.94-3-.94Z"/>
            <path class="cls-2" d="M161.87,214.04c4.73,2.73,8.56,9.35,8.56,14.81v86.41c0,5.45-3.83,7.66-8.56,4.92l-72.3-41.74c-4.72-2.73-8.56-9.36-8.56-14.81v-86.4c0-5.46,3.83-7.66,8.56-4.93l72.3,41.75Z"/>
            <path class="cls-4" d="M89.57,278.44l72.3,41.74c4.73,2.73,8.56.53,8.56-4.92v-49.36s-89.42-51.63-89.42-51.63v49.36c0,5.45,3.83,12.08,8.56,14.81Z"/>
            <path class="cls-7" d="M165.71,323c-1.46,0-3.05-.47-4.66-1.4l-72.3-41.74c-5.26-3.04-9.38-10.17-9.38-16.24v-86.4c0-3.25,1.19-5.73,3.33-6.96,2.15-1.24,4.88-1.02,7.7.6l72.3,41.75h0c5.26,3.04,9.39,10.17,9.39,16.23v86.41c0,3.25-1.19,5.72-3.33,6.95-.92.53-1.95.79-3.04.79ZM85.75,172.77c-.53,0-1,.11-1.4.34-1.07.62-1.68,2.11-1.68,4.11v86.4c0,4.83,3.54,10.96,7.73,13.38l72.3,41.74c1.73,1,3.34,1.22,4.41.61,1.07-.62,1.68-2.11,1.68-4.1v-86.41c0-4.83-3.54-10.96-7.73-13.38h0s-72.3-41.75-72.3-41.75c-1.08-.63-2.12-.95-3.01-.95Z"/>
            <g>
              <path class="cls-1" d="M177.5,335.97c1.69,6.32-.84,9.19-5.66,6.41l-99.82-57.51c-4.82-2.77-10.09-10.14-11.79-16.47l-15.13-56.55c-1.69-6.33.84-9.21,5.66-6.43l99.81,57.52c4.83,2.77,10.11,10.15,11.79,16.48l15.12,56.56Z"/>
              <path class="cls-7" d="M175.09,345.09c-1.07,0-2.42-.32-4.07-1.28l-99.82-57.51c-5.22-3.01-10.74-10.68-12.55-17.47l-15.13-56.55c-1.09-4.11-.62-7.2,1.34-8.7.96-.74,3.12-1.67,6.74.41l99.81,57.52c5.23,3.01,10.75,10.68,12.56,17.48l15.12,56.56c1.1,4.1.62,7.19-1.33,8.68-.52.4-1.4.86-2.67.86ZM47.53,206c-.28,0-.51.06-.67.19-.64.49-.94,2.3-.16,5.23l15.13,56.55c1.56,5.85,6.61,12.93,11.02,15.47l99.82,57.52c1.39.8,2.57,1.05,3.09.66.64-.49.93-2.29.15-5.22h0l-15.12-56.56c-1.56-5.85-6.61-12.94-11.02-15.47l-99.81-57.52c-.95-.55-1.81-.84-2.42-.84Z"/>
            </g>
          </g>
          <g>
            <g>
              <path class="cls-2" d="M495.86,118.71L295.13,2.82c-4.72-2.72-8.56-.52-8.56,4.94v55.92c.01,5.45,3.84,12.08,8.57,14.82l200.71,115.89c4.72,2.72,8.56.52,8.56-4.93v-55.93c0-5.45-3.83-12.09-8.56-14.81Z"/>
              <path class="cls-7" d="M499.68,197.2c-1.46,0-3.04-.47-4.65-1.39l-200.71-115.89c-5.25-3.04-9.38-10.17-9.39-16.24V7.76c0-3.25,1.19-5.72,3.33-6.96,2.15-1.24,4.88-1.03,7.7.59l200.72,115.89c5.26,3.02,9.38,10.16,9.38,16.24v55.93c0,3.24-1.18,5.71-3.33,6.95-.92.53-1.96.8-3.05.8ZM291.31,3.3c-.53,0-1.01.11-1.41.35-1.07.62-1.68,2.11-1.68,4.11v55.92c.01,4.83,3.56,10.97,7.75,13.39l200.71,115.89c1.73,1,3.34,1.21,4.41.6,1.07-.62,1.68-2.11,1.68-4.1v-55.93c0-4.85-3.54-10.98-7.73-13.38,0,0,0,0,0,0L294.31,4.25c-1.08-.62-2.12-.94-3-.94Z"/>
            </g>
            <path class="cls-4" d="M354.07,56.07c-1.13-.66-2.05-.12-2.05,1.19v32.29c0,1.32.92,2.9,2.05,3.55h0c1.14.66,2.05.13,2.05-1.18v-32.29c0-1.3-.92-2.9-2.06-3.56h0ZM370.49,72.14c-1.13-.66-2.05-.12-2.05,1.17v19.13c0,1.31.93,2.9,2.05,3.55h0c1.13.66,2.06.13,2.06-1.18v-19.13c0-1.3-.92-2.89-2.06-3.55h0ZM362.28,70.69c-1.12-.65-2.05-.12-2.05,1.18v12.54c0,1.31.92,2.9,2.05,3.55h0c1.14.65,2.05.12,2.05-1.19v-12.54c0-1.3-.91-2.9-2.05-3.55h0ZM378.71,70.3c-1.14-.66-2.05-.12-2.06,1.19v32.29c0,1.3.92,2.88,2.05,3.55h0c1.14.66,2.06.12,2.06-1.19v-32.29c0-1.31-.92-2.9-2.05-3.55h0ZM395.13,86.37c-1.13-.66-2.05-.12-2.05,1.17v19.14c0,1.31.92,2.89,2.05,3.54h0c1.14.67,2.05.12,2.06-1.18v-19.12c0-1.31-.92-2.9-2.06-3.55h0ZM386.91,88.19c-1.12-.65-2.05-.11-2.04,1.2v5.96c0,1.31.92,2.89,2.06,3.55h0c1.13.66,2.04.12,2.04-1.19v-5.96c0-1.31-.92-2.9-2.06-3.56h0ZM403.35,97.68c-1.14-.66-2.05-.12-2.05,1.18v5.96c0,1.32.92,2.91,2.05,3.57h0c1.13.65,2.05.12,2.05-1.19v-5.96c0-1.31-.92-2.89-2.05-3.56h0ZM419.77,103.88c-1.13-.65-2.05-.13-2.05,1.17v12.55c0,1.31.92,2.9,2.05,3.55h0c1.13.66,2.05.13,2.06-1.18v-12.56c0-1.3-.92-2.9-2.06-3.54h0ZM411.56,102.42c-1.14-.66-2.05-.12-2.05,1.18v5.96c0,1.32.92,2.91,2.05,3.56h0c1.14.66,2.06.13,2.06-1.19v-5.96c0-1.31-.93-2.9-2.05-3.55h0ZM427.97,102.03c-1.12-.65-2.05-.12-2.04,1.19v25.71c0,1.3.92,2.89,2.05,3.55h0c1.12.65,2.06.12,2.05-1.18v-25.71c0-1.3-.91-2.9-2.06-3.55h0ZM444.4,121.38c-1.13-.65-2.05-.11-2.05,1.19v5.96c0,1.32.92,2.91,2.05,3.56h0c1.13.66,2.05.13,2.05-1.19v-5.96c0-1.31-.91-2.9-2.05-3.56h0ZM436.19,110.07c-1.13-.66-2.05-.13-2.05,1.17v19.13c0,1.32.92,2.9,2.05,3.55h0c1.14.66,2.06.13,2.05-1.18v-19.13c0-1.3-.91-2.9-2.05-3.54h0ZM460.83,127.58c-1.13-.65-2.06-.12-2.05,1.18v12.54c0,1.31.91,2.9,2.05,3.56h0c1.14.66,2.06.13,2.05-1.18v-12.55c0-1.3-.91-2.89-2.04-3.55h0ZM452.62,112.97c-1.13-.65-2.05-.12-2.05,1.19v32.29c0,1.32.91,2.9,2.05,3.55h0c1.14.65,2.05.12,2.05-1.18v-32.29c0-1.3-.91-2.91-2.05-3.55h0ZM469.05,125.74c-1.14-.66-2.06-.12-2.05,1.19v25.71c0,1.3.91,2.9,2.05,3.55h0c1.13.65,2.06.12,2.06-1.19v-25.71c0-1.3-.93-2.89-2.05-3.55h0ZM485.45,138.51c-1.12-.65-2.04-.12-2.03,1.18v19.13c-.01,1.32.91,2.9,2.05,3.56h0c1.13.65,2.05.12,2.06-1.18v-19.13c0-1.31-.92-2.89-2.07-3.55h0ZM477.25,140.35c-1.13-.66-2.05-.12-2.05,1.19v5.97c0,1.31.91,2.9,2.05,3.56h0c1.13.65,2.05.12,2.05-1.19v-5.97c0-1.3-.92-2.9-2.06-3.55h0ZM319.29,36c-8.86-5.12-16.04-.97-16.04,9.25-.01,10.22,7.19,22.66,16.05,27.78,8.86,5.11,16.04.98,16.05-9.24,0-10.23-7.19-22.67-16.06-27.79ZM326.9,60.04l-11.51,1.02c-.18.02-.37-.04-.57-.15-.19-.12-.39-.29-.57-.51-.34-.44-.57-1.01-.57-1.47v-15.33c0-.48.21-.79.57-.82.35-.04.79.22,1.14.66l11.52,14.32c.36.43.57,1,.57,1.47s-.21.79-.58.81Z"/>
          </g>
          <g>
            <g>
              <path class="cls-2" d="M540.81,666.02v-45.91c0-4.51-3.17-10.01-7.1-12.28l-74.81-43.18c-3.92-2.26-7.1-.43-7.1,4.08v45.91c0,4.52,3.18,10.01,7.11,12.28l7.21,4.16c12.22,7.06,14.99,11.16,20.36,20.45l5.76,9.97c1.12,1.94,2.59,3.45,4.07,4.3,1.47.85,2.95,1.05,4.07.41l5.76-3.31c5.37-3.1,8.12-3.99,20.36,3.06l7.21,4.16c1.96,1.13,3.73,1.24,5.01.5,1.29-.74,2.08-2.32,2.08-4.59Z"/>
              <path class="cls-7" d="M536.88,672.74c-1.26,0-2.62-.4-4-1.2l-7.21-4.16c-12.02-6.93-14.12-5.71-18.71-3.06l-5.77,3.32c-1.6.92-3.68.77-5.72-.41-1.77-1.01-3.43-2.75-4.67-4.9l-5.77-9.97c-5.2-9-7.78-12.93-19.75-19.85l-7.2-4.16c-4.44-2.56-7.92-8.58-7.92-13.7v-45.91c0-2.8,1.03-4.93,2.9-6.01,1.87-1.08,4.24-.9,6.67.5l74.81,43.18c4.45,2.57,7.93,8.59,7.93,13.71v45.91h0c0,2.81-1.04,4.95-2.91,6.02-.8.46-1.7.7-2.66.7ZM512.83,658.93c3.37,0,7.53,1.57,14.49,5.59l7.21,4.16c1.34.78,2.57.96,3.36.5.81-.46,1.26-1.59,1.26-3.17v-45.91c0-3.92-2.88-8.89-6.28-10.86l-74.81-43.18c-1.34-.78-2.58-.96-3.37-.5-.8.46-1.26,1.61-1.26,3.16v45.91c0,3.92,2.88,8.89,6.28,10.85l7.21,4.16c12.68,7.33,15.59,11.75,20.96,21.05l5.76,9.97c.94,1.62,2.2,2.97,3.47,3.69.98.57,1.89.72,2.43.41l5.76-3.31c2.67-1.54,4.84-2.53,7.51-2.53ZM540.81,666.02h0,0Z"/>
            </g>
            <path class="cls-4" d="M480.06,613.67c-1.02.59-2.43.51-3.99-.39-3.1-1.8-5.62-6.16-5.62-9.75,0-1.8.63-3.05,1.65-3.65,1.02-.58,2.43-.49,3.98.41,3.11,1.79,5.62,6.15,5.62,9.74,0,1.79-.62,3.05-1.64,3.63ZM502.42,622c0-3.6-2.52-7.95-5.62-9.74-1.56-.9-2.97-.99-3.99-.4-1.02.58-1.65,1.85-1.65,3.63,0,3.59,2.52,7.95,5.64,9.75,1.55.89,2.96.98,3.98.39,1.02-.59,1.65-1.85,1.65-3.63ZM523.14,633.96c0-3.59-2.52-7.95-5.63-9.74-1.56-.89-2.97-.99-3.98-.41-1.02.59-1.65,1.85-1.65,3.65,0,3.58,2.52,7.95,5.64,9.75,1.55.89,2.96.98,3.97.39,1.02-.59,1.66-1.85,1.65-3.63Z"/>
          </g>
          <g>
            <g>
              <path class="cls-2" d="M580.56,561.38c0,5.46-3.83,7.66-8.56,4.93l-97.94-56.55c-4.72-2.71-8.55-9.35-8.55-14.8v-137.39c0-5.45,3.84-7.66,8.56-4.93l97.95,56.54c4.72,2.73,8.55,9.37,8.55,14.82v137.38Z"/>
              <path class="cls-7" d="M575.83,569.13c-1.46,0-3.05-.47-4.66-1.4l-97.94-56.55c-5.26-3.02-9.37-10.15-9.37-16.23v-137.39c0-3.25,1.18-5.72,3.33-6.95,2.15-1.24,4.88-1.03,7.7.6l97.95,56.54c5.26,3.04,9.37,10.18,9.37,16.24v137.38c0,3.24-1.17,5.71-3.31,6.95-.92.54-1.96.8-3.06.8ZM470.24,353.12c-.53,0-1,.11-1.4.34-1.07.62-1.68,2.11-1.68,4.1v137.39c0,4.84,3.54,10.96,7.73,13.38l97.94,56.55c1.74,1,3.35,1.22,4.42.6,1.06-.62,1.67-2.11,1.67-4.1h0v-137.38c0-4.83-3.54-10.96-7.73-13.39l-97.95-56.54c-1.08-.63-2.11-.95-3-.95Z"/>
            </g>
            <g class="cls-9">
              <path class="cls-4" d="M487.6,385.91c7.21-4.16,18.9,2.58,26.11,15.07,7.21,12.49,7.2,25.99,0,30.15-7.21,4.16-18.89-2.58-26.1-15.08-7.21-12.49-7.21-25.98,0-30.14Z"/>
            </g>
            <path class="cls-1" d="M486.09,413.19c1.72-4.33,5.54-6.26,10.33-5.06-1.81-2.57-2.99-5.69-2.99-8.46,0-4.61,3.24-6.47,7.24-4.17,3.99,2.31,7.24,7.92,7.24,12.53,0,2.77-1.19,4.52-2.99,5,4.77,4.33,8.61,10.68,10.32,16.99-3.38,3.04-8.63,3.24-14.56-.18-5.93-3.42-11.19-9.7-14.57-16.65ZM561.04,437.21c0-1.31-.91-2.9-2.05-3.56l-23.98-13.83c-1.14-.67-2.05-.13-2.05,1.17h0c0,1.3.91,2.9,2.06,3.55l23.98,13.85c1.14.65,2.05.12,2.05-1.18h0ZM554.01,423.68c0,1.31-.92,1.84-2.06,1.18l-16.95-9.79c-1.14-.66-2.05-2.25-2.06-3.56h0c0-1.3.92-1.83,2.06-1.17l16.95,9.78c1.13.66,2.05,2.25,2.05,3.55h0ZM561.04,446.68c0-1.3-.92-2.9-2.05-3.55l-23.99-13.84c-1.13-.65-2.05-.12-2.05,1.18h0c0,1.31.91,2.91,2.06,3.56l23.98,13.84c1.14.66,2.05.13,2.06-1.18h0ZM561.04,465.62c0-1.3-.93-2.89-2.06-3.54l-23.99-13.85c-1.12-.65-2.04-.13-2.04,1.18h0c0,1.31.91,2.91,2.06,3.57l23.98,13.83c1.14.66,2.05.12,2.06-1.19h0ZM549.55,449.51c0,1.32-.91,1.85-2.05,1.18l-12.49-7.2c-1.13-.65-2.05-2.25-2.05-3.56h0c0-1.31.91-1.84,2.05-1.17l12.49,7.19c1.13.66,2.05,2.26,2.05,3.56h0ZM561.04,489.44c0-1.3-.93-2.9-2.05-3.55l-77.61-44.8c-1.14-.66-2.06-.13-2.06,1.17h0c0,1.31.92,2.9,2.05,3.57l77.61,44.8c1.14.66,2.05.13,2.06-1.18h0ZM546.78,500.14c0-1.3-.93-2.89-2.06-3.54l-63.34-36.57c-1.14-.64-2.05-.12-2.05,1.17h0c0,1.33.92,2.91,2.06,3.57l63.34,36.58c1.14.65,2.05.11,2.05-1.2h0ZM532.52,482.44c0,1.32-.93,1.85-2.05,1.2l-49.09-28.35c-1.13-.66-2.04-2.25-2.05-3.55h0c0-1.31.92-1.84,2.05-1.18l49.09,28.34c1.12.65,2.05,2.24,2.05,3.54h0ZM561.04,522.59c0-1.3-.91-2.9-2.05-3.54l-77.61-44.81c-1.14-.66-2.06-.12-2.06,1.18h0c0,1.31.92,2.9,2.06,3.55l77.61,44.81c1.13.66,2.05.13,2.05-1.19h0ZM546.78,533.3c0-1.31-.92-2.9-2.05-3.55l-63.35-36.56c-1.13-.66-2.04-.13-2.05,1.17h0c0,1.31.91,2.9,2.05,3.56l63.34,36.57c1.13.65,2.06.12,2.06-1.18h0ZM532.52,515.59c0,1.31-.93,1.85-2.05,1.2l-49.09-28.35c-1.13-.65-2.05-2.25-2.05-3.56h0c0-1.32.93-1.84,2.06-1.18l49.09,28.34c1.12.65,2.04,2.25,2.04,3.54h0Z"/>
          </g>
          <g>
            <path class="cls-4" d="M75.79,563.75l38.19-22.05c17.01-9.82,44.6-9.81,61.63.03,17.03,9.82,17.04,25.75.03,35.58-.01,0-.04.01-.06.03h0l-38.12,22.02c-17.01,9.82-44.6,9.8-61.62-.03-17.02-9.84-17.05-25.76-.04-35.58Z"/>
            <path class="cls-1" d="M149.43,573.32h0c.01-6.39-4.2-12.78-12.63-17.66-16.85-9.71-44.2-9.71-61.08.04-8.48,4.88-12.69,11.3-12.65,17.72v8.27c-.05,6.41,4.16,12.84,12.63,17.72,16.85,9.75,44.2,9.75,61.08-.02,8.43-4.86,12.64-11.24,12.65-17.62h0v-8.45Z"/>
            <path class="cls-6" d="M128.7,552.02l-29.96,17.29c-4.12,2.37-4.11,6.23.01,8.61,4.12,2.38,10.8,2.38,14.91,0l29.83-17.21c-1.83-1.8-4.03-3.51-6.7-5.06-2.49-1.43-5.22-2.63-8.09-3.64Z"/>
            <path class="cls-6" d="M149.42,573.32c-.01,6.37-4.23,12.75-12.65,17.61-16.88,9.77-44.23,9.77-61.08.03-8.4-4.84-12.6-11.18-12.63-17.53h0v8.27c-.05,6.41,4.16,12.84,12.63,17.72,16.85,9.75,44.2,9.75,61.08-.02,8.43-4.86,12.64-11.24,12.65-17.62h0v-8.45h0Z"/>
            <path class="cls-7" d="M106.2,608.33c-11.35,0-22.7-2.5-31.33-7.49-8.74-5.02-13.52-11.83-13.46-19.16v-8.25c-.04-7.31,4.74-14.11,13.48-19.14,17.29-10,45.43-10.02,62.73-.04,8.63,4.99,13.4,11.71,13.45,18.94,0,.05,0,.09,0,.14v8.45c0,.05,0,.1,0,.15-.08,7.21-4.86,13.92-13.48,18.89-8.66,5.01-20.03,7.51-31.39,7.51ZM106.31,550.01c-10.78,0-21.57,2.37-29.77,7.12-7.67,4.42-11.87,10.2-11.83,16.28v8.28c-.05,6.1,4.14,11.88,11.81,16.29,16.38,9.47,43.04,9.47,59.43-.02,7.62-4.4,11.82-10.15,11.83-16.19,0-.05,0-.09,0-.14v-8.17s0-.09,0-.14c.01-6.05-4.18-11.82-11.81-16.23-8.18-4.71-18.92-7.07-29.66-7.07Z"/>
            <path class="cls-8" d="M98.75,577.64c4.13,2.39,10.83,2.39,14.96,0,2.07-1.19,3.1-2.75,3.1-4.31,0-1.57-1.03-3.13-3.09-4.33-4.13-2.38-10.83-2.38-14.96.01-2.08,1.2-3.11,2.77-3.1,4.34.01,1.56,1.04,3.11,3.09,4.3Z"/>
            <path class="cls-2" d="M95.66,528.76c0-1.57,1.03-3.13,3.1-4.33,4.12-2.37,10.82-2.39,14.96.01,2.07,1.19,3.09,2.75,3.09,4.31h0v44.84h0c0,1.56-1.02,3.13-3.09,4.32-4.14,2.39-10.83,2.39-14.97,0-2.06-1.2-3.1-2.77-3.1-4.34v-44.82Z"/>
            <path class="cls-4" d="M106.24,534.86c2.71,0,5.42-.6,7.49-1.79,2.06-1.19,3.09-2.76,3.09-4.32h0v44.84c0,1.56-1.02,3.13-3.09,4.32-2.07,1.19-4.78,1.79-7.49,1.79v-44.84Z"/>
            <path class="cls-7" d="M106.25,581.36c-2.99,0-5.98-.67-8.31-2.02-2.53-1.48-3.92-3.53-3.92-5.76v-44.82c0-2.25,1.39-4.29,3.92-5.75,4.67-2.69,11.96-2.68,16.61.01,2.52,1.45,3.92,3.49,3.92,5.73v44.84c0,2.21-1.42,4.31-3.91,5.75-2.33,1.34-5.32,2.02-8.31,2.02ZM106.23,524.3c-2.42,0-4.84.52-6.65,1.56-1.45.83-2.28,1.89-2.28,2.9v44.82c0,1,.83,2.07,2.28,2.91,3.6,2.08,9.71,2.08,13.32,0,1.44-.83,2.27-1.88,2.26-2.89v-44.85c0-1-.83-2.05-2.27-2.88-1.81-1.05-4.24-1.57-6.67-1.57Z"/>
            <path class="cls-1" d="M146.36,478.26c0-3.04-1.07-5.17-2.8-6.15l-4.45-2.57h0c-1.72-.95-4.08-.8-6.68.69-5.25,3.02-9.52,10.42-9.52,16.46v5.5h0v22.85c0,2.52-.29,4.79-.81,6.84-2.04-.59-4.16-1.47-6.36-2.73-14.44-8.34-26.2-28.69-26.2-45.34v-22.85h0v-5.5c0-3.04-1.08-5.17-2.81-6.15l-4.45-2.57h0c-1.72-.96-4.08-.82-6.68.69-5.25,3.02-9.51,10.42-9.51,16.46v5.5h0v22.84c0,19.47,13.73,43.23,30.62,52.98,8.34,4.82,15.92,5.31,21.46,2.23h0s.17-.08.17-.08c0,0,0,0,0,0l19.02-10.98h.02c5.53-3.2,8.96-10.04,8.96-19.76v-22.85s0-5.5,0-5.5Z"/>
            <path class="cls-6" d="M80.04,439.98c-5.24,3.02-9.51,10.42-9.51,16.47v5.49h0v22.85c0,16.66,11.75,37,26.2,45.33,13.29,7.67,24.26,2.54,25.95-11.28-.13,1.05-.32,2.07-.56,3.04-2.04-.59-4.16-1.47-6.36-2.73-14.44-8.34-26.2-28.69-26.2-45.34v-22.85h0v-5.5c0-3.04-1.08-5.17-2.81-6.15-1.72-.99-4.1-.84-6.72.67Z"/>
            <path class="cls-7" d="M110.37,541.04c-4.48,0-9.41-1.47-14.46-4.4-17.33-10.01-31.43-34.41-31.43-54.4v-28.35c0-6.69,4.54-14.55,10.33-17.89,2.99-1.73,5.9-1.99,8.21-.75.04.02.08.04.12.06l4.45,2.57c2.33,1.33,3.62,4.02,3.62,7.58v5.5s0,.1,0,.15v22.7c0,16.14,11.38,35.84,25.37,43.92,1.4.81,2.85,1.49,4.31,2.02.26-1.5.39-3.08.39-4.7v-22.71s0-.09,0-.14v-5.5c0-6.69,4.54-14.55,10.34-17.89,2.95-1.7,5.82-1.98,8.11-.8.07.03.15.06.22.11l4.45,2.57c2.33,1.33,3.62,4.02,3.62,7.57v5.5s0,22.85,0,22.85c0,10.01-3.47,17.54-9.78,21.18-.03.02-.07.04-.1.05l-18.86,10.89s-.06.04-.09.06l-.17.1c-.07.04-.14.08-.22.1-2.54,1.37-5.38,2.05-8.42,2.05ZM79.85,437.78c-1.01,0-2.17.36-3.4,1.08-4.71,2.72-8.69,9.6-8.69,15.04v28.35c0,18.94,13.37,42.07,29.79,51.55,7.54,4.35,14.58,5.14,19.83,2.21.05-.03.1-.05.16-.08h0s19.02-10.98,19.02-10.98c.04-.02.08-.04.12-.06,5.16-3,8.03-9.5,8.03-18.27v-22.85s0-5.5,0-5.5h0c0-2.32-.7-4-1.97-4.72l-4.29-2.48c-.05-.02-.1-.05-.15-.07-1.27-.71-3.06-.47-5.05.67-4.71,2.71-8.69,9.6-8.69,15.04v5.37s0,.09,0,.14v22.84c0,2.53-.29,4.97-.86,7.24-.11.43-.39.8-.78,1.03-.39.22-.85.28-1.28.15-2.29-.66-4.55-1.64-6.73-2.89-14.9-8.6-27.02-29.58-27.02-46.77v-22.85s0-.1,0-.14v-5.35c0-2.29-.72-4.01-1.97-4.72l-4.37-2.52s-.04-.02-.06-.03c-.48-.27-1.04-.4-1.65-.4ZM137.39,526.38h0,0ZM148.01,478.26h.01-.01Z"/>
            <path class="cls-2" d="M137.03,485.24c0,17-13.79,30.79-30.79,30.79h0c-17.01,0-30.8-13.79-30.8-30.79v-89.85c0-17.01,13.79-30.8,30.8-30.8h0c17,0,30.79,13.79,30.79,30.8v89.85Z"/>
            <path class="cls-4" d="M111.16,365.02c8.88,4.86,14.91,14.29,14.91,25.14v83.58c0,15.82-12.83,28.64-28.65,28.64-8.24,0-15.65-3.5-20.88-9.06,3.56,13.07,15.48,22.7,29.69,22.7,17,0,30.79-13.79,30.79-30.79v-89.85c0-15.33-11.21-28-25.87-30.37Z"/>
            <path class="cls-7" d="M106.24,517.67c-17.89,0-32.44-14.55-32.44-32.44v-89.85c0-17.89,14.55-32.44,32.44-32.44s32.44,14.55,32.44,32.44v89.85c0,17.89-14.55,32.44-32.44,32.44ZM106.24,366.24c-16.07,0-29.15,13.08-29.15,29.15v89.85c0,16.07,13.08,29.14,29.15,29.14s29.14-13.07,29.14-29.14v-89.85c0-16.07-13.07-29.15-29.14-29.15Z"/>
            <path class="cls-4" d="M139.05,444.71c0-2.21-.69-4.41-2.01-6.51v6.51c0,4.54-3.01,9.09-9.03,12.56-12.04,6.96-31.54,6.96-43.55.01-5.99-3.45-8.98-7.96-9.01-12.49,0-.03,0-.05,0-.08h0v-6.49c-1.33,2.12-2.03,4.34-2.01,6.56v31.84c-.04,4.88,3.16,9.76,9.6,13.46,12.8,7.41,33.58,7.41,46.4-.02,6.41-3.69,9.6-8.54,9.62-13.38h0v-31.98h0Z"/>
            <path class="cls-5" d="M139.05,444.71c-.01,4.84-3.21,9.69-9.62,13.38-1.21.7-2.49,1.33-3.83,1.9v31.99c1.34-.57,2.62-1.2,3.83-1.9,6.41-3.69,9.6-8.54,9.62-13.38h0v-31.98h0Z"/>
            <path class="cls-7" d="M106.2,497.26c-8.69,0-17.38-1.91-24-5.74-6.76-3.89-10.47-9.19-10.42-14.9v-31.83c-.02-2.52.75-5.03,2.27-7.44.39-.62,1.15-.91,1.85-.71.71.2,1.19.85,1.19,1.58v6.49s0,.09,0,.13c.06,4.09,2.96,8,8.19,11.01,11.55,6.68,30.35,6.67,41.91-.01,5.28-3.05,8.2-7,8.2-11.13v-6.51c0-.73.48-1.38,1.19-1.58.71-.2,1.46.08,1.85.7,1.48,2.35,2.24,4.78,2.27,7.24,0,.05,0,.1,0,.15v31.98c0,.05,0,.1,0,.15-.08,5.62-3.78,10.82-10.44,14.65-6.63,3.84-15.34,5.76-24.05,5.76ZM75.08,450.23v26.4c-.04,4.49,3.08,8.76,8.77,12.04,12.33,7.14,32.41,7.13,44.75-.02,5.66-3.26,8.78-7.51,8.8-11.96,0-.05,0-.09,0-.14v-26.37c-1.54,3.22-4.46,6.14-8.58,8.52-12.47,7.21-32.75,7.22-45.2.01-4.09-2.36-7-5.27-8.55-8.48Z"/>
            <path class="cls-1" d="M146.36,478.26c0-3.04-1.07-5.17-2.8-6.15l-4.45-2.57h0c-1.72-.95-4.08-.8-6.68.69-5.25,3.02-9.52,10.42-9.52,16.46v5.5h0v22.85c0,11.62-5.72,18.41-14.08,18.63v5.64c3.79.3,7.17-.51,9.98-2.28-.15.1-.3.22-.46.31l19.01-10.97h.02c5.53-3.2,8.96-10.04,8.96-19.76v-22.85s0-5.5,0-5.5Z"/>
            <path class="cls-6" d="M146.36,478.26c0-3.04-1.07-5.17-2.8-6.15-1.72-.98-4.1-.84-6.71.67-5.25,3.02-9.51,10.42-9.51,16.46v5.5s0,22.85,0,22.85c0,9.73-3.43,16.57-8.96,19.76l19.01-10.97h.02c5.53-3.2,8.96-10.04,8.96-19.76v-22.85s0-5.5,0-5.5Z"/>
            <path class="cls-7" d="M110.39,541.03c-.55,0-1.11-.02-1.67-.07-.91-.07-1.58-.86-1.51-1.77.07-.91.87-1.6,1.77-1.51,3.39.26,6.41-.42,8.97-2.03,0,0,0,0,0,0,0,0,0,0,0,0,.13-.08.26-.14.4-.18l18.2-10.51s.08-.04.12-.06c5.16-3,8.03-9.5,8.03-18.27v-22.85s0-5.5,0-5.5c0-2.32-.7-4-1.97-4.72l-4.29-2.48c-.05-.02-.1-.05-.15-.07-1.27-.71-3.06-.47-5.05.67-4.71,2.71-8.69,9.6-8.69,15.04v5.37s0,.09,0,.14v22.84c0,12.06-6.15,20.02-15.68,20.28-.89,0-1.67-.69-1.69-1.6-.02-.91.69-1.67,1.6-1.69,7.69-.21,12.47-6.72,12.47-16.98v-22.71s0-.09,0-.14v-5.5c0-6.69,4.54-14.55,10.34-17.89,2.95-1.7,5.82-1.98,8.11-.8.07.03.15.06.22.11l4.45,2.57c2.33,1.33,3.62,4.02,3.62,7.58v5.5s0,22.85,0,22.85c0,10.01-3.47,17.54-9.78,21.18-.03.02-.07.04-.1.05l-18.9,10.91s-.04.02-.05.03c-.09.05-.19.1-.29.13-2.54,1.4-5.39,2.11-8.49,2.11Z"/>
          </g>
          <g>
            <polygon class="cls-2" points="234.82 605.7 270.89 626.52 270.9 648.62 238.29 667.45 202.21 646.62 202.21 624.52 234.82 605.7"/>
            <g class="cls-9">
              <polygon class="cls-4" points="238.29 667.45 202.21 646.62 202.21 624.52 238.28 645.35 238.29 667.45"/>
            </g>
            <polygon class="cls-4" points="270.9 648.62 238.29 667.45 238.28 645.35 270.89 626.52 270.9 648.62"/>
            <path class="cls-7" d="M238.29,669.1c-.28,0-.57-.07-.82-.22l-36.08-20.83c-.51-.29-.82-.84-.82-1.43v-22.1c0-.59.31-1.13.82-1.43l32.61-18.82c.51-.29,1.14-.29,1.65,0l36.07,20.83c.51.29.82.84.82,1.43v22.1c0,.59-.31,1.13-.82,1.43l-32.61,18.83c-.25.15-.54.22-.82.22ZM203.86,645.67l34.43,19.88,30.96-17.88v-20.2s-34.43-19.88-34.43-19.88l-30.96,17.87v20.2Z"/>
          </g>
        </g>
      </g>
    </g>
  </g>
</svg>