<?xml version="1.0" encoding="UTF-8"?>
<svg id="_レイヤー_1" data-name="レイヤー_1" xmlns="http://www.w3.org/2000/svg" viewBox="0 0 250 250">
  <defs>
    <style>
      .cls-1 {
        fill: #ecf3ff;
      }

      .cls-2 {
        fill: #1f3367;
      }
    </style>
  </defs>
  <circle class="cls-1" cx="125" cy="125" r="125"/>
  <path class="cls-2" d="M170.89,110.63c-.22-.43-.66-.69-1.14-.69h-39.12l19.33-68c.17-.6-.12-1.24-.68-1.51-.57-.27-1.25-.09-1.61.42l-68.47,97.22c-.28.39-.31.91-.09,1.33.22.43.66.69,1.14.69h39.12l-19.33,67.97c-.17.6.12,1.24.68,1.51.18.09.37.13.55.13.41,0,.81-.19,1.05-.55l68.47-97.19c.28-.39.31-.91.09-1.33Z"/>
</svg>