<?xml version="1.0" encoding="UTF-8"?>
<svg id="_レイヤー_1" data-name="レイヤー_1" xmlns="http://www.w3.org/2000/svg" viewBox="0 0 250 250">
  <defs>
    <style>
      .cls-1 {
        fill: #ecf3ff;
      }

      .cls-2 {
        fill: #edf3ff;
      }

      .cls-3 {
        fill: #1f3367;
      }
    </style>
  </defs>
  <circle class="cls-1" cx="125" cy="125" r="125"/>
  <g>
    <g>
      <path class="cls-3" d="M69.18,190.03c-5.06,0-9.18-4.12-9.18-9.18v-53.46h21.77c1.82,0,3.54-.97,4.51-2.53.93-1.59,1-3.51.18-5.15-1.1-2.2-1.79-4.7-1.79-6.51,0-3.68,2.97-6.67,6.62-6.67s6.67,2.99,6.67,6.67c0,1.9-.68,4.39-1.78,6.51-.82,1.69-.74,3.63.23,5.2.96,1.51,2.61,2.44,4.41,2.48h21.86v21.72c0,.26-.14.4-.23.43-.12.08-.22.11-.33.11-.08,0-.17-.02-.26-.06-2.83-1.44-6.06-2.3-8.63-2.3-6.29,0-11.4,5.11-11.4,11.4s5.11,11.36,11.4,11.36c2.53,0,5.76-.84,8.64-2.26.11-.06.21-.09.3-.09s.17.03.26.08c.12.08.26.23.26.49v21.77h-53.5Z"/>
      <path class="cls-2" d="M91.29,106.65c3.61,0,6.55,2.94,6.55,6.55,0,1.88-.68,4.35-1.77,6.46-.84,1.73-.75,3.71.24,5.31.98,1.54,2.67,2.49,4.51,2.54h.05s0,0,0,0h21.69v21.61c0,.22-.12.3-.15.31h-.03s-.03.03-.03.03c-.07.05-.15.07-.23.07-.07,0-.14-.02-.2-.04-2.86-1.45-6.11-2.32-8.69-2.32-6.35,0-11.52,5.17-11.52,11.52s5.17,11.47,11.52,11.47c2.55,0,5.8-.85,8.7-2.28.08-.05.16-.07.23-.07.07,0,.13.02.19.06.14.09.21.22.21.39v21.65h-53.38c-5,0-9.07-4.07-9.07-9.07v-53.34h21.65c1.86,0,3.62-.99,4.61-2.59.95-1.62,1.02-3.59.19-5.26-1.09-2.19-1.77-4.66-1.77-6.46,0-3.61,2.92-6.55,6.5-6.55M91.29,106.42c-3.73,0-6.74,3.01-6.74,6.79,0,1.8.67,4.31,1.8,6.56.81,1.62.72,3.51-.18,5.03-.94,1.53-2.61,2.47-4.4,2.47h-21.89v53.57c0,5.12,4.18,9.3,9.3,9.3h53.62v-21.89c0-.31-.18-.49-.31-.58-.08-.05-.19-.1-.32-.1-.1,0-.22.03-.35.1-2.83,1.39-6.02,2.25-8.58,2.25-6.25,0-11.28-5.03-11.28-11.24s5.03-11.28,11.28-11.28c2.56,0,5.75.85,8.58,2.29.12.05.22.07.31.07.16,0,.28-.06.36-.11.13-.04.31-.22.31-.54v-21.84h-21.98c-1.75-.04-3.37-.94-4.31-2.43-.94-1.53-1.03-3.42-.22-5.08,1.12-2.16,1.8-4.67,1.8-6.56,0-3.78-3.06-6.79-6.79-6.79h0Z"/>
    </g>
    <g>
      <path class="cls-3" d="M127.41,189.98v-21.72c0-1.9-.92-3.54-2.53-4.51-.84-.52-1.8-.79-2.78-.79-.81,0-1.63.19-2.37.56-2.16,1.1-4.65,1.79-6.51,1.79-3.68,0-6.67-2.97-6.67-6.62s2.99-6.67,6.67-6.67c1.86,0,4.35.68,6.51,1.78.76.38,1.61.58,2.44.58.96,0,1.9-.27,2.71-.77,1.58-.95,2.53-2.63,2.53-4.51v-21.77h21.72c.23,0,.37.07.48.26.03.07.15.3.04.51-1.44,2.84-2.3,6.09-2.3,8.68,0,6.29,5.09,11.4,11.36,11.4s11.4-5.11,11.4-11.4c0-2.55-.86-5.8-2.31-8.68-.1-.21-.04-.39,0-.52.07-.11.22-.26.48-.26h21.77v53.5c0,4.9-3.78,8.91-8.6,9.14h-54.04Z"/>
      <path class="cls-2" d="M189.93,127.46v53.38c0,4.84-3.73,8.8-8.48,9.02h-53.92v-21.61c0-1.94-.94-3.62-2.58-4.61-.86-.53-1.84-.81-2.84-.81-.83,0-1.67.2-2.43.58-2.14,1.09-4.62,1.77-6.45,1.77-3.61,0-6.55-2.92-6.55-6.5s2.94-6.55,6.55-6.55c1.84,0,4.31.68,6.46,1.77.78.39,1.64.6,2.49.6.98,0,1.94-.27,2.77-.78,1.62-.97,2.59-2.7,2.59-4.61v-21.65h21.61c.19,0,.29.05.37.18.05.11.12.27.05.41-1.45,2.86-2.32,6.12-2.32,8.74,0,6.35,5.15,11.52,11.47,11.52s11.52-5.17,11.52-11.52c0-2.57-.87-5.83-2.32-8.74-.08-.15-.04-.28,0-.41.09-.12.22-.19.37-.19h21.65M190.17,127.22h-21.89c-.31,0-.49.18-.58.31-.05.13-.13.36,0,.63,1.44,2.88,2.29,6.11,2.29,8.63,0,6.25-5.03,11.28-11.28,11.28s-11.24-5.03-11.24-11.28c0-2.61.85-5.8,2.29-8.63.13-.27,0-.54-.05-.63-.13-.22-.31-.31-.58-.31h-21.84v21.89c0,1.8-.9,3.46-2.47,4.4-.81.5-1.73.75-2.65.75-.81,0-1.63-.19-2.38-.57-2.2-1.12-4.72-1.8-6.56-1.8-3.78,0-6.79,3.06-6.79,6.79s3.01,6.74,6.79,6.74c1.84,0,4.36-.67,6.56-1.8.74-.37,1.53-.55,2.32-.55.94,0,1.88.26,2.72.77,1.57.94,2.47,2.56,2.47,4.4v21.84h54.16c4.85-.22,8.72-4.31,8.72-9.26v-53.62h0Z"/>
    </g>
    <g>
      <path class="cls-3" d="M158.71,143.47c-3.65,0-6.62-2.99-6.62-6.67,0-1.9.68-4.39,1.78-6.51.82-1.65.74-3.59-.23-5.19-.96-1.56-2.65-2.48-4.51-2.48h-21.72v-21.99c.03-.09.14-.19.2-.24.07-.03.14-.04.21-.04.1,0,.21.03.31.08,2.92,1.44,6.08,2.26,8.68,2.26,6.26,0,11.36-5.09,11.36-11.35s-5.09-11.4-11.36-11.4c-2.6,0-5.84.86-8.68,2.31-.08.04-.16.06-.24.06-.11,0-.2-.03-.27-.06-.07-.07-.19-.17-.22-.28v-21.97h53.46c5.06,0,9.18,4.12,9.18,9.18v53.46h-21.77c-1.82,0-3.54.97-4.51,2.53-.96,1.59-1.02,3.52-.18,5.15,1.1,2.16,1.78,4.65,1.78,6.51,0,3.68-2.99,6.67-6.67,6.67Z"/>
      <path class="cls-2" d="M180.87,60.09c5,0,9.07,4.07,9.07,9.07v53.34h-21.65c-1.86,0-3.62.99-4.61,2.59-.98,1.63-1.05,3.6-.19,5.26,1.09,2.14,1.77,4.62,1.77,6.45,0,3.61-2.94,6.55-6.55,6.55s-6.5-2.94-6.5-6.55c0-1.88.68-4.35,1.77-6.46.84-1.68.75-3.66-.24-5.31-.98-1.59-2.7-2.54-4.61-2.54h-21.6v-21.84c.03-.07.11-.14.15-.18.05-.01.1-.02.14-.02.09,0,.17.02.26.07,2.93,1.44,6.12,2.27,8.73,2.27,6.33,0,11.47-5.15,11.47-11.47s-5.15-11.52-11.47-11.52c-2.61,0-5.88.87-8.74,2.32-.06.03-.12.05-.19.05-.07,0-.14-.02-.21-.04-.05-.04-.13-.11-.15-.19v-21.84h53.34M180.87,59.85h-53.57v22.11c.05.18.22.31.27.36.08.03.2.07.34.07.09,0,.19-.02.29-.07,2.83-1.44,6.02-2.29,8.63-2.29,6.2,0,11.24,5.08,11.24,11.28s-5.03,11.24-11.24,11.24c-2.61,0-5.8-.85-8.63-2.25-.13-.07-.26-.09-.37-.09-.11,0-.2.02-.26.04-.05.04-.22.18-.27.36v22.11h21.84c1.8,0,3.46.9,4.4,2.43.94,1.57,1.03,3.46.22,5.08-1.12,2.16-1.8,4.67-1.8,6.56,0,3.73,3.01,6.79,6.74,6.79s6.79-3.06,6.79-6.79c0-1.84-.67-4.36-1.8-6.56-.81-1.57-.76-3.46.18-5.03.94-1.53,2.61-2.47,4.4-2.47h21.89v-53.57c0-5.12-4.18-9.3-9.3-9.3h0Z"/>
    </g>
    <g>
      <path class="cls-3" d="M100.91,122.66c-.25,0-.41-.08-.47-.24-.12-.19-.13-.37-.05-.58,1.44-2.74,2.3-5.97,2.3-8.63,0-6.29-5.11-11.4-11.4-11.4s-11.36,5.11-11.36,11.4c0,2.49.84,5.71,2.26,8.64.16.28.08.45,0,.56-.09.14-.2.26-.44.26h-21.81v-53.5c0-5.06,4.12-9.18,9.18-9.18h53.54v22.75s0,.09,0,.09c.05.14.09.23.14.33-.01.06.04.22.09.32.42,1.32,1.37,2.4,2.66,3.02.69.35,1.48.53,2.27.53s1.67-.2,2.42-.58c2.16-1.1,4.67-1.79,6.55-1.79,3.65,0,6.62,2.99,6.62,6.67s-2.97,6.62-6.62,6.62c-1.88,0-4.39-.68-6.55-1.78-.73-.37-1.55-.56-2.38-.56s-1.59.18-2.3.51c-1.52.74-2.58,2.08-2.9,3.68v.02s0,.11,0,.11c0,.06.02.11,0,.17v22.57h-21.78Z"/>
      <path class="cls-2" d="M122.56,60.09v22.52s.02.05.02.05l-.02.08v.11c.05.13.1.22.14.3.01.13.06.26.1.32.44,1.37,1.41,2.47,2.73,3.11.71.35,1.51.54,2.32.54s1.7-.2,2.47-.59c2.14-1.09,4.63-1.77,6.5-1.77,3.59,0,6.5,2.94,6.5,6.55s-2.92,6.5-6.5,6.5c-1.87,0-4.36-.68-6.5-1.77-.75-.37-1.59-.57-2.44-.57s-1.63.18-2.36.52c-1.55.75-2.63,2.13-2.97,3.81,0,.04,0,.08.01.12,0,.06.01.08,0,.11v.04s-.01.04-.01.04v22.41h-21.65c-.2,0-.32-.06-.39-.21-.09-.13-.1-.28-.03-.43,1.45-2.77,2.32-6.02,2.32-8.69,0-6.35-5.17-11.52-11.52-11.52s-11.47,5.17-11.47,11.52c0,2.5.85,5.75,2.28,8.7.12.21.07.33,0,.42-.08.12-.15.21-.34.21h-21.69v-53.38c0-5,4.07-9.07,9.07-9.07h53.43M122.8,59.85h-53.66c-5.12,0-9.3,4.18-9.3,9.3v53.62h21.93c.31,0,.45-.18.54-.31.09-.13.18-.36,0-.67-1.39-2.88-2.25-6.07-2.25-8.58,0-6.25,5.03-11.28,11.24-11.28s11.28,5.03,11.28,11.28c0,2.61-.85,5.84-2.29,8.58-.13.31-.05.54.04.67.09.22.31.31.58.31h21.89v-22.65c.05-.13,0-.22,0-.31.31-1.57,1.35-2.88,2.83-3.6.71-.33,1.48-.5,2.25-.5s1.6.18,2.33.55c2.2,1.12,4.72,1.8,6.61,1.8,3.73,0,6.74-3.01,6.74-6.74s-3.01-6.79-6.74-6.79c-1.89,0-4.4.67-6.61,1.8-.74.37-1.55.56-2.37.56-.76,0-1.52-.17-2.22-.52-1.3-.63-2.2-1.71-2.61-2.97-.05-.09-.09-.22-.09-.31-.04-.09-.09-.18-.13-.31,0-.04.05-.09,0-.18v-22.74h0Z"/>
    </g>
  </g>
</svg>