<?xml version="1.0" encoding="UTF-8"?>
<svg id="_レイヤー_1" data-name="レイヤー_1" xmlns="http://www.w3.org/2000/svg" viewBox="0 0 250 250">
  <defs>
    <style>
      .cls-1 {
        fill: #ecf3ff;
      }

      .cls-2 {
        fill: #1f3367;
      }
    </style>
  </defs>
  <circle class="cls-1" cx="125" cy="125" r="125"/>
  <g>
    <path class="cls-2" d="M67.33,163.55l3.48,23.28c.47,3.16,4.34,4.44,6.6,2.18l16.67-16.62c2.6-2.59,4.56-5.67,6.2-8.93l-32.61-10.78c-.62,3.59-.89,7.24-.34,10.86Z"/>
    <path class="cls-2" d="M132.32,68.39c1.49-4.53-.96-9.41-5.49-10.91l-17.31-5.72c-4.53-1.5-9.42.96-10.91,5.49l-27.65,83.63,33.72,11.15,27.64-83.63Z"/>
    <path class="cls-2" d="M179.28,179.31h-69.83c-3.14,0-5.69,2.54-5.69,5.69s2.54,5.69,5.69,5.69h69.83c3.14,0,5.69-2.54,5.69-5.69s-2.54-5.69-5.69-5.69Z"/>
    <path class="cls-2" d="M118.78,158.2c0,3.14,2.54,5.69,5.69,5.69h54.82c3.14,0,5.69-2.54,5.69-5.69s-2.54-5.69-5.69-5.69h-54.82c-3.14,0-5.69,2.54-5.69,5.69Z"/>
  </g>
</svg>