<?xml version="1.0" encoding="UTF-8"?>
<svg id="_レイヤー_2" data-name="レイヤー_2" xmlns="http://www.w3.org/2000/svg" viewBox="0 0 883.12 648.72">
  <defs>
    <style>
      .cls-1 {
        fill: #3199f0;
      }

      .cls-2 {
        fill: #fff;
      }

      .cls-3 {
        fill: none;
        stroke: #0d1828;
        stroke-miterlimit: 10;
      }

      .cls-4 {
        fill: #0d1828;
      }
    </style>
  </defs>
  <g id="_レイヤー_1-2" data-name="レイヤー_1">
    <g id="man">
      <g>
        <g>
          <g>
            <path class="cls-4" d="M830.73,418.39c-35.66,2.94-89.44,6.93-118.81,6.93s-80.54-4.15-112.75-7.1c-16.55-1.52-31.17,10.7-32.62,27.26l-17.39,198.74h297s16.91-193.32,16.91-193.32c1.62-18.52-13.82-34.04-32.34-32.51Z"/>
            <path class="cls-4" d="M549.16,648.72c-.13,0-.26,0-.4-.02-2.48-.22-4.31-2.4-4.09-4.88l17.39-198.74c.8-9.21,5.15-17.54,12.25-23.47,7.09-5.93,16.06-8.73,25.27-7.88,28.85,2.65,81.81,7.08,112.34,7.08,28.6,0,80.2-3.76,118.44-6.91,10.16-.84,20.1,2.83,27.29,10.05,7.19,7.22,10.8,17.19,9.91,27.34l-16.91,193.31c-.21,2.48-2.37,4.31-4.88,4.09-2.48-.22-4.31-2.4-4.09-4.88l16.91-193.31c.66-7.51-2.01-14.87-7.33-20.21-5.31-5.34-12.66-8.05-20.16-7.43-38.41,3.17-90.27,6.94-119.18,6.94s-77.73-3.87-113.16-7.12c-6.8-.63-13.43,1.44-18.67,5.82-5.24,4.38-8.46,10.54-9.05,17.35l-17.39,198.74c-.2,2.34-2.17,4.11-4.48,4.11Z"/>
          </g>
          <path class="cls-4" d="M817.04,648.72c-.13,0-.26,0-.4-.02-2.48-.22-4.31-2.4-4.09-4.88l11.04-126.13c.22-2.48,2.38-4.31,4.88-4.09,2.48.22,4.31,2.4,4.09,4.88l-11.04,126.13c-.2,2.34-2.17,4.11-4.48,4.11Z"/>
        </g>
        <path class="cls-4" d="M878.62,648.72H28.62c-2.49,0-4.5-2.01-4.5-4.5s2.01-4.5,4.5-4.5h850c2.49,0,4.5,2.01,4.5,4.5s-2.01,4.5-4.5,4.5Z"/>
        <g>
          <g>
            <g>
              <path class="cls-2" d="M643.89,294.46c-15.98-7.72-36.34-25.76-36.34-49.13v-94.85l-55.91,47.11-55.91,34.22v13.52c0,23.37-20.36,41.41-36.34,49.13-32.78,15.83-46.02,36.48-46.02,36.48l96.83,54.06h82.87l96.83-54.06s-13.24-20.65-46.02-36.48Z"/>
              <path class="cls-4" d="M593.09,389.51c-1.58,0-3.11-.83-3.93-2.31-1.21-2.17-.43-4.91,1.74-6.12l92.31-51.54c-5.38-6.49-18.44-20.01-41.26-31.03-19.35-9.35-38.88-29.42-38.88-53.18v-85.18l-48.51,40.88c-.17.15-.36.28-.55.4l-53.76,32.91v11c0,23.76-19.53,43.83-38.88,53.18-22.81,11.02-35.87,24.53-41.26,31.03l92.31,51.54c2.17,1.21,2.95,3.95,1.74,6.12-1.21,2.17-3.95,2.95-6.12,1.74l-96.83-54.06c-1.08-.6-1.87-1.63-2.17-2.83-.3-1.2-.09-2.48.58-3.52.57-.89,14.31-21.91,47.85-38.11,12.55-6.06,33.79-22.38,33.79-45.08v-13.52c0-1.57.81-3.02,2.15-3.84l55.62-34.04,55.65-46.89c1.34-1.13,3.21-1.38,4.8-.64,1.59.74,2.6,2.33,2.6,4.08v94.85c0,22.7,21.24,39.01,33.79,45.08,33.54,16.2,47.28,37.22,47.85,38.11.67,1.04.88,2.32.58,3.52-.3,1.2-1.09,2.23-2.17,2.83l-96.83,54.06c-.69.39-1.45.57-2.19.57Z"/>
            </g>
            <g>
              <path class="cls-2" d="M694.41,258.02l-46.37-14.51-8.61-3.24-27.13-34.8-10.37,13.78s-3.37,20.7-22.63,49.74c-28.03,42.27-60.36,56.81-60.36,56.81,0,0-30.68-18.89-34.16-46.44-27.5-17.56-38.15-38.29-38.15-38.29,0,0-15.78-4.38-44.52,19.92-22.02,18.61-39.11,62.92-49.78,97.29-12.16,39.2-94.81,285.94-94.81,285.94h440.2s33.72-198.01,38.78-220.29c16-70.46-42.09-165.92-42.09-165.92Z"/>
              <path class="cls-4" d="M257.52,648.72c-1.45,0-2.81-.7-3.65-1.87-.85-1.17-1.07-2.68-.61-4.06.83-2.47,82.77-247.15,94.78-285.85,15.67-50.49,32.89-83.93,51.17-99.39,29.7-25.11,46.78-21.33,48.63-20.82,1.21.34,2.23,1.16,2.8,2.28.1.19,10.54,19.94,36.56,36.55,1.13.72,1.88,1.9,2.04,3.23,2.66,21.09,23.36,37.15,30.01,41.8,7.55-4.05,33.49-19.71,56.29-54.1,18.4-27.74,21.91-47.79,21.94-47.99.12-.71.41-1.4.84-1.97l10.37-13.78c.84-1.12,2.16-1.78,3.56-1.79h.04c1.39,0,2.7.64,3.55,1.73l26.36,33.8,7.3,2.75,46.25,14.47c1.04.33,1.93,1.02,2.5,1.96.6.99,14.88,24.59,27.4,57.27,16.94,44.21,22.07,81.88,15.23,111.99-4.97,21.9-38.39,218.06-38.73,220.04-.37,2.16-2.24,3.74-4.44,3.74h-440.2ZM443.47,245.27c-4.75,0-17.98,1.86-38.44,19.16-16.71,14.13-33.44,47.04-48.38,95.18-10.99,35.4-80.19,242.25-92.86,280.11h430.15c4.81-28.2,33.49-196.07,38.19-216.78,14.36-63.23-33.65-149.02-40.7-161.15l-44.72-13.99c-.08-.03-.16-.05-.24-.08l-8.61-3.24c-.77-.29-1.45-.79-1.96-1.44l-23.52-30.16-6.21,8.25c-1.01,4.86-5.86,24.35-23.1,50.36-28.42,42.86-60.89,57.82-62.26,58.43-1.36.61-2.93.51-4.21-.27-1.3-.8-31.07-19.42-35.95-47.6-22.19-14.62-33.31-30.97-36.79-36.76-.12,0-.25,0-.38,0Z"/>
            </g>
            <path class="cls-4" d="M427.6,535.66c-1.67,0-3.28-.94-4.05-2.54-1.08-2.23-26.51-55.48-31.84-125.71-.19-2.48,1.67-4.64,4.15-4.83,2.49-.18,4.64,1.67,4.83,4.15,5.2,68.45,30.71,121.94,30.97,122.47,1.08,2.24.14,4.93-2.09,6.01-.63.31-1.3.45-1.96.45Z"/>
          </g>
          <g>
            <g>
              <path class="cls-1" d="M491.15,435.8c2.4-18.48,11.54-54.33,11.54-54.33h0l-8.46-36.03,11.52-13.62,23.19,5.93,9.64,12.51-14.56,31.48h0,0s-.37,33.86.04,57.86c.42,24,4.45,204.64,4.45,204.64h-45.55s7.02-199.38,8.19-208.42Z"/>
              <path class="cls-4" d="M528.5,648.72h-45.55c-1.22,0-2.39-.5-3.24-1.38-.85-.88-1.3-2.06-1.26-3.28.29-8.15,7.04-199.67,8.23-208.85h0c2.18-16.8,9.81-47.58,11.37-53.79l-8.21-34.97c-.33-1.39.02-2.85.94-3.93l11.52-13.62c1.11-1.32,2.88-1.88,4.55-1.46l23.19,5.93c.97.25,1.84.82,2.45,1.61l9.64,12.51c1.02,1.33,1.22,3.11.52,4.64l-14.15,30.61c-.06,5.69-.32,35.36.05,56.77.41,23.71,4.41,202.81,4.45,204.62.03,1.21-.44,2.38-1.28,3.25-.85.87-2.01,1.35-3.22,1.35ZM487.62,639.72h36.28c-.63-28.36-3.97-178.48-4.35-200.06-.41-23.79-.05-57.65-.04-57.98,0-.64.15-1.26.42-1.84l13.41-29.01-7.03-9.12-18.95-4.84-8.23,9.74,7.94,33.83c.08.34.12.68.12,1.03,0,.37-.05.76-.14,1.12-.37,1.46-9.12,35.97-11.43,53.79-.89,6.84-5.52,133.34-7.99,203.35ZM491.15,435.8h0,0Z"/>
            </g>
            <g>
              <path class="cls-4" d="M509.9,403.64c-.33,0-.66-.04-1-.13-2.14-.55-3.43-2.73-2.88-4.87l3.66-14.24c.55-2.14,2.73-3.43,4.87-2.88,2.14.55,3.43,2.73,2.88,4.87l-3.66,14.24c-.46,1.81-2.09,3-3.87,3Z"/>
              <path class="cls-4" d="M513.49,389.93c-.08,0-.16,0-.24,0-7.71-.09-12.98-4.59-13.55-5.1-1.86-1.65-2.02-4.5-.37-6.35,1.65-1.86,4.5-2.02,6.35-.37,0,0,3.27,2.77,7.68,2.82.04,0,.09,0,.13,0,4.34,0,7.61-2.63,7.65-2.66,1.91-1.56,4.74-1.31,6.32.59,1.58,1.9,1.35,4.7-.53,6.3-.58.49-5.85,4.77-13.43,4.77Z"/>
            </g>
          </g>
          <path class="cls-4" d="M564.19,387.97c-1.39,0-2.71-.64-3.56-1.75l-34.31-44.51-18.95-4.84-32.18,38.07c-1.2,1.42-3.16,1.96-4.92,1.34-1.76-.61-2.96-2.25-3.02-4.11l-1.85-59.11c-.08-2.48,1.87-4.56,4.36-4.64,2.47-.11,4.56,1.87,4.64,4.36l1.48,47.39,26.43-31.27c1.11-1.32,2.88-1.88,4.55-1.45l23.19,5.93c.97.25,1.84.82,2.45,1.61l31,40.21c9.83-18.66,38.81-74.91,44.31-99.48.54-2.43,2.95-3.95,5.37-3.41,2.43.54,3.95,2.95,3.41,5.37-6.88,30.75-46.74,104.8-48.43,107.93-.72,1.34-2.08,2.22-3.6,2.35-.12,0-.24.01-.36.01Z"/>
          <path class="cls-3" d="M550.3,283.85c.06-.03.09-.05.09-.05l.07.1-.16-.05Z"/>
          <path class="cls-3" d="M519.31,282.85c.06-.03.09-.05.09-.05l.07.1-.16-.05Z"/>
          <path class="cls-4" d="M623.26,258.52c-1.9,0-3.66-1.21-4.28-3.11l-6.85-21.1c-.77-2.36.53-4.9,2.89-5.67,2.37-.77,4.9.53,5.67,2.89l6.85,21.1c.77,2.36-.53,4.9-2.89,5.67-.46.15-.93.22-1.39.22Z"/>
          <g>
            <g>
              <g>
                <path class="cls-2" d="M511.68,297.39c-4.67-10.41-28.8-10.61-28.8-10.61,0,0-95.79-8.03-105.49-4.2-9.7,3.84-68.72,79.78-68.72,79.78l51.28,28.06,36.63-53.8s15.72,11.16,38.74,10.15c13.6-.6,26.86-2.68,26.86-2.68l11.72,10.51s-4.83,4.36-8.91,13.36c-5.81,12.83,3.69,19.3,10.78,15.13,7.02-4.14,12.17-8.71,21.89-18.48,7.36-7.4,2.56-14.83,2.56-14.83,0,0,5.99-5.13,9.66-14.85,5.55-14.67,2.52-22.13,2.52-22.13,0,0,3.93-4.99-.74-15.4Z"/>
                <path class="cls-4" d="M359.95,394.92c-.87,0-1.75-.25-2.53-.78-2.05-1.4-2.59-4.2-1.19-6.25l36.63-53.8c.68-1,1.73-1.68,2.92-1.9,1.19-.21,2.41.06,3.4.76.14.1,14.85,10.25,35.94,9.32,13.17-.58,26.23-2.61,26.36-2.63,1.33-.21,2.69.19,3.7,1.09l11.72,10.51c.95.85,1.5,2.07,1.5,3.34,0,1.28-.54,2.49-1.48,3.35-.02.02-4.24,3.97-7.82,11.87-1.84,4.06-1.86,7.59-.07,9.2,1.15,1.03,2.9,1.11,4.46.2,6.2-3.65,10.91-7.64,20.98-17.77,4.75-4.78,2.09-9.04,1.97-9.22-1.22-1.89-.85-4.39.85-5.86.04-.03,5.2-4.62,8.38-13.03,4.72-12.47,2.55-18.87,2.53-18.93-.75-1.64-.6-3.01.6-4.32.32-.59,1.84-3.97-1.25-10.85-2.4-5.34-15.91-7.87-24.73-7.95-.11,0-.22,0-.34-.02-46.26-3.88-97.61-6.62-103.47-4.49-5.8,2.71-38.54,41.97-66.81,78.36-1.52,1.96-4.35,2.32-6.31.79-1.96-1.52-2.32-4.35-.79-6.31.15-.19,14.97-19.26,30.8-38.55,32.67-39.83,37.68-41.82,39.82-42.66,10.13-4.01,90.81,2.5,107.36,3.88,3.49.05,27.1.82,32.69,13.27,3.95,8.8,2.72,14.76,1.44,17.78.75,3.6,1.35,11.4-3.12,23.19-2.57,6.79-6.19,11.59-8.55,14.25,1.34,4.41,1.27,11.02-4.7,17.02-9.55,9.6-15.1,14.65-22.79,19.18-4.93,2.9-10.97,2.4-15.04-1.26-4.9-4.4-5.69-11.73-2.12-19.61,2.25-4.96,4.74-8.66,6.67-11.13l-6.82-6.11c-4.33.62-14.61,1.95-25.23,2.42-17.69.78-31.26-5.13-37.62-8.59l-34.23,50.28c-.87,1.28-2.29,1.97-3.72,1.97Z"/>
              </g>
              <path class="cls-4" d="M500.24,354.27c-1.52,0-3.01-.77-3.86-2.17l-4.94-8.18c-1.29-2.13-.6-4.89,1.53-6.18,2.13-1.28,4.89-.6,6.18,1.53l4.94,8.18c1.29,2.13.6,4.89-1.53,6.18-.73.44-1.53.65-2.32.65Z"/>
              <path class="cls-4" d="M477.46,366.47c-1.67,0-3.28-.94-4.06-2.55l-3.55-7.37c-1.08-2.24-.14-4.93,2.1-6.01,2.24-1.08,4.93-.14,6.01,2.1l3.55,7.37c1.08,2.24.14,4.93-2.1,6.01-.63.3-1.29.45-1.95.45Z"/>
            </g>
            <g>
              <path class="cls-2" d="M325.91,318.55c-15.08,19.72-54.11,70.05-85.66,116.5-32.3,45.8-8.69,77.51,8.01,86.28,23.25,12.22,71.78-3.62,71.78-3.62l22.79-55.3,29.7-59.13,20.65-31.36s-33.07-17.2-67.27-53.38Z"/>
              <path class="cls-4" d="M272.06,530.44c-9.5,0-18.72-1.35-25.9-5.13-9.37-4.92-20.85-16.29-24.97-33.41-3.08-12.8-2.92-33.51,15.38-59.45,28.49-41.97,63.75-87.94,80.7-110.03,1.9-2.47,3.6-4.69,5.07-6.61.8-1.05,2.02-1.69,3.34-1.76,1.31-.08,2.6.44,3.51,1.4,33.22,35.14,65.76,52.31,66.08,52.48,1.13.59,1.96,1.63,2.28,2.86.32,1.23.1,2.54-.6,3.61l-20.5,31.14-29.59,58.89c-1.12,2.22-3.82,3.12-6.04,2-2.22-1.12-3.12-3.82-2-6.04l29.7-59.13c.08-.16.17-.31.26-.46l17.99-27.32c-9.73-5.68-34.33-21.32-60.47-48.05-.6.79-1.23,1.61-1.89,2.46-16.89,22.03-52.04,67.86-80.44,109.68-12.99,18.42-17.82,36.45-14.03,52.22,3.42,14.22,13.13,23.73,20.41,27.55,21.29,11.19,67.82-3.77,68.29-3.92,2.36-.77,4.9.52,5.67,2.88.77,2.36-.52,4.9-2.88,5.67-1.46.48-26.27,8.45-49.37,8.45Z"/>
            </g>
            <path class="cls-4" d="M345.54,390.72c-.84,0-1.68-.23-2.44-.72-25.09-16.2-43.35-36.81-44.11-37.67-1.64-1.87-1.46-4.71.41-6.35,1.86-1.64,4.71-1.46,6.35.4.18.2,18.23,20.56,42.24,36.06,2.09,1.35,2.69,4.13,1.34,6.22-.86,1.33-2.31,2.06-3.78,2.06Z"/>
          </g>
          <g>
            <g>
              <g>
                <path class="cls-2" d="M534.91,31.04c-22.9-2.3-51.93,4.56-70.08,20.57-38.34,33.8-44.16,84.02-44.02,104.33.09,9.85,2.22,20.98.2,44.16-3.97,45.35,34.43,90.35,54.79,92.34,34.56,3.38,79.04-31.8,79.04-31.8l38.63-48.48,2.62-29.94s1.67-19.1,3.27-39.37c2.37-30.08-.26-105.37-64.43-111.82Z"/>
                <path class="cls-4" d="M475.87,296.97c-.17-.02-.34-.03-.51-.05-24.52-2.4-62.85-51.34-58.84-97.21,1.42-16.25.76-26.37.22-34.51-.21-3.23-.41-6.29-.44-9.22-.08-11.22,1.75-69.13,45.55-107.75,20.44-18.02,51.66-23.89,73.51-21.67,29.2,2.94,50.28,20.23,60.95,50.01,9.44,26.35,8.4,55.38,7.52,66.64-1.58,20.05-3.25,39.21-3.27,39.4l-2.62,29.94c-.22,2.48-2.4,4.31-4.88,4.09-2.48-.22-4.31-2.4-4.09-4.88l2.62-29.94c.02-.19,1.69-19.32,3.26-39.33.84-10.68,1.84-38.19-7.02-62.9-9.55-26.65-27.51-41.49-53.38-44.09-19.92-1.97-48.25,3.24-66.65,19.47-40.87,36.03-42.57,90.39-42.5,100.92.02,2.67.21,5.46.42,8.7.55,8.45,1.24,18.96-.24,35.89-3.7,42.26,32.66,85.7,50.75,87.47,32.3,3.18,75.38-30.51,75.81-30.85,1.95-1.54,4.78-1.21,6.32.74,1.54,1.95,1.21,4.78-.74,6.32-1.86,1.47-45.89,35.93-81.75,32.79Z"/>
              </g>
              <g>
                <path class="cls-1" d="M564.51,29.51c-7.4-14.11-39.33-25.1-81.1-12.5-18.73,5.65-43.76,20.57-51.11,26.56l8.76,2.45h0c-9.71,9.03-32.25,32.63-26.54,77.69,1.49,11.75,6.32,28.43,6.32,28.43,0,0,4.77-17.55,7.41-22.17,8.43-14.73,31.2-30.28,31.2-30.28l-5.31,17.68s31.46-15.3,40.87-26.46c5.93,1.69-13.15,27.19-13.15,27.19,0,0,19.21-.56,38.75-15.14,19.55-14.57,26.09-28.95,26.09-28.95l11.55,10.76s5.39,8.13,7.64,33.31c2.15,77.37,18.12,58.07,18.12,58.07l12.49.96-1.57,18.01,25.36,2.03s34.05-56.62,10.19-118.04c-12.38-31.87-40.29-53.47-65.98-49.6Z"/>
                <path class="cls-4" d="M594.56,199.6c-1.18-.1-2.28-.67-3.04-1.58-.77-.92-1.15-2.1-1.05-3.3l1.18-13.48-6.05-.47c-2.07,1.51-5.16,2.71-8.62,1.53-6.47-2.23-14.09-11.52-15.56-63.96-2.09-23.13-6.89-31.07-6.94-31.15-1.37-2.07-.79-4.84,1.28-6.21,2.07-1.37,4.88-.78,6.25,1.29.62.93,6.08,9.82,8.37,35.39,0,.09.01.18.02.28,1.4,50.21,8.73,55.43,9.44,55.82.26-.09.67-.44.71-.49.93-1.13,2.35-1.73,3.81-1.62l12.49.96c1.21.12,2.31.66,3.09,1.58.78.92,1.16,2.1,1.05,3.3l-1.18,13.49,17.94,1.44c5.88-11.22,28.59-60.07,8.53-111.69-11.71-30.15-37.99-50.26-61.12-46.78-1.9.29-3.77-.66-4.66-2.36-6.29-12-36.14-22.25-75.82-10.28-13.65,4.12-31.3,13.6-42.08,20.49,1.09.41,2.01,1.23,2.52,2.34.81,1.76.4,3.85-1.02,5.17-20.47,19.05-28.93,43.89-25.14,73.83.48,3.77,1.32,8.11,2.24,12.22,1.09-3.16,2.19-6,3.12-7.63,8.84-15.45,31.61-31.11,32.57-31.77,1.57-1.08,3.66-1.04,5.19.08,1.54,1.13,2.2,3.1,1.65,4.92l-2.26,7.52c10.54-5.7,24.77-14.2,30.07-20.5,1.14-1.35,2.97-1.91,4.67-1.43,1.93.55,3.4,1.96,4.05,3.86.91,2.69.7,6.83-6.91,18.84-.57.9-1.14,1.78-1.7,2.63,6.9-1.76,16.56-5.33,26.25-12.55,18.24-13.6,24.62-27.08,24.69-27.22,1.04-2.25,3.71-3.24,5.96-2.2,2.25,1.03,3.25,3.69,2.22,5.95-.29.63-7.25,15.6-27.49,30.69-20.45,15.25-40.47,16-41.31,16.03-1.72.05-3.33-.89-4.12-2.42-.8-1.53-.64-3.39.39-4.77,2.74-3.67,5.37-7.52,7.56-11-12.74,8.72-28.77,16.56-29.71,17.01-1.61.78-3.52.54-4.88-.62-1.36-1.16-1.91-3.01-1.39-4.72l1.31-4.36c-6.72,5.59-14.84,13.23-18.99,20.49-1.71,3-5.19,14.54-6.97,21.11-.53,1.95-2.29,3.3-4.3,3.32-2.02.01-3.8-1.31-4.36-3.25-.2-.69-4.95-17.15-6.46-29.11-3.82-30.16,3.71-55.68,22.4-75.99l-1.38-.39c-1.62-.45-2.85-1.77-3.19-3.42-.34-1.65.26-3.34,1.56-4.41,7.61-6.2,33.09-21.48,52.65-27.38,25.03-7.55,44.08-6.27,55.66-3.86,13.38,2.78,23.75,8.49,29.06,15.88,26.77-2.22,54.93,19.47,67.87,52.76,12.76,32.84,9.23,64.23,4.02,84.79-5.63,22.22-14.19,36.6-14.55,37.2-.88,1.46-2.51,2.3-4.22,2.17l-25.36-2.03s-.02,0-.03,0Z"/>
              </g>
              <g>
                <path class="cls-2" d="M590.85,166.88c-5.76,4.9-7.6,11.31-7.6,11.31l-5.01,49.32c19.5,6.9,43.08-11.8,44.98-33.51,2.98-34.1-25.02-33.36-32.37-27.12Z"/>
                <path class="cls-4" d="M584.05,233.34c-2.51-.22-4.96-.74-7.32-1.58-2.34-.83-3.57-3.4-2.74-5.74s3.4-3.57,5.74-2.74c6.86,2.43,15.06,1.07,22.5-3.71,9.3-5.98,15.62-15.93,16.49-25.95,1.05-12.04-1.97-20.25-8.75-23.75-6.4-3.31-13.97-1.46-16.22.45-4.6,3.9-6.17,9.07-6.19,9.12-.68,2.39-3.18,3.77-5.56,3.09-2.39-.68-3.77-3.17-3.09-5.56.09-.32,2.29-7.79,9.01-13.5,5.32-4.52,16.85-6.42,26.18-1.59,5.87,3.03,15.44,11.29,13.58,32.53-1.11,12.74-9,25.28-20.59,32.73-7.37,4.74-15.46,6.87-23.06,6.21Z"/>
              </g>
            </g>
            <path class="cls-4" d="M528.4,157.09c-.15,0-.29,0-.44-.02-2.96-.33-29.25-3.43-39.17-11.91-1.68-1.43-1.88-3.96-.44-5.64,1.43-1.68,3.96-1.88,5.64-.44,6.83,5.83,27.47,9.23,34.85,10.04,2.2.24,3.78,2.22,3.54,4.41-.23,2.05-1.96,3.56-3.97,3.56Z"/>
            <path class="cls-4" d="M519.86,177.81c-.24,0-.49-.02-.74-.07l-24.57-4.59c-2.17-.41-3.6-2.5-3.2-4.67.41-2.17,2.5-3.6,4.67-3.2l24.57,4.59c2.17.41,3.6,2.5,3.2,4.67-.36,1.92-2.04,3.27-3.93,3.27Z"/>
            <path class="cls-4" d="M477.37,260.16c-.93,0-1.87-.33-2.63-.99-.1-.09-11.15-9.53-22.31-7.75-2.18.35-4.23-1.14-4.58-3.32-.35-2.18,1.14-4.23,3.32-4.58,14.9-2.37,28.27,9.14,28.83,9.63,1.66,1.45,1.83,3.98.38,5.64-.79.9-1.9,1.37-3.01,1.37Z"/>
            <path class="cls-4" d="M453.34,170.25c-.06,0-.12,0-.18,0l-16.06-.71c-2.21-.1-3.92-1.97-3.82-4.17.1-2.21,1.95-3.91,4.17-3.82l16.06.71c2.21.1,3.92,1.97,3.82,4.17-.1,2.15-1.87,3.82-3.99,3.82Z"/>
            <path class="cls-4" d="M440.25,147.01c-3.51,0-6.21-.3-6.86-.38-2.19-.27-3.75-2.26-3.49-4.46.27-2.19,2.26-3.75,4.46-3.49,4.98.6,14.41.55,18.49-2.13,1.85-1.21,4.33-.7,5.54,1.15,1.21,1.85.7,4.33-1.15,5.54-4.71,3.09-11.75,3.76-17,3.76Z"/>
            <path class="cls-4" d="M464.07,218.24c0-1.58-2.67-2.16-5.2-4.27-2.44-2.25-3.55-4.97-4.95-4.62-1.45.36-4.22,6.08.63,10.58,5.07,4.2,9.52-.05,9.53-1.68Z"/>
            <path class="cls-4" d="M464.81,175.93c-.72,0-1.44-.19-2.1-.6-1.88-1.16-2.46-3.62-1.3-5.5.22-.38,5.71-9.77-1.89-18.47-1.45-1.66-1.29-4.19.38-5.64,1.66-1.46,4.19-1.29,5.64.38,9.24,10.56,5.79,22.89,2.68,27.94-.76,1.23-2.07,1.9-3.41,1.9Z"/>
            <path class="cls-4" d="M485.52,148.92c-1.63,0-3.16-1-3.75-2.62l-2.78-7.56c-.76-2.07.3-4.37,2.37-5.13,2.07-.76,4.37.3,5.13,2.37l2.78,7.56c.76,2.07-.3,4.37-2.37,5.13-.46.17-.92.25-1.38.25Z"/>
          </g>
          <g>
            <g>
              <path class="cls-2" d="M558.58,577.16s-25.31-5.19-49.5-13.36c-22.9-7.74-51.62-18.11-58.01-17.83-13.15.58-49.33,14.74-49.33,14.74l-13.62,13.6s-22,19.65-18.28,26.03c1.98,3.4,6.16,2.94,6.16,2.94,0,0-3.96,4.58-.68,8.55,3.27,3.97,10.08,1.18,10.08,1.18,0,0-1.69,5.37,5.28,9,7.47,3.89,30.24-11.05,30.24-11.05,0,0-4.15,9.21,3.06,11.87,12.26,4.54,36.27-9.38,36.27-9.38l25.29-5.21s17.16,15.1,40.98,17.69c23.81,2.58,38.55-1.54,38.55-1.54l64.23,6.35-11.33-53.13-59.38-.44Z"/>
              <path class="cls-4" d="M629.73,626.24l-64.23-6.35c-.55-.06-1.11,0-1.65.14-.14.04-14.34,3.85-36.86,1.4-22.02-2.39-38.33-16.45-38.49-16.59-1.06-.93-2.5-1.31-3.88-1.03l-25.29,5.21c-.47.1-.93.27-1.35.51-8.58,4.97-24.98,11.82-32.45,9.06-.87-.32-1.02-.68-1.1-.87-.38-.9-.18-2.43.16-3.68l23.13-12.94,26.2-8.4c2.37-.76,3.67-3.29,2.91-5.66s-3.29-3.67-5.66-2.91l-26.63,8.54c-.29.09-.56.21-.82.36l-25,13.99s-.07.05-.11.08c-.05.03-.11.05-.16.09-10.57,6.92-23.05,12.18-25.7,10.82-1.82-.95-2.58-1.91-2.87-2.65l34.04-23.68,37.86-13.85c2.33-.85,3.53-3.44,2.68-5.77-.85-2.33-3.44-3.53-5.77-2.68l-38.41,14.05c-.36.13-.71.31-1.02.53l-35.95,25.01c-1.3.43-3.83.83-4.52,0-.64-.77.13-2.04.47-2.53l34.1-27.84,38.38-14.09c2.33-.86,3.53-3.44,2.67-5.78-.86-2.33-3.45-3.53-5.78-2.67l-39.08,14.35c-.47.17-.91.42-1.29.74l-33.71,27.52c-.22-.07-.44-.17-.61-.33.45-3.21,8.42-12.83,17.18-20.66.06-.06.12-.11.18-.17l12.95-12.93c10.54-4.08,37.13-13.66,47.02-14.1,4.39-.2,27.21,7.62,43.85,13.33,4.25,1.46,8.48,2.91,12.52,4.27,24.17,8.17,49.78,13.45,50.04,13.51.29.06.58.09.87.09l59.38.44h.03c2.47,0,4.48-1.99,4.5-4.47.02-2.49-1.98-4.51-4.47-4.53l-58.93-.43c-3.39-.72-26.58-5.71-48.54-13.13-4.03-1.36-8.24-2.81-12.48-4.26-25.54-8.76-41.49-14.07-47.17-13.8-13.74.6-49.27,14.46-50.78,15.05-.58.23-1.1.57-1.54,1.01l-13.53,13.51c-.79.72-5.97,5.42-10.81,10.91-8.45,9.58-11,15.95-8.26,20.65,1.01,1.72,2.34,2.91,3.76,3.72-.5,2.61-.16,5.6,2.13,8.37,2.57,3.11,6.25,3.91,9.59,3.73.98,2.66,3.1,5.45,7.16,7.57,6.53,3.4,18.25-1.66,26.97-6.53.14.58.32,1.16.56,1.74,1.14,2.73,3.31,4.75,6.29,5.85,13.06,4.83,34.79-6.72,39.44-9.34l22.49-4.64c5.16,4.04,20.95,15.07,41.68,17.32,21.43,2.33,35.77-.59,39.38-1.46l63.45,6.27c.15.02.3.02.45.02,2.29,0,4.24-1.74,4.47-4.06.24-2.47-1.56-4.68-4.04-4.92Z"/>
            </g>
            <g>
              <path class="cls-2" d="M688.46,256.16l-27.83,168.54,20.99,98.12-10.47,11.95,1.48,13.33-62.9,18.53s-21.33.74-40,.74c28.67,31.78,27.56,76.85,27.56,76.85h190.2s25.31-5.56,25.29-44.54c0-27.68-41.27-211.93-53.48-265.69-14.67-64.56-70.84-77.84-70.84-77.84Z"/>
              <path class="cls-4" d="M787.49,648.72h-190.2c-1.21,0-2.37-.49-3.22-1.36-.85-.87-1.31-2.04-1.28-3.25,0-.43.68-43.71-26.4-73.72-1.19-1.32-1.49-3.22-.77-4.84.72-1.62,2.33-2.67,4.11-2.67,16.7,0,35.77-.61,39.28-.72l58.74-17.3-1.07-9.59c-.14-1.26.25-2.51,1.09-3.46l8.98-10.25-20.51-95.91c-.52-2.43,1.03-4.82,3.46-5.34,2.43-.52,4.82,1.03,5.34,3.46l20.99,98.12c.3,1.39-.08,2.84-1.01,3.91l-9.16,10.46,1.26,11.36c.24,2.17-1.11,4.2-3.2,4.81l-62.9,18.53c-.36.11-.74.17-1.11.18-.18,0-15.06.52-30.74.69,18.97,25.81,22.09,56.41,22.56,67.9h185.2c3.01-.88,21.38-7.62,21.37-40.03,0-22.01-28.75-156.34-53.37-264.69-13.88-61.12-66.95-74.33-67.49-74.46-2.42-.57-3.92-3-3.34-5.42.57-2.42,3-3.91,5.41-3.34.61.14,15.1,3.66,31.51,15.43,15.12,10.85,34.8,31.06,42.69,65.79,8.95,39.39,53.58,237.35,53.59,266.68.01,42.12-27.65,48.67-28.83,48.93-.32.07-.64.1-.96.1Z"/>
            </g>
            <path class="cls-4" d="M751.75,581.79c-1.27,0-2.52-.53-3.41-1.56-13.91-16.16-42.11-33.78-50.06-38.59l-9.99,5.27c-2.2,1.16-4.92.32-6.08-1.88-1.16-2.2-.32-4.92,1.88-6.08l12.22-6.44c1.37-.72,3.02-.69,4.36.09,1.51.88,37.3,21.8,54.48,41.77,1.62,1.88,1.41,4.73-.48,6.35-.85.73-1.89,1.09-2.93,1.09Z"/>
            <path class="cls-4" d="M656.05,387.97c-.18,0-.37-.01-.56-.03-2.47-.31-4.22-2.55-3.91-5.02.28-2.3,7.2-56.66,29.18-89.39,1.39-2.06,4.18-2.61,6.24-1.23,2.06,1.39,2.61,4.18,1.23,6.24-20.77,30.93-27.65,84.93-27.71,85.47-.28,2.28-2.22,3.95-4.46,3.95Z"/>
            <path class="cls-4" d="M693.74,517.42c-.92,0-1.84-.28-2.64-.86-2.01-1.46-2.46-4.27-1-6.29l51.78-71.33c1.46-2.01,4.27-2.46,6.29-1,2.01,1.46,2.46,4.27,1,6.29l-51.78,71.33c-.88,1.21-2.25,1.86-3.65,1.86Z"/>
            <path class="cls-4" d="M634.03,627.73c-2.12,0-4-1.5-4.42-3.66-1.45-7.59-5.76-28.48-8.25-33.83-4.23-9.08-14.8-20.42-14.91-20.54-1.7-1.81-1.61-4.66.21-6.36,1.81-1.7,4.66-1.61,6.36.21.47.51,11.66,12.5,16.5,22.89,3.41,7.33,8.38,33.03,8.93,35.94.47,2.44-1.13,4.8-3.58,5.26-.29.05-.57.08-.85.08Z"/>
          </g>
        </g>
        <g>
          <g>
            <path class="cls-2" d="M14.5,372.27h341.4c4.69,0,8.75,3.26,9.76,7.84l53.27,240.81h90.01c5.52,0,10,4.48,10,10v13.3H57.05v-23.3L4.74,384.43c-1.38-6.24,3.37-12.16,9.76-12.16Z"/>
            <path class="cls-4" d="M518.95,648.72H57.05c-2.49,0-4.5-2.01-4.5-4.5v-22.81L.35,385.4c-.95-4.31.08-8.77,2.85-12.21,2.77-3.45,6.89-5.42,11.31-5.42h341.4c6.85,0,12.68,4.67,14.16,11.37l52.49,237.28h86.39c8,0,14.5,6.5,14.5,14.5v13.3c0,2.49-2.01,4.5-4.5,4.5ZM61.55,639.72h452.89v-8.8c0-3.03-2.47-5.5-5.5-5.5h-90.01c-2.11,0-3.94-1.47-4.39-3.53l-53.27-240.81c-.56-2.54-2.77-4.31-5.37-4.31H14.5c-1.68,0-3.24.75-4.29,2.06-1.05,1.31-1.44,2.99-1.08,4.63l52.31,236.49c.07.32.11.65.11.97v18.8Z"/>
          </g>
          <path class="cls-4" d="M388.82,625.42H57.05c-2.49,0-4.5-2.01-4.5-4.5s2.01-4.5,4.5-4.5h331.77c2.49,0,4.5,2.01,4.5,4.5s-2.01,4.5-4.5,4.5Z"/>
        </g>
      </g>
      <path class="cls-4" d="M380.89,100.57c-9.67,0-17.34-6.05-19.12-14.55-4.37.33-8.76-.52-11.71-3.05-3.33-2.85-5.2-6.95-5.43-11.83-.01-.3-.02-.61-.02-.92-3.68.48-7.14.61-9.92.44-8.41-.52-12.79-6.3-14.23-8.2-3.49-4.6-3.73-10.76-.67-17.37-7.89-1.59-14.73-5.86-18.36-11.47-2.81-4.34-3.64-9.37-2.41-14.53,3.21-13.47,19.68-17.96,30.34-16.02,6.32,1.15,14.04,4.91,16.72,12.02.97,2.58-.06,4.43-.56,5.11-1.75,2.42-4.51,2.3-6.72,2.2-3.65-.16-6.38-.04-8.24,2.98-1.42,2.31-1.41,4.58-.18,7.32.93-.57,1.89-1.06,2.87-1.47,3.95-1.66,11.23-4.72,16.14-.88.62.49,1.19,1.08,1.68,1.74.38-.35.75-.73,1.1-1.14,2.6-2.99,4.77-8.17,3.75-13.01-.83-3.95-3.71-7.1-8.55-9.36-2.25-1.05-3.22-3.73-2.17-5.98,1.05-2.25,3.73-3.22,5.98-2.17,9.39,4.39,12.55,10.94,13.54,15.66,1.78,8.42-2,16.46-5.77,20.78-1.71,1.97-3.59,3.47-5.51,4.63-.35,3.2-1.84,5.84-4.16,7.33-5.56,3.57-15.48,3.39-20.2-2.1-.34.57-.66,1.17-.96,1.79-1.24,2.54-2.32,6.08-.49,8.5,2.37,3.12,4.57,4.47,7.62,4.65,3.28.2,7.24-.1,11.1-.82,1.38-3.85,3.52-7.48,6.13-10.18.08-.08,8.23-7.91,14.27-4.68,2.12,1.13,3.49,3.09,3.84,5.51.58,4.04-1.8,8.06-3.54,9.78-3.27,3.22-8.13,5.52-13.33,7.04-.1.81-.13,1.61-.09,2.4.11,2.38.88,4.2,2.3,5.42.85.73,3.12,1.13,5.69.86.39-3.58,1.33-7.26,3.36-9.8,2.11-2.65,5.2-3.74,8.09-2.85,3.01.92,5.05,3.75,5.32,7.36.37,4.89-2.42,9.23-7.68,11.89-.07.04-.14.07-.21.11.79,5.17,5.65,7.87,10.4,7.87,2.49,0,4.5,2.01,4.5,4.5s-2.01,4.5-4.5,4.5ZM324.43,11.64c-6.74,0-15.12,3.11-16.65,9.53-.66,2.79-.27,5.26,1.22,7.56,2.3,3.56,7.34,6.54,12.83,7.59.12.02.25.05.38.07-2.09-4.69-2.77-10.1.7-15.73,2.8-4.54,6.63-6.3,10.07-6.96-1.67-.87-3.53-1.48-5.22-1.78-1.03-.19-2.15-.28-3.32-.28Z"/>
    </g>
  </g>
</svg>