<svg id="グループ_360" data-name="グループ 360" xmlns="http://www.w3.org/2000/svg" xmlns:xlink="http://www.w3.org/1999/xlink" width="143.2" height="143.2" viewBox="0 0 143.2 143.2">
  <defs>
    <clipPath id="clip-path">
      <rect id="長方形_188" data-name="長方形 188" width="99.638" height="77.346" fill="#153364"/>
    </clipPath>
  </defs>
  <path id="パス_128" data-name="パス 128" d="M71.6,0A71.6,71.6,0,1,1,0,71.6,71.6,71.6,0,0,1,71.6,0Z" fill="#ebf3ff"/>
  <g id="グループ_369" data-name="グループ 369" transform="translate(27 38.927)">
    <g id="グループ_368" data-name="グループ 368" clip-path="url(#clip-path)">
      <path id="パス_129" data-name="パス 129" d="M99.638,54.3V46.276l-7.66-.824a19.878,19.878,0,0,0-2.267-5.457l4.838-6-5.673-5.673-6,4.838a19.876,19.876,0,0,0-5.457-2.266l-.824-7.661H75V5.4A5.4,5.4,0,0,0,69.6,0H5.4A5.4,5.4,0,0,0,0,5.4V54.6A5.4,5.4,0,0,0,5.4,60H55.1c.11.2.235.386.352.579l-4.838,6,5.673,5.674,6-4.839a19.847,19.847,0,0,0,5.457,2.267l.824,7.66h8.023l.824-7.66a19.834,19.834,0,0,0,5.457-2.267l6,4.839,5.674-5.674-4.839-6a19.865,19.865,0,0,0,2.267-5.457ZM60.59,50.288a11.99,11.99,0,1,1,11.99,11.99,12,12,0,0,1-11.99-11.99M23.008,5.437a2.5,2.5,0,1,1-2.5,2.5,2.5,2.5,0,0,1,2.5-2.5m-7.42,0a2.5,2.5,0,1,1-2.5,2.5,2.5,2.5,0,0,1,2.5-2.5m-7.419,0a2.5,2.5,0,1,1-2.5,2.5,2.5,2.5,0,0,1,2.5-2.5m-2.5,10.438H69.331v7.354h-.763l-.824,7.661a19.876,19.876,0,0,0-5.457,2.266l-6-4.838L50.61,33.991l4.838,6a19.9,19.9,0,0,0-2.267,5.458l-7.66.823V54.3l.3.031H5.669Z" transform="translate(0 0)" fill="#153364"/>
    </g>
  </g>
</svg>
