<svg xmlns="http://www.w3.org/2000/svg" xmlns:xlink="http://www.w3.org/1999/xlink" width="91" height="91" viewBox="0 0 91 91">
  <defs>
    <clipPath id="clip-path">
      <rect id="長方形_212" data-name="長方形 212" width="32.285" height="69.755" fill="none"/>
    </clipPath>
  </defs>
  <g id="グループ_438" data-name="グループ 438" transform="translate(-3101 -3919)">
    <circle id="楕円形_30" data-name="楕円形 30" cx="45.5" cy="45.5" r="45.5" transform="translate(3101 3919)" fill="#ecf3fe"/>
    <g id="グループ_430" data-name="グループ 430" transform="matrix(0.875, -0.485, 0.485, 0.875, 3117.824, 3938.83)">
      <g id="グループ_429" data-name="グループ 429" transform="translate(-2 -2)" clip-path="url(#clip-path)">
        <path id="パス_170" data-name="パス 170" d="M28.812,59.2H.82A.82.82,0,0,1,0,58.386V21.6a.828.828,0,0,1,.113-.411L7.819,7.958a.822.822,0,0,1,.708-.407l12.583,0a.816.816,0,0,1,.706.407l7.7,13.226a.828.828,0,0,1,.113.411V58.386a.82.82,0,0,1-.82.818M1.639,57.568H27.994V21.818L20.64,9.19,9,9.188,1.639,21.818Z" transform="translate(1.327 9.224)" fill="#153364" stroke="#153364" stroke-width="2"/>
        <path id="パス_171" data-name="パス 171" d="M9.715,21.142a4.835,4.835,0,1,1,4.832-4.834,4.84,4.84,0,0,1-4.832,4.834m0-8.034a3.2,3.2,0,1,0,3.2,3.2,3.2,3.2,0,0,0-3.2-3.2" transform="translate(6.43 13.325)" fill="#153364" stroke="#153364" stroke-width="1"/>
        <path id="パス_172" data-name="パス 172" d="M3.385,25.507a4.736,4.736,0,0,1,.188-1.346,3.288,3.288,0,0,1,.571-1.115,2.689,2.689,0,0,1,.964-.759,3.184,3.184,0,0,1,1.379-.28,3.131,3.131,0,0,1,1.373.28,2.819,2.819,0,0,1,.964.759A3.232,3.232,0,0,1,9.4,24.161a4.908,4.908,0,0,1,0,2.707,3.122,3.122,0,0,1-.579,1.107,2.847,2.847,0,0,1-.964.751,3.1,3.1,0,0,1-1.373.28,3.155,3.155,0,0,1-1.379-.28,2.714,2.714,0,0,1-.964-.751,3.175,3.175,0,0,1-.571-1.107,4.774,4.774,0,0,1-.188-1.36m4.687,0a3.242,3.242,0,0,0-.37-1.694,1.318,1.318,0,0,0-1.215-.6,1.321,1.321,0,0,0-1.195.6A3.117,3.117,0,0,0,4.9,25.507a3.267,3.267,0,0,0,.372,1.708,1.312,1.312,0,0,0,1.211.6,1.325,1.325,0,0,0,1.2-.6,3.162,3.162,0,0,0,.387-1.708m6.44-3.318c.131-.023.264-.041.405-.051s.272-.014.4-.014.288,0,.44.014.286.029.419.051L8.2,33.858c-.155.025-.295.041-.432.053s-.264.016-.395.016a4.644,4.644,0,0,1-.841-.07Zm-1.553,8.369a4.66,4.66,0,0,1,.19-1.344,3.283,3.283,0,0,1,.569-1.115,2.737,2.737,0,0,1,.966-.761,3.217,3.217,0,0,1,1.381-.278,3.163,3.163,0,0,1,1.371.278,2.851,2.851,0,0,1,.966.761,3.226,3.226,0,0,1,.577,1.115,4.732,4.732,0,0,1,.19,1.344,4.834,4.834,0,0,1-.19,1.365,3.2,3.2,0,0,1-.577,1.1,2.843,2.843,0,0,1-.966.749,3.1,3.1,0,0,1-1.371.282,3.157,3.157,0,0,1-1.381-.282,2.73,2.73,0,0,1-.966-.749,3.252,3.252,0,0,1-.569-1.1,4.761,4.761,0,0,1-.19-1.365m4.689,0a3.254,3.254,0,0,0-.37-1.692,1.316,1.316,0,0,0-1.213-.6,1.323,1.323,0,0,0-1.2.6,3.111,3.111,0,0,0-.387,1.692,3.263,3.263,0,0,0,.37,1.708,1.317,1.317,0,0,0,1.215.6,1.324,1.324,0,0,0,1.2-.6,3.157,3.157,0,0,0,.387-1.708" transform="translate(4.867 24.342)" fill="#153364" stroke="#153364" stroke-width="1"/>
        <path id="パス_173" data-name="パス 173" d="M16.194,34.445a3.432,3.432,0,0,1-1.489-.307,2.976,2.976,0,0,1-1.056-.82,3.531,3.531,0,0,1-.616-1.193,5.044,5.044,0,0,1-.2-1.436,4.978,4.978,0,0,1,.2-1.418,3.533,3.533,0,0,1,.616-1.2,2.96,2.96,0,0,1,1.056-.833,3.791,3.791,0,0,1,2.97,0,3.072,3.072,0,0,1,1.054.831,3.51,3.51,0,0,1,.624,1.2,5.185,5.185,0,0,1,0,2.856,3.427,3.427,0,0,1-.624,1.195,3.1,3.1,0,0,1-1.052.816,3.376,3.376,0,0,1-1.483.309m0-7a2.935,2.935,0,0,0-1.268.256,2.468,2.468,0,0,0-.878.687,3.084,3.084,0,0,0-.524,1.031,4.384,4.384,0,0,0-.18,1.27,4.474,4.474,0,0,0,.18,1.291A3.013,3.013,0,0,0,14.048,33a2.481,2.481,0,0,0,.878.679,3.256,3.256,0,0,0,2.529,0,2.628,2.628,0,0,0,.88-.683,2.857,2.857,0,0,0,.526-1.017,4.362,4.362,0,0,0,.182-1.289,4.3,4.3,0,0,0-.182-1.27,2.949,2.949,0,0,0-.526-1.029,2.613,2.613,0,0,0-.88-.691,2.928,2.928,0,0,0-1.26-.254M7.51,34.312a4.908,4.908,0,0,1-.888-.072.259.259,0,0,1-.19-.153.253.253,0,0,1,.025-.241l7.974-11.671a.264.264,0,0,1,.17-.108c.137-.023.276-.041.423-.053a6.039,6.039,0,0,1,.882,0c.158.012.307.031.446.053a.257.257,0,0,1,.194.153.264.264,0,0,1-.025.243L8.545,34.132a.254.254,0,0,1-.172.11c-.162.025-.307.043-.45.053s-.274.016-.413.016m-.395-.526a4.579,4.579,0,0,0,.767,0c.1-.006.2-.016.3-.033l7.674-11.229a6.455,6.455,0,0,0-.8,0c-.092.008-.184.018-.274.033Zm9.079-.532a1.568,1.568,0,0,1-1.434-.722,3.533,3.533,0,0,1-.407-1.843,3.345,3.345,0,0,1,.428-1.831,1.57,1.57,0,0,1,1.414-.72,1.568,1.568,0,0,1,1.432.724,3.519,3.519,0,0,1,.407,1.827,3.392,3.392,0,0,1-.426,1.847,1.577,1.577,0,0,1-1.414.718m0-4.6a1.069,1.069,0,0,0-.982.485,2.884,2.884,0,0,0-.348,1.555,3.087,3.087,0,0,0,.331,1.575,1.077,1.077,0,0,0,1,.479,1.077,1.077,0,0,0,.984-.485,2.956,2.956,0,0,0,.344-1.569,3.041,3.041,0,0,0-.331-1.559,1.075,1.075,0,0,0-1-.481m-9.576.741a3.452,3.452,0,0,1-1.491-.3,2.98,2.98,0,0,1-1.052-.824,3.376,3.376,0,0,1-.616-1.191,5.114,5.114,0,0,1-.2-1.434,5.055,5.055,0,0,1,.2-1.42,3.5,3.5,0,0,1,.616-1.2,2.952,2.952,0,0,1,1.054-.831,3.42,3.42,0,0,1,1.489-.3,3.372,3.372,0,0,1,1.485.307,3.043,3.043,0,0,1,1.047.826,3.408,3.408,0,0,1,.626,1.2,5.007,5.007,0,0,1,.2,1.422,5.114,5.114,0,0,1-.2,1.434,3.379,3.379,0,0,1-.628,1.195,3.1,3.1,0,0,1-1.047.818,3.4,3.4,0,0,1-1.485.3m0-7a2.9,2.9,0,0,0-1.266.256,2.425,2.425,0,0,0-.876.685,2.968,2.968,0,0,0-.526,1.029,4.645,4.645,0,0,0,0,2.561,2.875,2.875,0,0,0,.522,1.019,2.491,2.491,0,0,0,.878.681,2.9,2.9,0,0,0,1.268.254,2.884,2.884,0,0,0,1.26-.252,2.615,2.615,0,0,0,.878-.685,2.935,2.935,0,0,0,.534-1.017,4.591,4.591,0,0,0,.178-1.287,4.484,4.484,0,0,0-.18-1.275,3.021,3.021,0,0,0-.532-1.027,2.615,2.615,0,0,0-.878-.689,2.9,2.9,0,0,0-1.26-.254m0,5.81a1.551,1.551,0,0,1-1.43-.726,3.5,3.5,0,0,1-.409-1.839,3.307,3.307,0,0,1,.43-1.833,1.563,1.563,0,0,1,1.41-.718,1.566,1.566,0,0,1,1.432.722,3.517,3.517,0,0,1,.407,1.829,3.329,3.329,0,0,1-.43,1.845,1.56,1.56,0,0,1-1.41.72m0-4.6a1.066,1.066,0,0,0-.98.485,2.856,2.856,0,0,0-.348,1.555,3.012,3.012,0,0,0,.333,1.571,1.061,1.061,0,0,0,.994.483,1.072,1.072,0,0,0,.982-.485,2.912,2.912,0,0,0,.346-1.569,3.023,3.023,0,0,0-.331-1.561,1.072,1.072,0,0,0-1-.479" transform="translate(4.735 24.211)" fill="#153364"/>
        <path id="パス_174" data-name="パス 174" d="M8.682,28.861c-3.034,0-3.846-9.071-3.846-14.431S5.648,0,8.682,0s3.846,9.071,3.846,14.431q0,.948-.031,1.862a.79.79,0,0,1-.841.794.82.82,0,0,1-.794-.843c.016-.593.027-1.2.027-1.813,0-7.848-1.459-12.5-2.24-12.8-.716.295-2.175,4.951-2.175,12.8s1.455,12.489,2.236,12.8c-.01-.025.61-.4,1.234-3.007a.818.818,0,1,1,1.592.383c-.685,2.864-1.618,4.257-2.854,4.257" transform="translate(6.385 1.328)" fill="#153364" stroke="#153364" stroke-width="1"/>
      </g>
    </g>
  </g>
</svg>
