<svg xmlns="http://www.w3.org/2000/svg" xmlns:xlink="http://www.w3.org/1999/xlink" width="143.2" height="143.2" viewBox="0 0 143.2 143.2">
  <defs>
    <clipPath id="clip-path">
      <rect id="長方形_196" data-name="長方形 196" width="74.928" height="71.381" fill="#153364"/>
    </clipPath>
  </defs>
  <g id="グループ_378" data-name="グループ 378" transform="translate(-3303.4 -2728.503)">
    <g id="グループ_296" data-name="グループ 296" transform="translate(3303.401 2728.503)">
      <circle id="楕円形_14" data-name="楕円形 14" cx="71.6" cy="71.6" r="71.6" transform="translate(0)" fill="#ebf3ff"/>
      <g id="グループ_386" data-name="グループ 386" transform="translate(34.136 35.909)">
        <g id="グループ_385" data-name="グループ 385" clip-path="url(#clip-path)">
          <path id="パス_135" data-name="パス 135" d="M28.938,44.294c4.775-5.055,8.372-9.2,8.372-13.552,0-4.457-2.916-7.338-7.427-7.338-3.447,0-5.634,1.842-7.319,3.643l-.5.536,2.624,2.572.522-.61c1.424-1.662,2.9-2.5,4.389-2.5,3.191,0,3.667,2.379,3.667,3.8,0,3.553-3.975,7.771-10.523,14.3l-.221.22v2.624h15.9V44.246H30.868c-.628,0-1.286.017-1.93.048" fill="#153364"/>
          <path id="パス_136" data-name="パス 136" d="M53.3,23.85H49.386L39.146,38.944v2.637h10.2v6.4H53.3v-6.4h3.179V38.009H53.3ZM44.1,38.009l4.812-6.967L48.936,31c.15-.254.3-.5.448-.744-.021.545-.034,1.063-.034,1.477v6.28Z" fill="#153364"/>
          <path id="パス_137" data-name="パス 137" d="M35.373,64.772c-.462.848-1.511,1.517-4.23,2.934a13.227,13.227,0,0,1-6.16,1.715,13.075,13.075,0,0,1-5.905-1.552c-5.039-2.509-9.625-8.382-13.6-16.06S-.668,37,.184,31.427c.794-5.207,3.258-7.794,7.079-9.778,2.474-1.282,3.648-1.788,4.562-1.788a2.466,2.466,0,0,1,.275.015c1.285.144,3.263,2.168,3.874,6.33.635,4.345-.953,6.787-2.8,7.124a4.867,4.867,0,0,1-.785.058,20.448,20.448,0,0,1-4.148-.66,1.144,1.144,0,0,0-.217-.024c-.553,0-.924.535-.88,1.585.173,3.878,1.742,8.565,4.677,14.22s5.857,9.639,8.928,12.014a2.021,2.021,0,0,0,1.174.511.752.752,0,0,0,.727-.511c.264-.636,1.26-3.3,2.353-4.383a3.018,3.018,0,0,1,2.165-.8c1.449,0,3.3.756,5.261,2.611,3.046,2.9,3.561,5.684,2.94,6.821" fill="#153364"/>
          <path id="パス_138" data-name="パス 138" d="M39.272,0A35.641,35.641,0,0,0,8.842,17.111a7.711,7.711,0,0,1,2.984-.665,6.027,6.027,0,0,1,.66.038,4.975,4.975,0,0,1,1.443.4,31.6,31.6,0,1,1,1,38.9l-3.152,2.611A35.666,35.666,0,0,0,32.662,70.763h0c.027.006.055.009.083.014.506.094,1.015.18,1.529.252l.029,0c.491.069.986.126,1.484.174L36,71.23q.73.066,1.468.1c.095,0,.191.008.286.012.5.022,1.009.036,1.517.036A35.691,35.691,0,0,0,39.272,0" fill="#153364"/>
        </g>
      </g>
    </g>
  </g>
</svg>
