<svg id="グループ_360" data-name="グループ 360" xmlns="http://www.w3.org/2000/svg" xmlns:xlink="http://www.w3.org/1999/xlink" width="143.2" height="143.2" viewBox="0 0 143.2 143.2">
  <defs>
    <clipPath id="clip-path">
      <rect id="長方形_187" data-name="長方形 187" width="75" height="60" fill="#153364"/>
    </clipPath>
  </defs>
  <circle id="楕円形_14" data-name="楕円形 14" cx="71.6" cy="71.6" r="71.6" fill="#ebf3ff"/>
  <g id="グループ_367" data-name="グループ 367" transform="translate(34 42)">
    <g id="グループ_366" data-name="グループ 366" clip-path="url(#clip-path)">
      <path id="パス_122" data-name="パス 122" d="M37.5,51.041A16.418,16.418,0,1,1,53.917,34.624,16.436,16.436,0,0,1,37.5,51.041m0-30A13.583,13.583,0,1,0,51.082,34.624,13.6,13.6,0,0,0,37.5,21.041" transform="translate(0 -0.001)" fill="#153364"/>
      <rect id="長方形_185" data-name="長方形 185" width="30" height="2.835" transform="translate(22.5 33.205)" fill="#153364"/>
      <path id="パス_123" data-name="パス 123" d="M36.763,50.834c-.332-.2-8.118-5.072-8.118-16.21s7.786-16.009,8.118-16.211l1.475,2.421-.738-1.21.742,1.207c-.276.171-6.762,4.3-6.762,13.793a16.4,16.4,0,0,0,6.758,13.789Z" transform="translate(0 -0.001)" fill="#153364"/>
      <rect id="長方形_186" data-name="長方形 186" width="2.835" height="30" transform="translate(36.082 19.623)" fill="#153364"/>
      <path id="パス_124" data-name="パス 124" d="M38.36,50.75,36.64,48.5a17.584,17.584,0,0,0,0-27.745L38.357,18.5a20.417,20.417,0,0,1,0,32.255" transform="translate(0 -0.001)" fill="#153364"/>
      <path id="パス_125" data-name="パス 125" d="M37.5,29.953a46.531,46.531,0,0,1-6.284-.432l-.1-.013a46.056,46.056,0,0,1-6.616-1.4l.8-2.719a43.435,43.435,0,0,0,6.11,1.3l.1.013a43.307,43.307,0,0,0,11.834.021A43.527,43.527,0,0,0,49.7,25.388l.8,2.719a46.148,46.148,0,0,1-6.776,1.423,46.526,46.526,0,0,1-6.221.423" transform="translate(0 -0.001)" fill="#153364"/>
      <path id="パス_126" data-name="パス 126" d="M25.3,43.859l-.8-2.72a46.187,46.187,0,0,1,6.615-1.4l.1-.013A46.846,46.846,0,0,1,50.5,41.139l-.8,2.72a44.053,44.053,0,0,0-18.19-1.312l-.1.013a43.32,43.32,0,0,0-6.109,1.3" transform="translate(0 -0.001)" fill="#153364"/>
      <path id="パス_127" data-name="パス 127" d="M69.6,0H5.4A5.4,5.4,0,0,0,0,5.4V54.6A5.4,5.4,0,0,0,5.4,60H69.6A5.4,5.4,0,0,0,75,54.6V5.4A5.4,5.4,0,0,0,69.6,0M23.008,5.437a2.5,2.5,0,1,1-2.5,2.5,2.5,2.5,0,0,1,2.5-2.5m-7.419,0a2.5,2.5,0,1,1-2.5,2.5,2.5,2.5,0,0,1,2.5-2.5m-7.42,0a2.5,2.5,0,1,1-2.5,2.5,2.5,2.5,0,0,1,2.5-2.5M69.331,54.331H5.669V15.875H69.331Z" transform="translate(0 -0.001)" fill="#153364"/>
    </g>
  </g>
</svg>
