<svg xmlns="http://www.w3.org/2000/svg" xmlns:xlink="http://www.w3.org/1999/xlink" width="143.2" height="143.2" viewBox="0 0 143.2 143.2">
  <defs>
    <clipPath id="clip-path">
      <rect id="長方形_197" data-name="長方形 197" width="75.071" height="77.206" transform="translate(0 0)" fill="#153364"/>
    </clipPath>
  </defs>
  <g id="グループ_370" data-name="グループ 370" transform="translate(-3303.4 -2728.503)">
    <g id="グループ_296" data-name="グループ 296" transform="translate(3303.401 2728.503)">
      <circle id="楕円形_14" data-name="楕円形 14" cx="71.6" cy="71.6" r="71.6" transform="translate(0)" fill="#ebf3ff"/>
    </g>
    <g id="グループ_389" data-name="グループ 389" transform="translate(3337.465 2761.499)">
      <g id="グループ_388" data-name="グループ 388" clip-path="url(#clip-path)">
        <path id="パス_139" data-name="パス 139" d="M11.89,12.666,21.774,29.8l3.563-2.059L16,11.556a19.525,19.525,0,0,0-4.11,1.11" fill="#153364"/>
        <path id="パス_140" data-name="パス 140" d="M33.307,56.313l-6.048,3.495L20.083,47.367l-7.175-12.44,6.048-3.495L8.9,14.007a30.8,30.8,0,0,0-5.752,3.814C-.221,20.706-.529,27.176.565,32.918c1.164,6.116,3.788,12.839,8.417,20.865s9.134,13.661,13.844,17.729C27.247,75.331,33,78.3,37.181,76.817a30.823,30.823,0,0,0,6.177-3.079Z" fill="#153364"/>
        <path id="パス_141" data-name="パス 141" d="M46.011,71.821a19.576,19.576,0,0,0,3.015-3.008L39.688,52.625l-3.563,2.059Z" fill="#153364"/>
        <path id="パス_142" data-name="パス 142" d="M72.4,49.2a2.206,2.206,0,0,1-2.179-2.562c1.351-8.246-.438-16.715-5.316-25.173S53.593,7.22,45.785,4.269A2.205,2.205,0,0,1,47.344.143C56.131,3.464,63.324,9.9,68.725,19.259s7.368,18.813,5.849,28.09A2.207,2.207,0,0,1,72.4,49.2" fill="#153364"/>
        <path id="パス_143" data-name="パス 143" d="M60.945,48.736a2.207,2.207,0,0,1-2.168-2.622c1.08-5.612-.391-12.456-4.036-18.776S45.91,16.32,40.516,14.451a2.205,2.205,0,1,1,1.444-4.167c6.382,2.211,12.433,7.624,16.6,14.85s5.825,15.176,4.547,21.813a2.206,2.206,0,0,1-2.163,1.789" fill="#153364"/>
        <path id="パス_144" data-name="パス 144" d="M49.489,48.274a2.207,2.207,0,0,1-2.135-2.763c.651-2.5-.1-7.657-2.778-12.3s-6.764-7.873-9.25-8.557A2.2,2.2,0,1,1,36.495,20.4c4.112,1.131,8.9,5.393,11.9,10.6S52.7,42.5,51.621,46.625a2.206,2.206,0,0,1-2.132,1.649" fill="#153364"/>
      </g>
    </g>
  </g>
</svg>
