<svg xmlns="http://www.w3.org/2000/svg" xmlns:xlink="http://www.w3.org/1999/xlink" width="91" height="91" viewBox="0 0 91 91">
  <defs>
    <clipPath id="clip-path">
      <rect id="長方形_225" data-name="長方形 225" width="42.037" height="49.812" fill="none"/>
    </clipPath>
  </defs>
  <g id="グループ_440" data-name="グループ 440" transform="translate(-3463 -3919)">
    <circle id="楕円形_32" data-name="楕円形 32" cx="45.5" cy="45.5" r="45.5" transform="translate(3463 3919)" fill="#ecf3fe"/>
    <g id="グループ_434" data-name="グループ 434" transform="translate(3487 3938)">
      <g id="グループ_433" data-name="グループ 433" clip-path="url(#clip-path)">
        <path id="パス_177" data-name="パス 177" d="M38.275,31.97H34.8a8.609,8.609,0,0,1,1.13,3.684c0,.042,0,.085.006.126h2.468V72.765H3.624V35.781H6.18c0-.042,0-.085.006-.126a8.6,8.6,0,0,1,1.13-3.684H3.762A3.626,3.626,0,0,0,0,35.419V72.985a3.626,3.626,0,0,0,3.762,3.449H38.275a3.626,3.626,0,0,0,3.762-3.449V35.419a3.626,3.626,0,0,0-3.762-3.449" transform="translate(0 -26.622)" fill="#153364"/>
        <path id="パス_178" data-name="パス 178" d="M45.182,96.349H49.7a1.631,1.631,0,0,0,1.7-1.554V90.651A1.631,1.631,0,0,0,49.7,89.1h-4.52a1.632,1.632,0,0,0-1.7,1.554v4.144a1.632,1.632,0,0,0,1.7,1.554m.173-5.539h4.173v3.826H45.355Z" transform="translate(-35.551 -74.193)" fill="#153364"/>
        <path id="パス_179" data-name="パス 179" d="M45.182,157H49.7a1.631,1.631,0,0,0,1.7-1.554V151.3a1.631,1.631,0,0,0-1.7-1.554h-4.52a1.632,1.632,0,0,0-1.7,1.554v4.143a1.632,1.632,0,0,0,1.7,1.554m.173-5.539h4.173v3.826H45.355Z" transform="translate(-35.551 -124.699)" fill="#153364"/>
        <path id="パス_180" data-name="パス 180" d="M45.182,217.657H49.7a1.631,1.631,0,0,0,1.7-1.554v-4.143a1.631,1.631,0,0,0-1.7-1.554h-4.52a1.632,1.632,0,0,0-1.7,1.554V216.1a1.632,1.632,0,0,0,1.7,1.554m.173-5.539h4.173v3.826H45.355Z" transform="translate(-35.551 -175.209)" fill="#153364"/>
        <path id="パス_181" data-name="パス 181" d="M106.962,104.664a1.025,1.025,0,1,0,1.114,1.022,1.071,1.071,0,0,0-1.114-1.022" transform="translate(-86.533 -87.156)" fill="#153364"/>
        <path id="パス_182" data-name="パス 182" d="M128.5,104.664a1.025,1.025,0,1,0,1.114,1.022,1.071,1.071,0,0,0-1.114-1.022" transform="translate(-104.142 -87.156)" fill="#153364"/>
        <path id="パス_183" data-name="パス 183" d="M150.04,104.664a1.025,1.025,0,1,0,1.114,1.022,1.071,1.071,0,0,0-1.114-1.022" transform="translate(-121.75 -87.156)" fill="#153364"/>
        <path id="パス_184" data-name="パス 184" d="M171.579,104.664a1.025,1.025,0,1,0,1.114,1.022,1.071,1.071,0,0,0-1.114-1.022" transform="translate(-139.359 -87.156)" fill="#153364"/>
        <path id="パス_185" data-name="パス 185" d="M106.962,163.016a1.025,1.025,0,1,0,1.114,1.022,1.071,1.071,0,0,0-1.114-1.022" transform="translate(-86.533 -135.747)" fill="#153364"/>
        <path id="パス_186" data-name="パス 186" d="M128.5,163.016a1.025,1.025,0,1,0,1.114,1.022,1.071,1.071,0,0,0-1.114-1.022" transform="translate(-104.142 -135.747)" fill="#153364"/>
        <path id="パス_187" data-name="パス 187" d="M150.04,163.016a1.025,1.025,0,1,0,1.114,1.022,1.071,1.071,0,0,0-1.114-1.022" transform="translate(-121.75 -135.747)" fill="#153364"/>
        <path id="パス_188" data-name="パス 188" d="M171.579,163.016a1.025,1.025,0,1,0,1.114,1.022,1.071,1.071,0,0,0-1.114-1.022" transform="translate(-139.359 -135.747)" fill="#153364"/>
        <path id="パス_189" data-name="パス 189" d="M106.962,221.367a1.025,1.025,0,1,0,1.114,1.022,1.071,1.071,0,0,0-1.114-1.022" transform="translate(-86.533 -184.338)" fill="#153364"/>
        <path id="パス_190" data-name="パス 190" d="M128.5,221.367a1.025,1.025,0,1,0,1.114,1.022,1.071,1.071,0,0,0-1.114-1.022" transform="translate(-104.142 -184.338)" fill="#153364"/>
        <path id="パス_191" data-name="パス 191" d="M150.04,221.367a1.025,1.025,0,1,0,1.114,1.022,1.071,1.071,0,0,0-1.114-1.022" transform="translate(-121.75 -184.338)" fill="#153364"/>
        <path id="パス_192" data-name="パス 192" d="M171.579,221.367a1.025,1.025,0,1,0,1.114,1.022,1.071,1.071,0,0,0-1.114-1.022" transform="translate(-139.359 -184.338)" fill="#153364"/>
        <path id="パス_193" data-name="パス 193" d="M71.578,9.159a6.945,6.945,0,0,0-1.469-3.811c-1.553-1.977-3.832-1.5-7.036-1.832a4.138,4.138,0,0,0-8.181,0c-3.2.334-5.484-.145-7.036,1.832a6.945,6.945,0,0,0-1.469,3.811Z" transform="translate(-37.922)" fill="#153364"/>
      </g>
    </g>
  </g>
</svg>
