<svg xmlns="http://www.w3.org/2000/svg" xmlns:xlink="http://www.w3.org/1999/xlink" width="91" height="91" viewBox="0 0 91 91">
  <defs>
    <clipPath id="clip-path">
      <rect id="長方形_224" data-name="長方形 224" width="53.942" height="52.312" transform="translate(-2 -2)" fill="none"/>
    </clipPath>
  </defs>
  <g id="グループ_439" data-name="グループ 439" transform="translate(-3286 -3919)">
    <circle id="楕円形_31" data-name="楕円形 31" cx="45.5" cy="45.5" r="45.5" transform="translate(3286 3919)" fill="#ecf3fe"/>
    <g id="グループ_432" data-name="グループ 432" transform="translate(3308 3938.997)">
      <g id="グループ_431" data-name="グループ 431" transform="translate(0 0.003)" clip-path="url(#clip-path)">
        <path id="パス_175" data-name="パス 175" d="M47.852,32.13h0a1.013,1.013,0,0,0-1.013,1.013V45.355a.932.932,0,0,1-.932.932H2.958a.932.932,0,0,1-.932-.932V19.1H48.866V9.991a2.958,2.958,0,0,0-2.958-2.958H38.121a1.279,1.279,0,0,0,.021-.23V1.3a1.3,1.3,0,0,0-1.3-1.3A1.273,1.273,0,0,0,35.6,1.275V6.8a1.279,1.279,0,0,0,.021.23H13.248a1.28,1.28,0,0,0,.021-.23V1.3a1.3,1.3,0,0,0-1.3-1.3,1.273,1.273,0,0,0-1.249,1.273V6.8a1.28,1.28,0,0,0,.021.23H2.958A2.958,2.958,0,0,0,0,9.991V45.355a2.958,2.958,0,0,0,2.958,2.958H45.907a2.958,2.958,0,0,0,2.958-2.958V33.143a1.013,1.013,0,0,0-1.013-1.013" transform="translate(0 -0.002)" fill="#153364" stroke="#153364" stroke-width="1"/>
        <rect id="長方形_213" data-name="長方形 213" width="4.01" height="4.01" transform="translate(12.326 22.252)" fill="#153364"/>
        <rect id="長方形_214" data-name="長方形 214" width="4.01" height="4.01" transform="translate(19.06 22.252)" fill="#153364"/>
        <rect id="長方形_215" data-name="長方形 215" width="4.01" height="4.01" transform="translate(25.795 22.252)" fill="#153364"/>
        <rect id="長方形_216" data-name="長方形 216" width="4.01" height="4.01" transform="translate(32.53 22.252)" fill="#153364"/>
        <rect id="長方形_217" data-name="長方形 217" width="4.01" height="4.01" transform="translate(39.264 22.252)" fill="#153364"/>
        <rect id="長方形_218" data-name="長方形 218" width="4.01" height="4.01" transform="translate(5.591 30.359)" fill="#153364"/>
        <rect id="長方形_219" data-name="長方形 219" width="4.01" height="4.01" transform="translate(12.326 30.359)" fill="#153364"/>
        <rect id="長方形_220" data-name="長方形 220" width="4.01" height="4.01" transform="translate(19.06 30.359)" fill="#153364"/>
        <rect id="長方形_221" data-name="長方形 221" width="4.01" height="4.01" transform="translate(5.591 38.465)" fill="#153364"/>
        <rect id="長方形_222" data-name="長方形 222" width="4.01" height="4.01" transform="translate(12.326 38.465)" fill="#153364"/>
        <rect id="長方形_223" data-name="長方形 223" width="4.01" height="4.01" transform="translate(19.06 38.465)" fill="#153364"/>
        <path id="パス_176" data-name="パス 176" d="M1880.231,1482.208a1.793,1.793,0,0,0-2.536,0l-14.919,14.92-4.753-4.753a1.793,1.793,0,0,0-2.535,2.536l6.021,6.021a1.793,1.793,0,0,0,2.535,0l16.188-16.187a1.793,1.793,0,0,0,0-2.536" transform="translate(-1828.814 -1459.796)" fill="#153364"/>
      </g>
    </g>
  </g>
</svg>
