<svg xmlns="http://www.w3.org/2000/svg" width="1022" height="263" viewBox="0 0 1022 263"><g transform="translate(-301 -8342)"><g transform="translate(0 878.674)"><path d="M98,1.5H0v-3H98Z" transform="translate(761.5 7594.3)" fill="#707070"/><path d="M98,1.5H0v-3H98Z" transform="translate(810.5 7545.3) rotate(90)" fill="#707070"/></g><rect width="416" height="263" transform="translate(301 8342)" fill="#e3f3ff"/><g transform="translate(0 -1)"><path d="M-49.92-8c-.352-.416-1.312-1.376-2.3-2.368.864-.864,1.888-2.08,2.944-3.2l-1.952-1.568a38.723,38.723,0,0,1-2.336,3.456c-.384-.384-.768-.736-1.056-.992a34.347,34.347,0,0,0,4.032-7.456l-1.664-1.12-.544.128h-2.112v-5.728h-2.912v5.728H-62.24v2.72H-54.3A29.819,29.819,0,0,1-63.1-7.872a12.724,12.724,0,0,1,1.6,2.656,29.965,29.965,0,0,0,3.68-3.424V2.528h2.912V-9.792a45.281,45.281,0,0,1,3.2,4.064Zm15.968-16.16H-50.72v2.816H-45.7c-.16,8.256-.64,16.96-7.488,21.6a9.7,9.7,0,0,1,2.272,2.3c7.2-5.28,8.032-14.816,8.288-23.9h5.6c-.288,13.792-.64,19.04-1.568,20.128a1.266,1.266,0,0,1-1.248.544c-.7,0-2.336,0-4.128-.16a7.423,7.423,0,0,1,.96,3.072,26.116,26.116,0,0,0,4.576-.064A3.113,3.113,0,0,0-35.84.544c1.184-1.6,1.536-7.04,1.888-23.1ZM-25.024-10.5h4.992v2.752h-4.992Zm4.992-9.728v2.4h-4.992v-2.4Zm-4.992,4.736h4.992v2.656h-4.992Zm9.92,7.744H-17.28v-12.48h2.3v-2.592h-2.3V-26.5h-2.752v3.68h-4.992V-26.5h-2.688v3.68H-30.3v2.592h2.592v12.48h-2.976v2.592H-15.1ZM-26.5-4.64A15.8,15.8,0,0,1-30.784.8a15.173,15.173,0,0,1,2.368,1.76A22.378,22.378,0,0,0-23.68-3.872Zm4.608,1.152A33.112,33.112,0,0,1-18.56,1.376l2.4-1.44a30.553,30.553,0,0,0-3.456-4.672Zm10.976-7.328c.064-1.024.064-2.048.064-2.976v-1.7h5.632v4.672Zm5.7-11.808v4.512h-5.632v-4.512Zm2.88-2.688H-13.664v11.52c0,4.576-.224,10.56-2.752,14.72a10.458,10.458,0,0,1,2.368,1.728C-12.224-.256-11.456-4.32-11.1-8.128h5.888v7.1c0,.512-.192.64-.672.672-.416,0-2.016.032-3.52-.032a10.209,10.209,0,0,1,.864,2.816c2.368.032,3.9-.032,4.864-.544C-2.688,1.44-2.336.576-2.336-.992ZM7.04-19.968h4.032a4.861,4.861,0,0,1-.32,1.5H6.528Zm6.752-3.424h4.352v1.568H13.792Zm11.392,0v1.568H20.96v-1.568Zm-7.04,4.928H13.6a7.732,7.732,0,0,0,.16-1.5h4.384Zm8.832,1.824a2.406,2.406,0,0,1-.384,1.248.79.79,0,0,1-.672.224c-.352,0-1.152-.032-2.048-.128a7.111,7.111,0,0,1,.416.992H20.96V-16.64Zm-3.328,5.792H8.7V-12.48H23.648Zm0,3.392H8.7V-9.12H23.648Zm0,3.392H8.7V-5.728H23.648Zm-5.5-12.576V-14.3H11.008a6.417,6.417,0,0,0,1.984-2.336ZM5.792-2.272H26.656v-11.1c.256,0,.48-.032.64-.032a2.482,2.482,0,0,0,1.7-.64c.48-.544.7-1.568.9-3.552,0-.32.032-.864.032-.864H20.96v-1.5H27.9v-5.28H20.96v-1.6H18.144v1.6H13.792v-1.6H11.1v1.6H3.552v1.856H11.1v1.568H4.864a44.43,44.43,0,0,1-1.92,5.408l2.752.16.16-.384h3.68c-1.312,1.216-3.648,2.176-7.776,2.848a9.472,9.472,0,0,1,1.408,2.3,24.827,24.827,0,0,0,2.624-.576Zm5.28.032A38.235,38.235,0,0,1,1.728.448,15.535,15.535,0,0,1,3.9,2.624a43.628,43.628,0,0,0,9.824-3.648ZM18.24-.7A73.241,73.241,0,0,1,27.008,2.56l3.264-1.5c-2.3-.96-6.208-2.272-9.664-3.3ZM49.728-9.792v-4.736h7.744v4.736Zm-10.048,0c.1-1.184.128-2.368.128-3.456v-1.28h6.944v4.736Zm7.072-12.032v4.512H39.808v-4.512Zm10.72,4.512H49.728v-4.512h7.744Zm2.976-7.36H36.864V-13.28c0,4.512-.32,10.176-3.808,14.048A9.849,9.849,0,0,1,35.392,2.72c2.336-2.592,3.488-6.176,4-9.7h7.36V2.176h2.976V-6.976h7.744v5.728c0,.608-.224.8-.8.8-.608,0-2.72.032-4.768-.064a12.3,12.3,0,0,1,.992,2.88c2.944.032,4.8-.032,5.984-.512,1.152-.448,1.568-1.344,1.568-3.072Z" transform="translate(509 8441)" fill="#153364"/><g transform="translate(-4.685 -25.975)"><path d="M2.484-15.156V-23.4h7.884v8.244ZM-10.08-23.4h7.344v8.244H-10.08Zm25.74-5.184h-31V3.384h5.256V-9.972H10.368v7.416c0,.648-.252.864-.936.864S6.372-1.656,4.5-1.8A18.51,18.51,0,0,1,6.372,3.42c3.2,0,5.436-.108,7.092-.972s2.2-2.268,2.2-4.932Z" transform="translate(633.041 8531.749)" fill="#153364"/><path d="M-92.728-46.23h-8.442l-7.571,5.092v9.045l6.633-4.355V0h9.38ZM-47.3-32.16c0-10.787-7.236-14.673-15.544-14.673S-78.39-42.947-78.39-32.093v17.956C-78.39-3.752-71.154.6-62.846.6S-47.3-3.752-47.3-14.137Zm-9.38.871v16.348c0,4.958-2.01,7.638-6.164,7.638-4.221,0-6.231-2.68-6.231-7.638V-31.289c0-4.958,2.01-7.638,6.231-7.638C-58.692-38.927-56.682-36.247-56.682-31.289Zm45.56-.871c0-10.787-7.236-14.673-15.544-14.673S-42.21-42.947-42.21-32.093v17.956C-42.21-3.752-34.974.6-26.666.6s15.544-4.355,15.544-14.74Zm-9.38.871v16.348c0,4.958-2.01,7.638-6.164,7.638-4.221,0-6.231-2.68-6.231-7.638V-31.289c0-4.958,2.01-7.638,6.231-7.638C-22.512-38.927-20.5-36.247-20.5-31.289ZM4.556-10.452H-4.556V10.854L4.556,3.082ZM42.21-32.16c0-10.787-7.236-14.673-15.544-14.673s-15.544,3.886-15.544,14.74v17.956C11.122-3.752,18.358.6,26.666.6S42.21-3.752,42.21-14.137Zm-9.38.871v16.348c0,4.958-2.01,7.638-6.164,7.638-4.221,0-6.231-2.68-6.231-7.638V-31.289c0-4.958,2.01-7.638,6.231-7.638C30.82-38.927,32.83-36.247,32.83-31.289Zm45.56-.871c0-10.787-7.236-14.673-15.544-14.673S47.3-42.947,47.3-32.093v17.956C47.3-3.752,54.538.6,62.846.6S78.39-3.752,78.39-14.137Zm-9.38.871v16.348C69.01-9.983,67-7.3,62.846-7.3c-4.221,0-6.231-2.68-6.231-7.638V-31.289c0-4.958,2.01-7.638,6.231-7.638C67-38.927,69.01-36.247,69.01-31.289Zm45.56-.871c0-10.787-7.236-14.673-15.544-14.673s-15.544,3.886-15.544,14.74v17.956C83.482-3.752,90.718.6,99.026.6s15.544-4.355,15.544-14.74Zm-9.38.871v16.348c0,4.958-2.01,7.638-6.164,7.638-4.221,0-6.231-2.68-6.231-7.638V-31.289c0-4.958,2.01-7.638,6.231-7.638C103.18-38.927,105.19-36.247,105.19-31.289Z" transform="translate(494.685 8536)" fill="#153364"/></g><path d="M-86.38-7.6a13.325,13.325,0,0,0,3.96,9.56l1.52-.72A12.447,12.447,0,0,1-84.58-7.6a12.447,12.447,0,0,1,3.68-8.84l-1.52-.72A13.325,13.325,0,0,0-86.38-7.6Zm14.9,1.76a36.727,36.727,0,0,0-2.64-2.7v-.92h2.34v-1.76h-2.34v-3.1a24.411,24.411,0,0,0,2.48-.78l-1.28-1.42a29.4,29.4,0,0,1-6.24,1.6,5.733,5.733,0,0,1,.54,1.44c.86-.12,1.78-.26,2.7-.46v2.72H-79v1.76h2.84A20.384,20.384,0,0,1-79.38-3.6a10.016,10.016,0,0,1,.9,1.72,19.721,19.721,0,0,0,2.56-4.66V1.54h1.8V-6.7a24.836,24.836,0,0,1,1.56,2.32Zm2.18-5.34h5.68V-7.8H-69.3ZM-63.76-.36c-.34,0-.4-.06-.4-.62V-6.16h2.4V-12.8h-2.02a36.1,36.1,0,0,0,2.04-3.36l-1.9-.64a17.745,17.745,0,0,1-1.74,3.42l1.48.58h-5.02l1.32-.6a14.362,14.362,0,0,0-1.82-3.36l-1.54.66a15.456,15.456,0,0,1,1.66,3.3h-1.76v6.64h1.84c-.28,2.72-.96,5.04-4.02,6.32A5.182,5.182,0,0,1-72.12,1.6c3.5-1.56,4.42-4.4,4.72-7.76h1.44v5.2c0,1.72.36,2.28,1.9,2.28h1.54c1.28,0,1.74-.7,1.88-3.38a5.293,5.293,0,0,1-1.6-.72c-.04,2.12-.12,2.42-.48,2.42ZM-52.5-8.34l-2.16.66v-3.6h2.02V-13h-2.02v-3.8h-1.82V-13h-2.54v1.72h2.54v4.12c-1.06.3-2.04.58-2.84.78l.48,1.88c.72-.22,1.52-.48,2.36-.74v4.7c0,.3-.1.38-.38.38-.26.02-1.08.02-1.92-.02a6.671,6.671,0,0,1,.54,1.7,7.1,7.1,0,0,0,2.8-.3c.58-.3.78-.8.78-1.76V-5.82c.8-.26,1.62-.54,2.4-.8Zm8.3.6a13.15,13.15,0,0,1-1.88,4.22,13.432,13.432,0,0,1-2.36-4.22Zm.92-1.74-.32.04h-4.74c.08-.78.14-1.56.18-2.36h7.22v-1.72H-48.1c.02-1.1.04-2.18.04-3.26h-1.8c0,1.08-.02,2.16-.04,3.26h-2.5v1.72h2.46C-50.16-7.04-51-2.5-54.38.22a4.746,4.746,0,0,1,1.34,1.26A12.535,12.535,0,0,0-49.1-5.18a14.864,14.864,0,0,0,1.9,3.02A9.642,9.642,0,0,1-50.58.06a7.036,7.036,0,0,1,1.06,1.5A12.238,12.238,0,0,0-45.98-.86a11.584,11.584,0,0,0,4.16,2.48A6.625,6.625,0,0,1-40.64.02,11.321,11.321,0,0,1-44.8-2.24a16.069,16.069,0,0,0,2.64-6.92Zm13.12-4.42.06.18a40.7,40.7,0,0,1-6.44-.26l.12,1.82A47.4,47.4,0,0,0-29.6-12c.14.42.28.88.46,1.4.1.28.22.58.34.88a46.736,46.736,0,0,1-8.12-.12l.1,1.86a63.843,63.843,0,0,0,8.76,0A20.619,20.619,0,0,0-26.7-5.46c-.62-.06-1.82-.18-2.78-.28l-.16,1.52a44.158,44.158,0,0,1,4.52.62l1-1.48a5.219,5.219,0,0,1-.82-.94A18.818,18.818,0,0,1-26.18-8.2a32.572,32.572,0,0,0,3.46-.66l-.32-1.88a22.021,22.021,0,0,1-3.92.84c-.14-.38-.28-.74-.4-1.08-.14-.36-.26-.76-.4-1.18a27.66,27.66,0,0,0,3.84-.78l-.26-1.82a21.98,21.98,0,0,1-4.04.9,18.621,18.621,0,0,1-.42-2.26l-2.14.24C-30.54-15.22-30.34-14.54-30.16-13.9ZM-33.6-5.4l-1.96-.38a6.05,6.05,0,0,0-.84,3c.04,2.7,2.36,3.88,6.32,3.88A31.576,31.576,0,0,0-25.32.74l.1-2.02a23.626,23.626,0,0,1-4.88.44c-2.92,0-4.36-.74-4.36-2.32A3.84,3.84,0,0,1-33.6-5.4Zm19.98-2.2a13.325,13.325,0,0,0-3.96-9.56l-1.52.72A12.447,12.447,0,0,1-15.42-7.6,12.447,12.447,0,0,1-19.1,1.24l1.52.72A13.325,13.325,0,0,0-13.62-7.6Z" transform="translate(657.356 8539.774)" fill="#153364"/></g><rect width="416" height="183" transform="translate(907 8342)" fill="#e3f3ff"/><g transform="translate(0 -7.674)"><path d="M-101.792-24.928l-1.824,2.752c1.984,1.12,5.408,3.392,7.04,4.576l1.888-2.752C-96.192-21.44-99.808-23.808-101.792-24.928Zm-5.28,22.816,1.888,3.3A37.494,37.494,0,0,0-94.56-2.784,38.094,38.094,0,0,0-82.048-14.24L-84-17.632A32.913,32.913,0,0,1-96.256-5.76,35.141,35.141,0,0,1-107.072-2.112Zm.416-15.552-1.824,2.752a80.086,80.086,0,0,1,7.136,4.48l1.856-2.848C-100.992-14.336-104.64-16.608-106.656-17.664Zm53.216-3.872-2.08-1.536a9.706,9.706,0,0,1-2.784.32H-70.176a34.237,34.237,0,0,1-3.488-.224v3.616c.512-.032,2.24-.192,3.488-.192h11.744A26.327,26.327,0,0,1-63.52-11.1,35.956,35.956,0,0,1-76.672-1.728L-74.08.992A42.008,42.008,0,0,0-61.76-8.224,71.815,71.815,0,0,1-53.28,1.12l2.816-2.5a85.055,85.055,0,0,0-9.152-9.376,43.8,43.8,0,0,0,5.248-9.12A11.046,11.046,0,0,1-53.44-21.536Zm12.608-2.528v3.3c.9-.064,2.08-.1,3.136-.1h12.9c.992,0,2.176.032,3.2.1v-3.3a27.362,27.362,0,0,1-3.2.224H-37.728A24.427,24.427,0,0,1-40.832-24.064Zm-3.776,8.128v3.3c.864-.064,1.952-.1,2.912-.1h9.248c-.128,2.88-.544,5.44-1.92,7.584a13.728,13.728,0,0,1-5.92,4.768l2.944,2.144a15.382,15.382,0,0,0,6.368-5.952,19.9,19.9,0,0,0,1.984-8.544h8.224c.832,0,1.952.032,2.688.1v-3.3c-.8.1-2.016.16-2.688.16H-41.7A28.04,28.04,0,0,1-44.608-15.936ZM.672-23.968l-4-.832a20.2,20.2,0,0,1-.7,3.328C-4.928-18.24-7.968-8.672-9.76-4.1c-.48.032-.928.032-1.312.064-.96.064-2.208.064-3.2.064L-13.7-.256c.96-.128,2.016-.288,2.816-.384,4.16-.384,14.4-1.5,19.488-2.112.672,1.472,1.248,2.88,1.664,4L13.664-.288A93.787,93.787,0,0,0,6.624-13.44L3.52-12.1a43.078,43.078,0,0,1,3.648,6.24C3.744-5.408-1.664-4.8-6.016-4.416-4.416-8.64-1.5-17.7-.544-20.736-.064-22.144.32-23.1.672-23.968ZM26.5-22.752a39.934,39.934,0,0,0,5.568-1.664L29.92-26.688c-3.04,1.344-8.384,2.464-13.024,3.168a8.825,8.825,0,0,1,.9,2.3c1.856-.224,3.84-.544,5.792-.928v4.768h-6.4v2.752h5.792a31.5,31.5,0,0,1-6.5,10.048A19.261,19.261,0,0,1,18.048-1.7a33.125,33.125,0,0,0,5.536-8.544v12.7H26.5V-9.408c1.5,1.44,3.2,3.2,4.1,4.224l1.7-2.528c-.864-.768-4.224-3.648-5.792-4.8v-2.112h5.792v-2.752H26.5Zm10.56-.288h-2.88v17.6h2.88Zm4.768-3.2V-1.248c0,.576-.224.768-.832.768-.64.032-2.656.032-4.832-.064a13.466,13.466,0,0,1,1.056,3.072c2.912,0,4.832-.1,6.016-.544C44.352,1.472,44.8.608,44.8-1.248V-26.24ZM65.248-9.792v-4.736h7.744v4.736Zm-10.048,0c.1-1.184.128-2.368.128-3.456v-1.28h6.944v4.736Zm7.072-12.032v4.512H55.328v-4.512Zm10.72,4.512H65.248v-4.512h7.744Zm2.976-7.36H52.384V-13.28c0,4.512-.32,10.176-3.808,14.048A9.849,9.849,0,0,1,50.912,2.72c2.336-2.592,3.488-6.176,4-9.7h7.36V2.176h2.976V-6.976h7.744v5.728c0,.608-.224.8-.8.8-.608,0-2.72.032-4.768-.064a12.3,12.3,0,0,1,.992,2.88c2.944.032,4.8-.032,5.984-.512,1.152-.448,1.568-1.344,1.568-3.072ZM102.4-20.928A25.813,25.813,0,0,0,97.344-24.8l-1.5,2.016a23.16,23.16,0,0,1,4.992,4.128Zm-1.376,7.616a26.76,26.76,0,0,0-5.344-3.616l-1.408,2.144a24.525,24.525,0,0,1,5.28,3.872Zm-9.568-11.68A56.622,56.622,0,0,1,89.5-17.7l1.92.608c.8-1.856,1.792-4.832,2.592-7.328Zm-6.4,7.264a32.637,32.637,0,0,0-1.76-7.136l-2.144.544a31.2,31.2,0,0,1,1.6,7.232ZM88.8-13.44h4.992v-2.784H88.8V-26.688H86.016v10.464h-4.96v2.784H85.12a31.621,31.621,0,0,1-4.608,9.184,15.916,15.916,0,0,1,1.44,2.976,33.238,33.238,0,0,0,4.064-8.48V2.5H88.8V-9.728c1.056,1.7,2.272,3.712,2.816,4.864L93.5-7.2c-.672-.96-3.744-4.864-4.7-5.888Zm21.6,6.432-.416-2.72-3.552.608v-17.7h-2.784V-8.608L93.7-6.816l.48,2.752,9.472-1.728v8.32h2.784V-6.3Z" transform="translate(1115 8411.674)" fill="#153364"/><g transform="translate(590.36 -55.025)"><path d="M2.208-13.472V-20.8H9.216v7.328ZM-8.96-20.8h6.528v7.328H-8.96Zm22.88-4.608H-13.632V3.008H-8.96V-8.864H9.216v6.592c0,.576-.224.768-.832.768S5.664-1.472,4-1.6A16.454,16.454,0,0,1,5.664,3.04c2.848,0,4.832-.1,6.3-.864S13.92.16,13.92-2.208Z" transform="translate(589.596 8524.996)" fill="#153364"/><path d="M-72.36-21.3c3.36,0,4.8,2.58,4.8,7.62,0,4.86-1.8,7.14-4.8,7.14-2.7,0-4.26-1.5-4.92-4.14h-8.28C-84.9-3.36-79.08.54-72.12.54c8.52,0,12.96-4.86,12.96-14.64,0-9.9-4.44-14.76-10.8-14.76a8.449,8.449,0,0,0-6.12,2.16v-7.08h15.36V-41.4H-84.3v23.16h7.56C-75.84-20.1-74.52-21.3-72.36-21.3Zm46.2-7.5c0-9.66-6.48-13.14-13.92-13.14S-54-38.46-54-28.74v16.08C-54-3.36-47.52.54-40.08.54s13.92-3.9,13.92-13.2Zm-8.4.78v14.64c0,4.44-1.8,6.84-5.52,6.84-3.78,0-5.58-2.4-5.58-6.84V-28.02c0-4.44,1.8-6.84,5.58-6.84C-36.36-34.86-34.56-32.46-34.56-28.02ZM-12.12-9.36h-8.16V9.72l8.16-6.96ZM21.6-28.8c0-9.66-6.48-13.14-13.92-13.14S-6.24-38.46-6.24-28.74v16.08C-6.24-3.36.24.54,7.68.54S21.6-3.36,21.6-12.66Zm-8.4.78v14.64c0,4.44-1.8,6.84-5.52,6.84-3.78,0-5.58-2.4-5.58-6.84V-28.02c0-4.44,1.8-6.84,5.58-6.84C11.4-34.86,13.2-32.46,13.2-28.02ZM54-28.8c0-9.66-6.48-13.14-13.92-13.14s-13.92,3.48-13.92,13.2v16.08c0,9.3,6.48,13.2,13.92,13.2S54-3.36,54-12.66Zm-8.4.78v14.64c0,4.44-1.8,6.84-5.52,6.84-3.78,0-5.58-2.4-5.58-6.84V-28.02c0-4.44,1.8-6.84,5.58-6.84C43.8-34.86,45.6-32.46,45.6-28.02Zm40.8-.78c0-9.66-6.48-13.14-13.92-13.14s-13.92,3.48-13.92,13.2v16.08c0,9.3,6.48,13.2,13.92,13.2S86.4-3.36,86.4-12.66Zm-8.4.78v14.64c0,4.44-1.8,6.84-5.52,6.84-3.78,0-5.58-2.4-5.58-6.84V-28.02c0-4.44,1.8-6.84,5.58-6.84C76.2-34.86,78-32.46,78-28.02Z" transform="translate(482.685 8529)" fill="#153364"/><path d="M.48,5.856H4.192l7.04-31.872H7.552Zm22.08-16.7c.1-1.056.16-2.112.192-3.072H34.624v3.072Zm12.064-10.56v3.072H22.752v-3.072Zm4.96-4.544H17.952v10.976c0,4.768-.384,10.752-5.088,14.656A18.043,18.043,0,0,1,16.48,3.04a17.012,17.012,0,0,0,5.376-9.376H34.624v3.68c0,.64-.256.9-.992.9-.768,0-3.456.032-5.5-.128a18.769,18.769,0,0,1,1.92,4.9c3.264,0,5.6-.1,7.3-.9,1.632-.768,2.24-2.08,2.24-4.7Z" transform="translate(611.596 8524.996)" fill="#153364"/></g><path d="M-77.742-6.84a11.992,11.992,0,0,0,3.564,8.6l1.368-.648A11.2,11.2,0,0,1-76.122-6.84,11.2,11.2,0,0,1-72.81-14.8l-1.368-.648A11.992,11.992,0,0,0-77.742-6.84Zm13.41,1.584a33.053,33.053,0,0,0-2.376-2.43v-.828H-64.6V-10.1h-2.106v-2.79a21.97,21.97,0,0,0,2.232-.7l-1.152-1.278a26.461,26.461,0,0,1-5.616,1.44,5.16,5.16,0,0,1,.486,1.3c.774-.108,1.6-.234,2.43-.414V-10.1H-71.1v1.584h2.556a18.346,18.346,0,0,1-2.9,5.274,9.014,9.014,0,0,1,.81,1.548,17.749,17.749,0,0,0,2.3-4.194V1.386h1.62V-6.03a22.352,22.352,0,0,1,1.4,2.088Zm1.962-4.806h5.112V-7.02H-62.37Zm4.986,9.738c-.306,0-.36-.054-.36-.558V-5.544h2.16V-11.52H-57.4a32.492,32.492,0,0,0,1.836-3.024l-1.71-.576a15.971,15.971,0,0,1-1.566,3.078l1.332.522h-4.518l1.188-.54a12.926,12.926,0,0,0-1.638-3.024l-1.386.594a13.91,13.91,0,0,1,1.494,2.97h-1.584v5.976H-62.3C-62.55-3.1-63.162-1.008-65.916.144a4.664,4.664,0,0,1,1.008,1.3c3.15-1.4,3.978-3.96,4.248-6.984h1.3v4.68c0,1.548.324,2.052,1.71,2.052h1.386c1.152,0,1.566-.63,1.692-3.042a4.764,4.764,0,0,1-1.44-.648c-.036,1.908-.108,2.178-.432,2.178ZM-47.25-7.506l-1.944.594v-3.24h1.818V-11.7h-1.818v-3.42h-1.638v3.42h-2.286v1.548h2.286v3.708c-.954.27-1.836.522-2.556.7l.432,1.692c.648-.2,1.368-.432,2.124-.666v4.23c0,.27-.09.342-.342.342-.234.018-.972.018-1.728-.018a6,6,0,0,1,.486,1.53A6.387,6.387,0,0,0-49.9,1.1c.522-.27.7-.72.7-1.584V-5.238c.72-.234,1.458-.486,2.16-.72Zm7.47.54a11.835,11.835,0,0,1-1.692,3.8,12.089,12.089,0,0,1-2.124-3.8Zm.828-1.566-.288.036h-4.266c.072-.7.126-1.4.162-2.124h6.5v-1.548H-43.29c.018-.99.036-1.962.036-2.934h-1.62c0,.972-.018,1.944-.036,2.934h-2.25v1.548h2.214c-.2,4.284-.954,8.37-4,10.818a4.271,4.271,0,0,1,1.206,1.134A11.282,11.282,0,0,0-44.19-4.662a13.378,13.378,0,0,0,1.71,2.718,8.678,8.678,0,0,1-3.042,2,6.332,6.332,0,0,1,.954,1.35A11.014,11.014,0,0,0-41.382-.774a10.426,10.426,0,0,0,3.744,2.232A5.963,5.963,0,0,1-36.576.018,10.189,10.189,0,0,1-40.32-2.016a14.462,14.462,0,0,0,2.376-6.228Zm11.808-3.978.054.162a36.63,36.63,0,0,1-5.8-.234l.108,1.638a42.664,42.664,0,0,0,6.138.144c.126.378.252.792.414,1.26.09.252.2.522.306.792a42.063,42.063,0,0,1-7.308-.108l.09,1.674a57.459,57.459,0,0,0,7.884,0A18.557,18.557,0,0,0-24.03-4.914c-.558-.054-1.638-.162-2.5-.252L-26.676-3.8a39.743,39.743,0,0,1,4.068.558l.9-1.332a4.7,4.7,0,0,1-.738-.846A16.937,16.937,0,0,1-23.562-7.38a29.315,29.315,0,0,0,3.114-.594l-.288-1.692a19.819,19.819,0,0,1-3.528.756c-.126-.342-.252-.666-.36-.972-.126-.324-.234-.684-.36-1.062a24.894,24.894,0,0,0,3.456-.7l-.234-1.638a19.782,19.782,0,0,1-3.636.81,16.76,16.76,0,0,1-.378-2.034l-1.926.216C-27.486-13.7-27.306-13.086-27.144-12.51Zm-3.1,7.65L-32-5.2a5.445,5.445,0,0,0-.756,2.7C-32.724-.072-30.636.99-27.072.99A28.418,28.418,0,0,0-22.788.666l.09-1.818a21.263,21.263,0,0,1-4.392.4c-2.628,0-3.924-.666-3.924-2.088A3.456,3.456,0,0,1-30.24-4.86Zm17.982-1.98a11.992,11.992,0,0,0-3.564-8.6l-1.368.648A11.2,11.2,0,0,1-13.878-6.84,11.2,11.2,0,0,1-17.19,1.116l1.368.648A11.992,11.992,0,0,0-12.258-6.84Z" transform="translate(1252.356 8499.774)" fill="#153364"/></g><rect width="416" height="80" transform="translate(907 8524.674)" fill="#ddd"/><g transform="translate(-3)"><path d="M-64.128-6.176a5.72,5.72,0,0,1-2.208,4.768A9.573,9.573,0,0,1-72.384.32a19.231,19.231,0,0,1-3.52-.3,10.557,10.557,0,0,1-2.784-.88V-4.128a20.037,20.037,0,0,0,3.008,1.04,13.515,13.515,0,0,0,3.52.464,5.575,5.575,0,0,0,3.456-.9,2.885,2.885,0,0,0,1.152-2.4A2.986,2.986,0,0,0-68.064-7.7,4.836,4.836,0,0,0-69.712-9.04a24.989,24.989,0,0,0-2.96-1.328,15.528,15.528,0,0,1-2.976-1.5A6.331,6.331,0,0,1-77.7-14.016a6.2,6.2,0,0,1-.736-3.136,5.293,5.293,0,0,1,2.048-4.416,8.486,8.486,0,0,1,5.376-1.6,14.583,14.583,0,0,1,3.44.384,19.68,19.68,0,0,1,3.024.992l-1.088,2.848a20.152,20.152,0,0,0-2.672-.9,11.129,11.129,0,0,0-2.8-.352,4.374,4.374,0,0,0-2.88.832,2.7,2.7,0,0,0-.992,2.176,3.131,3.131,0,0,0,.48,1.776A4.354,4.354,0,0,0-72.96-14.1a22.577,22.577,0,0,0,2.784,1.264,20.894,20.894,0,0,1,3.28,1.616,6.019,6.019,0,0,1,2.064,2.048A5.832,5.832,0,0,1-64.128-6.176ZM-49.7,0l-6.912-19.424h-.128q.064.672.112,1.744t.08,2.336q.032,1.264.032,2.448V0h-3.136V-22.848h4.928l6.56,18.336h.128l6.752-18.336h4.928V0h-3.36V-13.088q0-1.12.048-2.3t.1-2.24l.08-1.76h-.128L-46.72,0Zm32.544-6.176A5.719,5.719,0,0,1-19.36-1.408,9.573,9.573,0,0,1-25.408.32a19.231,19.231,0,0,1-3.52-.3,10.558,10.558,0,0,1-2.784-.88V-4.128A20.037,20.037,0,0,0-28.7-3.088a13.515,13.515,0,0,0,3.52.464,5.575,5.575,0,0,0,3.456-.9,2.885,2.885,0,0,0,1.152-2.4A2.986,2.986,0,0,0-21.088-7.7,4.836,4.836,0,0,0-22.736-9.04a24.99,24.99,0,0,0-2.96-1.328,15.528,15.528,0,0,1-2.976-1.5,6.331,6.331,0,0,1-2.048-2.144,6.2,6.2,0,0,1-.736-3.136,5.293,5.293,0,0,1,2.048-4.416,8.486,8.486,0,0,1,5.376-1.6,14.583,14.583,0,0,1,3.44.384,19.68,19.68,0,0,1,3.024.992l-1.088,2.848a20.152,20.152,0,0,0-2.672-.9,11.129,11.129,0,0,0-2.8-.352,4.374,4.374,0,0,0-2.88.832A2.7,2.7,0,0,0-28-17.184a3.131,3.131,0,0,0,.48,1.776A4.354,4.354,0,0,0-25.984-14.1,22.577,22.577,0,0,0-23.2-12.832a20.894,20.894,0,0,1,3.28,1.616,6.019,6.019,0,0,1,2.064,2.048A5.832,5.832,0,0,1-17.152-6.176Zm24.315.614q1.156.094,2.016.094t.859-.937V-7.937H5.444v.859l.063,3.719a.549.549,0,0,1-.055.32.433.433,0,0,1-.273.055H2.819q-.266,0-.312-.062a.63.63,0,0,1-.047-.312l.063-3.719v-.859H-1.634v1.219l.063,3.766a.508.508,0,0,1-.055.3.47.47,0,0,1-.289.055H-4.259a.531.531,0,0,1-.328-.062.583.583,0,0,1-.047-.3l.063-3.734v-9L-4.634-19.5q0-.25.063-.3a.63.63,0,0,1,.313-.047l4.266.063H1.726a26.511,26.511,0,0,0-2.75-1.859q-.187-.141-.187-.25t.25-.312L.616-23.266H-.571l-4.187.063q-.359,0-.359-.312v-2.141A.57.57,0,0,1-5.056-26a.583.583,0,0,1,.3-.047l4.188.063h9.5a2.592,2.592,0,0,0,.828-.094,1.322,1.322,0,0,1,.484-.125q.3,0,1.313.922.984.953.984,1.375t-.547.609a3.735,3.735,0,0,0-1.219.8,42.69,42.69,0,0,1-3.484,2.719H8.476l4.313-.062a.494.494,0,0,1,.313.063.538.538,0,0,1,.047.281l-.062,4.109v4.922l.063,4.547a3.3,3.3,0,0,1-.8,2.531,5.478,5.478,0,0,1-3.266.766,1.935,1.935,0,0,1-.875-.109,1.729,1.729,0,0,1-.219-.625A4.85,4.85,0,0,0,7.163-5.562ZM5.444-10.375h4.594v-2.266H5.444Zm4.594-6.937H5.444v2.266h4.594ZM-1.634-15.047H2.522v-2.266H-1.634Zm0,4.672H2.522v-2.266H-1.634ZM7.647-23.266H1.226a26.715,26.715,0,0,1,3.219,2.531A31.136,31.136,0,0,0,7.647-23.266ZM15.585-2.047A5.958,5.958,0,0,0,14.726.484q-.125.8-.312.922a2,2,0,0,1-.875.125Q7.9,1.891,2.179,1.891q-5.734,0-7.516-.891A7.167,7.167,0,0,1-8.571-1.922L-11.618.938a7.572,7.572,0,0,0-.641.625.535.535,0,0,1-.453.328q-.234,0-.453-.422a29.785,29.785,0,0,1-1.3-3,19.317,19.317,0,0,0,1.844-1.031,15.236,15.236,0,0,0,2.469-1.984v-7.141h-1.344l-2.234.078q-.281,0-.344-.078A.63.63,0,0,1-14.118-12v-2.437q0-.25.078-.3a.63.63,0,0,1,.313-.047l2.234.063h1.859l2.3-.062q.266,0,.313.063a.538.538,0,0,1,.047.281l-.062,3.047v6.813A5.509,5.509,0,0,0-4.321-1.922a18.1,18.1,0,0,0,6.016.672A116.352,116.352,0,0,0,15.585-2.047ZM-10.884-25.625a23.882,23.882,0,0,1,3.937,4.7.614.614,0,0,1,.125.266q0,.125-.312.375l-1.8,1.375a1.272,1.272,0,0,1-.406.219q-.109,0-.266-.25a23.62,23.62,0,0,0-3.828-5q-.172-.141-.172-.234,0-.125.3-.312l1.719-1.172a.87.87,0,0,1,.391-.172Q-11.071-25.828-10.884-25.625ZM30.6,2.391H28.007q-.25,0-.3-.062a.538.538,0,0,1-.047-.281l.063-4.266V-4.375l-.062-2.859q0-.312.344-.312l4.2.063h7.641l4.125-.062q.359,0,.359.313l-.062,2.469v2.484l.063,4.219q0,.328-.359.328H41.319q-.344,0-.344-.328V.984H30.96V2.047q0,.25-.062.3A.583.583,0,0,1,30.6,2.391Zm.359-7.156v3.031H40.976V-4.766ZM17.038-14.3a30.424,30.424,0,0,0,5.531-10.312,11.2,11.2,0,0,0,.547-2.3,28.006,28.006,0,0,1,2.953.859q.547.188.547.484a.983.983,0,0,1-.359.578,4.148,4.148,0,0,0-.641,1.344q-.7,2-1.531,3.891V-2.719l.063,4.859a.494.494,0,0,1-.062.313.583.583,0,0,1-.3.047H21.132q-.313,0-.312-.359l.063-4.859V-13.984a28.575,28.575,0,0,1-1.891,2.547q-.328.422-.578.422-.2,0-.344-.547A9.645,9.645,0,0,0,17.038-14.3Zm13.531-3.75-4.422.063q-.25,0-.3-.062a.689.689,0,0,1-.047-.312v-2.25a.531.531,0,0,1,.063-.328.538.538,0,0,1,.281-.047l4.422.063H42.085l4.391-.062q.266,0,.328.078a.583.583,0,0,1,.047.3v2.25a.531.531,0,0,1-.062.328.63.63,0,0,1-.312.047l-4.391-.062Zm8.984-4.641H32.647l-4,.063a.494.494,0,0,1-.312-.062.538.538,0,0,1-.047-.281v-2.156q0-.25.078-.3a.488.488,0,0,1,.281-.047l4,.063h6.906l3.938-.062a.57.57,0,0,1,.344.063.538.538,0,0,1,.047.281v2.156q0,.25-.078.3a.63.63,0,0,1-.312.047Zm-.25,9.031H32.679l-3.969.063q-.359,0-.359-.312v-2.125q0-.25.078-.3a.488.488,0,0,1,.281-.047l3.969.063H39.3l3.938-.062q.25,0,.3.063a.538.538,0,0,1,.047.281v2.125q0,.313-.344.313Zm0,4.406H32.679l-3.969.063A.494.494,0,0,1,28.4-9.25a.538.538,0,0,1-.047-.281v-2.094q0-.25.078-.3a.488.488,0,0,1,.281-.047l3.969.063H39.3l3.938-.062q.25,0,.3.063a.538.538,0,0,1,.047.281v2.094a.47.47,0,0,1-.055.289.47.47,0,0,1-.289.055ZM55.257-26.812q1.734.047,3.25.219.516.047.516.328a1.884,1.884,0,0,1-.2.672,12.07,12.07,0,0,0-.219,3.219v6.016h.25l3.453-.062q.266,0,.313.063a.583.583,0,0,1,.047.3V-13.8q0,.328-.359.328l-3.25-.062A30.422,30.422,0,0,0,63.366-8a9.652,9.652,0,0,0-1.281,2.109q-.281.578-.453.578t-.5-.484a26.8,26.8,0,0,1-2.594-4.578l.219,12.547q0,.25-.078.313a.583.583,0,0,1-.3.047H55.741q-.25,0-.3-.062a.583.583,0,0,1-.047-.3q0-.125.047-1.922.125-5.547.172-9.812a30.376,30.376,0,0,1-3.875,7.281q-.406.516-.578.516-.2,0-.375-.547a6.974,6.974,0,0,0-1.156-2.328,27.593,27.593,0,0,0,5.156-8.891H54.21l-3.484.063q-.359,0-.359-.328v-2.266q0-.266.063-.312a.583.583,0,0,1,.3-.047l3.484.063h1.313V-22.3A33.448,33.448,0,0,0,55.257-26.812ZM67.4-7.969l4.891-.953V-21.734a35.3,35.3,0,0,0-.266-4.859q1.875.047,3.406.219.484.063.484.359a2.689,2.689,0,0,1-.2.641,16.723,16.723,0,0,0-.187,3.547V-9.562q1.187-.25,2.109-.484.156-.031.531-.141.172-.031.234-.047a.862.862,0,0,1,.172-.031q.125,0,.188.344l.375,2.5q.016.125.016.156,0,.172-.328.219-.094.031-1.016.2-1.109.2-2.281.438v2.984l.063,5.531a.494.494,0,0,1-.062.313.583.583,0,0,1-.3.047H72.569q-.25,0-.3-.078a.488.488,0,0,1-.047-.281l.063-5.5V-5.766L67.9-4.891q-1.8.344-3.109.625-.281.047-.734.141-.2.047-.281.063a1.069,1.069,0,0,1-.2.031q-.187,0-.219-.281l-.406-2.531a1.317,1.317,0,0,1-.031-.219q0-.141.313-.2.078-.016.609-.094Q65.382-7.578,67.4-7.969Zm-1.547-9.141a21.389,21.389,0,0,1,4.422,4.094.616.616,0,0,1,.156.3q0,.109-.25.375L68.6-10.781q-.266.25-.375.25-.094,0-.266-.187a26.267,26.267,0,0,0-4.219-4.344,1.222,1.222,0,0,1-.219-.266q0-.094.25-.344l1.469-1.406q.219-.234.3-.234T65.851-17.109Zm.859-7.406a21.812,21.812,0,0,1,4.516,4.078.394.394,0,0,1,.141.266q0,.125-.234.344l-1.531,1.5q-.3.281-.391.281t-.219-.187a21.934,21.934,0,0,0-4.359-4.2q-.172-.109-.172-.234a.542.542,0,0,1,.234-.359L66.1-24.375q.281-.25.359-.25A.488.488,0,0,1,66.71-24.516Zm-7.516,5.922a28.329,28.329,0,0,0,1.469-4.828,10.725,10.725,0,0,0,.2-1.375q1.906.641,2.422.891.359.188.359.391a.323.323,0,0,1-.187.313,1.261,1.261,0,0,0-.391.719A40.589,40.589,0,0,1,61.6-18.422q-.281.672-.484.672a1.747,1.747,0,0,1-.641-.3A8.941,8.941,0,0,0,59.194-18.594Zm-6.172-5.687a26.453,26.453,0,0,1,1.719,5.375.67.67,0,0,1,.031.172q0,.234-.437.406l-1.375.516a1.509,1.509,0,0,1-.391.109q-.141,0-.187-.312a24.668,24.668,0,0,0-1.625-5.344.72.72,0,0,1-.062-.25q0-.172.406-.328l1.344-.547a.945.945,0,0,1,.313-.094Q52.882-24.578,53.022-24.281Z" transform="translate(1035 8577.674)" fill="#231815"/><g transform="translate(-20 -4)"><g transform="translate(633.404 56.674)"><path d="M2.208-13.472V-20.8H9.216v7.328ZM-8.96-20.8h6.528v7.328H-8.96Zm22.88-4.608H-13.632V3.008H-8.96V-8.864H9.216v6.592c0,.576-.224.768-.832.768S5.664-1.472,4-1.6A16.454,16.454,0,0,1,5.664,3.04c2.848,0,4.832-.1,6.3-.864S13.92.16,13.92-2.208Z" transform="translate(587.596 8525.996)" fill="#231815"/><path d="M-35.8-34.5h-6.3l-5.65,3.8v6.75l4.95-3.25V0h7ZM-25.25-9.6C-25.25-3.15-19.9.45-13.5.45S-1.75-3.15-1.75-9.6A9.1,9.1,0,0,0-6.9-17.9a8.611,8.611,0,0,0,4.65-7.6c0-6.1-5.35-9.45-11.25-9.45-5.85,0-11.25,3.35-11.25,9.45a8.611,8.611,0,0,0,4.65,7.6A9.278,9.278,0,0,0-25.25-9.6Zm7-.65a4.722,4.722,0,0,1,4.75-4.8,4.793,4.793,0,0,1,4.8,4.8A4.844,4.844,0,0,1-13.5-5.4,4.739,4.739,0,0,1-18.25-10.25Zm.45-14.55a4.257,4.257,0,0,1,4.3-4.25A4.289,4.289,0,0,1-9.2-24.8a4.343,4.343,0,0,1-4.3,4.35A4.311,4.311,0,0,1-17.8-24.8Z" transform="translate(568.685 8530)" fill="#231815"/></g><g transform="translate(5)"><path d="M2.24-14.028v.98H-.14v-.98ZM5.488-20.1a16.062,16.062,0,0,1-1.4,1.008c-.924-.364-1.848-.728-2.66-1.008Zm2.8,6.076v.98H5.852v-.98ZM5.852-9.24v-1.036H8.288V-9.24Zm-5.992,0v-1.036H2.24V-9.24Zm0,2.884H2.24V-2.52H5.852V-6.356H8.288v.532c0,.28-.084.392-.392.392-.252,0-1.12,0-1.764-.028A12.222,12.222,0,0,1,7.112-2.3a7.927,7.927,0,0,0,3.78-.56c1.008-.532,1.26-1.344,1.26-2.912V-16.912H8.82c-.42-.224-.924-.476-1.456-.728a36.044,36.044,0,0,0,4.676-3.752L9.66-23.324l-.784.2H-3.556V-20.1H.98l-2.464,2.016c.84.336,1.82.756,2.772,1.176H-3.948v14.5H-.14ZM-5.1-19.152A25.35,25.35,0,0,0-10.08-23.38l-2.8,2.632a24.833,24.833,0,0,1,4.76,4.536ZM-6.048-13.1h-7.2v3.752h3.3v5.46c-1.2.84-2.52,1.6-3.668,2.24l1.848,4.06c1.568-1.176,2.8-2.184,4-3.22,1.652,2.128,3.724,2.856,6.916,3,3.584.168,9.548.112,13.216-.084a18.623,18.623,0,0,1,1.26-3.948,133.567,133.567,0,0,1-14.42.28C-3.416-1.68-5.1-2.38-6.048-4.144Z" transform="translate(1289 8582)" fill="#231815"/><path d="M-33.818,6.734h3.626l9.176-36.556H-24.6ZM-6.512-25.53h-4.662l-4.181,2.812v4.995l3.663-2.4V0h5.18Z" transform="translate(1275.007 8584)" fill="#231815"/></g></g></g></g></svg>