<svg xmlns="http://www.w3.org/2000/svg" xmlns:xlink="http://www.w3.org/1999/xlink" width="143.2" height="143.2" viewBox="0 0 143.2 143.2">
  <defs>
    <clipPath id="clip-path">
      <rect id="長方形_201" data-name="長方形 201" width="48.793" height="82.5" fill="#153364"/>
    </clipPath>
  </defs>
  <g id="グループ_373" data-name="グループ 373" transform="translate(-3303.4 -2728.503)">
    <g id="グループ_296" data-name="グループ 296" transform="translate(3303.401 2728.503)">
      <circle id="楕円形_14" data-name="楕円形 14" cx="71.6" cy="71.6" r="71.6" transform="translate(0)" fill="#ebf3ff"/>
      <g id="グループ_393" data-name="グループ 393" transform="translate(47.203 36.35)">
        <g id="グループ_392" data-name="グループ 392" clip-path="url(#clip-path)">
          <path id="パス_149" data-name="パス 149" d="M7.52,18.891,7.4,27.076a24.554,24.554,0,0,1-6.752-4.6A2.308,2.308,0,0,1,.16,20.056a2.4,2.4,0,0,1,2.108-1.428c.34-.026.8-.046,1.33-.046a24.116,24.116,0,0,1,3.922.309" fill="#153364"/>
          <path id="パス_150" data-name="パス 150" d="M48.718,32.859c-.33,1.541-.758,8.938-.923,11.453-.211,3.195-4.52,16.318-4.123,19.359s3.9,11.943,3.9,11.943L24.735,82.5s-2.4-9.752-3.577-11.381c-.938-1.3-3.933-3.917-5.294-5.881a64.361,64.361,0,0,0-5.8-7.736c-.34-.335-.742-.706-1.165-1.083a8.823,8.823,0,0,0,1.644.4,3.3,3.3,0,0,0,.4.021,3.388,3.388,0,0,0,2.923-1.567,4.355,4.355,0,0,0,.077-4.386l21.323.324h.088a5.593,5.593,0,0,0,5.567-5.479l.438-29.745c1.335-1.036,3.175-.129,3.87.881,1.48,2.139,1.521,9.577,2.7,10.866.913,1,.954,4.355.789,5.123" fill="#153364"/>
          <path id="パス_151" data-name="パス 151" d="M36.023.351,13.37,0A3.382,3.382,0,0,0,9.942,3.325l-.4,27.328a8.974,8.974,0,0,1,1.485,1.7,4.93,4.93,0,0,1-.088,4.932A3.468,3.468,0,0,1,9.422,38.6l-.005.515A12.041,12.041,0,0,1,11.2,40.8a4.882,4.882,0,0,1,.268,5.154,3.661,3.661,0,0,1-1.4,1.464,3.423,3.423,0,0,0,2.577,1.257l22.653.345A3.378,3.378,0,0,0,38.729,45.7l.618-41.92A3.373,3.373,0,0,0,36.023.351M34.358,44.626l-20.638-.32L14.308,4.4l20.643.319Z" fill="#153364"/>
          <path id="パス_152" data-name="パス 152" d="M18.729,4.325A2.77,2.77,0,0,0,21.237,7.3l6.7.1a2.77,2.77,0,0,0,2.6-2.9Z" fill="#153364"/>
          <path id="パス_153" data-name="パス 153" d="M12.025,54.084a1.216,1.216,0,0,1-1.093.568c-.057,0-.118-.006-.18-.01a19.894,19.894,0,0,1-6.077-2.558C3.144,50.729,3.252,49.847,3.593,49.1a2.249,2.249,0,0,1,1.907-1.3,1.517,1.517,0,0,1,.376.046c.928.227,5.577,3.113,6.1,4.025a2.2,2.2,0,0,1,.052,2.221" fill="#153364"/>
          <path id="パス_154" data-name="パス 154" d="M9.545,44.9a1.155,1.155,0,0,1-1.144.737c-.949-.093-5.443-1.912-6.438-2.948-.4-.418-1.634-1.9-.783-3.49a2.154,2.154,0,0,1,2.412-1.061c1.015.154,4.819,2.664,5.881,4.015A2.713,2.713,0,0,1,9.545,44.9" fill="#153364"/>
          <path id="パス_155" data-name="パス 155" d="M9.123,33.441C8.546,32.436,4.814,29.4,3.68,29.163a2.579,2.579,0,0,0-.546-.057,2.209,2.209,0,0,0-2.083,1.346c-.494,1.02.33,2.453,1.186,3.376a16.712,16.712,0,0,0,5.7,2.845,1.264,1.264,0,0,0,.135.005A1.148,1.148,0,0,0,9.1,36.1a2.726,2.726,0,0,0,.026-2.66" fill="#153364"/>
        </g>
      </g>
    </g>
  </g>
</svg>
